<svg width="425" height="402" viewBox="0 0 425 402" fill="none" xmlns="http://www.w3.org/2000/svg">
<path d="M202.514 0V85.5048H79.7052L75.2793 0.592753L202.514 0Z" fill="#E0E0E0"/>
<path d="M75.2793 0.602646V85.327L198.088 85.327V0.602646L75.2793 0.602646Z" fill="white"/>
<path d="M198.582 85.8111H74.7852V0.0987854H198.582V85.8111ZM75.7731 84.8232H197.594V1.08671H75.7731V84.8232Z" fill="#E0E0E0"/>
<path d="M184.781 11.124H88.5771V74.7957H184.781V11.124Z" fill="white"/>
<path d="M184.781 11.124H182.943H177.667L157.85 11.1932L88.5765 11.3117L88.8136 11.0746C88.8136 30.5269 88.8136 52.0834 88.8136 74.7365L88.5567 74.4796H184.761L184.563 74.6871C184.563 55.2941 184.642 39.4083 184.672 28.3435C184.672 22.8112 184.672 18.4643 184.721 15.5005C184.721 14.0384 184.721 12.9122 184.721 12.1416C184.721 11.371 184.721 10.9758 184.721 10.9758C184.721 10.9758 184.721 11.3414 184.721 12.0922C184.721 12.843 184.721 13.9693 184.721 15.4215C184.721 18.3853 184.721 22.663 184.771 28.1756C184.771 39.27 184.84 55.2052 184.879 74.608V74.8056H184.672L88.4678 74.8649H88.2109V74.608C88.2109 51.9549 88.2109 30.3984 88.2109 10.9462V10.7091H88.448L157.869 10.8277L177.628 10.8869H182.864H184.198L184.781 11.124Z" fill="#E0E0E0"/>
<path d="M75.2793 0.355652C76.0225 0.748359 76.7242 1.21505 77.3737 1.74862C78.6185 2.66739 80.3375 3.95169 82.175 5.43358C84.0125 6.91547 85.6525 8.30844 86.7985 9.38528C87.4611 9.90379 88.0582 10.5009 88.5768 11.1635C87.8767 10.72 87.2157 10.2176 86.6009 9.66189L81.8984 5.86827C80.13 4.45553 78.5394 3.16135 77.186 2.07464C76.4922 1.56978 75.8531 0.993639 75.2793 0.355652Z" fill="#E0E0E0"/>
<path d="M198.108 0.582886C196.057 2.53374 193.89 4.35817 191.617 6.0461C189.45 7.87243 187.174 9.56493 184.801 11.1142C186.853 9.16123 189.02 7.33355 191.291 5.64106C193.46 3.81963 195.736 2.13051 198.108 0.582886Z" fill="#E0E0E0"/>
<path d="M197.99 85.327L184.277 74.2326L197.99 85.327Z" fill="white"/>
<path d="M184.277 74.2326C186.716 75.8773 189.055 77.6653 191.282 79.5872C193.619 81.3705 195.853 83.2869 197.97 85.327C195.528 83.6866 193.185 81.9019 190.956 79.9823C188.621 78.1961 186.391 76.2763 184.277 74.2326Z" fill="#E0E0E0"/>
<path d="M75.2793 85.3171C77.3084 83.3874 79.4529 81.5828 81.7008 79.9132C83.8467 78.1088 86.1 76.4361 88.4483 74.9044C86.4217 76.8438 84.2736 78.6521 82.0169 80.3182C79.8799 82.1264 77.6294 83.7961 75.2793 85.3171Z" fill="#E0E0E0"/>
<path d="M126.325 31.7914V53.1108H151.458V31.7914H126.325Z" fill="#E0E0E0"/>
<path d="M91.5209 103.278V160.182L7.67578 159.382L8.1895 103.89L91.5209 103.278Z" fill="#E0E0E0"/>
<path d="M8.18945 103.89L8.18945 159.382H88.6262V103.89H8.18945Z" fill="white"/>
<path d="M89.1101 159.866H7.69531V103.386H89.1101V159.866ZM8.68324 158.878H88.1222V104.374H8.68324V158.878Z" fill="#E0E0E0"/>
<path d="M79.9131 110.776H16.9033V152.476H79.9131V110.776Z" fill="white"/>
<path d="M79.9131 110.776H79.597H78.698H75.2304L62.2392 110.835L16.9033 110.954L17.1306 110.717C17.1306 123.461 17.1306 137.578 17.1306 152.417L16.8737 152.15L79.8835 152.209L79.676 152.417C79.676 139.732 79.7551 129.339 79.7847 122.088C79.7847 118.472 79.7847 115.636 79.7847 113.69C79.7847 112.702 79.7847 112.001 79.7847 111.477C79.7847 110.954 79.7847 110.707 79.7847 110.707C79.7847 110.707 79.7847 110.944 79.7847 111.438C79.7847 111.932 79.7847 112.673 79.7847 113.611C79.7847 115.587 79.7847 118.363 79.844 121.959C79.844 129.24 79.9033 139.683 79.9428 152.417V152.614H79.7452L16.9033 152.723L16.6465 152.466C16.6465 137.647 16.6465 123.51 16.6465 110.766V110.529H16.8836L62.3775 110.647L75.3094 110.717H78.7276H79.6069L79.9131 110.776Z" fill="#E0E0E0"/>
<path d="M8.18945 103.732C9.79414 104.696 11.3056 105.807 12.7043 107.051C14.2117 108.166 15.6169 109.412 16.9029 110.776C15.2944 109.809 13.7796 108.695 12.3783 107.447C10.8715 106.339 9.46938 105.096 8.18945 103.732Z" fill="#E0E0E0"/>
<path d="M88.6167 103.88C87.338 105.227 85.9356 106.451 84.4279 107.536C83.0258 108.752 81.5145 109.837 79.9131 110.776C81.1965 109.437 82.5985 108.217 84.1019 107.13C85.5075 105.915 87.0184 104.828 88.6167 103.88Z" fill="#E0E0E0"/>
<path d="M88.5566 159.382L79.5566 152.111L88.5566 159.382Z" fill="white"/>
<path d="M79.5566 152.111C81.2048 153.119 82.7617 154.269 84.2098 155.549C85.7582 156.698 87.2028 157.98 88.527 159.382C86.8799 158.38 85.3259 157.233 83.8837 155.954C82.3293 154.805 80.8812 153.518 79.5566 152.111Z" fill="#E0E0E0"/>
<path d="M8.18945 159.372C9.45677 158.043 10.846 156.836 12.3387 155.766C13.7271 154.558 15.2254 153.483 16.814 152.555C15.5406 153.885 14.1484 155.095 12.6549 156.171C11.2703 157.376 9.77524 158.448 8.18945 159.372Z" fill="#E0E0E0"/>
<path d="M28.5801 124.755V138.714H68.2255V124.755H28.5801Z" fill="#E0E0E0"/>
<path d="M407.044 106.212H344.598L345.477 17.9407L406.373 17.5554L407.044 106.212Z" fill="#E0E0E0"/>
<path d="M401.255 17.9407H340.359V106.212H401.255V17.9407Z" fill="white"/>
<path d="M401.749 106.706H339.865V17.4467H401.749V106.706ZM340.853 105.718H400.761V18.4347H340.853V105.718Z" fill="#E0E0E0"/>
<path d="M393.697 27.5038H347.927V96.6585H393.697V27.5038Z" fill="white"/>
<path d="M393.717 96.6486C393.717 96.6486 393.717 96.5301 393.717 96.3127V95.3248C393.717 94.4455 393.717 93.1711 393.717 91.5213C393.717 88.192 393.717 83.361 393.648 77.2655C393.648 65.0746 393.579 47.8155 393.529 27.5038L393.767 27.7409H348.006L348.263 27.4841C348.263 53.5653 348.263 77.6113 348.203 96.6387L348.006 96.4412L381.289 96.5498H390.506H392.927H393.767C393.767 96.5498 393.51 96.5498 392.966 96.5498H390.585L381.417 96.5992L348.006 96.7079H347.798V96.5004C347.798 77.4829 347.798 53.4368 347.749 27.3457V27.2568H348.006H393.717H393.954V27.4939C393.954 47.8748 393.865 65.1832 393.836 77.4137C393.836 83.4895 393.836 88.2809 393.776 91.6201C393.776 93.2403 393.776 94.4949 393.776 95.3742C393.776 95.7792 393.776 96.0954 393.776 96.3621C393.765 96.4592 393.745 96.5551 393.717 96.6486Z" fill="#E0E0E0"/>
<path d="M401.423 17.9407C400.385 19.7147 399.185 21.3882 397.837 22.9396C396.619 24.6037 395.228 26.1337 393.688 27.5038C394.833 25.8009 396.084 24.171 397.432 22.6235C398.646 20.9674 399.98 19.4023 401.423 17.9407Z" fill="#E0E0E0"/>
<path d="M401.255 106.212C399.81 104.788 398.488 103.244 397.303 101.598C395.972 100.054 394.773 98.402 393.717 96.6585C395.159 98.0887 396.48 99.635 397.668 101.282C398.999 102.823 400.198 104.472 401.255 106.212Z" fill="#E0E0E0"/>
<path d="M340.369 106.143L348.342 96.2633L340.369 106.143Z" fill="white"/>
<path d="M348.322 96.3028C347.2 98.0948 345.935 99.793 344.538 101.381C343.274 103.08 341.874 104.672 340.35 106.143C341.472 104.351 342.737 102.652 344.133 101.065C345.4 99.3682 346.801 97.7759 348.322 96.3028Z" fill="#E0E0E0"/>
<path d="M340.369 17.9407C341.814 19.3499 343.136 20.8802 344.321 22.5148C345.643 24.0541 346.826 25.707 347.858 27.4544C346.412 26.0452 345.09 24.5149 343.906 22.8803C342.584 21.3411 341.4 19.6881 340.369 17.9407Z" fill="#E0E0E0"/>
<path d="M379.431 41.5422H364.108V85.0504H379.431V41.5422Z" fill="#E0E0E0"/>
<path d="M424.343 401.048C424.343 401.186 329.69 401.305 212.927 401.305C96.1647 401.305 1.51172 401.186 1.51172 401.048C1.51172 400.909 96.145 400.791 212.927 400.791C329.71 400.791 424.343 400.909 424.343 401.048Z" fill="#263238"/>
<path d="M89.0024 363.111H77.2461V401.048H89.0024V363.111Z" fill="#263238"/>
<path d="M211.317 363.111H199.561V401.048H211.317V363.111Z" fill="#263238"/>
<path d="M137.331 363.111H125.575V401.048H137.331V363.111Z" fill="#263238"/>
<path d="M252.889 363.111H241.133V401.048H252.889V363.111Z" fill="#263238"/>
<path d="M253.165 366.994C257.161 367.028 261.044 365.664 264.141 363.138C267.239 360.613 269.356 357.084 270.128 353.163C272.943 338.868 276.569 318.872 276.678 296.427C276.747 282.655 273.714 265.218 269.406 252.128C263.192 233.002 249.875 216.148 230.532 210.635C205.419 203.473 196.32 206.219 178.508 215.575C159.134 225.731 153.889 244.788 133.725 253.274C114.144 261.503 90.533 258.698 72.6812 270.207C56.9732 280.333 49.3168 299.786 48.6944 318.467C48.2299 328.39 49.1947 338.328 51.5594 347.976C52.7238 352.934 55.5198 357.357 59.4988 360.535C63.4777 363.713 68.4089 365.462 73.5012 365.502L253.165 366.994Z" fill="#455A64"/>
<path d="M102.932 305.555L48.9911 376.883L30.1514 372.714L73.62 296.446L102.932 305.555Z" fill="#FFBE9D"/>
<path d="M49.5938 375.994L32.3347 401.868L0 380.548C2.22283 377.585 23.0384 382.415 23.0384 382.415L33.4215 365.364L49.5938 375.994Z" fill="#007BFC"/>
<g opacity="0.6">
<path opacity="0.6" d="M33.965 387.602C34.2127 387.901 34.3415 388.281 34.3269 388.669C34.3123 389.057 34.1554 389.427 33.886 389.706C33.5958 389.967 33.2167 390.106 32.8269 390.095C32.4372 390.084 32.0666 389.923 31.7916 389.647C31.5271 389.329 31.3906 388.925 31.4089 388.512C31.4271 388.099 31.5988 387.707 31.8904 387.414C32.221 387.177 32.6305 387.076 33.0336 387.133C33.4366 387.191 33.8021 387.401 34.0539 387.721" fill="white"/>
</g>
<g opacity="0.6">
<path opacity="0.6" d="M32.3347 401.868L33.9747 399.19L2.36114 379.748C2.36114 379.748 0.503841 379.432 0 380.548L32.3347 401.868Z" fill="white"/>
</g>
<path d="M22.6232 381.922C22.5244 382.08 23.2654 382.672 23.7099 383.7C24.1545 384.727 24.1249 385.676 24.3126 385.676C24.5003 385.676 24.8658 384.638 24.3126 383.413C23.7593 382.188 22.6825 381.734 22.6232 381.922Z" fill="#263238"/>
<path d="M18.3057 381.072C18.1674 381.2 18.6811 381.922 18.77 382.939C18.859 383.957 18.5626 384.767 18.77 384.915C18.9775 385.063 19.6197 384.184 19.4813 382.939C19.343 381.694 18.4144 380.934 18.3057 381.072Z" fill="#263238"/>
<path d="M13.7021 383.897C13.8306 384.026 14.5715 383.384 14.69 382.248C14.8086 381.111 14.3443 380.272 14.1961 380.37C14.0479 380.469 14.1961 381.23 14.038 382.149C13.8799 383.068 13.5638 383.739 13.7021 383.897Z" fill="#263238"/>
<path d="M25.4189 378.276C25.4189 378.464 26.2587 378.731 27.1083 379.373C27.9579 380.015 28.4716 380.766 28.6495 380.687C28.8273 380.608 28.521 379.6 27.5035 378.849C26.4859 378.098 25.4288 378.108 25.4189 378.276Z" fill="#263238"/>
<path d="M28.7187 374.947C28.7187 375.016 29.2325 375.52 30.3488 376.014C31.0007 376.293 31.6841 376.492 32.3839 376.606C32.7986 376.677 33.218 376.717 33.6386 376.725C33.8872 376.742 34.1368 376.722 34.3795 376.666C34.5563 376.622 34.7135 376.52 34.8262 376.377C34.9389 376.234 35.0007 376.058 35.0019 375.875C35 375.712 34.9575 375.551 34.8782 375.408C34.7989 375.265 34.6852 375.144 34.5475 375.055C34.3414 374.922 34.1189 374.816 33.8856 374.739C33.4839 374.598 33.0707 374.492 32.6507 374.423C31.944 374.309 31.2235 374.309 30.5168 374.423C29.3016 374.621 28.6595 375.036 28.699 375.105C28.7385 375.174 29.4202 374.957 30.5662 374.878C31.2279 374.846 31.8912 374.892 32.542 375.016C32.9242 375.1 33.3004 375.209 33.6682 375.342C34.0634 375.48 34.3598 375.668 34.3499 375.885C34.34 376.103 34.3499 375.984 34.1918 376.043C34.0114 376.066 33.8289 376.066 33.6485 376.043C33.2553 376.043 32.8625 376.017 32.4729 375.964C31.8017 375.884 31.14 375.738 30.497 375.53C29.9162 375.301 29.3224 375.106 28.7187 374.947Z" fill="#263238"/>
<path d="M28.7783 375.312C28.7783 375.372 29.4995 375.016 30.2306 374.028C30.6732 373.454 31.0079 372.805 31.2185 372.111C31.3456 371.704 31.4252 371.283 31.4556 370.857C31.5113 370.585 31.495 370.304 31.4084 370.04C31.3217 369.777 31.1677 369.541 30.9617 369.355C30.815 369.259 30.6432 369.207 30.4677 369.207C30.2921 369.207 30.1204 369.259 29.9737 369.355C29.7632 369.488 29.5735 369.651 29.4106 369.839C29.1179 370.164 28.8748 370.53 28.6894 370.926C28.3824 371.594 28.2433 372.326 28.2844 373.06C28.3634 374.315 28.8969 374.937 28.9463 374.888C28.8391 374.28 28.7731 373.666 28.7487 373.05C28.774 372.402 28.9427 371.768 29.2427 371.193C29.412 370.857 29.6282 370.548 29.8848 370.274C30.1614 369.968 30.4776 369.78 30.5764 369.898C30.6752 370.017 30.8431 370.442 30.7937 370.798C30.7713 371.184 30.7118 371.568 30.6159 371.943C30.4535 372.582 30.2007 373.194 29.8651 373.761C29.2624 374.749 28.7092 375.233 28.7783 375.312Z" fill="#263238"/>
<path d="M146.243 274.564H97.1528C91.8665 274.564 86.6678 275.914 82.0497 278.487C77.4316 281.059 73.5474 284.769 70.7654 289.264L47.9443 326.143L76.3373 343.323L99.8005 312.559L126.474 310.376L183.833 274.564H146.243Z" fill="#263238"/>
<path d="M120.507 305.555L66.5662 376.883L47.7363 372.714L91.1951 296.446L120.507 305.555Z" fill="#FFBE9D"/>
<path d="M67.1789 375.994L49.9198 401.868L17.5752 380.548C19.8079 377.585 40.6235 382.415 40.6235 382.415L50.9967 365.364L67.1789 375.994Z" fill="#007BFC"/>
<g opacity="0.6">
<path opacity="0.6" d="M51.5402 387.602C51.7899 387.9 51.9201 388.281 51.9055 388.669C51.8909 389.058 51.7326 389.428 51.4612 389.706C51.171 389.967 50.7919 390.106 50.4021 390.095C50.0124 390.084 49.6418 389.923 49.3668 389.647C49.1022 389.329 48.9658 388.925 48.984 388.512C49.0023 388.099 49.174 387.707 49.4656 387.414C49.7962 387.177 50.2057 387.076 50.6088 387.133C51.0118 387.191 51.3773 387.401 51.6291 387.721" fill="white"/>
</g>
<g opacity="0.6">
<path opacity="0.6" d="M49.9197 401.868L51.5597 399.19L19.9461 379.748C19.9461 379.748 18.0888 379.432 17.585 380.548L49.9197 401.868Z" fill="white"/>
</g>
<path d="M40.1983 381.922C40.0995 382.08 40.8503 382.672 41.285 383.7C41.7197 384.727 41.7098 385.676 41.8975 385.676C42.0852 385.676 42.4409 384.638 41.8975 383.413C41.3542 382.188 40.2675 381.734 40.1983 381.922Z" fill="#263238"/>
<path d="M35.891 381.072C35.7527 381.2 36.2566 381.922 36.3554 382.939C36.4542 383.957 36.138 384.767 36.2961 384.915C36.4542 385.063 37.1457 384.184 37.0074 382.939C36.8691 381.694 35.9898 380.934 35.891 381.072Z" fill="#263238"/>
<path d="M31.2873 383.897C31.4059 384.026 32.1468 383.384 32.2753 382.248C32.4037 381.111 31.9196 380.272 31.7714 380.37C31.6232 380.469 31.7714 381.23 31.6232 382.149C31.4751 383.068 31.149 383.739 31.2873 383.897Z" fill="#263238"/>
<path d="M43.0039 378.276C43.0039 378.464 43.8338 378.731 44.6933 379.373C45.5527 380.015 46.0566 380.766 46.2245 380.687C46.3925 380.608 46.0961 379.6 45.0884 378.849C44.0807 378.098 43.0039 378.108 43.0039 378.276Z" fill="#263238"/>
<path d="M46.2939 374.947C46.2939 375.016 46.8175 375.52 47.924 376.014C48.5759 376.293 49.2593 376.492 49.9591 376.606C50.3738 376.677 50.7932 376.717 51.2138 376.725C51.4623 376.742 51.7121 376.722 51.9547 376.666C52.1324 376.623 52.2905 376.522 52.4035 376.379C52.5164 376.235 52.5776 376.058 52.5771 375.875C52.5722 375.714 52.5294 375.555 52.4522 375.413C52.375 375.27 52.2655 375.148 52.1325 375.055C51.922 374.924 51.6965 374.818 51.4608 374.739C51.0621 374.599 50.6523 374.494 50.2357 374.423C49.5257 374.309 48.802 374.309 48.0919 374.423C46.8867 374.621 46.2346 375.036 46.2742 375.105C46.3137 375.174 47.0052 374.957 48.1413 374.878C48.8031 374.846 49.4663 374.892 50.1172 375.016C50.4964 375.099 50.8695 375.207 51.2335 375.342C51.6287 375.48 51.9251 375.668 51.9152 375.885C51.9053 376.103 51.9152 375.984 51.7571 376.043C51.5767 376.066 51.3942 376.066 51.2138 376.043C50.8206 376.043 50.4279 376.016 50.0382 375.964C49.3667 375.886 48.7048 375.74 48.0623 375.53C47.4849 375.3 46.8944 375.106 46.2939 374.947Z" fill="#263238"/>
<path d="M46.3536 375.312C46.3536 375.372 47.0847 375.016 47.8157 374.028C48.2507 373.449 48.5847 372.801 48.8037 372.111C48.9212 371.701 49.0006 371.281 49.0407 370.857C49.0935 370.585 49.0758 370.305 48.9893 370.042C48.9029 369.779 48.7505 369.542 48.5468 369.355C48.3992 369.261 48.2278 369.211 48.0528 369.211C47.8778 369.211 47.7064 369.261 47.5589 369.355C47.3512 369.488 47.1648 369.651 47.0056 369.839C46.7067 370.159 46.463 370.526 46.2844 370.926C45.9701 371.591 45.8274 372.325 45.8695 373.06C45.9485 374.315 46.482 374.937 46.5314 374.888C46.4303 374.279 46.3643 373.666 46.3338 373.05C46.3642 372.403 46.5326 371.77 46.8278 371.193C47.0007 370.86 47.2166 370.551 47.4699 370.274C47.7466 369.968 48.0627 369.78 48.1714 369.898C48.2681 370.025 48.3374 370.17 48.3748 370.325C48.4122 370.48 48.4169 370.641 48.3887 370.798C48.306 371.851 47.9669 372.869 47.4008 373.761C46.8476 374.749 46.2844 375.233 46.3536 375.312Z" fill="#263238"/>
<path d="M163.818 274.564H113.029C108.262 274.564 103.575 275.783 99.412 278.103C95.2487 280.423 91.7471 283.769 89.2395 287.822L65.5293 326.143L93.9222 343.323L119.282 310.08L144.099 310.376L199.304 275.907L163.818 274.564Z" fill="#263238"/>
<path d="M93.9024 343.323C93.7147 343.241 93.5331 343.145 93.3591 343.037L91.8179 342.138L85.9892 338.69L65.3909 326.341L65.1934 326.222L65.3218 326.025C69.8267 318.734 74.9046 310.149 80.5655 301.198C85.1692 293.927 89.7927 287.13 94.3964 281.242C95.5535 279.785 97.0491 278.632 98.7531 277.883C100.319 277.152 101.954 276.58 103.633 276.174C106.633 275.453 109.686 274.97 112.762 274.732C117.208 274.382 121.67 274.273 126.129 274.406C127.699 274.406 128.924 274.505 129.754 274.554L130.742 274.613H131.058H129.794L126.158 274.564C123.017 274.564 118.442 274.564 112.841 275.058C109.787 275.315 106.757 275.814 103.782 276.55C102.131 276.952 100.526 277.521 98.9902 278.249C97.3548 278.974 95.9205 280.086 94.8113 281.489C90.257 287.417 85.6533 294.164 81.0594 301.435C75.3986 310.376 70.3108 318.941 65.7664 326.222L65.6873 325.906L86.1275 338.453L91.8871 342.009L93.3986 342.997C93.5786 343.086 93.7477 343.195 93.9024 343.323Z" fill="#455A64"/>
<path d="M72.1187 329.957C72.2373 330.036 67.7323 338.077 62.0617 347.917C56.391 357.757 51.6687 365.7 51.5501 365.621C51.4316 365.542 55.9266 357.51 61.6072 347.66C67.2878 337.811 72.0002 329.888 72.1187 329.957Z" fill="#EB996E"/>
<path d="M239.414 214.162C239.485 214.276 239.548 214.395 239.602 214.518L240.115 215.595C240.56 216.583 241.202 217.946 242.032 219.724C242.437 220.623 242.901 221.631 243.405 222.688C243.909 223.745 244.324 225.029 244.838 226.333C245.351 227.637 245.885 229.05 246.458 230.532C247.031 232.014 247.574 233.624 248.108 235.304C248.641 236.983 249.204 238.761 249.797 240.599C250.103 241.518 250.35 242.476 250.597 243.444C250.844 244.412 251.101 245.42 251.358 246.408L252.148 249.48C252.287 250.004 252.415 250.528 252.553 251.061C252.692 251.595 252.771 252.138 252.889 252.681C253.324 254.855 253.772 257.091 254.233 259.389C255.996 269.406 257.049 279.534 257.384 289.699C257.588 299.853 257.189 310.01 256.189 320.117C255.626 324.76 255.201 329.186 254.46 333.296C254.124 335.351 253.848 337.337 253.472 339.223C253.097 341.11 252.761 342.948 252.425 344.687C251.793 348.164 251.022 351.276 250.449 354.013L249.57 357.826C249.254 358.992 248.977 360.059 248.72 361.017C248.207 362.904 247.811 364.376 247.535 365.413L247.209 366.549C247.176 366.681 247.133 366.81 247.08 366.935C247.095 366.801 247.122 366.669 247.159 366.54C247.225 366.25 247.314 365.864 247.426 365.384C247.683 364.396 248.058 362.864 248.523 360.968C248.77 359.98 249.036 358.933 249.333 357.777C249.629 356.621 249.866 355.317 250.173 353.953C250.765 351.207 251.516 348.095 252.148 344.618C252.465 342.879 252.81 341.051 253.136 339.164C253.462 337.277 253.739 335.272 254.055 333.237C254.747 329.137 255.181 324.721 255.735 320.077C256.706 309.989 257.092 299.852 256.89 289.719C256.571 279.593 255.548 269.501 253.828 259.518C253.383 257.226 252.939 254.993 252.514 252.82L252.188 251.209C252.059 250.676 251.921 250.152 251.793 249.639L251.012 246.566C250.765 245.578 250.508 244.59 250.261 243.602C250.014 242.614 249.787 241.626 249.481 240.767L247.831 235.472C247.308 233.782 246.843 232.172 246.221 230.7C245.598 229.228 245.134 227.805 244.64 226.491C244.146 225.178 243.721 223.933 243.247 222.836L241.914 219.823C241.133 218.035 240.521 216.632 240.086 215.654C239.888 215.19 239.74 214.834 239.622 214.567C239.537 214.441 239.467 214.305 239.414 214.162Z" fill="#263238"/>
<path d="M110.361 343.709C110.435 344.741 110.435 345.778 110.361 346.811C110.361 348.727 110.282 351.375 110.361 354.289C110.44 357.204 110.628 359.841 110.786 361.758C110.919 362.783 110.985 363.816 110.984 364.85C110.696 363.851 110.511 362.825 110.43 361.788C109.796 356.818 109.653 351.798 110.006 346.801C110.02 345.761 110.139 344.725 110.361 343.709Z" fill="#263238"/>
<path d="M154.956 227.47L144.899 261.879L107.684 265.87V272.479L162.375 273.24L169.824 228.428L154.956 227.47Z" fill="#FFBE9D"/>
<path d="M226.482 204.905C222.086 194.819 209.687 191.361 203.048 191.341C193.831 191.341 194.661 190.758 185.602 192.388H184.406C156.873 191.272 153.702 229.1 153.702 229.1L166.258 230.088L162.939 256.149L153.326 274.593L206.21 274.505L209.174 231.441L232.686 230.769C232.686 230.769 230.542 214.231 226.482 204.905Z" fill="#007BFC"/>
<path d="M167.779 213.085C167.917 213.085 166.989 222.283 165.705 233.595C164.42 244.906 163.254 254.064 163.116 254.055C162.978 254.045 163.907 244.847 165.191 233.535C166.475 222.224 167.641 213.066 167.779 213.085Z" fill="#263238"/>
<path d="M205.784 191.252C205.83 191.403 205.853 191.559 205.853 191.717C205.853 192.033 205.913 192.487 205.923 193.07C205.957 194.744 205.72 196.412 205.221 198.01C204.586 200.427 203.337 202.639 201.595 204.431C200.548 205.489 199.284 206.308 197.891 206.832C196.39 207.345 194.814 207.605 193.228 207.602C191.656 207.646 190.084 207.534 188.535 207.266C187.062 207.023 185.667 206.434 184.465 205.547C182.513 203.956 181.156 201.753 180.612 199.294C180.19 197.683 180.01 196.018 180.078 194.354C180.078 193.771 180.148 193.317 180.177 193.011C180.183 192.853 180.209 192.697 180.256 192.546C180.256 192.546 180.256 193.198 180.256 194.364C180.27 196.004 180.499 197.635 180.938 199.215C181.508 201.571 182.842 203.673 184.732 205.192C185.88 206.021 187.206 206.569 188.604 206.792C190.122 207.04 191.66 207.145 193.198 207.108C194.726 207.113 196.245 206.866 197.693 206.377C199.023 205.884 200.232 205.113 201.24 204.115C202.95 202.389 204.194 200.258 204.856 197.921C205.373 196.364 205.656 194.739 205.695 193.1C205.755 191.884 205.745 191.252 205.784 191.252Z" fill="#263238"/>
<g opacity="0.2">
<path opacity="0.2" d="M208.205 213.085C205.943 223.864 203.008 234.948 200.746 245.687C200.272 247.979 199.758 250.35 198.355 252.227C197.433 253.364 196.351 254.362 195.145 255.191C190.699 258.52 186.006 261.652 180.79 263.548C188.335 262.914 195.81 261.614 203.127 259.666C203.738 259.629 204.337 259.473 204.887 259.204C205.438 258.936 205.93 258.562 206.336 258.103C206.742 257.644 207.053 257.109 207.252 256.53C207.45 255.951 207.532 255.338 207.494 254.726C209.114 240.895 208.649 226.956 208.205 213.046" fill="black"/>
</g>
<path d="M135.128 261.059L151.528 259.083L163.077 266.66L207.266 256.07L208.551 231.421L228.388 230.927L227.924 259.864C227.877 262.077 227.392 264.259 226.498 266.284C225.605 268.31 224.319 270.139 222.716 271.665C221.113 273.192 219.224 274.387 217.157 275.181C215.091 275.975 212.888 276.353 210.675 276.293L145.956 274.505L143.209 268.992L129.329 268.587L135.128 261.059Z" fill="#FFBE9D"/>
<path d="M207.266 256.07C206.994 256.18 206.713 256.266 206.427 256.327L204.026 256.949L195.135 259.162L165.833 266.255L163.106 266.917H162.997L162.909 266.858L151.37 259.261H151.528L135.118 261.158L135.227 261.098L130.929 266.66L129.764 268.103C129.636 268.276 129.494 268.438 129.339 268.587C129.439 268.398 129.558 268.219 129.695 268.053L130.791 266.552L135.01 260.96V260.911H135.079L151.468 258.866H151.547H151.626L163.185 266.433H162.988L165.714 265.781L195.046 258.866L203.937 256.821L206.367 256.287C206.662 256.195 206.962 256.122 207.266 256.07Z" fill="#EB996E"/>
<path d="M144.642 265.761C142.531 266.016 140.404 266.101 138.28 266.018H137.114L137.272 265.959C135.994 267.141 134.612 268.206 133.143 269.14C134.305 267.843 135.577 266.65 136.946 265.574L137.015 265.514H138.28C140.404 265.422 142.532 265.505 144.642 265.761Z" fill="#EB996E"/>
<path d="M214.982 260.199C214.201 258.834 213.095 257.681 211.764 256.842C210.432 256.003 208.915 255.504 207.346 255.388C207.801 255.222 208.293 255.184 208.768 255.28C209.931 255.39 211.051 255.772 212.038 256.396C213.028 257.021 213.859 257.866 214.469 258.866C214.903 259.636 215.042 260.18 214.982 260.199Z" fill="#EB996E"/>
<path d="M233.09 230.927C232.505 231.019 231.914 231.065 231.322 231.066L226.491 231.243C222.421 231.372 216.78 231.51 210.556 231.639H208.58H208.333V231.392C208.106 225.612 208.205 220.475 208.333 216.78C208.392 214.933 208.462 213.451 208.531 212.423C208.537 211.894 208.583 211.365 208.669 210.843C208.732 211.37 208.749 211.903 208.718 212.433C208.718 213.54 208.718 215.002 208.718 216.79C208.718 220.475 208.659 225.612 208.886 231.362L208.629 231.125H210.605C216.829 231.006 222.46 230.917 226.55 230.888H231.381C231.951 230.86 232.522 230.873 233.09 230.927Z" fill="#263238"/>
<path d="M251.703 296.851C249.801 295.408 248.005 293.83 246.329 292.129C244.54 290.548 242.863 288.845 241.311 287.031C243.215 288.472 245.011 290.05 246.685 291.754C248.477 293.331 250.154 295.035 251.703 296.851Z" fill="#FAFAFA"/>
<path d="M239.038 347.344C238.401 347.845 237.712 348.275 236.983 348.628C235.699 349.379 233.92 350.407 231.974 351.592C230.028 352.778 228.309 353.894 227.035 354.694C226.384 355.174 225.689 355.59 224.96 355.939C225.519 355.353 226.145 354.835 226.827 354.398C228.032 353.509 229.791 352.343 231.688 351.148C233.585 349.952 235.452 348.974 236.795 348.312C237.503 347.904 238.256 347.58 239.038 347.344Z" fill="#FAFAFA"/>
<path d="M261.988 242.624C260.567 241.091 259.282 239.439 258.145 237.685C256.857 236.047 255.707 234.306 254.707 232.478C257.409 235.654 259.844 239.048 261.988 242.624Z" fill="#FAFAFA"/>
<path d="M266.424 255.556C265.036 259.173 263.334 262.66 261.336 265.979C262.714 262.363 264.407 258.876 266.394 255.556H266.424Z" fill="#FAFAFA"/>
<path d="M270.04 296.96C268.492 294.451 267.09 291.855 265.841 289.185C264.444 286.587 263.194 283.912 262.097 281.173C263.649 283.679 265.051 286.276 266.295 288.948C267.7 291.543 268.95 294.218 270.04 296.96Z" fill="#FAFAFA"/>
<path d="M269.555 315.247C268.384 317.401 267.064 319.471 265.604 321.441C264.267 323.517 262.788 325.497 261.178 327.368C263.701 323.148 266.514 319.108 269.595 315.276L269.555 315.247Z" fill="#FAFAFA"/>
<path d="M263.598 353.815C262.898 354.926 262.062 355.945 261.108 356.848C260.272 357.857 259.309 358.753 258.243 359.515C258.934 358.401 259.771 357.384 260.733 356.492C261.565 355.477 262.528 354.577 263.598 353.815Z" fill="#FAFAFA"/>
<path d="M57.7041 307.699C58.2683 305.005 59.0008 302.349 59.8973 299.746C60.6316 297.09 61.5324 294.484 62.5943 291.941C62.0234 294.645 61.2877 297.31 60.3913 299.924C59.6595 302.569 58.762 305.166 57.7041 307.699Z" fill="#FAFAFA"/>
<path d="M75.8237 281.746C75.8237 281.894 73.5021 281.548 70.6568 281.647C67.8116 281.746 65.5493 282.23 65.5098 282.082C67.1361 281.415 68.8793 281.079 70.6371 281.094C72.3921 280.967 74.1549 281.188 75.8237 281.746Z" fill="#FAFAFA"/>
<path d="M206.259 158.769L203.769 194.058C203.574 196.833 202.334 199.432 200.299 201.329C198.264 203.227 195.586 204.282 192.803 204.283C191.297 204.284 189.807 203.975 188.426 203.376C187.044 202.777 185.8 201.901 184.771 200.801C183.742 199.702 182.95 198.403 182.443 196.984C181.937 195.566 181.727 194.059 181.828 192.556C182.045 189.197 182.242 186.451 182.242 186.451C182.242 186.451 173.707 185.127 173.598 176.572C173.499 168.955 175.574 146.4 176.028 141.629H191.44C193.549 141.753 195.611 142.298 197.505 143.233C199.399 144.168 201.087 145.472 202.468 147.07C203.85 148.668 204.897 150.527 205.548 152.536C206.199 154.545 206.441 156.665 206.259 158.769Z" fill="#FFBE9D"/>
<path d="M182.233 186.313C186.176 186.383 190.052 185.279 193.367 183.141C193.367 183.141 190.729 189.286 182.213 188.526L182.233 186.313Z" fill="#EB996E"/>
<path d="M177.362 162.128C177.36 162.445 177.481 162.751 177.701 162.98C177.92 163.209 178.221 163.343 178.538 163.353C178.693 163.365 178.849 163.346 178.997 163.298C179.145 163.249 179.282 163.171 179.4 163.069C179.517 162.967 179.613 162.843 179.683 162.703C179.752 162.564 179.793 162.412 179.803 162.257C179.805 161.938 179.684 161.632 179.465 161.401C179.245 161.171 178.945 161.035 178.627 161.022C178.471 161.011 178.315 161.031 178.167 161.081C178.019 161.131 177.882 161.209 177.765 161.312C177.647 161.415 177.551 161.54 177.482 161.68C177.413 161.82 177.372 161.972 177.362 162.128Z" fill="#263238"/>
<path d="M176.592 160.449C176.74 160.607 177.669 159.925 178.973 159.925C180.277 159.925 181.255 160.587 181.393 160.429C181.531 160.271 181.304 160.063 180.889 159.757C180.307 159.362 179.617 159.155 178.913 159.164C178.233 159.164 177.569 159.379 177.017 159.777C176.651 160.093 176.513 160.38 176.592 160.449Z" fill="#263238"/>
<path d="M189.711 162.484C189.706 162.802 189.826 163.109 190.047 163.339C190.267 163.568 190.569 163.701 190.887 163.709C191.046 163.728 191.207 163.714 191.36 163.668C191.513 163.622 191.655 163.544 191.777 163.44C191.899 163.336 191.997 163.208 192.067 163.064C192.136 162.919 192.175 162.762 192.181 162.602C192.184 162.284 192.063 161.977 191.843 161.747C191.624 161.516 191.323 161.38 191.005 161.368C190.846 161.35 190.684 161.365 190.531 161.413C190.378 161.46 190.236 161.539 190.115 161.643C189.993 161.748 189.895 161.877 189.825 162.022C189.756 162.166 189.717 162.324 189.711 162.484Z" fill="#263238"/>
<path d="M189.484 160.696C189.642 160.854 190.561 160.172 191.875 160.172C193.189 160.172 194.147 160.834 194.295 160.666C194.443 160.498 194.206 160.31 193.791 160.004C193.211 159.604 192.52 159.397 191.815 159.411C191.134 159.407 190.469 159.622 189.919 160.024C189.553 160.33 189.415 160.627 189.484 160.696Z" fill="#263238"/>
<path d="M184.722 170.427C184.034 170.206 183.32 170.077 182.598 170.041C182.262 170.041 181.946 169.943 181.887 169.706C181.858 169.361 181.937 169.015 182.114 168.718C182.42 167.908 182.756 167.058 183.102 166.169C184.02 164.006 184.763 161.772 185.325 159.49C184.233 161.573 183.311 163.74 182.569 165.971C182.233 166.87 181.917 167.72 181.581 168.54C181.372 168.944 181.309 169.408 181.403 169.854C181.451 169.972 181.526 170.077 181.622 170.161C181.718 170.245 181.833 170.306 181.956 170.338C182.143 170.39 182.335 170.417 182.529 170.417C183.257 170.514 183.994 170.517 184.722 170.427Z" fill="#263238"/>
<path d="M188.584 171.336C188.377 171.336 188.367 172.748 187.152 173.756C185.937 174.764 184.415 174.606 184.405 174.813C184.396 175.021 184.741 175.09 185.393 175.1C186.227 175.117 187.04 174.837 187.685 174.309C188.304 173.799 188.704 173.071 188.802 172.274C188.841 171.681 188.683 171.326 188.584 171.336Z" fill="#263238"/>
<path d="M189.148 155.549C189.277 155.904 190.591 155.736 192.112 155.924C193.633 156.112 194.898 156.527 195.076 156.211C195.175 156.052 194.957 155.717 194.453 155.371C193.782 154.951 193.025 154.687 192.239 154.6C191.452 154.513 190.656 154.604 189.909 154.867C189.375 155.104 189.099 155.381 189.148 155.549Z" fill="#263238"/>
<path d="M177.075 156.675C177.302 156.981 178.201 156.675 179.288 156.675C180.375 156.675 181.264 156.872 181.511 156.566C181.61 156.408 181.511 156.112 181.057 155.825C180.518 155.483 179.887 155.314 179.249 155.341C178.61 155.351 177.992 155.562 177.48 155.944C177.095 156.201 176.967 156.507 177.075 156.675Z" fill="#263238"/>
<path d="M203.384 165.181C203.532 165.122 209.252 163.442 209.064 169.281C208.877 175.119 203.048 173.736 203.048 173.568C203.048 173.4 203.384 165.181 203.384 165.181Z" fill="#FFBE9D"/>
<path d="M204.906 171.405C204.906 171.405 205.005 171.484 205.172 171.563C205.29 171.621 205.417 171.655 205.548 171.664C205.678 171.672 205.809 171.655 205.933 171.612C206.317 171.384 206.633 171.058 206.85 170.667C207.067 170.277 207.177 169.836 207.168 169.389C207.205 168.887 207.124 168.383 206.931 167.917C206.882 167.734 206.789 167.565 206.66 167.425C206.531 167.286 206.369 167.18 206.19 167.117C206.075 167.083 205.952 167.09 205.842 167.137C205.732 167.184 205.642 167.268 205.587 167.374C205.499 167.532 205.587 167.651 205.498 167.661C205.41 167.67 205.38 167.562 205.439 167.325C205.472 167.178 205.556 167.048 205.676 166.959C205.841 166.846 206.042 166.8 206.239 166.831C206.478 166.885 206.699 167 206.88 167.165C207.062 167.329 207.199 167.537 207.277 167.769C207.509 168.283 207.611 168.847 207.573 169.409C207.587 169.931 207.446 170.444 207.169 170.886C206.891 171.327 206.488 171.676 206.012 171.889C205.853 171.926 205.688 171.929 205.527 171.896C205.367 171.864 205.216 171.797 205.084 171.701C204.916 171.553 204.886 171.415 204.906 171.405Z" fill="#EB996E"/>
<path d="M206.634 164.983C206.078 164.946 205.523 165.06 205.027 165.314C204.531 165.568 204.113 165.953 203.819 166.426C203.443 167.256 203.354 168.204 202.979 169.034C202.829 169.468 202.539 169.839 202.154 170.09C201.769 170.34 201.312 170.455 200.855 170.417C200.553 170.321 200.281 170.148 200.068 169.914C199.855 169.679 199.707 169.393 199.64 169.083C199.516 168.46 199.516 167.819 199.64 167.196C199.986 164.47 200.559 161.773 200.628 159.026C200.842 156.28 200.244 153.532 198.909 151.123C198.22 149.927 197.222 148.94 196.018 148.265C194.815 147.59 193.451 147.253 192.072 147.29C190.264 147.428 188.595 148.376 186.797 148.633C185.724 148.776 184.632 148.672 183.605 148.33C182.578 147.988 181.642 147.416 180.869 146.657C180.672 146.47 179.763 145.867 179.763 145.867C179.787 145.218 179.999 144.589 180.375 144.059C183.952 140.75 190.393 139.831 195.115 141.016C197.518 141.606 199.763 142.712 201.694 144.258C203.625 145.804 205.197 147.752 206.298 149.967C208.333 154.393 207.731 160.557 206.614 165.033" fill="#263238"/>
<path d="M206.466 164.479C206.782 161.624 208.205 159.016 208.946 156.23C209.687 153.444 209.519 150.056 207.296 148.228C206.535 147.606 205.597 147.24 204.885 146.539C204.236 145.791 203.679 144.969 203.226 144.089C202.395 142.801 201.283 141.718 199.975 140.92C198.666 140.123 197.193 139.632 195.668 139.485C193.564 139.297 191.44 139.791 189.335 139.653C185.996 139.445 182.835 137.677 179.456 137.835C178.903 137.822 178.354 137.925 177.843 138.138C177.333 138.351 176.872 138.668 176.492 139.07C176.32 139.282 176.194 139.527 176.121 139.79C176.049 140.053 176.031 140.328 176.07 140.598C176.109 140.868 176.204 141.128 176.348 141.359C176.492 141.591 176.682 141.79 176.907 141.945C176.754 141.751 176.561 141.593 176.341 141.482C176.12 141.37 175.878 141.309 175.631 141.301C175.385 141.294 175.139 141.341 174.913 141.438C174.686 141.536 174.483 141.682 174.319 141.866C174.017 142.266 173.838 142.746 173.807 143.247C173.775 143.748 173.891 144.246 174.141 144.681C174.658 145.548 175.403 146.255 176.295 146.726C179.161 148.43 182.542 149.054 185.828 148.485L192.131 145.047L199.264 146.618L206.051 151.152L203.048 163.709L206.466 164.479Z" fill="#263238"/>
<path d="M60.8955 233.911L81.5332 274.564H146.736L144.158 269.298L125.269 268.745L109.877 234.464C109.409 233.413 108.645 232.52 107.678 231.896C106.712 231.271 105.584 230.942 104.433 230.947H62.7627C62.4133 230.948 62.0699 231.038 61.7643 231.207C61.4587 231.376 61.2008 231.62 61.0146 231.916C60.8284 232.211 60.7198 232.549 60.699 232.898C60.6782 233.247 60.7458 233.595 60.8955 233.911Z" fill="#E0E0E0"/>
<path d="M91.6 254.568C93.0732 254.568 94.2674 253.374 94.2674 251.901C94.2674 250.428 93.0732 249.233 91.6 249.233C90.1269 249.233 88.9326 250.428 88.9326 251.901C88.9326 253.374 90.1269 254.568 91.6 254.568Z" fill="#263238"/>
<path d="M235.175 233.071C235.017 244.462 228.082 254.954 219.022 261.869C209.963 268.784 198.977 272.628 188.031 275.779C177.085 278.93 165.892 281.529 155.588 286.409C141.332 293.157 128.124 302.413 120.023 315.978C111.922 329.542 109.136 347.344 110.035 363.151L231.154 351.039L237.783 282.141L235.175 233.071Z" fill="#455A64"/>
<path d="M188.032 275.779L187.765 275.858L186.995 276.046C186.313 276.204 185.305 276.401 184.031 276.718C181.452 277.32 177.728 278.259 173.164 279.681C167.871 281.308 162.676 283.238 157.604 285.461C151.37 288.161 145.447 291.53 139.94 295.508C137.17 297.654 134.531 299.963 132.036 302.423C129.68 304.695 127.466 307.11 125.407 309.655C121.886 313.95 118.901 318.657 116.516 323.674C114.937 327.064 113.684 330.597 112.772 334.225C112.406 335.499 112.268 336.526 112.09 337.188C112.021 337.504 111.962 337.751 111.912 337.959C111.863 338.166 111.843 338.226 111.843 338.226C111.832 338.134 111.832 338.041 111.843 337.949C111.843 337.742 111.922 337.485 111.972 337.169C112.11 336.477 112.219 335.45 112.555 334.205C113.375 330.537 114.566 326.962 116.111 323.535C118.47 318.459 121.457 313.7 125.002 309.368C127.067 306.801 129.287 304.363 131.651 302.068C134.173 299.584 136.842 297.255 139.643 295.093C145.182 291.092 151.146 287.716 157.426 285.026C162.537 282.809 167.776 280.899 173.114 279.306C177.669 277.952 181.413 277.063 183.981 276.52C185.276 276.233 186.293 276.075 186.945 275.937L187.726 275.809C187.826 275.783 187.929 275.773 188.032 275.779Z" fill="#263238"/>
<path d="M214.014 333.612C211.305 335.467 208.502 337.182 205.617 338.749C202.817 340.465 199.928 342.032 196.963 343.442C199.669 341.581 202.472 339.867 205.36 338.305C208.163 336.593 211.051 335.027 214.014 333.612Z" fill="#FAFAFA"/>
<path d="M159.362 337.09C158.654 336.54 157.993 335.932 157.387 335.272C156.201 334.116 154.561 332.515 152.734 330.777C150.906 329.038 149.207 327.487 147.991 326.371C147.276 325.804 146.615 325.172 146.016 324.484C146.79 324.945 147.515 325.485 148.179 326.094C149.463 327.141 151.192 328.653 153.04 330.401C154.887 332.15 156.478 333.79 157.594 335.015C158.262 335.635 158.856 336.332 159.362 337.09Z" fill="#FAFAFA"/>
<path d="M184.633 303.293C184.244 305.768 183.686 308.214 182.963 310.613C182.4 313.06 181.674 315.466 180.79 317.815C181.179 315.337 181.737 312.887 182.46 310.485C183.025 308.042 183.752 305.64 184.633 303.293Z" fill="#FAFAFA"/>
<path d="M233.021 311.72C230.34 310.811 227.717 309.739 225.167 308.509C222.541 307.44 219.984 306.21 217.511 304.824C220.206 305.737 222.845 306.809 225.414 308.035C228.021 309.111 230.561 310.341 233.021 311.72Z" fill="#FAFAFA"/>
<path d="M177.362 356.423C176.766 354.364 176.34 352.259 176.088 350.13C175.67 348.026 175.416 345.892 175.327 343.748C175.923 345.807 176.349 347.912 176.602 350.041C177.019 352.146 177.274 354.279 177.362 356.423Z" fill="#FAFAFA"/>
<path d="M135.237 353.627C133.201 351.697 131.284 349.645 129.497 347.483C127.579 345.438 125.794 343.274 124.152 341.002C126.186 342.931 128.1 344.983 129.882 347.147C131.799 349.195 133.587 351.359 135.237 353.627Z" fill="#FAFAFA"/>
<path d="M168.846 291.941C166.866 293.224 164.792 294.356 162.642 295.33C160.574 296.473 158.424 297.464 156.211 298.294C158.192 297.011 160.266 295.879 162.415 294.905C164.484 293.762 166.633 292.772 168.846 291.941Z" fill="#FAFAFA"/>
<path d="M216.879 283.87C214.361 284.118 211.83 284.2 209.301 284.117C206.769 284.2 204.234 284.114 201.714 283.86C204.234 283.6 206.769 283.514 209.301 283.603C211.83 283.514 214.362 283.603 216.879 283.87Z" fill="#FAFAFA"/>
<path d="M236.124 250.528C235.684 252.524 234.983 254.454 234.039 256.267C233.25 258.151 232.22 259.924 230.976 261.543C230.848 261.464 232.162 259.083 233.575 256.05C234.987 253.017 235.975 250.528 236.124 250.528Z" fill="#FAFAFA"/>
<path d="M393.856 340.369H321.639V350.288H393.856V340.369Z" fill="#263238"/>
<path d="M393.975 350.417H321.511V340.251H393.975V350.417ZM321.758 350.17H393.718V340.498H321.758V350.17Z" fill="#263238"/>
<path d="M328.327 346.998L338.73 398.272H377.19L387.237 350.298L328.327 346.998Z" fill="#263238"/>
<path d="M328.327 393.421L333.879 401.048H380.628L387.237 393.421H328.327Z" fill="#455A64"/>
<path d="M355.031 348.49C354.893 348.49 354.705 324.731 354.626 295.439C354.547 266.147 354.626 242.377 354.734 242.377C354.843 242.377 355.06 266.087 355.14 295.439C355.219 324.79 355.189 348.49 355.031 348.49Z" fill="#263238"/>
<path d="M371.113 289.057C371.075 289.248 371.012 289.434 370.926 289.61L370.284 291.151L369.809 292.258C369.661 292.672 369.503 293.127 369.325 293.601C369.147 294.075 368.97 294.589 368.772 295.152C368.574 295.715 368.426 296.298 368.239 296.921C367.392 299.823 366.732 302.776 366.263 305.762C365.675 309.418 365.276 313.101 365.067 316.798C364.805 323.534 364.997 330.28 365.64 336.991C365.868 339.569 366.105 341.654 366.273 343.096C366.352 343.768 366.411 344.321 366.46 344.756C366.486 344.949 366.486 345.145 366.46 345.339C366.396 345.153 366.353 344.961 366.332 344.766C366.253 344.331 366.164 343.778 366.045 343.116C365.818 341.683 365.532 339.609 365.245 337.03C364.492 330.304 364.251 323.531 364.524 316.768C364.707 313.048 365.096 309.341 365.69 305.664C366.199 302.654 366.915 299.683 367.834 296.772C368.031 296.15 368.199 295.557 368.407 295.004L368.999 293.463C369.187 292.989 369.355 292.544 369.523 292.129C369.691 291.714 369.879 291.359 370.037 291.033L370.768 289.531C370.871 289.365 370.987 289.206 371.113 289.057Z" fill="#263238"/>
<path d="M369.276 269.822C369.213 270.09 369.134 270.354 369.039 270.612L368.288 272.815C368.12 273.299 367.943 273.803 367.735 274.406L367.152 276.332C366.737 277.705 366.243 279.296 365.809 281.025C365.581 281.904 365.334 282.813 365.088 283.771L364.406 286.735C363.902 288.8 363.536 291.052 363.072 293.394C362.282 298.116 361.58 303.332 361.096 308.835C360.612 314.338 360.434 319.603 360.365 324.385C360.296 329.166 360.415 333.484 360.612 337.099C360.671 338.917 360.79 340.547 360.889 341.98C360.988 343.412 361.057 344.657 361.146 345.665C361.235 346.672 361.284 347.413 361.324 347.986C361.35 348.259 361.35 348.534 361.324 348.806C361.259 348.544 361.216 348.276 361.195 348.006C361.126 347.423 361.037 346.653 360.918 345.684C360.8 344.716 360.681 343.442 360.573 342C360.464 340.557 360.306 338.937 360.217 337.119C359.98 333.503 359.881 329.216 359.861 324.385C359.842 319.554 360.098 314.308 360.553 308.786C361.007 303.263 361.758 298.037 362.578 293.315C363.062 290.963 363.438 288.711 363.961 286.636L364.673 283.672C364.929 282.685 365.186 281.805 365.433 280.926C365.888 279.168 366.421 277.607 366.856 276.243C367.073 275.562 367.281 274.919 367.478 274.337L368.071 272.756L368.911 270.573C369.014 270.314 369.136 270.063 369.276 269.822Z" fill="#263238"/>
<path d="M350.466 352.699C350.45 352.604 350.45 352.507 350.466 352.412C350.466 352.205 350.466 351.938 350.397 351.602C350.348 350.841 350.269 349.794 350.18 348.451C350.012 345.684 349.765 341.743 349.459 336.882C348.826 327.112 347.927 313.616 346.278 298.778C345.438 291.359 344.47 284.305 343.452 277.913C342.919 274.732 342.464 271.689 341.871 268.873C341.279 266.058 340.814 263.41 340.31 261.019C339.807 258.629 339.323 256.475 338.888 254.578C338.453 252.681 338.058 251.051 337.722 249.727C337.386 248.404 337.159 247.396 336.971 246.665C336.899 246.342 336.84 246.075 336.793 245.865C336.782 245.773 336.782 245.68 336.793 245.588C336.836 245.673 336.869 245.763 336.892 245.855C336.952 246.052 337.031 246.319 337.119 246.635C337.327 247.366 337.613 248.384 337.969 249.678C338.325 250.972 338.769 252.642 339.214 254.509C339.658 256.376 340.202 258.55 340.716 260.94C341.229 263.331 341.812 265.959 342.346 268.794C342.879 271.63 343.422 274.653 343.976 277.844C345.013 284.236 346.001 291.289 346.841 298.719C348.49 313.537 349.34 327.082 349.874 336.862C350.14 341.753 350.318 345.704 350.427 348.441C350.476 349.784 350.516 350.832 350.545 351.592C350.545 351.928 350.545 352.205 350.545 352.412C350.53 352.51 350.504 352.607 350.466 352.699Z" fill="#263238"/>
<path d="M354.438 253.798C354.132 250.429 350.724 247.87 347.345 247.87C343.966 247.87 340.815 249.846 338.75 252.543C336.803 255.317 335.398 258.434 334.611 261.731C332.338 269.634 331.094 277.992 332.062 286.182C333.03 294.372 336.359 302.443 342.237 308.222C343.225 309.21 344.431 310.109 345.745 309.833C346.45 309.618 347.087 309.223 347.592 308.687C353.352 303.42 357.919 296.982 360.986 289.805C364.053 282.628 365.549 274.878 365.375 267.075C365.276 263.963 364.871 260.723 363.142 258.125C361.413 255.527 357.402 252.77 354.458 253.817" fill="#007BFC"/>
<path d="M329.206 226.817C327.612 229.696 326.025 232.57 324.444 235.442C324.335 235.64 324.187 235.867 323.96 235.887C323.733 235.906 323.515 235.669 323.377 235.462L310.791 216.138L313.696 214.498L329.206 226.817Z" fill="#007BFC"/>
<g opacity="0.2">
<path opacity="0.2" d="M329.206 226.817C327.612 229.696 326.025 232.57 324.444 235.442C324.335 235.64 324.187 235.867 323.96 235.887C323.733 235.906 323.515 235.669 323.377 235.462L310.791 216.138L313.696 214.498L329.206 226.817Z" fill="black"/>
</g>
<path d="M354.734 242.377L311.799 217.037C311.315 216.827 310.933 216.438 310.732 215.95C310.564 215.318 311.038 214.706 311.502 214.231C314.456 211.173 318.034 208.788 321.992 207.238C325.951 205.689 330.198 205.011 334.442 205.251C338.688 205.554 342.796 206.888 346.411 209.136C350.026 211.384 353.039 214.479 355.188 218.153C359.328 225.553 359.466 235.343 354.714 242.377" fill="#007BFC"/>
<path d="M317.983 208.956C318.166 208.903 318.356 208.877 318.547 208.877C318.922 208.877 319.465 208.798 320.177 208.808C322.163 208.777 324.147 208.932 326.104 209.272C331.175 210.101 335.996 212.055 340.213 214.99C344.431 217.925 347.938 221.767 350.476 226.235C351.959 228.807 353.105 231.56 353.885 234.424C354.419 236.347 354.777 238.315 354.952 240.303C355.031 241.004 355.021 241.557 355.04 241.923C355.062 242.11 355.062 242.299 355.04 242.486C355.04 242.486 354.942 241.715 354.774 240.322C354.527 238.36 354.12 236.42 353.559 234.523C351.758 228.219 348.227 222.546 343.366 218.147C338.504 213.748 332.507 210.8 326.055 209.637C324.099 209.268 322.117 209.057 320.127 209.005C318.764 208.976 317.993 209.035 317.983 208.956Z" fill="#263238"/>
<path d="M348.925 224.891C348.238 225.297 347.509 225.629 346.752 225.879C345.388 226.422 343.472 227.114 341.338 227.796C339.204 228.477 337.238 229.011 335.805 229.356C335.042 229.595 334.252 229.738 333.454 229.781C334.174 229.444 334.925 229.179 335.697 228.991L341.17 227.282L346.623 225.523C347.365 225.229 348.137 225.017 348.925 224.891Z" fill="#263238"/>
<path d="M342.158 206.723C342.76 209.889 342.843 213.133 342.405 216.326C342.194 214.734 342.111 213.129 342.158 211.524C342.033 209.926 342.033 208.321 342.158 206.723Z" fill="#263238"/>
<path d="M311.424 216.563C312.429 216.101 313.474 215.73 314.546 215.456C316.521 214.864 319.209 214.103 322.242 213.372C325.275 212.641 328.031 212.078 330.046 211.722C331.122 211.484 332.216 211.338 333.316 211.287C332.269 211.629 331.2 211.897 330.115 212.088C328.139 212.522 325.383 213.145 322.36 213.866C319.337 214.587 316.61 215.298 314.644 215.842C313.589 216.158 312.513 216.399 311.424 216.563Z" fill="#263238"/>
<path d="M334.936 245.825C331.241 243.029 327.339 242.476 322.706 242.664C318.071 242.969 313.534 244.139 309.329 246.112C302.088 249.283 295.281 253.956 290.954 260.575C286.627 267.194 285.125 275.947 288.366 283.159C288.619 283.911 289.139 284.543 289.828 284.937C290.634 285.165 291.496 285.099 292.258 284.749C300.487 282.062 308.776 279.345 316.353 275.147C323.931 270.948 330.817 265.09 334.877 257.443C335.934 255.641 336.607 253.64 336.853 251.565C336.965 250.529 336.855 249.481 336.529 248.491C336.204 247.501 335.671 246.592 334.966 245.825" fill="#007BFC"/>
<path d="M335.005 244.956C334.818 245.061 334.619 245.143 334.412 245.203L332.693 245.795L331.439 246.21C330.994 246.368 330.51 246.576 329.987 246.783C328.939 247.198 327.734 247.623 326.46 248.236L324.434 249.154C323.743 249.48 323.041 249.876 322.3 250.261C320.809 250.992 319.337 251.93 317.687 252.879C310.786 257.154 304.649 262.554 299.529 268.854C298.383 270.336 297.257 271.709 296.338 273.102C295.874 273.783 295.35 274.426 294.975 275.078L293.809 276.964C293.038 278.15 292.465 279.296 291.912 280.274C291.645 280.768 291.378 281.262 291.161 281.647C290.944 282.033 290.766 282.477 290.588 282.833C290.262 283.505 289.986 284.048 289.778 284.473C289.696 284.669 289.59 284.855 289.462 285.026C289.526 284.824 289.602 284.626 289.689 284.433L290.41 282.754C290.568 282.378 290.746 281.973 290.944 281.539C291.151 281.104 291.398 280.64 291.655 280.146C292.189 279.158 292.742 277.982 293.493 276.777L294.649 274.86C295.044 274.198 295.528 273.546 295.992 272.884C296.901 271.482 297.968 270.079 299.153 268.587C304.268 262.204 310.457 256.762 317.44 252.503C319.07 251.516 320.591 250.626 322.103 249.905C322.854 249.54 323.565 249.145 324.266 248.828L326.311 247.939C327.606 247.337 328.831 246.951 329.888 246.536C330.411 246.349 330.876 246.161 331.36 246.013L332.634 245.637L334.393 245.134C334.592 245.06 334.797 245 335.005 244.956Z" fill="#263238"/>
<path d="M306.158 260.585C303.217 261.701 300.22 262.664 297.178 263.469C294.182 264.436 291.134 265.238 288.05 265.87C290.993 264.746 293.994 263.78 297.04 262.975C300.033 262.01 303.077 261.212 306.158 260.585Z" fill="#263238"/>
<path d="M305.792 280.402C305.637 279.479 305.571 278.543 305.595 277.607C305.545 275.868 305.535 273.477 305.595 270.839C305.654 268.202 305.812 265.811 305.95 264.082C305.979 263.147 306.099 262.218 306.306 261.306C306.385 262.239 306.385 263.178 306.306 264.112C306.247 265.999 306.177 268.31 306.098 270.859C306.019 273.408 305.98 275.71 305.93 277.607C305.962 278.541 305.916 279.476 305.792 280.402Z" fill="#263238"/>
<path d="M322.775 271.748C322.626 271.748 322.182 266.898 321.787 260.881C321.392 254.865 321.145 250.014 321.283 250.014C321.421 250.014 321.886 254.865 322.271 260.881C322.656 266.898 322.913 271.738 322.775 271.748Z" fill="#263238"/>
<path d="M301.634 249.54C302.591 249.427 303.557 249.4 304.519 249.461C306.287 249.461 308.737 249.52 311.434 249.609C314.131 249.698 316.591 249.806 318.349 249.915C319.311 249.925 320.269 250.017 321.214 250.192C320.261 250.306 319.299 250.336 318.34 250.281C316.561 250.281 314.111 250.211 311.424 250.123C308.737 250.034 306.257 249.925 304.509 249.816C303.544 249.82 302.581 249.727 301.634 249.54Z" fill="#263238"/>
<path d="M344.075 310.514C344.041 310.322 344.022 310.127 344.015 309.932C344.015 309.487 344.015 308.944 343.946 308.242C343.877 306.78 343.867 304.656 343.946 302.038C344.025 299.42 344.173 296.288 344.48 292.84C344.786 289.393 345.3 285.599 345.991 281.657C346.683 277.715 347.552 273.991 348.431 270.632C349.311 267.273 350.249 264.299 351.109 261.82C351.968 259.34 352.709 257.354 353.282 256.001C353.549 255.368 353.756 254.855 353.934 254.44C353.995 254.254 354.082 254.078 354.191 253.916C354.161 254.111 354.104 254.3 354.023 254.479C353.885 254.894 353.697 255.467 353.47 256.07C352.956 257.443 352.265 259.449 351.494 261.938C350.723 264.428 349.805 267.411 348.935 270.76C348.066 274.109 347.246 277.814 346.535 281.746C345.823 285.678 345.349 289.442 344.993 292.88C344.638 296.318 344.44 299.43 344.351 302.048C344.262 304.666 344.213 306.78 344.213 308.242C344.213 308.934 344.213 309.487 344.213 309.932C344.196 310.132 344.149 310.328 344.075 310.514Z" fill="#263238"/>
<path d="M346.347 281.222C345.843 281.911 345.267 282.544 344.628 283.109C343.521 284.216 341.941 285.698 340.143 287.278C338.345 288.859 336.665 290.242 335.42 291.181C334.778 291.735 334.079 292.222 333.336 292.633C333.893 291.993 334.515 291.414 335.193 290.904L339.807 286.893L344.381 282.843C344.986 282.244 345.644 281.702 346.347 281.222Z" fill="#263238"/>
<path d="M359.931 292.169C359.276 291.374 358.682 290.532 358.153 289.649L353.905 283.455L349.578 277.32C348.929 276.506 348.348 275.64 347.839 274.732C348.585 275.458 349.263 276.252 349.864 277.103C351.059 278.614 352.65 280.748 354.33 283.159C356.009 285.569 357.451 287.802 358.459 289.452C359.027 290.314 359.519 291.223 359.931 292.169Z" fill="#263238"/>
<path d="M352.817 257.749C352.886 257.868 348.381 260.901 342.731 264.536C337.08 268.172 332.446 271.007 332.367 270.889C332.288 270.77 336.813 267.727 342.454 264.102C348.095 260.476 352.738 257.621 352.817 257.749Z" fill="#263238"/>
<path d="M365.543 271.482C363.151 269.51 360.872 267.406 358.716 265.179C356.441 263.07 354.281 260.841 352.245 258.5C354.64 260.469 356.919 262.573 359.072 264.803C361.35 266.909 363.51 269.138 365.543 271.482Z" fill="#263238"/>
<path d="M368.743 271.205L372.616 270.889C375.37 270.661 378.042 269.842 380.45 268.488C381.625 267.801 382.842 267.19 384.096 266.66C388.887 264.734 394.232 265.08 399.389 264.823C407.831 264.395 416.101 262.279 423.711 258.599C424.163 258.391 424.537 258.045 424.778 257.611C425.569 256.159 424.097 254.865 422.803 254.084C416.272 250.063 409.624 245.983 402.224 243.988C394.825 241.992 386.417 242.328 380.095 246.675C372.685 251.782 369.978 262.264 368.724 271.175" fill="#007BFC"/>
<path d="M424.857 257.166L424.205 256.86L422.368 255.872C420.777 255.033 418.485 253.798 415.581 252.415C412.21 250.749 408.695 249.393 405.079 248.364C400.662 247.098 396.038 246.722 391.475 247.258C386.903 247.772 382.585 249.628 379.067 252.592C376.317 255.143 374.118 258.229 372.606 261.662C371.243 264.566 370.403 267.036 369.79 268.725L369.099 270.701C369.034 270.934 368.945 271.159 368.832 271.373C368.863 271.134 368.92 270.899 369 270.671C369.158 270.168 369.356 269.506 369.603 268.696C370.352 266.262 371.243 263.873 372.27 261.543C373.763 258.034 375.97 254.875 378.751 252.266C382.326 249.214 386.734 247.304 391.406 246.783C396.047 246.228 400.753 246.621 405.237 247.939C408.871 248.999 412.397 250.398 415.768 252.118C418.663 253.551 420.925 254.835 422.496 255.734L424.284 256.771C424.489 256.881 424.681 257.014 424.857 257.166Z" fill="#263238"/>
<path d="M415.551 262.165C415.472 262.284 410.404 259.004 404.239 254.845C398.075 250.686 393.125 247.208 393.204 247.09C393.283 246.971 398.351 250.251 404.526 254.41C410.7 258.569 415.63 262.047 415.551 262.165Z" fill="#263238"/>
<path d="M410.691 246.576C408.108 247.383 405.384 247.632 402.698 247.307C404.001 247.051 405.323 246.902 406.65 246.862C407.985 246.646 409.338 246.55 410.691 246.576Z" fill="#263238"/>
<path d="M387.958 242.535C387.562 243.714 387.004 244.831 386.299 245.855C385.739 246.969 385.031 248.003 384.194 248.927C384.581 247.746 385.126 246.623 385.815 245.588C386.389 244.479 387.11 243.452 387.958 242.535Z" fill="#263238"/>
<path d="M392.503 265.149C391.646 264.793 390.828 264.349 390.062 263.825C388.6 262.936 386.624 261.632 384.51 260.101C382.396 258.569 380.559 257.137 379.185 256.05C378.431 255.511 377.727 254.906 377.081 254.242C377.904 254.675 378.685 255.185 379.413 255.764L384.807 259.715C386.921 261.247 388.857 262.59 390.26 263.548C391.05 264.02 391.8 264.556 392.503 265.149Z" fill="#263238"/>
<path d="M374.453 287.674C370.758 286.686 366.352 290.292 365.562 294.036C364.771 297.78 366.214 301.613 367.854 305.071C371.374 312.804 376.599 319.64 383.137 325.067C389.756 330.342 398.045 333.711 406.511 333.671C404.95 326.41 406.926 318.852 406.057 311.453C405.296 304.954 402.351 298.906 397.704 294.298C393.058 289.691 386.985 286.798 380.479 286.093C378.118 285.836 375.391 285.461 374.453 287.644" fill="#007BFC"/>
<path d="M406.561 333.671C406.378 333.607 406.203 333.525 406.037 333.424C405.525 333.173 405.039 332.871 404.585 332.525C403.033 331.178 401.786 329.514 400.93 327.645C400.347 326.499 399.685 325.254 399.043 323.881C398.401 322.508 397.749 321.036 397.067 319.485C396.348 317.871 395.53 316.304 394.617 314.792C393.617 313.183 392.494 311.653 391.258 310.218C388.729 307.254 386.012 304.676 383.661 302.216C381.531 300.083 379.591 297.769 377.862 295.3C376.703 293.621 375.754 291.806 375.036 289.896C374.838 289.377 374.673 288.846 374.542 288.306C374.477 288.125 374.437 287.935 374.424 287.743C374.473 287.743 374.681 288.494 375.214 289.817C376.007 291.679 377.001 293.448 378.178 295.093C379.933 297.525 381.886 299.808 384.017 301.919C386.378 304.35 389.114 306.918 391.673 309.922C392.925 311.378 394.061 312.931 395.071 314.565C395.986 316.098 396.801 317.689 397.512 319.327C398.203 320.878 398.845 322.36 399.487 323.743C400.13 325.126 400.752 326.371 401.315 327.517C402.123 329.379 403.299 331.059 404.773 332.456C405.83 333.276 406.561 333.622 406.561 333.671Z" fill="#263238"/>
<path d="M387.415 327.635C387.434 326.795 387.55 325.959 387.761 325.146C388.047 323.624 388.522 321.54 389.164 319.218C389.806 316.896 390.487 314.911 391.041 313.468C391.279 312.665 391.61 311.892 392.029 311.166C391.882 311.993 391.657 312.803 391.357 313.587C390.902 315.059 390.28 317.094 389.638 319.366C388.996 321.638 388.472 323.693 388.097 325.185C387.952 326.023 387.724 326.843 387.415 327.635Z" fill="#263238"/>
<path d="M405.83 309.803C404.948 309.681 404.078 309.479 403.232 309.2C401.631 308.786 399.438 308.213 396.988 307.669C394.538 307.126 392.305 306.681 390.695 306.385C389.809 306.274 388.936 306.079 388.087 305.802C388.981 305.79 389.874 305.863 390.754 306.019C392.384 306.237 394.637 306.612 397.107 307.165C399.576 307.719 401.76 308.351 403.331 308.855C404.197 309.076 405.035 309.394 405.83 309.803Z" fill="#263238"/>
<path d="M373.702 315C373.737 314.027 373.87 313.061 374.097 312.115C374.423 310.356 374.947 307.926 375.639 305.278C376.33 302.631 377.061 300.26 377.614 298.56C377.874 297.625 378.228 296.718 378.671 295.854C378.509 296.809 378.271 297.751 377.96 298.669C377.466 300.388 376.794 302.769 376.103 305.407C375.411 308.045 374.838 310.455 374.423 312.194C374.255 313.146 374.014 314.084 373.702 315Z" fill="#263238"/>
<path d="M397.354 294.293C393.907 294.193 390.468 293.916 387.05 293.463C381.369 292.86 376.775 292.258 376.795 292.119C380.242 292.219 383.681 292.496 387.099 292.949C392.78 293.552 397.364 294.154 397.354 294.293Z" fill="#263238"/>
<path d="M393.975 350.308C393.975 350.446 377.753 350.565 357.748 350.565C337.742 350.565 321.521 350.446 321.521 350.308C321.521 350.17 337.732 350.051 357.748 350.051C377.763 350.051 393.975 350.11 393.975 350.308Z" fill="#455A64"/>
<path d="M382.682 371.133C382.682 371.272 371.756 371.39 358.281 371.39C344.805 371.39 333.869 371.272 333.869 371.133C333.869 370.995 344.796 370.877 358.281 370.877C371.766 370.877 382.682 370.985 382.682 371.133Z" fill="#455A64"/>
<path d="M383.107 374.117C383.107 374.255 372.181 374.374 358.706 374.374C345.23 374.374 334.294 374.255 334.294 374.117C334.294 373.979 345.22 373.86 358.706 373.86C372.191 373.86 383.107 374.018 383.107 374.117Z" fill="#455A64"/>
<path d="M383.107 368.673C383.107 368.812 371.805 368.93 357.866 368.93C343.926 368.93 332.614 368.812 332.614 368.673C332.614 368.535 343.916 368.417 357.866 368.417C371.815 368.417 383.107 368.525 383.107 368.673Z" fill="#455A64"/>
<g clip-path="url(#clip0_1059_490)">
<path d="M168 110.5C168 117.956 161.956 124 154.5 124C147.044 124 141 117.956 141 110.5C141 103.044 147.044 97 154.5 97C161.956 97 168 103.044 168 110.5Z" fill="#E23237"/>
<path d="M167.999 110.5C167.999 110.456 167.996 110.413 167.996 110.369C165.298 107.769 162.57 105.134 162.494 105.044C160.592 102.793 157.749 101.364 154.571 101.364C148.846 101.364 144.204 106.006 144.204 111.732C144.204 112.524 144.296 113.294 144.464 114.035C148.222 117.994 151.717 121.594 154.332 123.996C154.388 123.997 154.443 124 154.499 124C161.955 124 167.999 117.956 167.999 110.5Z" fill="#B52E31"/>
<path d="M161.236 111.582H147.961C147.961 111.564 147.96 111.546 147.96 111.528C147.96 107.861 150.932 104.889 154.599 104.889C158.265 104.889 161.238 107.861 161.238 111.528C161.238 111.546 161.236 111.564 161.236 111.582ZM162.807 111.281H164.928C164.814 108.614 163.693 106.207 161.934 104.433L160.469 105.898L160.115 105.544L161.573 104.086C159.777 102.44 157.398 101.422 154.783 101.37V103.257H154.282V101.372C151.665 101.444 149.291 102.484 147.505 104.15L148.838 105.483L148.484 105.837L147.147 104.5C145.425 106.268 144.329 108.646 144.216 111.281H146.158V111.782H144.206C144.21 112.54 144.297 113.296 144.465 114.035H164.679C164.848 113.296 164.934 112.54 164.938 111.782H162.807V111.281Z" fill="white"/>
</g>
<g clip-path="url(#clip1_1059_490)">
<path d="M281.962 76.9945L289.824 88.8197H302.252L288.168 67.8377L281.962 76.9945ZM256.907 83.335L262.664 77.8675L271.867 88.8197L265.959 66.8498L260.971 75.1232L256.907 83.335Z" fill="#429F87"/>
<path d="M256.908 83.335L265.96 66.8496L260.205 72.3199L251 61.3671L256.908 83.335ZM301.068 49.1218H288.639L281.027 60.4616V49.1218H269.627V60.8828L275.705 83.4707L277.122 88.8197H281.027V78.8949L301.068 49.1218Z" fill="#56C5A8"/>
</g>
<g clip-path="url(#clip2_1059_490)">
<path d="M124.446 166.048L107.116 172.286L109.855 195.51L124.465 203.723L139.15 195.398L141.887 172.175L124.446 166.048Z" fill="#B3B3B3"/>
<path d="M140.158 173.518L124.405 168.023V201.761L137.607 194.287L140.158 173.518H140.158Z" fill="#A6120D"/>
<path d="M109.061 173.617L111.407 194.387L124.405 201.761V168.022L109.061 173.616L109.061 173.617Z" fill="#DD1B16"/>
<path d="M128.742 185.983L124.406 188.057H119.836L117.687 193.554L113.691 193.629L124.406 169.248L128.742 185.983V185.983ZM128.323 184.939L124.435 177.065L121.246 184.803H124.406L128.323 184.939V184.939Z" fill="#F2F2F2"/>
<path d="M124.405 169.248L124.434 177.065L128.053 184.809H124.413L124.405 188.052L129.438 188.057L131.79 193.63L135.614 193.703L124.405 169.248Z" fill="#B3B3B3"/>
</g>
<path fill-rule="evenodd" clip-rule="evenodd" d="M288.536 142L272.185 147.676L274.525 169.368L288.536 177V142Z" fill="#412846"/>
<path fill-rule="evenodd" clip-rule="evenodd" d="M288.465 142L304.816 147.676L302.475 169.368L288.465 177V142Z" fill="#4B314F"/>
<path fill-rule="evenodd" clip-rule="evenodd" d="M296.651 153.977L296.648 153.967C297.394 154.798 297.778 155.785 297.798 156.927C297.819 158.07 297.435 159.275 296.639 160.539C297.234 160.077 297.921 159.078 298.698 157.555C299.034 160.641 297.787 162.986 294.945 164.591C295.852 164.508 297.057 163.91 298.551 162.797C296.957 166.636 294.025 168.661 289.757 168.873C285.631 168.872 282.959 166.393 282.961 166.394C281.265 165.074 280.098 163.41 279.464 161.41C278.449 160.302 278.439 160.184 278.335 159.741C278.23 159.298 278.401 159.175 278.698 158.742C278.896 158.453 278.943 158.037 278.841 157.503C278.588 157.153 278.443 156.604 278.405 155.857C278.405 155.496 278.645 155.116 279.127 154.715C279.609 154.314 279.904 154.006 280.012 153.794C280.093 153.678 280.125 153.177 280.106 152.29C280.101 151.418 280.585 150.944 281.558 150.867C283.017 150.752 283.839 149.655 284.298 149.156C284.603 148.823 285.056 148.662 285.626 148.659C286.429 148.621 287.16 148.929 287.789 149.564C289.357 149.483 290.963 149.906 292.59 150.822C294.902 152.195 296.164 153.683 296.376 155.277C296.128 157.374 293.31 157.32 287.935 155.112C285.122 155.909 283.739 157.635 283.785 160.292C283.783 162.73 284.963 164.501 287.316 165.604C286.169 164.478 285.68 163.532 285.845 162.748C288.231 165.573 290.949 166.629 293.993 165.916C292.651 165.963 291.588 165.531 290.787 164.614C292.846 164.564 294.788 163.608 296.618 161.738C295.562 162.578 294.457 162.897 293.287 162.696C296.456 160.205 297.577 157.298 296.651 153.977ZM290.899 153.593C291.156 153.593 291.364 153.385 291.364 153.128C291.364 152.871 291.156 152.663 290.899 152.663C290.642 152.663 290.434 152.871 290.434 153.128C290.434 153.385 290.642 153.593 290.899 153.593Z" fill="#BA2BD2"/>
<defs>
<clipPath id="clip0_1059_490">
<rect width="27" height="27" fill="white" transform="translate(141 97)"/>
</clipPath>
<clipPath id="clip1_1059_490">
<rect width="51.2821" height="40" fill="white" transform="translate(251 49)"/>
</clipPath>
<clipPath id="clip2_1059_490">
<rect width="35" height="37.7632" fill="white" transform="translate(107 166)"/>
</clipPath>
</defs>
</svg>
