<?xml version="1.0" ?>
<!DOCTYPE svg  PUBLIC '-//W3C//DTD SVG 1.1//EN'  'http://www.w3.org/Graphics/SVG/1.1/DTD/svg11.dtd'>
<!-- Uploaded to: SVG Repo, www.svgrepo.com, Generator: SVG Repo Mixer Tools -->
<svg width="800px" height="800px" viewBox="0 0 13333.33 13333.33" style="shape-rendering:geometricPrecision; text-rendering:geometricPrecision; image-rendering:optimizeQuality; fill-rule:evenodd; clip-rule:evenodd" version="1.1" xml:space="preserve" xmlns="http://www.w3.org/2000/svg" xmlns:xlink="http://www.w3.org/1999/xlink" xmlns:xodm="http://www.corel.com/coreldraw/odm/2003">
<defs>
<style type="text/css">
   <![CDATA[
    .fil0 {fill:none}
    .fil1 {fill:#03A9F4}
    .fil3 {fill:#4FC3F7}
    .fil2 {fill:#FFFF66}
   ]]>
  </style>
</defs>
<g id="Layer_x0020_1">
<rect class="fil0" height="13333.33" width="13333.33" x="-0" y="-0.01"/>
<path class="fil1" d="M3322.53 8404.09c-356.77,-15.63 -708.93,-159.35 -980.75,-431.16l-75.82 -75.81c-576.83,-576.81 -576.83,-1515.38 -0.01,-2092.2l3354.63 -3354.63c576.81,-576.81 1515.37,-576.81 2092.18,0l3354.63 3354.63c576.82,576.82 576.82,1515.39 -0.01,2092.2l-75.82 75.81c-271.83,271.81 -623.98,415.53 -980.75,431.16l0 1432.34c0,815.75 -663.66,1479.41 -1479.41,1479.41 -4090.92,0 361.47,0 -3729.46,0 -815.75,0 -1479.41,-663.66 -1479.41,-1479.41l0 -1432.34z"/>
<path class="fil2" d="M7148.91 2957.69l559.41 559.42 2854.94 2854.93c265.61,265.61 265.61,698.89 0,964.5l-77.17 77.17c-265.61,265.61 -698.89,265.61 -964.5,0l-2854.93 -2854.94 -2854.93 2854.94c-265.61,265.61 -698.89,265.61 -964.5,0l-77.17 -77.17c-265.61,-265.61 -265.61,-698.89 0,-964.5l2854.94 -2854.93 559.41 -559.42c265.61,-265.61 698.89,-265.61 964.5,0z"/>
<path class="fil2" d="M9246.6 8103.21l0 1789.67c0,375.63 -306.37,682 -682,682l-1027.15 0 0 -1954.39c0,-478.93 -391.85,-870.78 -870.78,-870.78l-0.01 0c-478.93,0 -870.78,391.85 -870.78,870.78l0 1954.39 -1027.15 0c-375.63,0 -682,-306.37 -682,-682l0 -1789.67 2579.94 -2579.94 2579.94 2579.94z"/>
<path class="fil3" d="M5812.8 8449.8c-719.12,5.31 -1283.74,-119.24 -1726.07,-346.59l0 1789.66c0,375.64 306.37,682.01 682.01,682.01l1027.15 0 0 -1954.39c0,-58.37 5.82,-115.46 16.91,-170.69zm1707.74 0c719.12,5.31 1283.74,-119.24 1726.07,-346.59l0 1789.66c0,375.64 -306.37,682.01 -682.01,682.01l-1027.15 0 0 -1954.39c0,-58.37 -5.82,-115.46 -16.91,-170.69z"/>
</g>
</svg>