<?xml version="1.0" encoding="iso-8859-1"?>
<!-- Uploaded to: SVG Repo, www.svgrepo.com, Generator: SVG Repo Mixer Tools -->
<svg version="1.1" id="Layer_1" xmlns="http://www.w3.org/2000/svg" xmlns:xlink="http://www.w3.org/1999/xlink" 
	 viewBox="0 0 512 512" xml:space="preserve">
<g>
	<path style="fill:#EAC36E;" d="M96.5,487.769c-4.668,0-8.453-3.785-8.453-8.453V210.097c0-4.668,3.785-8.453,8.453-8.453h26.612
		c4.668,0,8.453,3.785,8.453,8.453c0,4.668-3.785,8.453-8.453,8.453h-18.158v260.766C104.953,483.984,101.168,487.769,96.5,487.769z
		"/>
	<path style="fill:#EAC36E;" d="M415.5,487.769c-4.668,0-8.453-3.785-8.453-8.453V218.55h-18.158c-4.668,0-8.453-3.785-8.453-8.453
		c0-4.668,3.785-8.453,8.453-8.453H415.5c4.668,0,8.453,3.785,8.453,8.453v269.219C423.953,483.984,420.168,487.769,415.5,487.769z"
		/>
</g>
<g>
	<path style="fill:#FCD577;" d="M335.282,27.893h-9.855C307.399,10.617,282.94,0,256.001,0s-51.4,10.617-69.426,27.893h-9.855
		c-29.609,0-53.611,24.002-53.611,53.611v344.028c0,10.87,8.812,19.681,19.681,19.681h226.424c10.87,0,19.681-8.812,19.681-19.681
		V81.504C388.893,51.896,364.891,27.893,335.282,27.893z"/>
	<path style="fill:#FCD577;" d="M468.611,512H43.389v-14.18c0-10.219,8.284-18.504,18.504-18.504h388.212
		c10.219,0,18.504,8.284,18.504,18.504V512z"/>
</g>
<rect x="154.05" y="81.432" style="fill:#ADE6F7;" width="203.901" height="331.093"/>
<g>
	<path style="fill:#FFFFFF;" d="M154.043,293.2c-1.179,0-2.368-0.369-3.382-1.132c-2.487-1.87-2.988-5.403-1.117-7.891
		l45.364-60.331c1.87-2.487,5.402-2.989,7.891-1.117c2.487,1.87,2.988,5.403,1.117,7.891l-45.364,60.331
		C157.445,292.423,155.754,293.2,154.043,293.2z"/>
	<path style="fill:#FFFFFF;" d="M218.673,207.25c-1.179,0-2.368-0.369-3.382-1.132c-2.487-1.87-2.988-5.403-1.117-7.891
		l90.369-120.185c1.87-2.489,5.402-2.989,7.891-1.117c2.487,1.87,2.988,5.403,1.117,7.891l-90.369,120.185
		C222.073,206.473,220.384,207.25,218.673,207.25z"/>
	<path style="fill:#FFFFFF;" d="M154.043,362.001c-1.179,0-2.368-0.369-3.382-1.132c-2.487-1.87-2.988-5.403-1.117-7.891
		l163.068-216.865c1.87-2.487,5.401-2.988,7.891-1.117c2.487,1.87,2.988,5.403,1.117,7.891L158.552,359.751
		C157.445,361.224,155.754,362.001,154.043,362.001z"/>
	<path style="fill:#FFFFFF;" d="M335.398,120.818c-1.179,0-2.368-0.369-3.382-1.132c-2.487-1.871-2.988-5.403-1.117-7.891
		l22.55-29.988c1.87-2.487,5.402-2.989,7.891-1.117c2.487,1.871,2.988,5.403,1.117,7.891l-22.55,29.988
		C338.798,120.041,337.109,120.818,335.398,120.818z"/>
	<path style="fill:#FFFFFF;" d="M246.62,418.157c-1.179,0-2.368-0.369-3.382-1.132c-2.487-1.871-2.988-5.403-1.117-7.891
		l66.82-88.863c1.87-2.487,5.401-2.989,7.891-1.117c2.487,1.87,2.988,5.403,1.117,7.891l-66.82,88.863
		C250.02,417.38,248.331,418.157,246.62,418.157z"/>
	<path style="fill:#FFFFFF;" d="M329.289,308.214c-1.179,0-2.368-0.369-3.382-1.132c-2.487-1.87-2.988-5.403-1.117-7.891
		l28.658-38.112c1.87-2.487,5.402-2.989,7.891-1.117c2.487,1.87,2.988,5.403,1.117,7.891l-28.658,38.112
		C332.691,307.437,331,308.214,329.289,308.214z"/>
</g>
<g>
	<circle style="fill:#FCD577;" cx="420.425" cy="210.1" r="16.193"/>
	<circle style="fill:#FCD577;" cx="91.576" cy="210.1" r="16.193"/>
</g>
<path style="fill:#EAC36E;" d="M364.715,419.283H147.285V74.666h217.429V419.283z M160.81,405.758H351.19V88.191H160.81V405.758z"/>
</svg>