<?xml version="1.0" encoding="iso-8859-1"?>
<!-- Uploaded to: SVG Repo, www.svgrepo.com, Generator: SVG Repo Mixer Tools -->
<svg version="1.1" id="Layer_1" xmlns="http://www.w3.org/2000/svg" xmlns:xlink="http://www.w3.org/1999/xlink" 
	 viewBox="0 0 512 512" xml:space="preserve">
<g>
	<path style="fill:#FF6F52;" d="M325.373,46.906c0,38.314,31.06,69.373,69.373,69.373s69.373-31.06,69.373-69.373H47.881
		c0,38.314,31.06,69.373,69.373,69.373s69.373-31.06,69.373-69.373"/>
	<path style="fill:#FF6F52;" d="M186.627,46.906c0,38.314,31.06,69.373,69.373,69.373s69.373-31.06,69.373-69.373"/>
	<path style="fill:#FF6F52;" d="M158.236,102.877v73.833c0,60.919-20.126,114.138-50.08,142.807l-3.439,41.848
		c31.84,27.802,53.519,82.731,53.519,145.957h-39.729H82.062H47.881V361.365v-41.859v-272.6"/>
	<path style="fill:#FF6F52;" d="M464.118,46.901v460.425H353.76c0-63.227,21.681-118.163,53.526-145.959l-3.441-41.851
		c-29.961-28.664-50.085-81.885-50.085-142.811v-73.831L464.118,46.901z"/>
</g>
<g>
	<path style="fill:#ED624A;" d="M440.744,359.732l-5.11,6.746c-0.034,0.045-0.056,0.079-0.09,0.124
		c-20.722,27.457-33.593,81.366-33.593,140.724H385.03c0-62.957,14.225-120.848,37.124-151.069l5.11-6.746l11.01,8.348
		L440.744,359.732z"/>
	<path style="fill:#ED624A;" d="M438.375,321.66l-1.309,0.902l-12.612,8.709l-4.806-6.96c-21.681-31.371-34.62-86.555-34.62-147.606
		v-61.107c3.17,0.451,6.419,0.677,9.713,0.677c2.437,0,4.839-0.124,7.208-0.372v60.802c0,56.888,12.115,109.759,31.619,137.995
		l2.019,2.922L438.375,321.66z"/>
	<path style="fill:#ED624A;" d="M456.763,356.111l-2.752,8.009c-9.634,28.009-15.612,82.878-15.612,143.206h-16.921
		c0-56.888,5.324-109.5,14.067-140.724c0.79-2.843,1.624-5.505,2.47-7.987l0.259-0.756l2.493-7.242L456.763,356.111z"/>
	<path style="fill:#ED624A;" d="M455.578,325.045l-16.154,5.065l-2.358-7.547l-0.169-0.53c-0.44-1.421-0.88-2.888-1.309-4.411
		c-8.866-31.416-14.112-83.498-14.112-140.916V110.94c6.137-2.561,11.833-5.99,16.921-10.119v75.884
		c0,57.7,5.606,111.451,14.642,140.273L455.578,325.045z"/>
	<path style="fill:#ED624A;" d="M394.744,124.737c-3.686,0-7.355-0.256-10.905-0.761c-38.148-5.348-66.931-38.483-66.931-77.074
		c0-4.672,3.787-8.46,8.46-8.46s8.46,3.788,8.46,8.46c0,30.202,22.517,56.134,52.377,60.319c4.831,0.688,9.996,0.778,14.865,0.268
		c5.893-0.601,11.656-2.067,17.153-4.358c5.33-2.225,10.325-5.213,14.845-8.88c14.358-11.634,22.589-28.891,22.589-47.351
		c0-4.672,3.787-8.46,8.46-8.46s8.46,3.788,8.46,8.46c0,23.588-10.517,45.636-28.853,60.494
		c-5.771,4.684-12.162,8.504-18.988,11.353c-7.03,2.931-14.406,4.806-21.927,5.573C400.183,124.596,397.461,124.737,394.744,124.737
		z"/>
	<path style="fill:#ED624A;" d="M394.747,91.456c-24.564,0-44.55-19.986-44.55-44.55c0-4.672,3.787-8.46,8.46-8.46
		s8.46,3.788,8.46,8.46c0,15.235,12.394,27.629,27.629,27.629s27.629-12.395,27.629-27.629c0-4.672,3.787-8.46,8.46-8.46
		s8.46,3.788,8.46,8.46C439.297,71.471,419.311,91.456,394.747,91.456z"/>
	<path style="fill:#ED624A;" d="M255.997,124.737c-3.686,0-7.355-0.256-10.905-0.761c-38.148-5.348-66.931-38.483-66.931-77.074
		c0-4.672,3.787-8.46,8.46-8.46s8.46,3.788,8.46,8.46c0,30.202,22.517,56.134,52.377,60.319c4.831,0.688,9.997,0.778,14.865,0.268
		c5.894-0.601,11.657-2.067,17.152-4.358c5.333-2.226,10.328-5.213,14.845-8.879c14.359-11.634,22.59-28.891,22.59-47.351
		c0-4.672,3.787-8.46,8.46-8.46s8.46,3.788,8.46,8.46c0,23.589-10.517,45.638-28.853,60.494
		c-5.769,4.681-12.159,8.503-18.988,11.353c-7.029,2.931-14.406,4.805-21.927,5.573
		C261.436,124.596,258.714,124.737,255.997,124.737z"/>
	<path style="fill:#ED624A;" d="M256,91.456c-24.566,0-44.551-19.986-44.551-44.55c0-4.672,3.787-8.46,8.46-8.46
		s8.46,3.788,8.46,8.46c0,15.235,12.395,27.629,27.63,27.629c15.234,0,27.628-12.395,27.628-27.629c0-4.672,3.787-8.46,8.46-8.46
		s8.46,3.788,8.46,8.46C300.55,71.471,280.566,91.456,256,91.456z"/>
	<path style="fill:#ED624A;" d="M117.249,124.737c-3.686,0-7.355-0.256-10.904-0.761c-38.15-5.347-66.932-38.483-66.932-77.074
		c0-4.672,3.787-8.46,8.46-8.46s8.46,3.788,8.46,8.46c0,30.202,22.517,56.134,52.378,60.319c4.83,0.687,9.992,0.778,14.865,0.268
		c5.894-0.601,11.656-2.067,17.151-4.358c5.333-2.225,10.327-5.212,14.845-8.879c14.359-11.634,22.59-28.891,22.59-47.351
		c0-4.672,3.787-8.46,8.46-8.46s8.46,3.788,8.46,8.46c0,23.589-10.517,45.638-28.853,60.494c-5.77,4.683-12.16,8.504-18.99,11.353
		c-7.028,2.931-14.405,4.805-21.926,5.571C122.688,124.596,119.967,124.737,117.249,124.737z"/>
	<path style="fill:#ED624A;" d="M117.253,91.456c-24.564,0-44.55-19.986-44.55-44.55c0-4.672,3.787-8.46,8.46-8.46
		s8.46,3.788,8.46,8.46c0,15.235,12.394,27.629,27.629,27.629c15.234,0,27.628-12.395,27.628-27.629c0-4.672,3.787-8.46,8.46-8.46
		s8.46,3.788,8.46,8.46C161.803,71.471,141.819,91.456,117.253,91.456z"/>
</g>
<rect x="403.842" y="319.509" style="fill:#FCD577;" width="60.272" height="41.862"/>
<rect x="433.984" y="319.509" style="fill:#EAC36A;" width="30.136" height="41.862"/>
<g>
	<path style="fill:#ED624A;" d="M71.254,359.732l5.11,6.746c0.034,0.045,0.056,0.079,0.09,0.124
		c20.722,27.457,33.593,81.366,33.593,140.724h16.921c0-62.957-14.225-120.848-37.124-151.069l-5.11-6.746l-11.01,8.348
		L71.254,359.732z"/>
	<path style="fill:#ED624A;" d="M73.623,321.66l1.309,0.902l12.612,8.709l4.805-6.96c21.681-31.371,34.62-86.555,34.62-147.606
		v-61.107c-3.17,0.451-6.419,0.677-9.713,0.677c-2.437,0-4.839-0.124-7.208-0.372v60.802c0,56.888-12.115,109.759-31.619,137.995
		l-2.019,2.922L73.623,321.66z"/>
	<path style="fill:#ED624A;" d="M55.236,356.111l2.752,8.009c9.634,28.009,15.612,82.878,15.612,143.206h16.921
		c0-56.888-5.324-109.5-14.067-140.724c-0.79-2.843-1.624-5.505-2.47-7.987l-0.259-0.756l-2.493-7.242L55.236,356.111z"/>
	<path style="fill:#ED624A;" d="M56.421,325.045l16.154,5.065l2.358-7.547l0.169-0.53c0.44-1.421,0.88-2.888,1.309-4.411
		c8.866-31.416,14.112-83.498,14.112-140.916V110.94c-6.137-2.561-11.833-5.99-16.921-10.119v75.884
		c0,57.7-5.606,111.451-14.642,140.273L56.421,325.045z"/>
</g>
<rect x="47.875" y="319.509" style="fill:#FCD577;" width="60.272" height="41.862"/>
<rect x="47.875" y="319.509" style="fill:#EAC36A;" width="30.136" height="41.862"/>
<path style="fill:#FCD577;" d="M512,4.674v23.565c-13.424,0-24.298,10.886-24.298,24.31H24.298c0-13.424-10.874-24.31-24.298-24.31
	V4.674H512z"/>
<path style="fill:#EAC36A;" d="M512,28.239c-13.424,0-24.298,10.886-24.298,24.31H24.298c0-13.424-10.874-24.31-24.298-24.31H512z"
	/>
</svg>