<?xml version="1.0" encoding="iso-8859-1"?>
<!-- Uploaded to: SVG Repo, www.svgrepo.com, Generator: SVG Repo Mixer Tools -->
<svg version="1.1" id="Layer_1" xmlns="http://www.w3.org/2000/svg" xmlns:xlink="http://www.w3.org/1999/xlink" 
	 viewBox="0 0 512 512" xml:space="preserve">
<circle style="fill:#5ADFA8;" cx="256" cy="256" r="256"/>
<path style="fill:#00BEA5;" d="M511.97,258.407L410.297,156.735c0.983,0.983-195.041,137.929-218.232,154.125
	c-36.479,18.317-88.835,47.4-88.372,46.937L257.72,511.978C397.507,511.056,510.68,398.108,511.97,258.407z"/>
<path style="fill:#1E495F;" d="M387.811,366.458H124.189c-15.785,0-28.581-12.796-28.581-28.581V174.123
	c0-15.785,12.796-28.581,28.581-28.581h263.621c15.785,0,28.581,12.796,28.581,28.581v163.754
	C416.392,353.662,403.596,366.458,387.811,366.458z"/>
<path style="fill:#1D384E;" d="M387.811,145.542H259.135v220.918h128.676c15.785,0,28.581-12.797,28.581-28.582V174.123
	C416.392,158.338,403.596,145.542,387.811,145.542z"/>
<g>
	<rect x="280.033" y="212.114" style="fill:#E0F2FF;" width="109.714" height="8.359"/>
	<rect x="280.033" y="250.775" style="fill:#E0F2FF;" width="109.714" height="8.359"/>
	<rect x="280.033" y="289.437" style="fill:#E0F2FF;" width="109.714" height="8.359"/>
	<circle style="fill:#E0F2FF;" cx="184.424" cy="253.388" r="55.902"/>
</g>
<path style="fill:#F23F44;" d="M184.424,197.486v55.66l39.406-39.406C213.723,203.694,199.799,197.486,184.424,197.486z"/>
</svg>