<?xml version="1.0" encoding="iso-8859-1"?>
<!-- Uploaded to: SVG Repo, www.svgrepo.com, Generator: SVG Repo Mixer Tools -->
<svg version="1.1" id="Layer_1" xmlns="http://www.w3.org/2000/svg" xmlns:xlink="http://www.w3.org/1999/xlink" 
	 viewBox="0 0 512 512" xml:space="preserve">
<polygon style="fill:#9BD6FF;" points="256,479.644 337.385,479.644 326.606,405.24 256,384.342 235.102,436.327 "/>
<polygon style="fill:#C4EAFF;" points="256,384.342 185.394,405.24 174.615,479.644 256,479.644 "/>
<path style="fill:#9BD6FF;" d="M488.285,16.679H256l-41.796,157.015L256,349.18l256-31.347V40.394
	C512,27.296,501.383,16.679,488.285,16.679z"/>
<path style="fill:#C4EAFF;" d="M256,16.679H23.715C10.617,16.679,0,27.296,0,40.394v277.439l256,31.347V16.679z"/>
<polygon style="fill:#2D64BC;" points="256,263.935 224.653,170.118 256,70.576 458.102,70.576 458.102,263.935 "/>
<rect x="53.897" y="70.581" style="fill:#6499F3;" width="202.104" height="193.358"/>
<path style="fill:#FF8E00;" d="M370.097,125.814l-20.898,41.442l20.898,39.381c22.318,0,40.41-18.092,40.41-40.411
	S392.415,125.814,370.097,125.814z"/>
<path style="fill:#2D64BC;" d="M256,317.833l-31.347,43.704L256,405.241h232.285c13.098,0,23.715-10.617,23.715-23.715v-63.693
	L256,317.833L256,317.833z"/>
<path style="fill:#6499F3;" d="M256,317.833H0v63.693c0,13.097,10.617,23.715,23.715,23.715H256V317.833z"/>
<rect x="233.733" y="345.859" style="fill:#C4EAFF;" width="44.543" height="31.347"/>
<polygon style="fill:#2D64BC;" points="382.119,495.317 256,495.317 235.102,479.644 256,463.97 382.119,463.97 "/>
<rect x="129.881" y="463.974" style="fill:#6499F3;" width="126.119" height="31.347"/>
<polygon style="fill:#FF7D3C;" points="279.043,170.118 258.145,263.935 336.222,263.935 "/>
<polygon style="fill:#FFB995;" points="279.043,170.118 279.043,170.118 221.865,263.935 279.043,263.935 "/>
<polygon style="fill:#E04C00;" points="180.868,133.156 159.97,263.935 260.574,263.935 "/>
<polygon style="fill:#FF7D3C;" points="180.868,133.156 101.162,263.935 180.868,263.935 "/>
<path style="fill:#FFBA00;" d="M370.097,125.814c-22.318,0-40.41,18.092-40.41,40.411s18.092,40.411,40.41,40.411V125.814z"/>
</svg>