<?xml version="1.0" encoding="iso-8859-1"?>
<!-- Uploaded to: SVG Repo, www.svgrepo.com, Generator: SVG Repo Mixer Tools -->
<svg height="800px" width="800px" version="1.1" id="Layer_1" xmlns="http://www.w3.org/2000/svg" xmlns:xlink="http://www.w3.org/1999/xlink" 
	 viewBox="0 0 512.005 512.005" xml:space="preserve">
<path style="fill:#F4B2B0;" d="M360.333,321.044c-18.463,0-35.602,5.636-49.808,15.284H201.48
	c-14.207-9.647-31.348-15.284-49.808-15.284c-49.043,0-88.792,39.756-88.792,88.792s39.749,88.792,88.792,88.792
	c40.184,0,74.115-26.7,85.062-63.32l0.037,0.107l19.227-53.899l19.229,53.899l0.035-0.107c10.955,36.62,44.888,63.32,85.071,63.32
	c49.035,0,88.792-39.756,88.792-88.792S409.37,321.044,360.333,321.044L360.333,321.044z M151.672,454.232
	c-24.517,0-44.395-19.878-44.395-44.395c0-24.517,19.878-44.395,44.395-44.395s44.395,19.878,44.395,44.395
	C196.067,434.354,176.189,454.232,151.672,454.232L151.672,454.232z M360.333,454.232c-24.525,0-44.395-19.878-44.395-44.395
	c0-24.517,19.871-44.395,44.395-44.395c24.517,0,44.395,19.878,44.395,44.395C404.73,434.354,384.851,454.232,360.333,454.232
	L360.333,454.232z"/>
<g>
	<path style="fill:#B3404A;" d="M360.333,307.67c-19.129,0-37.627,5.271-53.764,15.284h-71.351L392.954,43.007
		c21.265,57.457,13.679,121.902-21.631,173.383l-34.473,50.261c-4.178,6.092-2.627,14.416,3.464,18.594
		c6.093,4.178,14.416,2.625,18.594-3.465l34.473-50.261c45.84-66.833,50.719-152.823,12.732-224.412
		c-2.291-4.319-6.757-7.043-11.645-7.104c-4.886-0.094-9.421,2.548-11.821,6.807L208.69,315.545l-68.007-99.154
		c-35.309-51.48-42.896-115.928-21.631-173.383l92.966,164.992c3.626,6.434,11.781,8.712,18.217,5.086s8.713-11.783,5.088-18.217
		L129.358,6.811c-2.373-4.209-6.827-6.809-11.652-6.809c-0.056,0-0.112,0-0.17,0.001c-4.888,0.062-9.354,2.786-11.645,7.104
		C67.906,78.697,72.785,164.687,118.624,231.52l53.664,78.241c-6.733-1.38-13.631-2.09-20.616-2.09
		c-56.334,0-102.166,45.832-102.166,102.166s45.832,102.166,102.166,102.166c22.43,0,43.719-7.135,61.564-20.636
		c16.838-12.737,29.529-30.716,35.86-50.756c0.096-0.23,0.187-0.464,0.271-0.699l6.631-18.589l6.632,18.589
		c0.082,0.229,0.169,0.453,0.262,0.675c6.333,20.05,19.03,38.037,35.876,50.782c17.846,13.501,39.135,20.636,61.565,20.636
		c56.334,0,102.166-45.832,102.166-102.166S416.668,307.67,360.333,307.67z M360.333,485.253c-33.073,0-62.786-22.114-72.259-53.779
		c-0.198-0.661-0.444-1.297-0.733-1.905l-18.748-52.547c-1.899-5.324-6.943-8.88-12.596-8.88c-5.655,0-10.697,3.555-12.596,8.88
		l-18.733,52.512c-0.297,0.621-0.548,1.268-0.749,1.942c-9.465,31.663-39.175,53.776-72.248,53.776
		c-41.585,0-75.418-33.832-75.418-75.418s33.833-75.418,75.418-75.418c15.17,0,29.796,4.486,42.296,12.974
		c2.216,1.505,4.833,2.31,7.514,2.31h109.046c2.679,0,5.296-0.805,7.514-2.31c12.499-8.489,27.124-12.974,42.296-12.974
		c41.585,0,75.418,33.833,75.418,75.418S401.919,485.253,360.333,485.253z"/>
	<path style="fill:#B3404A;" d="M360.333,352.065c-31.854,0-57.77,25.915-57.77,57.77s25.915,57.77,57.77,57.77
		s57.77-25.915,57.77-57.77S392.188,352.065,360.333,352.065z M360.333,440.858c-17.106,0-31.021-13.916-31.021-31.021
		c0-17.105,13.916-31.021,31.021-31.021c17.105,0,31.021,13.916,31.021,31.021C391.355,426.942,377.439,440.858,360.333,440.858z"/>
	<path style="fill:#B3404A;" d="M151.672,352.065c-31.854,0-57.77,25.915-57.77,57.77s25.915,57.77,57.77,57.77
		s57.77-25.915,57.77-57.77S183.526,352.065,151.672,352.065z M151.672,440.858c-17.105,0-31.021-13.916-31.021-31.021
		c0-17.105,13.916-31.021,31.021-31.021s31.021,13.916,31.021,31.021C182.693,426.942,168.777,440.858,151.672,440.858z"/>
</g>
</svg>