<svg xmlns="http://www.w3.org/2000/svg" xmlns:xlink="http://www.w3.org/1999/xlink" width="920" height="415" viewBox="0 0 920 415">
  <defs>
    <clipPath id="clip-Featured_image_920x415_What_Are_the_Best_Front-End_Programming_Languages_to_use_in_2022">
      <rect width="920" height="415"/>
    </clipPath>
  </defs>
  <g id="Featured_image_920x415_What_Are_the_Best_Front-End_Programming_Languages_to_use_in_2022" data-name="Featured image – 920x415_What Are the Best Front-End Programming Languages to use in 2022" clip-path="url(#clip-Featured_image_920x415_What_Are_the_Best_Front-End_Programming_Languages_to_use_in_2022)">
    <rect width="920" height="415" fill="#fff"/>
    <rect id="Rectangle_7346" data-name="Rectangle 7346" width="631.215" height="0.443" transform="translate(144.393 332.918)" fill="#1d1d1b"/>
    <g id="Group_26605" data-name="Group 26605" transform="translate(45.698 -1)">
      <g id="Group_26604" data-name="Group 26604" transform="translate(-7166 13811)">
        <g id="Group_26405" data-name="Group 26405" transform="translate(7534.182 -13409.064) rotate(-90)">
          <path id="Path_13738" data-name="Path 13738" d="M-13,0H170.667V282.431H-13V0Z" transform="translate(176.269 -90.879)" fill="none" stroke="#e5e5e5" stroke-width="4"/>
        </g>
        <g id="Group_26607" data-name="Group 26607" transform="translate(-10 -24.467)">
          <g id="Vue.js_Logo_2" transform="translate(7665.303 -13704)">
            <g id="Group_26572" data-name="Group 26572" transform="translate(0)">
              <path id="Path_13682" data-name="Path 13682" d="M-133.544,0l-5.17,8.955L-143.884,0H-161.1l22.388,38.777L-116.326,0Z" transform="translate(161.101)" fill="#41b883"/>
            </g>
            <g id="Group_26573" data-name="Group 26573" transform="translate(8.955)">
              <path id="Path_13683" data-name="Path 13683" d="M-90.148,0l-5.17,8.955L-100.488,0h-8.262l13.433,23.266L-81.885,0Z" transform="translate(108.751)" fill="#34495e"/>
            </g>
          </g>
        </g>
        <g id="Group_26609" data-name="Group 26609" transform="translate(0.11 -24.05)">
          <path id="Path_13726" data-name="Path 13726" d="M53.514,30h0L31.9,37.708l3.3,28.578L53.514,76.431h0L71.831,66.286l3.3-28.578Z" transform="translate(7499.403 -13738)" fill="#dd0031"/>
          <path id="Path_13727" data-name="Path 13727" d="M125,30V58.648h0V76.431h0l18.317-10.145,3.3-28.578Z" transform="translate(7427.917 -13738)" fill="#c3002f"/>
          <path id="Path_13728" data-name="Path 13728" d="M80.312,52.1,66.8,82.4h5.038l2.716-6.779H86.023L88.739,82.4h5.038L80.312,52.1Zm3.947,19.339H76.365l3.947-9.5Z" transform="translate(7472.605 -13754.97)" fill="#fff"/>
        </g>
        <g id="Group_26606" data-name="Group 26606" transform="translate(131.963 -36.469)">
          <g id="Group_26601" data-name="Group 26601" transform="translate(7460.339 -13692.999)">
            <path id="Path_13593" data-name="Path 13593" d="M222.039,98.638c0-3.07-3.844-5.979-9.738-7.783,1.36-6.007.756-10.787-1.908-12.317a4.141,4.141,0,0,0-2.116-.529v2.106a2.187,2.187,0,0,1,1.077.246c1.285.737,1.842,3.542,1.407,7.15-.1.888-.274,1.823-.482,2.777a45.777,45.777,0,0,0-6-1.03,46.074,46.074,0,0,0-3.929-4.723c3.079-2.862,5.969-4.43,7.934-4.43V78h0c-2.6,0-6,1.851-9.436,5.063-3.438-3.193-6.838-5.025-9.436-5.025v2.106c1.955,0,4.855,1.558,7.934,4.4a44.616,44.616,0,0,0-3.9,4.713,44.111,44.111,0,0,0-6.007,1.039c-.217-.945-.378-1.861-.491-2.739-.444-3.608.1-6.413,1.379-7.16a2.1,2.1,0,0,1,1.086-.246V78.047h0a4.211,4.211,0,0,0-2.135.529c-2.654,1.53-3.249,6.3-1.88,12.288-5.875,1.814-9.7,4.713-9.7,7.774s3.844,5.979,9.738,7.783c-1.36,6.007-.756,10.787,1.908,12.317a4.152,4.152,0,0,0,2.125.529c2.6,0,6-1.851,9.436-5.063,3.438,3.193,6.838,5.025,9.436,5.025a4.212,4.212,0,0,0,2.135-.529c2.654-1.53,3.249-6.3,1.88-12.288C218.214,104.608,222.039,101.7,222.039,98.638Zm-12.3-6.3c-.349,1.218-.784,2.475-1.275,3.731-.387-.756-.793-1.511-1.237-2.267s-.9-1.492-1.36-2.21C207.21,91.79,208.5,92.036,209.741,92.338ZM205.415,102.4c-.737,1.275-1.492,2.484-2.276,3.608-1.407.123-2.834.189-4.269.189s-2.852-.066-4.25-.179q-1.176-1.686-2.286-3.589-1.077-1.856-1.965-3.759c.586-1.266,1.247-2.531,1.955-3.769.737-1.275,1.492-2.484,2.276-3.608,1.407-.123,2.834-.189,4.269-.189s2.852.066,4.25.179q1.176,1.686,2.286,3.589,1.077,1.856,1.965,3.759C206.775,99.894,206.124,101.16,205.415,102.4Zm3.051-1.228c.51,1.266.945,2.531,1.3,3.759-1.237.3-2.541.557-3.891.756.463-.727.926-1.473,1.36-2.239S208.079,101.925,208.466,101.169Zm-9.578,10.078a38.939,38.939,0,0,1-2.626-3.023c.85.038,1.719.066,2.6.066s1.766-.019,2.626-.066A36.875,36.875,0,0,1,198.888,111.248Zm-7.027-5.563c-1.341-.2-2.635-.444-3.873-.746.349-1.218.784-2.475,1.275-3.731.387.756.793,1.511,1.237,2.267S191.4,104.966,191.861,105.684Zm6.98-19.656a38.947,38.947,0,0,1,2.626,3.022c-.85-.038-1.719-.066-2.6-.066s-1.766.019-2.626.066A36.868,36.868,0,0,1,198.841,86.029Zm-6.99,5.563c-.463.727-.926,1.473-1.36,2.239s-.841,1.511-1.228,2.267c-.51-1.266-.945-2.531-1.3-3.759C189.2,92.045,190.5,91.79,191.852,91.592ZM183.3,103.417c-3.344-1.426-5.507-3.3-5.507-4.779s2.163-3.363,5.507-4.779c.812-.349,1.7-.661,2.616-.954a45.357,45.357,0,0,0,2.125,5.752,44.721,44.721,0,0,0-2.1,5.724C185.013,104.088,184.125,103.767,183.3,103.417Zm5.082,13.5c-1.285-.737-1.842-3.542-1.407-7.15.1-.888.274-1.823.482-2.777a45.772,45.772,0,0,0,6,1.03,46.069,46.069,0,0,0,3.929,4.723c-3.079,2.862-5.969,4.43-7.934,4.43A2.254,2.254,0,0,1,188.385,116.915Zm22.4-7.2c.444,3.608-.1,6.413-1.379,7.16a2.1,2.1,0,0,1-1.086.246c-1.955,0-4.855-1.559-7.934-4.4a44.613,44.613,0,0,0,3.9-4.713,44.111,44.111,0,0,0,6.007-1.039A26.467,26.467,0,0,1,210.79,109.717Zm3.636-6.3c-.812.349-1.7.661-2.616.954a45.358,45.358,0,0,0-2.125-5.752,44.719,44.719,0,0,0,2.1-5.724c.935.293,1.823.614,2.654.963,3.344,1.426,5.507,3.3,5.507,4.779S217.77,102,214.426,103.417Z" transform="translate(-175.7 -78)" fill="#61dafb"/>
          </g>
        </g>
      </g>
    </g>
    <g id="Group_26600" data-name="Group 26600" transform="translate(-40.4 23)">
      <g id="APPLOVER_ilustration_EXPORT_APPLOVER_ilu-3" transform="translate(162.4 56.195)">
        <path id="Path_12494" data-name="Path 12494" d="M99.694,60.058A21.2,21.2,0,0,0,102.234,67a35.905,35.905,0,0,0,3.4,5.878,20.053,20.053,0,0,0,4.424,4.4,55.488,55.488,0,0,1,4.609,3.154c1.7,1.536,1.761,3.462,2.458,5.448a8.418,8.418,0,0,0,3.277,4.363c7.435,5.08,10.364,1.434,10.63-5.756.676-19.643-10.446-33.53-17.451-42.829C108.788,35.377,99.367,56.494,99.694,60.058Z" transform="translate(25.761 -11.08)" fill="#1d1d1b"/>
        <path id="Path_12495" data-name="Path 12495" d="M148.41,134.957l2.54,10.323,7.66-6.391-3.851-5.08Z" transform="translate(76.835 86.728)" fill="#d7aa79"/>
        <path id="Path_12496" data-name="Path 12496" d="M175.682,137.841a9.135,9.135,0,0,1-.369,1.229l-25.132,9.75-.471-1.762-.266-1-1.372-5.08a.819.819,0,0,1,.963-1.106l1.618.614a5.551,5.551,0,0,0,6.309-2.847l1.454-2.806s9.77.164,16.386.9a1.045,1.045,0,0,1,.963,1A4.094,4.094,0,0,1,175.682,137.841Z" transform="translate(76.416 87.797)" fill="#fc636b"/>
        <path id="Path_12497" data-name="Path 12497" d="M174.948,136.866l-25.972,9.217-.266-1,26.3-9.319A4.094,4.094,0,0,1,174.948,136.866Z" transform="translate(77.15 88.772)" fill="#fff"/>
        <path id="Path_12498" data-name="Path 12498" d="M196.646,116.449c1.721-6.8-85.78-26.422-85.78-26.422h0l-6.944-2.4A42.87,42.87,0,0,0,91.755,85.05l-.492,24.579a21.179,21.179,0,0,0,13.805,20.38l70.337.348.123,2.048a34.185,34.185,0,0,0,6.145,17.758l26.5,37.483,8.3-1.331Z" transform="translate(16.925 35.616)" fill="#efefef"/>
        <path id="Path_12499" data-name="Path 12499" d="M137.7,99.343l1.639,14.747,9.442-3.175L144.7,97.52Z" transform="translate(65.609 48.687)" fill="#d7aa79"/>
        <path id="Path_12500" data-name="Path 12500" d="M164.074,112.688H137.14L138,104.5a.819.819,0,0,1,1.29-.676l1.29,1.167a5.571,5.571,0,0,0,6.923-.369l2.376-2.048s9.053,3.687,14.911,6.759C166.45,110.251,164.074,112.688,164.074,112.688Z" transform="translate(65.022 53.981)" fill="#fc636b"/>
        <path id="Path_12501" data-name="Path 12501" d="M165.035,107.326l-27.692-1.106-.123,1,27.2,1.106Z" transform="translate(65.106 57.807)" fill="#fff"/>
        <path id="Path_12502" data-name="Path 12502" d="M121.3,68.257s1.68,7.988-10.241,9.463c-13.621,1.7-19.684-10.835-18.065-12.781l6.145-1.68c.963-1.311.164-12.9.143-16.673,0-2.908,13.928,1.884,14.768,3.953a76.316,76.316,0,0,1,.143,7.947c0,1.741.451,6.145.451,6.145Z" transform="translate(18.474 -5.659)" fill="#b1855e"/>
        <path id="Path_12503" data-name="Path 12503" d="M155.871,73.591,144.953,87.928l-2.622,3.441-8.4-.963,1.577,3.4a15.465,15.465,0,0,1-2.315,9.135l-4.1,9.115-.84,3.216-1.5,5.858-28.45-2.519-3.339-.307-5.9-40.862c0-.471-.123-1.045-.143-1.659a42.338,42.338,0,0,1,.451-7.025s0,0,0-.123a19.048,19.048,0,0,1,.86-3.789l2.929-2.5.307-.266.2-.164,7.538-6.145,1.884-5.141a38.589,38.589,0,0,0,16.12,2.048l.614,6.145,6.35,1.086C130.288,61.445,155.871,73.591,155.871,73.591Z" transform="translate(14.482 -0.465)" fill="#79a0f3"/>
        <path id="Path_12504" data-name="Path 12504" d="M98.383,112.615l-3.339-.307L91.562,112l-1.557-8.93A320.084,320.084,0,0,1,88.92,69.889a67.924,67.924,0,0,1,.451-7.025V62.74a19.048,19.048,0,0,1,.86-3.789l3.011-2.6C86.769,62.9,98.383,112.615,98.383,112.615Z" transform="translate(14.414 5.531)" fill="#5285f0"/>
        <path id="Path_12505" data-name="Path 12505" d="M103.83,68.11l14.461,3.974,1.577,3.4C120.134,76.078,103.83,68.11,103.83,68.11Z" transform="translate(30.105 17.859)" fill="#5285f0"/>
        <path id="Path_12506" data-name="Path 12506" d="M160.82,127.492l-8.705,2.335-19.766-21.814a49.015,49.015,0,0,1-6.8-22.531l-.8-10.712,20.237,2.376Z" transform="translate(52.034 24.84)" fill="#f6f8fa"/>
        <path id="Path_12507" data-name="Path 12507" d="M182.184,79.741l8.562,27.078-21.138-8.05-31.441,29.577a28.675,28.675,0,0,1-12.023,10.733c-9.463,4.4-18.885,6.145-27.918.184a19.5,19.5,0,0,1-4.1-4.1,25.767,25.767,0,0,1-5.018-19.417l2.56-19.028,35.947,1.208L162.89,73.351C172.107,68,179.542,71.364,182.184,79.741Z" transform="translate(14.386 20.647)" fill="#f6f8fa"/>
        <path id="Path_12508" data-name="Path 12508" d="M179.939,91.581c-.164.451-6.923-5.325-7.394-4.26s.143,2.048-1.024,2.048c0,0-1.475-2.827-3.38-6.616l-23.493.389-28.368-7L127.2,61.8l20.175,9.033,25.521,6.145c3.83,3.707,7.763,8.521,8.193,11.06C181.25,89.246,180.267,90.5,179.939,91.581Z" transform="translate(43.155 11.244)" fill="#d7aa79"/>
        <path id="Path_12509" data-name="Path 12509" d="M99.482,119.9a549.816,549.816,0,0,1,43.935-34.595l5.735-4.1,2.806-1.9c1.311-.9,2.868-2.458,4.527-1.167a20.83,20.83,0,0,1,4.1,5.182c1.045,1.618,2.048,3.277,2.909,4.936,3.277,6,6.39,12.085,9.463,18.209,3.3,6.575,6.575,13.191,9.668,19.888.143.307.574,0,.43-.266-5.858-12.7-12.126-25.275-18.844-37.565a50.734,50.734,0,0,0-6.6-9.975c-1.27-1.434-2.4-1.925-4.1-.881-2.048,1.229-3.974,2.7-5.94,4.1q-11.736,8.193-23.022,16.877Q111.567,108.7,99.2,119.491c-.266.225,0,.594.348.369Z" transform="translate(25.133 27.29)" fill="#1d1d1b"/>
        <path id="Path_12510" data-name="Path 12510" d="M100.183,106.721a15.648,15.648,0,0,0,3.175-10.241A8.316,8.316,0,0,0,98.4,89.7c-.307-.123-.451.369-.143.492a7.947,7.947,0,0,1,4.65,7,15.71,15.71,0,0,1-3.154,9.36c-.184.287.246.533.43.266Z" transform="translate(24.084 40.47)" fill="#1d1d1b"/>
        <path id="Path_12511" data-name="Path 12511" d="M96.462,61.111a24.968,24.968,0,0,0,9.75,7.169c4.465,1.311,6.964,1.127,9.75-1.843,4.1-4.342,5.428-8.951,4.772-15.526-.123-1.331.471-3.236.2-4.731-.676-3.81-1-7.312-1.393-9.094-.574-2.724-.819-3.441-.819-3.441-.348-.369-.574-.963-1-1.065C88.9,26.332,96.135,60.64,96.462,61.111Z" transform="translate(21.291 -20.183)" fill="#d7aa79"/>
        <ellipse id="Ellipse_1100" data-name="Ellipse 1100" cx="0.717" cy="0.717" rx="0.717" ry="0.717" transform="translate(139.69 29.519)" fill="#1d1e1c"/>
        <ellipse id="Ellipse_1101" data-name="Ellipse 1101" cx="0.717" cy="0.717" rx="0.717" ry="0.717" transform="translate(133.218 29.97)" fill="#1d1e1c"/>
        <path id="Path_12512" data-name="Path 12512" d="M105.773,41.063a10.466,10.466,0,0,0,.512,3.974,8.646,8.646,0,0,1,.389,1.864c0,.184,0,.43-.164.553s-.471,0-.676,0a.533.533,0,0,0-.635.369.512.512,0,0,0,.369.635,1.72,1.72,0,0,0,1.884-.553,2.663,2.663,0,0,0,0-2.048,14.522,14.522,0,0,1-.737-4.834.512.512,0,0,0-.512-.512.492.492,0,0,0-.512.512Z" transform="translate(31.521 -11.073)" fill="#b1855e"/>
        <rect id="Rectangle_6988" data-name="Rectangle 6988" width="24.313" height="24.313" transform="translate(57.883 164.804) rotate(90)" fill="#e5e5e5"/>
        <rect id="Rectangle_6989" data-name="Rectangle 6989" width="24.313" height="24.313" transform="translate(57.883 239.298) rotate(90)" fill="#79a0f3"/>
        <rect id="Rectangle_6990" data-name="Rectangle 6990" width="24.313" height="24.313" transform="translate(57.883 202.122) rotate(90)" fill="#e5e5e5"/>
        <rect id="Rectangle_6991" data-name="Rectangle 6991" width="24.313" height="24.313" transform="translate(24.313 239.298) rotate(90)" fill="#c4f3e7"/>
        <path id="Path_12513" data-name="Path 12513" d="M133.072,39.6c-3.523-3.953-6.964-7.783-15.812-7.251h0a6.145,6.145,0,1,0-10.405,4.363c-5.919,6.431-6.145,18.434-9.34,24.825-1.8,1.352-3.625,2.683-5.489,3.953S87.929,68.029,86,69.4a9.3,9.3,0,0,0-3.5,4.1,13.334,13.334,0,0,0,1.086,11.224,6.9,6.9,0,0,0,.594.717,12.72,12.72,0,0,0-.512,4.67,15.71,15.71,0,0,0,6.739,12.105,16.2,16.2,0,0,0,7.619,2.355c1.249,1.229,2.622,2.5,4.1,3.789,4.1,3.523,23.923-40.145,12.883-44.1a5.9,5.9,0,0,1-3.134-7.476c8.07,5.448,5.653-2.212,6.841-2.355,10.446-1.208,11.265-9.975,12.412-10.057,5.121-.287.7,7.148,4.26,7.722C135.284,52.134,135.8,42.692,133.072,39.6ZM82.952,82.612c-1.29-3.6-1.188-8.644,1.68-11.45A28.123,28.123,0,0,1,89.445,67.8c1.843-1.188,3.646-2.417,5.448-3.687L96.777,62.7a7.374,7.374,0,0,1-1,1.311c-5.653,5.776-9.2,11.368-9.75,17.328a17.817,17.817,0,0,0-1.7,3.5,7,7,0,0,1-1.372-2.294Zm3.421,3.851a6.451,6.451,0,0,1-1.7-1.208,15.874,15.874,0,0,1,1.352-2.868,17.327,17.327,0,0,0,.348,4.076Zm-.184,10.569a15.116,15.116,0,0,1-1.864-11.163,6.821,6.821,0,0,0,2.048,1.352c1.208,5.121,4.67,10.61,10.815,16.755a14.112,14.112,0,0,1-11.061-6.944Z" transform="translate(6.946 -26.138)" fill="#1d1d1b"/>
      </g>
      <rect id="Rectangle_7650" data-name="Rectangle 7650" width="141" height="137" transform="translate(235 222)" fill="#e4e4e4"/>
    </g>
    <g id="Group_26599" data-name="Group 26599" transform="translate(590 69.835)">
      <rect id="Rectangle_7420" data-name="Rectangle 7420" width="89.869" height="156.931" transform="translate(56.731 142.16)" fill="#fff" stroke="#707070" stroke-width="1"/>
      <rect id="Rectangle_7421" data-name="Rectangle 7421" width="20.266" height="20.266" transform="translate(116.751 154.008)" fill="#88e8d0"/>
      <path id="Path_13476" data-name="Path 13476" d="M128.178,159.031l-1.3-13.175c-2.059.663-2.081,3.705-5.878,4.575-1.967.48-4.575-5.284-6.862-5.169-4.941.229,1.189,3.614-.389,4.414a114.353,114.353,0,0,0-12.306,8.1c-2.516,1.9,4.186,8.257,14.685,5.581Z" transform="translate(-38.144 97.083)" fill="#484e5d"/>
      <path id="Path_13477" data-name="Path 13477" d="M108.385,156.745a23.169,23.169,0,0,0,8.486-2.425h0l9.149-3.934-.229-.526-9.149,3.957a19.921,19.921,0,0,1-9.149,2.287l-6.473-.709v.572l6.473.709Z" transform="translate(-36.238 103.006)" fill="#fff"/>
      <path id="Path_13478" data-name="Path 13478" d="M102.184,97.157q16.217-.686,32.457-.3c.366,0,.366.595,0,.572q-16.217-.366-32.457.3A.286.286,0,0,1,102.184,97.157Z" transform="translate(-47.168 34.596)" fill="#1d1d1b"/>
      <path id="Path_13479" data-name="Path 13479" d="M107.587,166.188c2.813-1.441,6.29-10.91,6.29-10.91l-.846-12.992-8.989-4.346,1.372,13.518c-.846,3.431-.778,7.228-3.934,8.829C101.48,160.287,108.571,165.525,107.587,166.188Z" transform="translate(-25.146 87.661)" fill="#fbd2bd"/>
      <path id="Path_13480" data-name="Path 13480" d="M124.433,143.349c2.036-2.425,5.993-13.038,5.993-13.038L126.537,114.3l-8.257,2.516S125.05,142.32,124.433,143.349Z" transform="translate(-80.121 57.229)" fill="#fbd2bd"/>
      <path id="Path_13481" data-name="Path 13481" d="M138.019,125.594,127.086,118c-.823,1.99,1.487,3.98-.274,7.479-.915,1.83-6.976,0-8.326,1.83-3.019,3.911,2.562.938,1.6,2.425a53,53,0,0,0-5.855,16.011h0a3.271,3.271,0,0,0,5.833,2.287Z" transform="translate(-78.429 61.992)" fill="#383d4b"/>
      <rect id="Rectangle_7422" data-name="Rectangle 7422" width="0.572" height="31.771" transform="matrix(-0.784, -0.621, 0.621, -0.784, 36.46, 210.921)" fill="#fff"/>
      <path id="Path_13482" data-name="Path 13482" d="M176.463,97.712l-10.5,24.909-40.92-5.49,7.068,35.957-9.4,10.59L99.174,113.951A16.011,16.011,0,0,1,98.946,103v-.16a16.217,16.217,0,0,1,13.175-10.27L148.4,89.34l31.817.64Z" transform="translate(-83.729 25.098)" fill="#222837"/>
      <path id="Path_13483" data-name="Path 13483" d="M109.973,108.968l-19.008,25.16a16.788,16.788,0,0,0-1.647,13.083l15.233,79.781H116.7l-1.487-77.471L130.055,136.1c8.143-7.365,15.6-16.011,14.936-27.013-.923-8.676-5.239-10.673-8.31-18.84l-32.13,8.28Z" transform="translate(-27.006 14.756)" fill="#222837"/>
      <path id="Path_13484" data-name="Path 13484" d="M123.094,96.4A65.166,65.166,0,0,1,109.37,112.6c-2.722,2.425-5.535,4.758-8.28,7.114-1.3,1.121-2.585,2.287-3.843,3.385-.663.595-1.35,1.166-1.944,1.807a4.781,4.781,0,0,0-1.006,4.575c2.287,15.805,3.408,31.679,4.575,47.576.732,9.149,1.487,18.3,2.562,27.448a.286.286,0,0,1-.572,0c-1.944-16.583-2.9-33.28-4.392-49.909-.732-8.143-1.578-16.286-2.745-24.406A6.633,6.633,0,0,1,94,125.61a15.85,15.85,0,0,1,3.431-3.454c2.791-2.47,5.65-4.849,8.463-7.274a71.981,71.981,0,0,0,16.72-18.687c.183-.32.686,0,.5.3Z" transform="translate(-16.042 33.751)" fill="#fff"/>
      <path id="Path_13485" data-name="Path 13485" d="M95.344,95.864a16.812,16.812,0,0,0,2.928,9.767c.206.3-.3.595-.5.274a17.338,17.338,0,0,1-3-10.064.3.3,0,0,1,.572,0Z" transform="translate(5.762 33.189)" fill="#fff"/>
      <g id="Group_26289" data-name="Group 26289" transform="translate(0 0)">
        <path id="Path_11792" data-name="Path 11792" d="M169.24,92.761a10.1,10.1,0,0,0-4.465-9.187,15.943,15.943,0,0,0-10.216-2.5,7.48,7.48,0,0,0,1.893-6.055,8.182,8.182,0,0,0-7.013-5.657,18.7,18.7,0,0,0-10.683,1.847,19.847,19.847,0,0,0-11.1,9.561c-1.262,2.548-.187,6.639.865,6.382a27.585,27.585,0,0,1,3.881-.514,2.829,2.829,0,0,1,1.333,1.075,16.365,16.365,0,0,0-6.475,1.029,10.286,10.286,0,0,0-3.694,2.595,7.738,7.738,0,0,0-2.01,4.184c-3.881-2.057-8.275-3.927-12.577-2.992a12.507,12.507,0,0,0-8.93,8.907,19.777,19.777,0,0,0,1.262,12.881,9.164,9.164,0,0,0-7.785.3c-3.39,2.01-4.371,6.616-3.67,10.52a22.769,22.769,0,0,0,6.522,11.688c2.735,2.758,6.849,7.9,15.616,8.977,3.483.421,7.785-2.478,7.013-3.623a32,32,0,0,1-2.174-4.278,4.091,4.091,0,0,1,.842-2.338,11.525,11.525,0,0,0,1.145-6.9,9.468,9.468,0,0,0,10.87-5.19,16.2,16.2,0,0,0,1.005-3.717,26.018,26.018,0,0,0,11.127-.888,11.852,11.852,0,0,0,3.67,4.816,11.315,11.315,0,0,0,11.688.327,19.824,19.824,0,0,0,8.112-8.977,15.218,15.218,0,0,0,1.847-7.223,8.486,8.486,0,0,0-.982-3.53,6.172,6.172,0,0,0-2.688-2.665A15.452,15.452,0,0,0,169.24,92.761Z" transform="translate(-44.286 -61.454)" fill="#d85f2a"/>
        <path id="Path_11797" data-name="Path 11797" d="M121.291,89.152a19.588,19.588,0,0,1-3.881,3.039,15.826,15.826,0,0,1-11.688,2.338,64.374,64.374,0,0,1-.164-8.392c.888-2.2,15.779-11.385,15.756-8.322C121.361,79.614,121.268,84.406,121.291,89.152Z" transform="translate(-23.079 -50.784)" fill="#e2a191"/>
        <path id="Path_11798" data-name="Path 11798" d="M115.019,131.308c-12.6-1.566-13.559-32.33-13.559-32.33l7.013-3.32a16.62,16.62,0,0,0,2.782-5.54c0-.818,0-1.66,0-2.5,6.242,1.8,14.424-4.184,15.522-5.307A51.618,51.618,0,0,0,127.455,94l6.475,1.777C135.45,97.949,129.466,133.014,115.019,131.308Z" transform="translate(-28.472 -43.943)" fill="#fbd2bd"/>
        <path id="Path_11799" data-name="Path 11799" d="M136.8,84.965s-11.688,13.886-12.2,14.283a19.262,19.262,0,0,1-9.912,3.623c-4.886.3-6.686-.538-8.813-4.231a15.639,15.639,0,0,1-1.519-15.382c.468-1.309,2.1-10.73,2.735-12.179,1.613-3.74,8.042-.958,8.86-2.665C117.233,65.656,136.8,84.965,136.8,84.965Z" transform="translate(-26.408 -62.891)" fill="#fbd2bd"/>
        <ellipse id="Ellipse_1036" data-name="Ellipse 1036" cx="0.748" cy="0.748" rx="0.748" ry="0.748" transform="translate(80.772 20.273)" fill="#1d1e1c"/>
        <ellipse id="Ellipse_1037" data-name="Ellipse 1037" cx="0.748" cy="0.748" rx="0.748" ry="0.748" transform="translate(89.095 22.541)" fill="#1d1e1c"/>
        <path id="Path_11800" data-name="Path 11800" d="M108.516,74.914a16.784,16.784,0,0,1-2.127,5.423A4,4,0,0,0,105.734,83c.234,1.005,1.239,1.262,2.151,1.332s.748-1.122,0-1.169c-.3,0-.748,0-.935-.3s0-.678,0-.958a14.707,14.707,0,0,1,1.1-2.338,13.021,13.021,0,0,0,1.683-4.675.585.585,0,0,0-1.169,0Z" transform="translate(-22.787 -54.617)" fill="#e2a191"/>
        <path id="Path_11801" data-name="Path 11801" d="M127.374,83.8c-.281-.444-9.117-7.6-9.725-9.047-.771-1.823-2.665-2.525-1.94-4.278a.585.585,0,0,0,0-.584,1.1,1.1,0,0,0-.327-.7,1.169,1.169,0,0,0-1.66,0l-.842.678h0l-.421.164h-.771l-1.1.14a7.153,7.153,0,0,0-4.418,1.543,1.309,1.309,0,0,0-.888.14,1.66,1.66,0,0,0-.748,1.94,1.917,1.917,0,0,0,1.66,1.332,7.013,7.013,0,0,0,3.507-.7,19.309,19.309,0,0,0,4.535-2.805,5.985,5.985,0,0,0,.21,4.068,16.738,16.738,0,0,0,3.46,5.143A13.7,13.7,0,0,0,123.26,84.2a11.688,11.688,0,0,0,3.226.608,1.57,1.57,0,0,0,1.145-.281A.842.842,0,0,0,127.374,83.8Z" transform="translate(-24.464 -61.959)" fill="#e2a191"/>
        <path id="Path_11802" data-name="Path 11802" d="M137.906,82.781a15.5,15.5,0,0,0-10.5-15.85c-7.878-2.735-21.2-.187-22.909,9.351a1.547,1.547,0,0,0,0,.327,1.1,1.1,0,0,0,0,.771,1.192,1.192,0,0,0,1.449.771,25.925,25.925,0,0,0,8.93-4.114,15.826,15.826,0,0,0,5.447,9.748,20.127,20.127,0,0,0,8.486,4.675c-1.683,4.161-1.216,7.013-3.717,10.636-.655.958-1.122,3.764-.21,3.086A32.284,32.284,0,0,0,137.7,84.16a11.521,11.521,0,0,0,.21-1.379Z" transform="translate(-24.499 -65.898)" fill="#d85f2a"/>
        <ellipse id="Ellipse_1038" data-name="Ellipse 1038" cx="4.184" cy="3.226" rx="4.184" ry="3.226" transform="matrix(0.227, -0.974, 0.974, 0.227, 99.788, 29.602)" fill="#fbd2bd"/>
        <path id="Path_11803" data-name="Path 11803" d="M114.782,88.563c4.675-5.938,13.535-11.431,21.039-7.5a8.159,8.159,0,0,1,4.325,9.631c-1.262,3.507-5.073,5.026-8.369,5.891a.289.289,0,1,0,.14.561,13.512,13.512,0,0,0,7.551-4.255,7.808,7.808,0,0,0,.818-7.9c-2.875-6.569-11.268-6.709-16.9-4.138a24.312,24.312,0,0,0-9.14,7.41c-.234.3.281.584.491.3Z" transform="translate(-11.45 -47.975)" fill="#1d1d1b"/>
        <path id="Path_11804" data-name="Path 11804" d="M109.25,85.343c-4.675-3.016-10.566-1.636-14.8,1.449a8.065,8.065,0,0,0-3.577,5.54,7.527,7.527,0,0,0,2.01,5.984c.257.281.678-.14.421-.4a6.873,6.873,0,0,1-1.8-5.868,7.925,7.925,0,0,1,3.951-5.26,12.343,12.343,0,0,1,13.488-.958c.327.21.608-.3.3-.514Z" transform="translate(-42.69 -42.137)" fill="#1d1d1b"/>
        <path id="Path_11805" data-name="Path 11805" d="M111,71.316a6.639,6.639,0,0,0,4.956,4.044c.374,0,.514-.491.164-.561a6.1,6.1,0,0,1-4.512-3.694c-.117-.327-.7-.187-.561.164Z" transform="translate(-15.71 -59.178)" fill="#1d1d1b"/>
        <path id="Path_11814" data-name="Path 11814" d="M63.89,89.6,71.375,99.85a2.42,2.42,0,0,0,1.682.882,2.256,2.256,0,0,1,1.8,1.087l17.083,32.259c1.395,2.666,5.271,3.794,8.962,2.625,6.624-2.051.738-14.048.554-14.356C99.41,119.5,86.367,101.839,83.168,97.286A6.03,6.03,0,0,1,82,93.964V92.1a4.655,4.655,0,0,0-.7-2.235L72.483,74.871c-.431-.718-1.887-.246-1.764.574l1.251,7.506Z" transform="translate(-63.89 -51.393)" fill="#fbd2bd"/>
        <path id="Path_11816" data-name="Path 11816" d="M182.673,100.953c11.731,14.581,13.31,35.623,16.222,50.552,3.076,15.668-6.358,16.858-6.358,16.858a37.613,37.613,0,0,1-15.586,1.5c-2.666-6.932-8.88-10.685,4.225-17.6l-4.737-23.953-5.476,13.556v9.639l-37.489-.431-1.62-6.152-4.881-8.552-.164-.287-25.512,1.7c-14.54,1.066-29.285-31.993-29.285-31.993a11.628,11.628,0,0,1-1.518-7.1,16.735,16.735,0,0,1,.636-3.609c.882-1,2.174-.554,7.793-8.47,2.051-2.81,18.58,23.318,21.246,22.087,6.378-2.912,30.188-18.6,34.864-17.022l13.187,22.723,11.505-25.84,7.855,1.21C177.013,90.535,182.673,100.953,182.673,100.953Z" transform="translate(-57.02 -38.9)" fill="#fac12c"/>
        <path id="Path_11817" data-name="Path 11817" d="M95.812,105.259a39.355,39.355,0,0,0,13.453,22.559c.246.205.615-.144.369-.369A38.965,38.965,0,0,1,96.3,105.1c0-.328-.554-.185-.492.144Z" transform="translate(-30.351 -19.457)" fill="#1d1d1b"/>
        <path id="Path_11818" data-name="Path 11818" d="M113.3,94.44a43.428,43.428,0,0,0-2.3,5.906.267.267,0,0,0,.513.144,40.277,40.277,0,0,1,2.317-5.8c.144-.287-.287-.554-.431-.246Z" transform="translate(-14.39 -30.602)" fill="#1d1d1b"/>
        <path id="Path_11819" data-name="Path 11819" d="M117.139,90.607a41.508,41.508,0,0,0-5,7.814c-.144.287.287.554.431.246a42.863,42.863,0,0,1,4.943-7.711C117.713,90.71,117.344,90.341,117.139,90.607Z" transform="translate(-13.225 -34.583)" fill="#1d1d1b"/>
        <path id="Path_11821" data-name="Path 11821" d="M123.189,121.628c3.261-2.953,7.793-3.4,12.018-3.445.328,0,.328-.533,0-.513-4.368,0-9,.554-12.3,3.609-.246.226.123.574.369.349Z" transform="translate(-1.965 -6.048)" fill="#1d1d1b"/>
        <path id="Path_11823" data-name="Path 11823" d="M142.385,131.508c-.431.759-11.608,1.374-11.608,1.374.205.779-13.7,15.073-20.8,5.045-.144-.205.369-1.066,1-2.174s13.043-8.2,17.473-9.987c6.152-2.4,5.5-3.876,7.711-3.876C136.171,121.89,145.749,125.315,142.385,131.508Z" transform="translate(-15.482 -1.614)" fill="#fbd2bd"/>
      </g>
    </g>
    <g id="jquery-seeklogo.com" transform="translate(349 78.695)">
      <path id="Path_13740" data-name="Path 13740" d="M2.6,27a2.735,2.735,0,0,0,.142.274,1.562,1.562,0,0,0,.087.154c.048.1.1.189.15.281l.29.488c.054.091.105.179.167.268.1.174.222.344.327.518.048.072.093.144.146.216.2.316.389.579.587.834.141.191.281.377.433.564.05.07.105.141.157.211l.409.5c.05.057.1.124.154.183.181.218.374.429.566.644,0,0,.006.007.009.013a5.613,5.613,0,0,0,.777.8l.007.007c.148.152.3.3.453.45l.187.179c.205.192.411.383.627.568,0,0,.006,0,.009.006l.105.093c.189.165.379.327.574.479l.231.194c.157.126.32.244.481.368l.252.192c.172.13.355.255.531.381.065.046.13.093.2.135l.054.043.52.34.222.148c.272.174.542.337.812.5.078.039.155.081.228.126.2.115.407.231.609.337.111.063.226.117.34.174.139.078.283.154.431.231a.566.566,0,0,1,.107.044l.007-.007c.061.028.118.057.178.087.222.111.453.216.694.32A1.508,1.508,0,0,1,15,38.41c.266.117.533.228.809.335.063.019.13.05.194.074.25.094.507.191.762.281l.093.033c.283.1.562.189.851.276.067.019.135.043.205.061a8.394,8.394,0,0,0,.877.25c19.007,3.447,24.53-11.371,24.53-11.371-4.64,6.013-12.876,7.6-20.674,5.834-.289-.067-.577-.159-.87-.244q-.619-.175-1.227-.387l.176.054-.115-.044c-.252-.085-.494-.179-.74-.274q-.09-.038-.183-.07l-.02-.006c-.272-.109-.537-.22-.8-.337-.057-.019-.105-.044-.163-.067q-.467-.2-.925-.426l.255.113q-.1-.044-.2-.1c-.174-.081-.348-.174-.518-.261q-.194-.092-.383-.2l.037.019c-.209-.111-.418-.231-.629-.344-.063-.044-.135-.081-.207-.122q-.47-.273-.929-.566l.117.07q-.117-.073-.229-.154l.011.007q-.3-.183-.585-.385c-.063-.041-.12-.085-.185-.13q-.3-.2-.588-.422l.044.031c-.078-.063-.161-.122-.244-.183-.163-.128-.327-.25-.49-.383l-.218-.174q-.349-.278-.685-.572l0,0-.642-.583-.185-.174c-.152-.154-.307-.3-.463-.451l-.179-.185q-.287-.285-.561-.583l-.011-.013-.031-.026Q9.79,26.3,9.5,25.965c-.05-.057-.1-.118-.148-.179l-.42-.509q-.284-.357-.555-.723l-.074-.1C3.981,18.574,2.416,10.464,5.878,3.811L2.821,7.676C-1.11,13.3-.624,20.611,2.383,26.582c.068.146.144.283.218.422Z" transform="translate(0 2.815)" fill="#1266a9"/>
      <path id="Path_13741" data-name="Path 13741" d="M8.58,11.992l-.02-.03-.017-.022Z" transform="translate(7.263 9.726)"/>
      <path id="Path_13742" data-name="Path 13742" d="M11.991,23.233l.167.167c.211.2.427.4.648.6l.028.024c.222.2.472.4.729.6l.039.03c.063.043.117.093.178.135.259.2.52.39.792.581l.028.017c.115.083.237.159.366.241.052.033.111.078.167.111.2.126.389.242.587.363.031.013.059.03.089.043.167.1.348.2.522.289.061.037.12.065.183.1.124.061.246.126.364.189l.059.026c.25.122.505.237.755.35.063.024.117.044.17.07.205.089.414.174.62.252.093.031.179.068.266.1.189.07.387.135.574.2l.259.083a5.94,5.94,0,0,0,.831.237c14.678,2.416,18.075-8.827,18.075-8.827-3.058,4.379-8.977,6.466-15.285,4.836q-.472-.119-.936-.268l.105.03c-.089-.024-.167-.052-.252-.078-.192-.067-.39-.131-.577-.2l-.266-.1c-.207-.083-.418-.161-.62-.25-.063-.028-.12-.046-.168-.074-.259-.117-.52-.231-.773-.353l-.381-.2-.22-.111c-.17-.089-.327-.181-.49-.276a1.033,1.033,0,0,1-.12-.067l.006,0c-.2-.122-.4-.241-.588-.364-.063-.035-.12-.078-.179-.115l-.385-.25c-.266-.185-.527-.383-.792-.575-.059-.054-.117-.1-.174-.146a17.535,17.535,0,0,1-6-8.494A13.131,13.131,0,0,1,11.425,1.573L9.1,4.844c-2.851,4.072-2.69,9.516-.47,13.823A16.623,16.623,0,0,0,9.9,20.774a9.692,9.692,0,0,0,1.451,1.795c.2.228.414.444.638.664Z" transform="translate(5.921 0.912)" fill="#1266a9"/>
      <path id="Path_13743" data-name="Path 13743" d="M2.445,18.625l-.007-.011L2.425,18.6Zm7.693-1.377.019.013,0,.006Z" transform="translate(2.062 14.239)"/>
      <path id="Path_13744" data-name="Path 13744" d="M14.324,2.215a8.472,8.472,0,0,0-.685,8.211,11.623,11.623,0,0,0,6.676,6.2c.12.046.237.085.361.13l.163.05c.17.054.342.117.518.155,8.106,1.556,10.3-4.141,10.89-4.979-1.93,2.757-5.166,3.419-9.136,2.459a8.8,8.8,0,0,1-1.018-.315l.061.02a11.463,11.463,0,0,1-1.214-.5l.07.031A11.938,11.938,0,0,1,19,12.452C15.447,9.77,13.252,4.661,15.569.5Z" transform="translate(10.961 0)" fill="#1266a9"/>
    </g>
    <g id="Unofficial_JavaScript_logo_2" transform="translate(431 148)">
      <rect id="Rectangle_7652" data-name="Rectangle 7652" width="67" height="67" fill="#f7df1e"/>
      <path id="Path_13739" data-name="Path 13739" d="M193.246,307.83c1.35,2.2,3.105,3.823,6.211,3.823,2.609,0,4.275-1.3,4.275-3.105,0-2.159-1.712-2.924-4.584-4.18l-1.574-.675c-4.543-1.936-7.561-4.36-7.561-9.486,0-4.722,3.6-8.317,9.22-8.317,4,0,6.881,1.393,8.955,5.041l-4.9,3.148c-1.079-1.936-2.244-2.7-4.052-2.7a2.739,2.739,0,0,0-3.013,2.7c0,1.889,1.17,2.653,3.871,3.823l1.574.674c5.349,2.294,8.37,4.633,8.37,9.891,0,5.668-4.453,8.774-10.433,8.774-5.847,0-9.625-2.786-11.473-6.438Zm-22.241.546c.989,1.755,1.889,3.238,4.052,3.238,2.069,0,3.373-.809,3.373-3.956V286.25h6.3v21.493c0,6.519-3.822,9.486-9.4,9.486a9.774,9.774,0,0,1-9.445-5.751Z" transform="translate(-148.239 -255.486)"/>
    </g>
    <g id="Group_26171" data-name="Group 26171" transform="translate(524.043 148)">
      <rect id="Rectangle_6593" data-name="Rectangle 6593" width="54.764" height="65.904" transform="translate(0.613 0.549)" fill="#fff"/>
      <path id="Path_11491" data-name="Path 11491" d="M87.882,103.17H32v-67H87.882ZM33.1,101.433h53.69V37.907H33.1Z" transform="translate(-32 -36.17)" fill="#e5e5e5"/>
      <rect id="Rectangle_6597" data-name="Rectangle 6597" width="32.992" height="1.918" transform="translate(16.622 20.677)" fill="#e5e5e5"/>
      <rect id="Rectangle_6598" data-name="Rectangle 6598" width="32.992" height="1.918" transform="translate(16.622 35.361)" fill="#e5e5e5"/>
      <rect id="Rectangle_6600" data-name="Rectangle 6600" width="32.992" height="1.918" transform="translate(16.622 50.646)" fill="#e5e5e5"/>
      <rect id="Rectangle_6601" data-name="Rectangle 6601" width="54.764" height="4.996" transform="translate(0.613 0.549)" fill="#e5e5e5"/>
      <rect id="Rectangle_6607" data-name="Rectangle 6607" width="6.059" height="6.059" transform="translate(5.775 18.089)" fill="#d7f7ef"/>
      <rect id="Rectangle_6608" data-name="Rectangle 6608" width="6.059" height="6.059" transform="translate(5.775 33.414)" fill="#d7f7ef"/>
      <rect id="Rectangle_6609" data-name="Rectangle 6609" width="6.059" height="6.059" transform="translate(5.775 48.736)" fill="#d7f7ef"/>
    </g>
    <rect id="Rectangle_7653" data-name="Rectangle 7653" width="20.266" height="20.266" transform="translate(390.751 194.734)" fill="#88e8d0"/>
    <rect id="Rectangle_7654" data-name="Rectangle 7654" width="20.266" height="20.266" transform="translate(348.922 194.734)" fill="#e5e5e5"/>
  </g>
</svg>
