<svg xmlns="http://www.w3.org/2000/svg" xmlns:xlink="http://www.w3.org/1999/xlink" width="633.092" height="547.202" viewBox="0 0 633.092 547.202">
  <defs>
    <linearGradient id="linear-gradient" x1="0.662" y1="0.768" x2="0.5" y2="0.868" gradientUnits="objectBoundingBox">
      <stop offset="0" stop-color="#3ab764"/>
      <stop offset="1" stop-color="#49d879"/>
    </linearGradient>
  </defs>
  <g id="Group_5402" data-name="Group 5402" transform="translate(-1179.934 -254.836)">
    <g id="Objects" transform="translate(1092.965 131.964)">
      <g id="Group_5363" data-name="Group 5363" transform="translate(96.231 304.266)">
        <path id="Path_53161" data-name="Path 53161" d="M67.47,282.212V296.19l144.6,56L563.661,250.66l-2.327-11.62Z" transform="translate(-67.47 -187.335)" fill="#bd9675"/>
        <path id="Path_53162" data-name="Path 53162" d="M67.53,299.529l143.8,56.8L561.3,256.816,431.831,205.56Z" transform="translate(-67.438 -205.11)" fill="#f1c9a7"/>
        <g id="Group_5362" data-name="Group 5362" transform="translate(22.151)" opacity="0.32">
          <path id="Path_53163" data-name="Path 53163" d="M83.119,298.478c-4.21-26.194,35.579-25.659,46.3-43.555a.508.508,0,0,0-.873-.521c-7.93,13.258-23.775,14.406-35.61,22.474-7.318,4.991-12.477,12.768-10.609,21.831.107.536.888.306.811-.23h0Z" transform="translate(-81.939 -179.304)" fill="#96775e"/>
          <path id="Path_53164" data-name="Path 53164" d="M95.934,307.883c22.275-14.391,61.544-24.51,59.86-57.9-.031-.582-.949-.6-.919,0,1.669,33.252-37.309,42.682-59.247,57.379a.3.3,0,0,0,.306.521Z" transform="translate(-74.744 -181.759)" fill="#96775e"/>
          <path id="Path_53165" data-name="Path 53165" d="M108.769,327.1c40.983-47.949,102.113-63.2,153.675-95.974.536-.337.046-1.209-.505-.857-50.276,31.583-116.29,47.245-153.43,96.632-.107.153.138.352.26.2h0Z" transform="translate(-67.846 -192.035)" fill="#96775e"/>
          <path id="Path_53166" data-name="Path 53166" d="M413.574,209.764c-30.175,39.085-83.344,35.962-126.424,48.469C264.736,264.74,245,277.922,222.62,284.413c-20.652,5.986-43.172,5.68-62.493,15.983a75.511,75.511,0,0,0-36.681,46.066.412.412,0,0,0,.8.214c6.017-21.28,21.142-39.268,41.6-48.025,21-9,44.642-8.4,66.014-16.412,22.045-8.252,42.085-20.208,65.218-25.674s45.193-7.2,67.055-14.054c19.29-6.032,37.845-15.845,50-32.456.245-.322-.306-.628-.536-.322h0Z" transform="translate(-59.911 -202.961)" fill="#96775e"/>
          <path id="Path_53167" data-name="Path 53167" d="M136.535,346.155c-1.562-21.831,12.278-43.356,33.359-50.123,23.163-7.44,47.091,6.261,70.683,2.939,21.892-3.077,40.493-16.09,59.063-27.082,22.688-13.442,46.525-19.9,71.954-25.919a413.248,413.248,0,0,0,76.225-26.056c.566-.26.077-1.087-.49-.827a407.2,407.2,0,0,1-76.011,25.9c-26.179,6.185-48.638,12.094-70.928,25.4-22.535,13.442-45.622,30.052-73.163,28.567-21.479-1.164-43.662-11.191-64.314-.612-17.407,8.925-28.6,28.261-26.776,47.811.031.26.413.26.4,0h0Z" transform="translate(-53.266 -197.955)" fill="#96775e"/>
          <path id="Path_53168" data-name="Path 53168" d="M455.56,222.422c-4.3,11.957-17.177,15.983-28.6,17.881-12.845,2.143-25.857,2.725-38.824,3.659-22.658,1.638-44.4,5.144-64.391,16.534-19.045,10.854-35.472,25.72-54.67,36.344-21.954,12.156-46.724,15.4-70.7,21.51-21.755,5.542-43.188,14.391-57.441,32.486a.417.417,0,1,0,.658.505c30.221-39.682,88.626-31.828,128.874-54.547,19.81-11.176,36.758-26.761,56.828-37.508,23.729-12.691,49.954-13.61,76.179-15.661,16.825-1.317,45.714-1.485,52.358-21.142.061-.184-.23-.26-.291-.077h0Z" transform="translate(-50.672 -196.222)" fill="#96775e"/>
          <path id="Path_53169" data-name="Path 53169" d="M226.057,240.636c-3.261,2.694-34.63,23.423-20.055,27.2,6.154,1.592,14.146-2.725,19.32-5.542,9.6-5.221,18.1-11.987,28.6-15.493,19.749-6.583,41.167-4.945,61.054-11.405,17.5-5.68,33.7-15.248,45.668-29.363.367-.429-.26-1.056-.628-.628-11.084,13.1-25.689,22.29-41.779,28.047-15.585,5.588-31.69,6.506-47.918,8.864s-27.144,8.221-40.31,16.274a76.669,76.669,0,0,1-11.375,5.971,38.23,38.23,0,0,1-6.568,2.128l-4.072.536-3.475-7.379c.337-2.174,8.68-7.517,10.517-9.078,3.8-3.246,7.547-6.537,11.314-9.829.214-.184-.092-.49-.306-.306h0Z" transform="translate(-18.109 -205.266)" fill="#96775e"/>
          <path id="Path_53170" data-name="Path 53170" d="M198.415,276.2c19.075,7.165,33.573-9.339,47.8-19.167a57.262,57.262,0,0,1,6.767-4.1c2.878-1.454,7.731-1.868,10.257-3.812,1.041-.811,2.22-1.072,1.96-2.725-.505-3.246-7.165-2.985-9.14-2.848-8.466.6-17.284,4.761-24.954,8.191-4.945,2.22-9.8,4.669-14.574,7.241-2.985,1.608-9.4,3.965-11.451,6.767-1.562,2.128-2.358,4.164.459,5.527s9.2-2.051,11.62-3.077a82.738,82.738,0,0,0,14.253-7.731c.352-.245.031-.811-.337-.582-5.052,3.123-13.074,9.186-19.2,9.507q-4.776,2.985-4.409-4.424L211,262.941c2.756-1.562,5.527-3.092,8.328-4.562a188.759,188.759,0,0,1,19.565-9.078c4.884-1.9,11.849-5.5,17.208-4.914q4.547-1.47,5.175,4.7a33.716,33.716,0,0,0-4.991,1.577,41.848,41.848,0,0,0-4.807,2.281,92.817,92.817,0,0,0-13.059,9.124c-11.451,8.987-24.48,19.305-39.927,13.886a.119.119,0,1,0-.061.23h0Z" transform="translate(-20.136 -184.981)" fill="#96775e"/>
          <path id="Path_53171" data-name="Path 53171" d="M179.375,351.187c5.909-32.027,44.9-31.951,69.382-39.544,23.791-7.379,44.183-22.306,65.233-35.1,11.252-6.843,22.842-13.243,35.288-17.667s26.393-7.149,39.866-9.385c25.169-4.179,50.8-7.425,73.454-19.994a.577.577,0,0,0-.582-1c-38.182,21.05-84.171,15.784-123.546,33.558-19.274,8.7-36.421,21.249-54.5,32.088a179.638,179.638,0,0,1-29.608,14.728c-10.563,3.9-21.571,5.68-32.5,8.191-18.356,4.21-39.33,13.3-42.7,34.094-.015.138.184.2.214.061h0Z" transform="translate(-30.321 -192.974)" fill="#96775e"/>
          <path id="Path_53172" data-name="Path 53172" d="M260.149,314.095c1.47-20.469,21.77-30.19,38.35-37.492,16.611-7.318,34.079-12.492,51.715-16.687C366.672,256,383.328,252.9,399.939,249.7c14.207-2.74,28.613-5.435,40.156-14.774.49-.4-.214-1.087-.689-.689-14.682,12-35.181,13.7-53.154,17.192s-36.758,7.287-54.761,12.492c-16.458,4.761-32.762,10.747-47.826,18.984-12.079,6.6-24.02,16.274-24.235,31.2a.375.375,0,0,0,.75,0h0Z" transform="translate(12.297 -189.946)" fill="#96775e"/>
          <path id="Path_53173" data-name="Path 53173" d="M288.522,293.2c18.126-20.851,41.856-35.2,69.8-37.661,25.49-2.25,54.517,5.971,76.7-10.808.429-.321.031-1.041-.429-.72-25.735,18.249-58.084,6.43-86.942,12.217-23.041,4.623-45.438,17.652-59.6,36.6-.2.26.245.612.459.352h0Z" transform="translate(27.465 -184.74)" fill="#96775e"/>
        </g>
      </g>
      <g id="Group_5365" data-name="Group 5365" transform="translate(419.784 333.461)">
        <path id="Path_53174" data-name="Path 53174" d="M283.906,227.641c-4.991,2.434-6.8,8.956-3.215,13.212.184.23.429.413.612.658,3.98,5.435,13.687,15.432,16.258,15.325,4.593-.168,11.115-7.5,11.053-9.2S299.827,233.52,295.1,229.1C292.4,226.585,288.881,225.207,283.906,227.641Z" transform="translate(-278.814 -223.257)" fill="#383838" opacity="0.33"/>
        <g id="Group_5364" data-name="Group 5364" transform="translate(2.852)">
          <path id="Path_53175" data-name="Path 53175" d="M285.946,225.7c-4.991,2.434-6.8,8.956-3.215,13.212.184.23.429.413.612.658C287.324,245.006,297.03,255,299.6,254.9c4.593-.168,11.115-7.5,11.053-9.2s-8.788-14.115-13.518-18.54C294.442,224.645,290.921,223.267,285.946,225.7Z" transform="translate(-280.583 -224.287)" fill="#ededed"/>
          <path id="Path_53176" data-name="Path 53176" d="M285.41,227.61a2.4,2.4,0,0,1,2.618.168,7.087,7.087,0,0,1,1.806,2.113,1.69,1.69,0,0,1,.383,1.01c-.031.367-.413.72-.75.566a.792.792,0,0,1-.26-.245c-1.133-1.347-2.6-2.3-3.751-3.644" transform="translate(-278.164 -222.766)" fill="#ceccd6"/>
          <path id="Path_53177" data-name="Path 53177" d="M310.336,244.887a8.767,8.767,0,0,1-4.577,7.655c-2.893,1.485-9.369.658-12.079-1.163-2.5-1.684-4.914-4.639-6.92-6.9-4.731-5.374-8.925-16.2,1.776-18.922a8.813,8.813,0,0,1,8.1,1.914c3.506,2.848,6.017,7,8.68,10.594,1.653,2.235,3.7,4.516,4.868,7.058.2.444,1,.122.8-.337-2.327-5.726-7.992-11.849-12-16.458-4.47-5.144-12.906-5.726-16.856.72-5.588,9.094,6.369,20.469,13.289,24.816,6.047,3.812,16.258-1.454,15.386-8.971-.031-.276-.444-.291-.444,0Z" transform="translate(-280.677 -224.336)" fill="#ceccd6"/>
        </g>
      </g>
      <g id="Group_5366" data-name="Group 5366" transform="translate(390.323 370.791)">
        <path id="Path_53178" data-name="Path 53178" d="M302.9,307.633l91.795,35.9L382.28,318.548,302.9,288.19l-8.971,17.881Z" transform="translate(-241.327 -227.764)" fill="#87654e"/>
        <path id="Path_53179" data-name="Path 53179" d="M323.91,251.56l78.95,222.827,19.627-3.093-75.23-213.351Z" transform="translate(-225.41 -247.212)" fill="#a37b5d"/>
        <path id="Path_53180" data-name="Path 53180" d="M346.833,248.72,259.57,399.15h21.142L361.5,262.743l-3.429-9.675Z" transform="translate(-259.57 -248.72)" fill="#87654e"/>
      </g>
      <g id="Group_5372" data-name="Group 5372" transform="translate(288.102 344.205)">
        <g id="Group_5371" data-name="Group 5371" transform="translate(0.444 0.484)">
          <path id="Path_53181" data-name="Path 53181" d="M194.381,273.137c15.417-4.822,101.7-33.726,112.34-37.278a1.6,1.6,0,0,1,1.776.536l23.913,30.588a1.629,1.629,0,0,1-.75,2.541L221.2,307.123a1.631,1.631,0,0,1-1.761-.49l-25.812-30.894a1.623,1.623,0,0,1,.75-2.587Z" transform="translate(-193.003 -229.49)" fill="#383838" opacity="0.33"/>
          <path id="Path_53182" data-name="Path 53182" d="M193.09,259.974v1.9a1.638,1.638,0,0,0,.367,1.01L220.494,294.5a1.578,1.578,0,0,0,1.684.459l111.666-38.442a1.531,1.531,0,0,0,1.041-1.454h0c0-.873,0-1.607-.505-1.7l-139.79,5.083a1.55,1.55,0,0,0-1.485,1.546Z" transform="translate(-193.09 -220.154)" fill="#ceccd6"/>
          <path id="Path_53183" data-name="Path 53183" d="M193.09,269.989c1.393.015,115.754-38.319,115.754-38.319l26.041,33.282L221.213,303.639l-28.108-33.665Z" transform="translate(-193.09 -231.67)" fill="#ededed"/>
          <path id="Path_53184" data-name="Path 53184" d="M198.28,258.31l1.7,1.852,6.093-2.3-1.286-1.776Z" transform="translate(-190.334 -218.705)" fill="#ceccd6"/>
          <path id="Path_53185" data-name="Path 53185" d="M204.1,256.162l1.745,1.822,6.047-2.419-1.317-1.745Z" transform="translate(-187.244 -219.91)" fill="#ceccd6"/>
          <path id="Path_53186" data-name="Path 53186" d="M210.37,254.112l1.73,1.807,6.047-2.419-1.3-1.73Z" transform="translate(-183.915 -220.998)" fill="#ceccd6"/>
          <path id="Path_53187" data-name="Path 53187" d="M216.63,252.068l1.73,1.806,6.063-2.419-1.317-1.745Z" transform="translate(-180.592 -222.092)" fill="#ceccd6"/>
          <path id="Path_53188" data-name="Path 53188" d="M222.89,250l1.745,1.822,6.047-2.419-1.317-1.745Z" transform="translate(-177.268 -223.18)" fill="#ceccd6"/>
          <path id="Path_53189" data-name="Path 53189" d="M229.16,247.952l1.73,1.807,6.047-2.419-1.3-1.73Z" transform="translate(-173.939 -224.269)" fill="#ceccd6"/>
          <path id="Path_53190" data-name="Path 53190" d="M235.42,245.908l1.73,1.807,6.062-2.419L241.9,243.55Z" transform="translate(-170.616 -225.363)" fill="#ceccd6"/>
          <path id="Path_53191" data-name="Path 53191" d="M241.68,243.842l1.745,1.822,6.047-2.434-1.317-1.73Z" transform="translate(-167.292 -226.451)" fill="#ceccd6"/>
          <path id="Path_53192" data-name="Path 53192" d="M247.95,241.792l1.73,1.807,6.047-2.419-1.317-1.73Z" transform="translate(-163.963 -227.539)" fill="#ceccd6"/>
          <path id="Path_53193" data-name="Path 53193" d="M254.21,239.732l1.73,1.822,6.047-2.419-1.3-1.745Z" transform="translate(-160.639 -228.633)" fill="#ceccd6"/>
          <path id="Path_53194" data-name="Path 53194" d="M260.47,237.682l1.745,1.822,6.047-2.434-1.317-1.73Z" transform="translate(-157.316 -229.721)" fill="#ceccd6"/>
          <g id="Group_5367" data-name="Group 5367" transform="translate(12.63 9.645)">
            <path id="Path_53195" data-name="Path 53195" d="M209.607,263.64l-5.236,2.312-3.031-4.164,5.175-2.1Z" transform="translate(-201.34 -226.438)" fill="#ceccd6"/>
            <path id="Path_53196" data-name="Path 53196" d="M215.087,261.46l-5.236,2.312-3.031-4.164,5.175-2.1Z" transform="translate(-198.43 -227.596)" fill="#ceccd6"/>
            <path id="Path_53197" data-name="Path 53197" d="M221.24,259.828l-5.328,2.1-2.863-4.271,5.266-1.914Z" transform="translate(-195.123 -228.535)" fill="#ceccd6"/>
            <path id="Path_53198" data-name="Path 53198" d="M226.8,257.852l-5.328,2.1-2.863-4.271,5.266-1.9Z" transform="translate(-192.171 -229.576)" fill="#ceccd6"/>
            <path id="Path_53199" data-name="Path 53199" d="M232.36,255.9l-5.328,2.1-2.863-4.271,5.266-1.914Z" transform="translate(-189.219 -230.622)" fill="#ceccd6"/>
            <path id="Path_53200" data-name="Path 53200" d="M237.92,253.922l-5.328,2.1-2.863-4.271,5.251-1.9Z" transform="translate(-186.267 -231.662)" fill="#ceccd6"/>
            <path id="Path_53201" data-name="Path 53201" d="M243.48,251.968l-5.328,2.1-2.863-4.271,5.251-1.914Z" transform="translate(-183.315 -232.708)" fill="#ceccd6"/>
            <path id="Path_53202" data-name="Path 53202" d="M249.04,249.992l-5.328,2.1-2.863-4.271,5.251-1.9Z" transform="translate(-180.363 -233.749)" fill="#ceccd6"/>
            <path id="Path_53203" data-name="Path 53203" d="M255.29,248l-5.328,2.1-2.863-4.271,5.251-1.9Z" transform="translate(-177.044 -234.806)" fill="#ceccd6"/>
            <path id="Path_53204" data-name="Path 53204" d="M261.546,246.012l-5.328,2.113-2.878-4.287,5.266-1.9Z" transform="translate(-173.731 -235.862)" fill="#ceccd6"/>
            <path id="Path_53205" data-name="Path 53205" d="M267.8,244.038l-5.343,2.1-2.863-4.271,5.266-1.914Z" transform="translate(-170.413 -236.919)" fill="#ceccd6"/>
            <path id="Path_53206" data-name="Path 53206" d="M274.03,242.042l-5.328,2.1-2.863-4.271,5.251-1.9Z" transform="translate(-167.095 -237.97)" fill="#ceccd6"/>
          </g>
          <g id="Group_5368" data-name="Group 5368" transform="translate(17.437 15.141)">
            <path id="Path_53207" data-name="Path 53207" d="M212.747,267.245l-5.236,2.3-3.031-4.149,5.175-2.113Z" transform="translate(-204.48 -230.028)" fill="#ceccd6"/>
            <path id="Path_53208" data-name="Path 53208" d="M218.232,265.065l-5.251,2.3-3.031-4.149,5.19-2.113Z" transform="translate(-201.576 -231.186)" fill="#ceccd6"/>
            <path id="Path_53209" data-name="Path 53209" d="M224.38,263.412l-5.328,2.1-2.863-4.271,5.251-1.9Z" transform="translate(-198.263 -232.12)" fill="#ceccd6"/>
            <path id="Path_53210" data-name="Path 53210" d="M229.94,261.442l-5.328,2.113-2.863-4.287,5.251-1.9Z" transform="translate(-195.311 -233.166)" fill="#ceccd6"/>
            <path id="Path_53211" data-name="Path 53211" d="M235.5,259.482l-5.328,2.1-2.863-4.271,5.251-1.9Z" transform="translate(-192.359 -234.207)" fill="#ceccd6"/>
            <path id="Path_53212" data-name="Path 53212" d="M241.06,257.512l-5.328,2.113-2.863-4.287,5.251-1.9Z" transform="translate(-189.407 -235.252)" fill="#ceccd6"/>
            <path id="Path_53213" data-name="Path 53213" d="M246.62,255.552l-5.328,2.1-2.863-4.271,5.251-1.9Z" transform="translate(-186.455 -236.293)" fill="#ceccd6"/>
            <path id="Path_53214" data-name="Path 53214" d="M252.18,253.582l-5.328,2.113-2.863-4.287,5.251-1.9Z" transform="translate(-183.503 -237.339)" fill="#ceccd6"/>
            <path id="Path_53215" data-name="Path 53215" d="M258.436,251.608l-5.328,2.1-2.878-4.271,5.266-1.914Z" transform="translate(-180.19 -238.396)" fill="#ceccd6"/>
            <path id="Path_53216" data-name="Path 53216" d="M264.67,249.618l-5.328,2.1-2.863-4.271,5.266-1.914Z" transform="translate(-176.871 -239.452)" fill="#ceccd6"/>
            <path id="Path_53217" data-name="Path 53217" d="M270.92,247.622l-5.328,2.1-2.863-4.271,5.251-1.9Z" transform="translate(-173.553 -240.503)" fill="#ceccd6"/>
            <path id="Path_53218" data-name="Path 53218" d="M277.17,245.632l-5.328,2.1-2.863-4.271,5.251-1.9Z" transform="translate(-170.235 -241.56)" fill="#ceccd6"/>
          </g>
          <g id="Group_5369" data-name="Group 5369" transform="translate(22.627 21.142)">
            <path id="Path_53219" data-name="Path 53219" d="M216.152,271.165l-5.236,2.312-3.047-4.164,5.19-2.113Z" transform="translate(-207.87 -233.948)" fill="#ceccd6"/>
            <path id="Path_53220" data-name="Path 53220" d="M221.632,268.985l-5.251,2.312-3.031-4.164,5.19-2.113Z" transform="translate(-204.96 -235.106)" fill="#ceccd6"/>
            <path id="Path_53221" data-name="Path 53221" d="M227.78,267.332l-5.328,2.1-2.863-4.271,5.251-1.9Z" transform="translate(-201.647 -236.04)" fill="#ceccd6"/>
            <path id="Path_53222" data-name="Path 53222" d="M233.34,265.378l-5.328,2.1L225.15,263.2l5.251-1.914Z" transform="translate(-198.695 -237.086)" fill="#ceccd6"/>
            <path id="Path_53223" data-name="Path 53223" d="M238.9,263.4l-5.328,2.1-2.863-4.271,5.251-1.9Z" transform="translate(-195.743 -238.127)" fill="#ceccd6"/>
            <path id="Path_53224" data-name="Path 53224" d="M244.46,261.448l-5.328,2.1-2.863-4.271,5.251-1.914Z" transform="translate(-192.791 -239.173)" fill="#ceccd6"/>
            <path id="Path_53225" data-name="Path 53225" d="M250.02,259.472l-5.328,2.1L241.83,257.3l5.251-1.9Z" transform="translate(-189.84 -240.213)" fill="#ceccd6"/>
            <path id="Path_53226" data-name="Path 53226" d="M255.581,257.518l-5.328,2.1-2.863-4.271,5.251-1.914Z" transform="translate(-186.887 -241.259)" fill="#ceccd6"/>
            <path id="Path_53227" data-name="Path 53227" d="M261.836,255.522l-5.328,2.1-2.878-4.271,5.266-1.9Z" transform="translate(-183.574 -242.31)" fill="#ceccd6"/>
            <path id="Path_53228" data-name="Path 53228" d="M268.07,253.532l-5.328,2.1-2.863-4.271,5.266-1.9Z" transform="translate(-180.256 -243.367)" fill="#ceccd6"/>
            <path id="Path_53229" data-name="Path 53229" d="M274.32,251.542l-5.328,2.113-2.863-4.287,5.251-1.9Z" transform="translate(-176.938 -244.423)" fill="#ceccd6"/>
            <path id="Path_53230" data-name="Path 53230" d="M280.57,249.552l-5.328,2.113-2.863-4.287,5.251-1.9Z" transform="translate(-173.619 -245.48)" fill="#ceccd6"/>
          </g>
          <g id="Group_5370" data-name="Group 5370" transform="translate(27.327 27.097)">
            <path id="Path_53231" data-name="Path 53231" d="M219.222,275.055l-5.251,2.312L210.94,273.2l5.175-2.113Z" transform="translate(-210.94 -237.838)" fill="#ceccd6"/>
            <path id="Path_53232" data-name="Path 53232" d="M224.687,272.875l-5.236,2.3-3.031-4.149,5.175-2.113Z" transform="translate(-208.03 -238.996)" fill="#ceccd6"/>
            <path id="Path_53233" data-name="Path 53233" d="M230.856,271.222l-5.328,2.1-2.878-4.271,5.266-1.9Z" transform="translate(-204.723 -239.93)" fill="#ceccd6"/>
            <path id="Path_53234" data-name="Path 53234" d="M236.416,269.268l-5.328,2.1-2.878-4.271,5.266-1.914Z" transform="translate(-201.771 -240.976)" fill="#ceccd6"/>
            <path id="Path_53235" data-name="Path 53235" d="M241.976,267.292l-5.343,2.1-2.863-4.271,5.266-1.9Z" transform="translate(-198.819 -242.017)" fill="#ceccd6"/>
            <path id="Path_53236" data-name="Path 53236" d="M247.52,265.338l-5.328,2.1-2.863-4.271,5.266-1.914Z" transform="translate(-195.867 -243.063)" fill="#ceccd6"/>
            <path id="Path_53237" data-name="Path 53237" d="M253.08,263.362l-5.328,2.1-2.863-4.271,5.266-1.9Z" transform="translate(-192.915 -244.103)" fill="#ceccd6"/>
            <path id="Path_53238" data-name="Path 53238" d="M258.64,261.408l-5.328,2.1-2.863-4.271,5.266-1.914Z" transform="translate(-189.963 -245.149)" fill="#ceccd6"/>
            <path id="Path_53239" data-name="Path 53239" d="M264.89,259.418l-5.328,2.1-2.863-4.271,5.251-1.914Z" transform="translate(-186.644 -246.206)" fill="#ceccd6"/>
            <path id="Path_53240" data-name="Path 53240" d="M271.14,257.422l-5.328,2.1-2.863-4.271,5.251-1.9Z" transform="translate(-183.326 -247.257)" fill="#ceccd6"/>
            <path id="Path_53241" data-name="Path 53241" d="M277.4,255.432l-5.328,2.1-2.878-4.271,5.266-1.9Z" transform="translate(-180.013 -248.313)" fill="#ceccd6"/>
            <path id="Path_53242" data-name="Path 53242" d="M283.63,253.442l-5.328,2.113-2.863-4.287,5.266-1.9Z" transform="translate(-176.695 -249.37)" fill="#ceccd6"/>
          </g>
        </g>
        <path id="Path_53243" data-name="Path 53243" d="M308.891,231.394q-57.869,19.152-115.754,38.319a.459.459,0,0,0-.337.444c0,4.731.658,4.9,3.766,8.527q7.647,8.91,15.34,17.759c2.235,2.572,6.384,9.614,9.752,10.839,1.791.643,5.45-1.806,7.593-2.557,25.7-8.971,51.485-17.728,77.22-26.577q13.824-4.754,27.649-9.522c.551-.184.322-1.072-.245-.888-35.472,12.217-71.112,23.99-106.43,36.635-5.1,1.822-5.1,2.465-8.558-1.393-4.164-4.639-8.236-9.369-12.309-14.085-2.281-2.633-15.968-15.08-12.615-18.494,1.194-1.209,5.251-1.745,6.828-2.266l12.89-4.271q18.073-5.971,36.13-11.957,29.67-9.829,59.324-19.642c.551-.184.322-1.072-.245-.888h0Z" transform="translate(-192.8 -231.354)" fill="#a3a3a3"/>
        <path id="Path_53244" data-name="Path 53244" d="M193.3,256.479c8.849,11.1,17.958,22.076,27.3,32.747.322.367.811-.153.52-.521-8.895-11.053-18.111-21.923-27.5-32.548-.2-.23-.505.092-.322.322h0Z" transform="translate(-192.565 -218.227)" fill="#a3a3a3"/>
      </g>
      <ellipse id="Ellipse_805" data-name="Ellipse 805" cx="12.431" cy="3.138" rx="12.431" ry="3.138" transform="translate(171.507 405.038)" fill="#bd9675"/>
      <path id="Path_53245" data-name="Path 53245" d="M217.067,228.91c9.308,9.706,3.23,23.592-9.783,24.434-6.139.4-12.584-1.179-18.785-1.209-10.5-.046-21.127,1.5-30.879,5.527-17.269,7.134-29.47,23.821-32.287,42.162-.138.857,1.179,1.225,1.3.367A55.216,55.216,0,0,1,147.945,264.5c11.436-8.374,27.541-11.237,41.856-10.992,9.936.168,22.949,4.363,30.006-5.1,4.807-6.445,3.23-14.59-2.358-19.887a.282.282,0,0,0-.4.4h0Z" transform="translate(59.477 111.308)" fill="#1d2542"/>
      <g id="Group_5373" data-name="Group 5373" transform="translate(86.984 442.898)">
        <path id="Path_53246" data-name="Path 53246" d="M104.767,354.718l91.779,35.9-12.416-24.97L104.767,335.29,95.78,353.171Z" transform="translate(-43.192 -274.864)" fill="#87654e"/>
        <path id="Path_53247" data-name="Path 53247" d="M125.76,298.66l78.966,222.827,19.611-3.108L150.194,308.121Z" transform="translate(-27.275 -294.312)" fill="#a37b5d"/>
        <path id="Path_53248" data-name="Path 53248" d="M148.678,295.82,61.43,446.249H82.557l80.787-136.406-3.429-9.676Z" transform="translate(-61.43 -295.82)" fill="#87654e"/>
      </g>
      <g id="Group_5378" data-name="Group 5378" transform="translate(217.489 332.411)">
        <g id="Group_5376" data-name="Group 5376">
          <path id="Path_53249" data-name="Path 53249" d="M166.113,269.377s-22.229,7.226-17.943,15.906,21.311,9.936,33.038,8.344c12.446-1.7,26.21-9.17,21.663-19.734S166.113,269.377,166.113,269.377Z" transform="translate(-146.173 -200.287)" fill="#d2d6ff"/>
          <path id="Path_53250" data-name="Path 53250" d="M150.8,265.005l9.323,24.265a13.938,13.938,0,0,0,4.026,3.95,25.2,25.2,0,0,0,23.837-4.072l1.9-28.322a9.043,9.043,0,0,0-4.271-7.762c-4.271-2.6-11.9-5.175-23.607-2.1C149.5,254.258,150.8,264.99,150.8,264.99Z" transform="translate(-144.505 -209.892)" fill="#b1b5f5"/>
          <path id="Path_53251" data-name="Path 53251" d="M177.986,260.03a4.283,4.283,0,0,1,4.93.122,5.892,5.892,0,0,1,2.174,4.914,8.649,8.649,0,0,1-2.572,5.588c-1.363,1.408-3.383,2.618-5.19,1.546-2.128-1.271-4.042,2.036-1.929,3.307,5.037,3,10.609-1.653,12.554-6.2s.873-10.487-3.8-12.86a8.14,8.14,0,0,0-8.1.276,1.966,1.966,0,0,0-.689,2.618,1.941,1.941,0,0,0,2.618.689h0Z" transform="translate(-131.913 -206.738)" fill="#b1b5f5"/>
          <path id="Path_53252" data-name="Path 53252" d="M186.38,259.273a9.164,9.164,0,0,1-4.287,5.159,19.351,19.351,0,0,1-6.583,1.944,55.386,55.386,0,0,1-18.8-.429,6.932,6.932,0,0,1-3.536-1.454,4.931,4.931,0,0,1-.7-5.68,10.672,10.672,0,0,1,4.363-4.195c8.6-5.1,21.234-4.44,27.8-.184,0,0,2.694,1.883,1.761,4.822Z" transform="translate(-143.905 -209.12)" fill="#bd9675"/>
          <path id="Path_53253" data-name="Path 53253" d="M152.594,262.772c-1.179-8.175,11.5-10.808,16.993-11.053s12.431.8,16,5.312c.321.4,1-.122.7-.551-4.179-6.17-14.406-6.568-20.974-5.3-5.511,1.072-15.462,4.5-13.411,11.773.122.459.75.245.689-.184h0Z" transform="translate(-144.045 -209.342)" fill="#949ad3"/>
          <path id="Path_53254" data-name="Path 53254" d="M188.08,289.136c-7.655,4.639-20.377,10.119-26.745.337-3.827-5.863-5.634-14.651-8.145-21.219-2.3-6.032-2.909-10.992,3.858-14.85,5.925-3.383,14.819-3.873,21.4-2.648,13.258,2.5,11.237,13.533,10.4,23.837-.4,4.884-.842,9.783-1.056,14.682-.015.49.7.475.75,0,.811-9.017,2.893-19.933,1.944-28.843-1.347-12.569-19.274-12.125-28.23-9.844-5.113,1.3-9.875,3.843-11.467,9.2-1.806,6.108,3.552,13.824,5.649,19.29,2.756,7.165,3.261,14.59,11.62,16.2,7.272,1.393,14.605-1.378,20.224-5.879.153-.122-.046-.352-.2-.26Z" transform="translate(-144.687 -210.017)" fill="#949ad3"/>
          <path id="Path_53255" data-name="Path 53255" d="M159.761,265.013a20.838,20.838,0,0,0,.352,2.143,5.16,5.16,0,0,0,.612,2.082c.214.276.781.337.857-.107a4.57,4.57,0,0,0-.337-1.96,22.717,22.717,0,0,0-.735-2.25c-.153-.367-.8-.367-.75.107h0Z" transform="translate(-139.73 -201.878)" fill="#1d2542"/>
          <path id="Path_53256" data-name="Path 53256" d="M162.7,264.653c.092.7.153,1.409.26,2.113a7,7,0,0,0,.413,2.113.463.463,0,0,0,.842-.107,4.656,4.656,0,0,0-.23-1.99,13.848,13.848,0,0,0-.75-2.2c-.107-.26-.6-.276-.551.077h0Z" transform="translate(-138.179 -202.023)" fill="#1d2542"/>
          <path id="Path_53257" data-name="Path 53257" d="M157.91,269.213c.566,3.567,4.532,5.236,7.808,4.516a6.814,6.814,0,0,0,5.205-7.746c-.107-.7-1.194-.505-1.209.168-.046,3.016-1.516,5.756-4.669,6.445s-5.175-1.378-6.843-3.536c-.122-.153-.306.015-.276.168h0Z" transform="translate(-140.711 -201.408)" fill="#1d2542"/>
          <path id="Path_53258" data-name="Path 53258" d="M159.159,270.885c-4.669,2.159-14.039,6.705-12.263,13.319,2.327,8.634,16.687,10.2,23.745,10.563,10.487.536,22.949-.827,30.343-9.232,4.547-5.175,5.833-12.814-.505-16.978-.7-.459-1.332.643-.658,1.118,11.957,8.558-4.21,20.04-11.344,22.26-6.093,1.9-12.8,2.143-19.137,1.684-4.7-.352-19.32-2.159-20.683-8.313-1.546-7.042,5.435-11.574,10.671-14.13.2-.092.031-.383-.168-.291h0Z" transform="translate(-146.676 -199.865)" fill="#949ad3"/>
          <g id="Group_5374" data-name="Group 5374" transform="translate(8.105 41.467)" opacity="0.24">
            <path id="Path_53259" data-name="Path 53259" d="M152.674,262.9c2.3-7.18,9.89-9.859,16.84-10.043,5.358-.138,13.947.658,15.217,7.379a.767.767,0,0,0,1.5-.2c-1.164-14.192-33.864-11.237-34.262,2.756a.36.36,0,0,0,.7.092h0Z" transform="translate(-151.97 -250.736)" fill="#1d2542"/>
          </g>
          <g id="Group_5375" data-name="Group 5375" transform="translate(12.915)" opacity="0.24">
            <path id="Path_53260" data-name="Path 53260" d="M159.855,274.6a8.308,8.308,0,0,1-4.547-9.2c.689-2.909,2.924-5.19,5.236-7.1,2.312-1.9,4.838-3.644,6.522-6.124s2.327-5.971.582-8.42c-1.944-2.74-5.986-3.138-8.236-5.619a8.109,8.109,0,0,1-1.363-7.578,20.517,20.517,0,0,1,4.011-6.9c-1.623,2.786-.582,6.506,1.577,8.895s5.22,3.735,8.191,4.96,6.063,2.465,8.374,4.715c4.685,4.547,4.685,13.028,0,17.575a17.576,17.576,0,0,0-2.5,2.511,3.136,3.136,0,0,0-.352,3.337,9.969,9.969,0,0,0,1.592,1.516,4.756,4.756,0,0,1,.245,5.909,7.786,7.786,0,0,1-5.481,2.97,22.962,22.962,0,0,1-6.384-.4" transform="translate(-155.111 -223.65)" fill="#fff"/>
          </g>
        </g>
        <g id="Group_5377" data-name="Group 5377" transform="translate(0.204 83.191)" opacity="0.33">
          <path id="Path_53261" data-name="Path 53261" d="M146.857,278.373c-.505,5.266,3.062,10.318,7.7,12.875s10.135,3.031,15.432,2.832a46.084,46.084,0,0,0,17.514-3.751A28,28,0,0,0,200.684,278.5c-5.282,6.522-13.748,9.905-22.122,10.4s-16.7-1.638-24.571-4.547a16.4,16.4,0,0,1-4.455-2.22,6.215,6.215,0,0,1-2.541-4.134" transform="translate(-146.809 -277.99)" fill="#383838"/>
        </g>
      </g>
      <g id="Group_5379" data-name="Group 5379" transform="translate(283.586 122.872)">
        <path id="Path_53262" data-name="Path 53262" d="M189.85,97.022l8.849,38.136,59.645-9.584L249.587,86.78Z" transform="translate(-189.85 -86.78)" fill="#8080ea"/>
        <text id="HTML" transform="translate(13.629 32.109) rotate(-11.77)" fill="#fff" font-size="13" font-family="Montserrat-Italic, Montserrat" font-style="italic"><tspan x="0" y="0">HTML</tspan></text>
        <path id="Path_53263" data-name="Path 53263" d="M224.467,113.447s8.634,10.594,8.435,10c-.2-.582-1.623-11.574-1.623-11.574l-8.16.781" transform="translate(-172.186 -73.459)" fill="#8080ea"/>
      </g>
      <path id="Path_53287" data-name="Path 53287" d="M138.084,303.88l76.577,216.03-9.936,1.577L125.76,298.66Z" transform="translate(59.709 148.586)" fill="#383838" opacity="0.33"/>
      <path id="Path_53288" data-name="Path 53288" d="M109.626,340.68,170.3,365.91l5.588,14.988L101.65,351.856Z" transform="translate(46.908 170.896)" fill="#383838" opacity="0.33"/>
      <path id="Path_53289" data-name="Path 53289" d="M159.92,300.168c-3.154.643-88.059,146.082-88.059,146.082H61.42L148.683,295.82l11.237,4.348Z" transform="translate(25.548 147.078)" fill="#383838" opacity="0.33"/>
      <g id="Group_5387" data-name="Group 5387" transform="translate(150.989 289.761)">
        <path id="Path_53290" data-name="Path 53290" d="M105.7,273.607a12.986,12.986,0,0,0,8.8,5.19,25.815,25.815,0,0,0,10.41-.873c2.771-.7,5.68-1.791,7.287-4.164,1.47-2.174,1.531-4.976,1.531-7.609,0-5.833.031-11.666.046-17.5,0-2.557-.138-5.481-2.082-7.134-3.429-2.939-9.369.413-13.044-2.235-1.592-1.148-2.388-3.215-4.1-4.179-2.4-1.347-5.588.2-7,2.572-1.393,2.373-1.485,5.266-1.531,8.022l-.459,28.261" transform="translate(-102.005 -175.185)" fill="#929cf7"/>
        <path id="Path_53291" data-name="Path 53291" d="M110.745,195.87v25.046a23.32,23.32,0,0,0-7.149,17.9c.4,11.528,0,58.834,0,58.834q17.108,11.482,34.2,0L136.2,236.822s-.4-10.334-7.548-15.11V195.87h-17.9Z" transform="translate(-103.057 -195.75)" fill="#fff" opacity="0.6"/>
        <path id="Path_53292" data-name="Path 53292" d="M108.2,196.57c5.542,4.072,13.12,3.536,18.846.2a.525.525,0,0,0-.536-.9c-6.032,3.536-11.834,2.97-17.988.138a.33.33,0,0,0-.337.566h0Z" transform="translate(-100.692 -195.792)" fill="#1d2542"/>
        <path id="Path_53293" data-name="Path 53293" d="M103.409,263.885c10.762,7.716,24.388,7.073,34.813-.919.551-.429,0-1.378-.551-.949-10.426,7.884-22.826,8.022-33.834,1.148-.459-.291-.842.413-.413.72h0Z" transform="translate(-103.238 -160.688)" fill="#1d2542"/>
        <g id="Group_5386" data-name="Group 5386" transform="translate(0.46 102.141)" opacity="0.33">
          <path id="Path_53294" data-name="Path 53294" d="M103.571,263.337c-.383,4.3,2.679,8.436,6.629,10.2s8.558,1.47,12.707.23a29.465,29.465,0,0,0,15.524-11.252c-5.634,2.235-11.344,4.47-17.376,5.159-6.017.674-12.492-.4-17.192-4.21" transform="translate(-103.539 -262.51)" fill="#383838"/>
        </g>
      </g>
      <path id="Path_53295" data-name="Path 53295" d="M247.14,269.538c2.725-4.348,5.251-8.864,7.716-13.365a.454.454,0,0,0-.781-.459c-2.587,4.44-5.175,8.925-7.5,13.488a.319.319,0,0,0,.551.322h0Z" transform="translate(123.832 125.672)" fill="#1d2542"/>
      <g id="Group_5393" data-name="Group 5393" transform="translate(345.965 204.601)">
        <path id="Path_53296" data-name="Path 53296" d="M303.89,395.969c0,1.118,4.486,16.84,4.486,16.84l23.592-3.368-6.124-19.611Z" transform="translate(-191.681 -7.61)" fill="#f4f4f4"/>
        <path id="Path_53297" data-name="Path 53297" d="M262.1,418.309c0,1.118,4.486,16.84,4.486,16.84l23.592-3.368-6.124-19.611Z" transform="translate(-213.869 4.251)" fill="#f4f4f4"/>
        <path id="Path_53298" data-name="Path 53298" d="M259.058,312.179s-4.991-19.213,19.2-21.28c18.417-1.577,60.441,8.344,60.441,8.344l-11.712,41.963-67.927-29.011Z" transform="translate(-215.71 -60.226)" fill="#272b35"/>
        <path id="Path_53299" data-name="Path 53299" d="M268.06,324.34l47.52,121.173L356.334,433.8l-29.685-81.078Z" transform="translate(-210.705 -42.381)" fill="#272b35"/>
        <path id="Path_53300" data-name="Path 53300" d="M346.067,302.92s-92.377-18-113,5.312c-10.992,12.446,38.84,177.359,38.84,177.359l42.116-6.017L286.07,354.406s115.249,26.041,118.571-34.247" transform="translate(-230.123 -57.275)" fill="#363b49"/>
        <path id="Path_53301" data-name="Path 53301" d="M324.675,167.38q-.253,9.254-.49,18.494a8.111,8.111,0,0,0,.337,3.154,2.782,2.782,0,0,0,2.327,1.9" transform="translate(-180.914 -125.716)" fill="#f8b69c"/>
        <path id="Path_53302" data-name="Path 53302" d="M330.348,166.948a20.45,20.45,0,0,1-11.819-2.449c-2.2-1.163-2.893-4.256-1.255-9a5.683,5.683,0,0,1,4.9-3.138c2.924.245,3.674.643,4.991-.475-3.123-.919-4.623-5.021-3.2-7.946a7.418,7.418,0,0,1,8.282-3.567c4.21,1.026,6.935,5.021,10.686,7.2,4.47,2.6,10,2.4,15.11,1.73,5.129-.674,10.349-1.761,15.4-.674,7.685,1.653,13.641,8.236,16.228,15.661s2.235,15.554.9,23.3c-.8,4.639-1.944,9.354-1.209,14.008.291,1.868.888,3.7,1.1,5.588a7.48,7.48,0,0,1-1.164,5.435c-1.164,1.5-14.054,1.684-15.631.628" transform="translate(-185.056 -140.165)" fill="#1d2542"/>
        <path id="Path_53303" data-name="Path 53303" d="M327.789,154.908a3.328,3.328,0,0,0-3.322,3.154c-.536,11.849-.337,50.536,9.8,56.629,4.807,2.893,17.483.49,17.483.49l3.184,28.69,31.461-2.2-4.868-35.87s-11.9,3.445-11.436-20.3c0,0,12.906-3.46,7.685-15.616-3.552-8.267-19.764-6.506-17.912,7.41l-5.236,1.378-5.481-21.2a3.947,3.947,0,0,0-3.935-3.674l-17.437,1.087Z" transform="translate(-180.844 -132.932)" fill="#f8b69c"/>
        <path id="Path_53304" data-name="Path 53304" d="M362.776,203.54s-24.158,1.378-30.45,21.816l-9.538,66.427L309.04,356.021,357.4,370.366l45.346,3.077s13.809-78.491,20.744-111.238c5.94-28.139.214-40.248-2.189-43.861-.643-.949-1.179-1.96-1.73-2.97-2.694-5.037-24.219-17.514-56.782-11.819Z" transform="translate(-188.947 -107.284)" fill="#0091ff"/>
        <path id="Path_53305" data-name="Path 53305" d="M246.2,292.094s66.136,35.809,74.648,30.634c8.512-5.19,41.136-44.29,41.136-44.29L369.3,213.22l-59.569,80.619L254.574,277.9,246.2,292.109Z" transform="translate(-222.311 -101.378)" fill="#0091ff"/>
        <path id="Path_53306" data-name="Path 53306" d="M328.477,168.925a8.151,8.151,0,0,0-.122,1.5,3.588,3.588,0,0,0,.076,1.516.545.545,0,0,0,1.041,0,3.872,3.872,0,0,0,.061-1.516,8.288,8.288,0,0,0-.138-1.5.473.473,0,0,0-.9,0h0Z" transform="translate(-178.715 -125.073)" fill="#1d2542"/>
        <path id="Path_53307" data-name="Path 53307" d="M328.469,165.265a3.839,3.839,0,0,1,1.73-.505,5.4,5.4,0,0,1,1.638.521.475.475,0,0,0,.536-.689c-.949-1.378-3.536-1.194-4.486.092-.276.383.245.735.582.582Z" transform="translate(-178.982 -127.704)" fill="#1d2542"/>
        <path id="Path_53308" data-name="Path 53308" d="M318.4,157.1a102.069,102.069,0,0,0,28.475,2.878c15.554-.689,15.784,1.73,15.784,1.73l-8.42-9.8L318.4,157.1Z" transform="translate(-183.978 -133.93)" fill="#1d2542"/>
        <path id="Path_53309" data-name="Path 53309" d="M359.553,147.021a37.083,37.083,0,0,1,.98-5.511.344.344,0,0,0-.628-.26,9.553,9.553,0,0,0-.964,5.787.306.306,0,0,0,.612,0h0Z" transform="translate(-162.484 -139.681)" fill="#1d2542"/>
        <path id="Path_53310" data-name="Path 53310" d="M360.047,146.249a38.087,38.087,0,0,0,3.016-2.373.414.414,0,0,0-.505-.643,36.708,36.708,0,0,0-3.062,2.48c-.383.306.153.842.536.536h0Z" transform="translate(-162.228 -138.572)" fill="#1d2542"/>
        <g id="Group_5388" data-name="Group 5388" transform="translate(159.412 48.992)" opacity="0.21">
          <path id="Path_53311" data-name="Path 53311" d="M344.195,178.372a4.424,4.424,0,0,1-3.8,1.408A7.591,7.591,0,0,1,336.617,178c-1.072-.857-2.067-2.082-1.868-3.429a3.168,3.168,0,0,1,2.924-2.388,9.354,9.354,0,0,1,3.95.8s4.7,2.955,2.572,5.374Z" transform="translate(-334.723 -172.167)" fill="#f46e62"/>
        </g>
        <g id="Group_5389" data-name="Group 5389" transform="translate(182.752 36.856)" opacity="0.21">
          <path id="Path_53312" data-name="Path 53312" d="M355.482,164.24c-2.358.245-3.337.322-4.577,2.327a5.735,5.735,0,0,0-.919,3.445,5.112,5.112,0,0,0,1.776,3.307,5.82,5.82,0,0,0,6.751.566,5.472,5.472,0,0,0,2.174-6.353,5.114,5.114,0,0,0-5.894-3.047" transform="translate(-349.969 -164.24)" fill="#f46e62"/>
        </g>
        <path id="Path_53313" data-name="Path 53313" d="M355.7,163.41a5.922,5.922,0,0,0-4.44,6.461c.046.413.674.735.9.245a4.214,4.214,0,0,1,2.419-2.358c1.653-.566,3.613.122,3.628,2.113.031,3.062-3.123,3.843-5.511,3.429-.459-.077-.8.551-.337.8,3.23,1.7,7.639-1.47,6.66-5.144-1.072-4.072-6.369-2.036-7.685.689l.9.245a5.3,5.3,0,0,1,3.644-5.8.342.342,0,0,0-.184-.658h0Z" transform="translate(-166.557 -127.824)" fill="#1d2542"/>
        <path id="Path_53314" data-name="Path 53314" d="M324.61,167.685a182.082,182.082,0,0,0-.658,18.494c.092,2.45.306,4.654,2.97,5.312a.279.279,0,0,0,.153-.536c-3.6-1.164-2.189-10.334-2.128-13.1.077-3.4.122-6.782.092-10.181a.207.207,0,0,0-.413,0h0Z" transform="translate(-181.063 -125.669)" fill="#1d2542"/>
        <path id="Path_53315" data-name="Path 53315" d="M329.9,188.373c1.914.276,3.98-1,5.312-2.281a9.159,9.159,0,0,0,2.71-5.756c.061-.643-.919-.628-1,0a8.805,8.805,0,0,1-2.526,5.3c-1.332,1.3-2.939,1.684-4.532,2.511a.127.127,0,0,0,.031.23Z" transform="translate(-177.919 -119.091)" fill="#1d2542"/>
        <path id="Path_53316" data-name="Path 53316" d="M333.911,181.2a4.321,4.321,0,0,1,1.868-.352c.536.015,1.026.291,1.516.031a.35.35,0,0,0,.122-.475c-.321-.582-1.164-.536-1.761-.505a5.406,5.406,0,0,0-2.067.566c-.413.2-.122.919.321.75h0Z" transform="translate(-176.019 -119.08)" fill="#1d2542"/>
        <g id="Group_5391" data-name="Group 5391" transform="translate(78.189 148.845)">
          <path id="Path_53317" data-name="Path 53317" d="M304.35,353.592s23.393,12.171,52.312,8.6A95.785,95.785,0,0,0,400.34,345.34l-95.99,8.236Z" transform="translate(-269.626 -180.076)" fill="#cccbd1"/>
          <path id="Path_53318" data-name="Path 53318" d="M407.789,238.21s-24.786,2.863-30.205,30.3c-4.179,21.158-3.047,71.678-14.437,103.017-4.623,12.737-20.821,19.458-34.339,20.285l-46.142.383s-14.207,19.167,64.621,18.6c0,0,40.738.919,62.34-7.394,17.7-6.813,29.225-19.994,36.375-33.834s13.687-39.942,17.039-59.6,7.088-58.1,5.067-63.687c-2.006-5.588-6.706-8.3-15.417-8.053s-44.918,0-44.918,0Z" transform="translate(-281.669 -236.955)" fill="#998a99"/>
          <path id="Path_53319" data-name="Path 53319" d="M330.95,357.316v84.492l10.793-1.026,1.118-85.013Z" transform="translate(-255.503 -174.539)" fill="#cccbd1"/>
          <path id="Path_53320" data-name="Path 53320" d="M352.177,404.84s-62.952.245-50.107,29.271c12.278,27.741,73.332,26.73,94.6,14.421C414.517,438.2,419.982,409.173,352.177,404.84Z" transform="translate(-271.755 -148.486)" fill="#cccbd1"/>
          <path id="Path_53321" data-name="Path 53321" d="M337.392,401.126c-1.24,11.834-3.934,25.459-18.555,25.536a.353.353,0,0,0-.092.689c14.574,3.491,19-15.983,19.045-26.225,0-.26-.367-.245-.4,0Z" transform="translate(-262.114 -150.559)" fill="#1d2542"/>
          <path id="Path_53322" data-name="Path 53322" d="M338.226,398.628c-.4,7.961.168,16.871,5.1,23.515,4.21,5.649,11.084,8.037,17.682,9.614a.509.509,0,0,0,.276-.98c-6.843-2.312-13.932-4.256-17.973-10.854s-4.1-13.977-4.914-21.3c0-.107-.153-.107-.168,0h0Z" transform="translate(-251.695 -151.827)" fill="#1d2542"/>
          <g id="Group_5390" data-name="Group 5390" transform="translate(0.006 0.697)" opacity="0.35">
            <path id="Path_53323" data-name="Path 53323" d="M286.169,402.427c21.265,5.772,41.182,3.108,62.217-3.429,10.594-3.292,21.2-8.267,27.863-17.131,7.517-10,8.818-23.209,9.859-35.686q3.192-38.579,6.4-77.174c.49-5.986,1.026-12.125,3.521-17.59s7.379-10.257,13.35-10.916l15.6-2.1s-44.091-7.471-47.75,32.287c-3.659,39.774-6.8,76.608-10.441,88.809-3.628,12.217-19.458,31.078-32.992,31.935-22.918,1.454-51.118.934-51.118.934s-3.843,8.053,3.491,10.043Z" transform="translate(-281.673 -237.846)" fill="#1d2542"/>
          </g>
          <path id="Path_53324" data-name="Path 53324" d="M284.189,402.868c23.745,1.516,51.975,1.776,74.158-8.175,17.345-7.777,24.587-25.383,27.143-43.325,1.623-11.329,1.3-22.979,2.082-34.4q1.516-21.862,4.531-43.57c1.194-8.466,1.3-19.749,7.318-26.516s16.488-7.241,24.449-7.67c10.885-.582,41.3-5.772,43.035,10.717.076.72,1.209.735,1.133,0-1.347-14.253-19.412-12.584-29.532-12.37-11.865.245-27.848-1.118-37.737,6.506-4,3.092-5.879,7.716-7.073,12.508-3.2,12.875-4.21,26.776-5.542,39.957-1.424,14.1-2.312,28.23-2.74,42.392-.413,13.549-2.419,27.5-9.354,39.406-8.129,13.962-23.546,19.106-38.7,21.617-17.529,2.909-35.472,3.307-53.185,2.388-.321-.015-.321.49,0,.505h0Z" transform="translate(-280.467 -237.39)" fill="#1d2542"/>
          <path id="Path_53325" data-name="Path 53325" d="M282.843,344.481c17.743,11.421,40.6,11.161,60.9,10.594,24.847-.689,49.939-3.46,74.1-9.461.628-.153.367-1.1-.26-.965a392.313,392.313,0,0,1-70.9,9.354c-21.647.75-44.076.8-63.5-10.089a.33.33,0,0,0-.337.566h0Z" transform="translate(-281.126 -180.856)" fill="#1d2542"/>
        </g>
        <path id="Path_53326" data-name="Path 53326" d="M300.514,424.99s5.358,16.687,5.236,17.8-67.055-2.648-62.937-6.017,8.65-6.307,34.967-5.879l-.857-2.541,23.592-3.368Z" transform="translate(-224.206 11.057)" fill="#48435e"/>
        <path id="Path_53327" data-name="Path 53327" d="M342.3,402.64s5.358,16.687,5.236,17.8-67.055-2.648-62.937-6.017,8.65-6.307,34.967-5.879l-.857-2.541Z" transform="translate(-202.018 -0.809)" fill="#48435e"/>
        <path id="Path_53328" data-name="Path 53328" d="M242.526,434.229c21.066,3.246,42.637,4.088,63.886,5.312.811.046.811-1.225,0-1.255-21.357-.735-42.514-3.261-63.809-4.715-.367-.031-.459.6-.092.658h0Z" transform="translate(-224.394 15.612)" fill="#1d2542"/>
        <path id="Path_53329" data-name="Path 53329" d="M261.834,428.8a6.165,6.165,0,0,0,.2,5.527.386.386,0,0,0,.7-.291,19.336,19.336,0,0,1-.459-2.633c-.031-.827.122-1.623.138-2.434a.313.313,0,0,0-.582-.153h0Z" transform="translate(-214.307 13.006)" fill="#1d2542"/>
        <path id="Path_53330" data-name="Path 53330" d="M263.566,428.675c-.306,1.761-.276,4.21.98,5.634.26.306.658-.031.612-.352-.138-.827-.566-1.607-.765-2.434a16.985,16.985,0,0,1-.413-2.786c0-.23-.383-.321-.429-.061h0Z" transform="translate(-213.176 12.93)" fill="#1d2542"/>
        <path id="Path_53331" data-name="Path 53331" d="M265.275,428.666a5.791,5.791,0,0,0,2.587,4.807.451.451,0,0,0,.612-.612c-.429-.735-1.118-1.3-1.562-2.036s-.658-1.577-1.072-2.312c-.153-.291-.551-.122-.582.153h0Z" transform="translate(-212.191 12.847)" fill="#1d2542"/>
        <path id="Path_53332" data-name="Path 53332" d="M265.584,428.8a22.317,22.317,0,0,0,3.751.628c.475.015.6-.766.122-.857a22.665,22.665,0,0,0-3.812-.2c-.245,0-.306.383-.061.429Z" transform="translate(-212.102 12.852)" fill="#1d2542"/>
        <path id="Path_53333" data-name="Path 53333" d="M264.995,431.367a15.315,15.315,0,0,0-3.4-5.42c-1-.98-2.878-2.22-4.057-.781-2.648,3.23,4.608,6.384,6.859,6.384a.5.5,0,0,0,.138-.98,18.062,18.062,0,0,1-3.751-1.378,7.481,7.481,0,0,1-1.684-1.24c-.475-.505-1.653-2.312.153-2.2,1.087.061,2.4,1.852,3.031,2.633a18.047,18.047,0,0,1,2.113,3.23c.168.337.765.092.628-.26h0Z" transform="translate(-216.595 10.804)" fill="#1d2542"/>
        <path id="Path_53334" data-name="Path 53334" d="M263.294,431.855a8.477,8.477,0,0,0,1.164-5.848c-.138-1.041-.429-3.123-1.883-3.016s-1.73,2.45-1.806,3.536a7.6,7.6,0,0,0,1.439,5.312.462.462,0,0,0,.765-.444,16.608,16.608,0,0,1-1-2.939c-.107-.643-.2-4.225.689-3.919.765.26.7,2.618.689,3.322a19.253,19.253,0,0,1-.72,3.72.361.361,0,0,0,.658.276h0Z" transform="translate(-214.588 9.994)" fill="#1d2542"/>
        <path id="Path_53335" data-name="Path 53335" d="M252.118,429.446a12.278,12.278,0,0,1,2.541,4.042,37.286,37.286,0,0,1,.811,3.889.319.319,0,0,0,.612,0c.735-2.97-1.47-6.461-3.659-8.236a.228.228,0,0,0-.321.321h0Z" transform="translate(-219.211 13.23)" fill="#1d2542"/>
        <path id="Path_53336" data-name="Path 53336" d="M275.718,439.739c1.776-4.96,4.96-8.389,10.472-8.91.582-.046.6-.949,0-.919-5.3.245-10.625,4.195-11.1,9.737-.031.383.52.4.628.092Z" transform="translate(-206.973 13.669)" fill="#1d2542"/>
        <path id="Path_53337" data-name="Path 53337" d="M276.862,425.845a36.142,36.142,0,0,0,1.393,4.486,16.3,16.3,0,0,0,1.516,3.873c.153.214.582.168.551-.153a17.813,17.813,0,0,0-1.332-4.256,30.02,30.02,0,0,0-1.653-4.149c-.138-.275-.536-.076-.475.2Z" transform="translate(-206.035 11.335)" fill="#1d2542"/>
        <path id="Path_53338" data-name="Path 53338" d="M264.936,428.855c8.114-.168,16.442-2.128,24.464-3.307.551-.077.322-.9-.23-.827-7.991,1.179-16.488,1.7-24.265,3.858-.153.046-.122.291.031.275h0Z" transform="translate(-212.433 10.912)" fill="#1d2542"/>
        <path id="Path_53339" data-name="Path 53339" d="M284.524,411.354c20.346,3.383,41.32,4.715,61.911,5.251a.575.575,0,0,0,0-1.148c-20.714-.827-41.213-2.8-61.85-4.547-.245-.015-.306.4-.061.444Z" transform="translate(-202.046 3.582)" fill="#1d2542"/>
        <path id="Path_53340" data-name="Path 53340" d="M304.69,406.505c.061.7.168,1.393.276,2.1a5.839,5.839,0,0,0,.475,2.036c.138.245.6.23.643-.077a5.264,5.264,0,0,0-.23-1.883c-.153-.75-.322-1.516-.536-2.25-.092-.337-.658-.291-.628.092h0Z" transform="translate(-191.257 1.082)" fill="#1d2542"/>
        <path id="Path_53341" data-name="Path 53341" d="M306.326,406.548a14.617,14.617,0,0,0,.459,2.159,3.769,3.769,0,0,0,.72,1.883.372.372,0,0,0,.612-.168,3.683,3.683,0,0,0-.383-1.99,16.028,16.028,0,0,0-.75-2.082.366.366,0,0,0-.674.184h0Z" transform="translate(-190.397 1.07)" fill="#1d2542"/>
        <path id="Path_53342" data-name="Path 53342" d="M307.182,406.394c1,.735,1.883,1.607,2.939,2.281.566.367,1.041-.505.52-.873-1.01-.72-2.143-1.225-3.184-1.868-.306-.184-.551.26-.276.459h0Z" transform="translate(-189.997 0.917)" fill="#1d2542"/>
        <path id="Path_53343" data-name="Path 53343" d="M303.235,406.615c-.367,1.424-.75,3.322-.2,4.731a.383.383,0,0,0,.75-.107c.046-.7-.107-1.409-.107-2.113a13.306,13.306,0,0,1,.184-2.342.332.332,0,0,0-.643-.168h0Z" transform="translate(-192.282 1.171)" fill="#1d2542"/>
        <path id="Path_53344" data-name="Path 53344" d="M306.2,407.47a10.683,10.683,0,0,0-3.429-3.95c-.949-.566-2.3-.429-2.449.873s1.225,2.3,2.159,2.924a8.476,8.476,0,0,0,4.868,1.363.513.513,0,0,0,0-1.026,7.569,7.569,0,0,1-5.3-2.1c-.49-.505-.7-1.148.322-.965.4.077.888.674,1.194.965a11.449,11.449,0,0,1,1.975,2.327.391.391,0,0,0,.674-.4h0Z" transform="translate(-193.581 -0.51)" fill="#1d2542"/>
        <path id="Path_53345" data-name="Path 53345" d="M306.264,408.841a8.245,8.245,0,0,0,.842-4.348c-.077-.842-.245-2.082-1.255-2.266-1.163-.214-1.745,1.194-2.067,2.051a10.641,10.641,0,0,0-.658,4.792c.061.689,1.133.72,1.1,0a11.818,11.818,0,0,1,.138-2.848c.107-.566.367-2.159.827-2.465,1.056-.72,1.01,1.393.98,2.021a8.3,8.3,0,0,1-.566,2.786c-.153.383.505.658.674.276h0Z" transform="translate(-192.112 -1.04)" fill="#1d2542"/>
        <path id="Path_53346" data-name="Path 53346" d="M306.619,406.455c8.1.077,16.6-1.653,24.633-2.74.658-.092.505-1.24-.153-1.163-8.053.934-16.7,1.363-24.541,3.445a.235.235,0,0,0,.061.459h0Z" transform="translate(-190.354 -0.858)" fill="#1d2542"/>
        <path id="Path_53347" data-name="Path 53347" d="M326.664,407.165c-5.159-.8-9.721,5.221-8.987,10,.107.674,1.072.444,1.118-.153.2-2.388.566-4.47,2.266-6.307,1.577-1.73,3.521-2.22,5.619-2.985.23-.092.306-.505,0-.551h0Z" transform="translate(-184.403 1.555)" fill="#1d2542"/>
        <path id="Path_53348" data-name="Path 53348" d="M317.964,403.356a20.6,20.6,0,0,0,1.715,10.533c.153.322.75.184.7-.184-.2-1.638-.643-3.246-.949-4.868-.337-1.822-.444-3.69-.919-5.465-.061-.26-.521-.291-.551,0h0Z" transform="translate(-184.277 -0.53)" fill="#1d2542"/>
        <path id="Path_53349" data-name="Path 53349" d="M293.568,407.1c3.383,1.776,3.6,6.047,3.69,9.369.015.781,1.24.781,1.209,0-.107-3.95-.582-8.145-4.562-9.951-.383-.168-.719.367-.337.582Z" transform="translate(-197.251 1.235)" fill="#1d2542"/>
        <path id="Path_53350" data-name="Path 53350" d="M264.356,426.581a192.225,192.225,0,0,0,23.224-3.628c.582-.107.337-1.026-.245-.888-7.609,1.806-15.325,2.8-23.056,3.965-.306.046-.245.566.077.551Z" transform="translate(-212.818 9.497)" fill="#9e663c"/>
        <path id="Path_53351" data-name="Path 53351" d="M263.694,424.314c7.808-.429,15.478-2.587,23.178-3.7.628-.092.383-1.1-.26-.964-7.593,1.669-15.478,2.159-22.995,4.149a.274.274,0,0,0,.076.536h0Z" transform="translate(-213.166 8.212)" fill="#9e663c"/>
        <path id="Path_53352" data-name="Path 53352" d="M263.069,421.894c7.808-.383,15.478-2.067,23.041-3.919.505-.122.291-.9-.214-.781-7.563,1.852-15.248,2.848-22.918,4.088-.352.061-.26.628.077.612h0Z" transform="translate(-213.522 6.912)" fill="#9e663c"/>
        <path id="Path_53353" data-name="Path 53353" d="M306.332,405.692a176.841,176.841,0,0,0,22.29-5.343.454.454,0,0,0-.245-.873c-7.364,2.036-14.835,3.674-22.2,5.68-.352.092-.2.582.153.536Z" transform="translate(-190.572 -2.498)" fill="#9e663c"/>
        <path id="Path_53354" data-name="Path 53354" d="M257.465,422.762c14.406-1.47,28.766-3.46,43.065-5.71.643-.107.367-1.072-.276-.98-14.222,2.22-28.491,4.057-42.79,5.787-.551.061-.566.949,0,.888h0Z" transform="translate(-216.552 6.319)" fill="#1d2542"/>
        <path id="Path_53355" data-name="Path 53355" d="M274.99,471.361c-4.792-23.1-10.119-46.081-15.141-69.137-2.449-11.283-4.976-22.535-7.486-33.8q-1.952-8.818-3.935-17.636c-1.255-5.573-3.475-11.574-3.843-17.269-.475-7.364,1.362-10.962,9.339-11.5,2.725-.184,5.8.536,8.5.857,6.078.72,12.125,1.669,18.157,2.71,10.808,1.868,21.555,4.088,32.349,6.078,21.357,3.935,43.188,7.134,64.912,4.593.781-.092.811-1.332,0-1.255-26.638,2.25-52.511-2.388-78.583-7.41-11.3-2.174-22.6-4.348-34-5.818-6.568-.842-18.08-4.424-21.663,3.49s2.159,21.066,3.9,28.889q4.271,19.106,8.6,38.181c5.971,26.424,11.758,52.909,18.08,79.241.138.536.949.306.827-.23h0Z" transform="translate(-224.309 -44.561)" fill="#1d2542"/>
        <path id="Path_53356" data-name="Path 53356" d="M299.621,409.175a304.213,304.213,0,0,1,40.6-14.008.524.524,0,0,0-.276-1.01,232.708,232.708,0,0,0-40.677,14.161c-.475.23-.138,1.072.367.873h0Z" transform="translate(-194.256 -5.323)" fill="#1d2542"/>
        <path id="Path_53357" data-name="Path 53357" d="M331.33,420.326c-11.941-22.566-22.581-45.515-30.879-69.688-.322-.949-1.837-.551-1.516.413,8.236,24.143,18.494,47.811,31.614,69.719a.453.453,0,0,0,.781-.459h0Z" transform="translate(-194.336 -28.707)" fill="#1d2542"/>
        <path id="Path_53358" data-name="Path 53358" d="M318.271,275.2c11.283-13.365,22.091-27.128,32.976-40.815.337-.413-.26-1.01-.6-.6-10.9,13.7-21.908,27.312-32.731,41.075-.184.245.138.582.352.352h0Z" transform="translate(-184.262 -90.532)" fill="#1d2542"/>
        <path id="Path_53359" data-name="Path 53359" d="M342.9,217.67c.827,0,1.546-.429,2.4-.4a4.235,4.235,0,0,1,2.97,1.255,3.974,3.974,0,1,1-6.231,4.9,4.4,4.4,0,0,1,1.194-5.634c.429-.367-.122-1.056-.6-.765a5.1,5.1,0,0,0-1.424,7.1,5.056,5.056,0,1,0,8.16-5.971,5.11,5.11,0,0,0-3.353-1.852c-1.072-.138-2.74-.046-3.337,1.01a.232.232,0,0,0,.2.352h0Z" transform="translate(-172.329 -99.766)" fill="#d1b3f4"/>
        <path id="Path_53360" data-name="Path 53360" d="M320.717,236c.827,0,1.546-.429,2.4-.4a4.235,4.235,0,0,1,2.97,1.255,3.974,3.974,0,1,1-6.231,4.9,4.4,4.4,0,0,1,1.194-5.634c.429-.367-.122-1.056-.6-.765a5.1,5.1,0,0,0-1.424,7.1,5.05,5.05,0,1,0,8.145-5.971,5.11,5.11,0,0,0-3.353-1.852c-1.072-.138-2.74-.046-3.337,1.01a.232.232,0,0,0,.2.352h0Z" transform="translate(-184.105 -90.034)" fill="#d1b3f4"/>
        <path id="Path_53361" data-name="Path 53361" d="M369.7,213.43c.827,0,1.546-.429,2.4-.4a4.235,4.235,0,0,1,2.97,1.255,3.974,3.974,0,1,1-6.231,4.9,4.4,4.4,0,0,1,1.194-5.634c.429-.367-.122-1.056-.6-.765a5.1,5.1,0,0,0-1.424,7.1,5.056,5.056,0,1,0,8.16-5.971,5.11,5.11,0,0,0-3.353-1.852c-1.072-.138-2.74-.046-3.337,1.01a.232.232,0,0,0,.2.352h0Z" transform="translate(-158.1 -102.017)" fill="#d1b3f4"/>
        <path id="Path_53362" data-name="Path 53362" d="M353.523,231.073c2.557-2.848,4.914-5.955,7.241-9,.352-.459-.444-1.072-.811-.628-2.419,2.97-4.884,6-7.042,9.155-.245.367.321.8.612.475Z" transform="translate(-165.686 -97.094)" fill="#d1b3f4"/>
        <path id="Path_53363" data-name="Path 53363" d="M363.293,227.618a2.792,2.792,0,0,0-.49-.214,1.387,1.387,0,0,0-.505-.031.521.521,0,0,0-.444.781,1.709,1.709,0,0,0,.291.367,1.658,1.658,0,0,0,.444.276.683.683,0,0,0,.689-1.179h0Z" transform="translate(-160.943 -93.869)" fill="#d1b3f4"/>
        <path id="Path_53364" data-name="Path 53364" d="M351.5,216.73l.107.291a.459.459,0,0,0,.444.337.642.642,0,0,0,.23-.061.545.545,0,0,0,.214-.276l.107-.291a.531.531,0,0,0-.153-.551.556.556,0,0,0-.4-.168.531.531,0,0,0-.4.168.573.573,0,0,0-.153.551h0Z" transform="translate(-166.416 -99.897)" fill="#d1b3f4"/>
        <path id="Path_53365" data-name="Path 53365" d="M371.54,225.422c.658.72,1.3,1.454,1.96,2.174a14.25,14.25,0,0,0,1.883,1.96c.322.23.75-.214.536-.536a14.2,14.2,0,0,0-1.852-1.99L372,224.963c-.291-.291-.735.153-.459.459h0Z" transform="translate(-155.81 -95.194)" fill="#d1b3f4"/>
        <path id="Path_53366" data-name="Path 53366" d="M378.075,222.226v.092a.154.154,0,0,0-.015.046v.153s.061.107.092.153a.575.575,0,0,0,.214.214.591.591,0,0,0,.582,0,.576.576,0,0,0,.214-.214.713.713,0,0,0,.092-.306v-.138a.5.5,0,0,0-.061-.214.3.3,0,0,0-.122-.184.627.627,0,0,0-.4-.168.556.556,0,0,0-.4.168l-.092.107a.633.633,0,0,0-.077.291h0Z" transform="translate(-152.302 -96.897)" fill="#d1b3f4"/>
        <path id="Path_53367" data-name="Path 53367" d="M360.672,208.378c.582,1.286,1.148,2.572,1.745,3.843a21.1,21.1,0,0,0,1.883,3.766.371.371,0,0,0,.674-.291,19.159,19.159,0,0,0-1.653-3.659c-.658-1.347-1.347-2.694-2.021-4.042-.214-.429-.811-.046-.628.367h0Z" transform="translate(-161.552 -104.252)" fill="#d1b3f4"/>
        <path id="Path_53368" data-name="Path 53368" d="M345.093,213.633c.965-.811,1.929-1.592,2.909-2.388a27.641,27.641,0,0,0,2.878-2.419c.306-.322-.092-.9-.49-.643a59.134,59.134,0,0,0-5.818,4.914c-.367.306.168.842.536.536h0Z" transform="translate(-170.147 -104.088)" fill="#d1b3f4"/>
        <path id="Path_53369" data-name="Path 53369" d="M330.547,220.535c2.3,2.664,4.378,5.7,6.92,8.114.413.383,1.179-.138.811-.628-2.067-2.893-4.807-5.4-7.134-8.083-.352-.413-.949.184-.6.6h0Z" transform="translate(-177.585 -97.885)" fill="#d1b3f4"/>
        <path id="Path_53370" data-name="Path 53370" d="M334.325,214.706a.513.513,0,0,0,0-1.026.513.513,0,0,0,0,1.026Z" transform="translate(-175.791 -101.134)" fill="#0091ff"/>
        <path id="Path_53371" data-name="Path 53371" d="M328.251,228.6v.214a.6.6,0,0,0,.153.413.565.565,0,0,0,.413.168.591.591,0,0,0,.413-.168.532.532,0,0,0,.168-.413V228.6a.572.572,0,0,0-.184-.4.627.627,0,0,0-.4-.168.556.556,0,0,0-.4.168.721.721,0,0,0-.168.4h0Z" transform="translate(-178.749 -93.515)" fill="#d1b3f4"/>
        <path id="Path_53372" data-name="Path 53372" d="M353.693,205.664a.482.482,0,0,0,0-.964.482.482,0,0,0,0,.964Z" transform="translate(-165.489 -105.902)" fill="#d1b3f4"/>
        <path id="Path_53373" data-name="Path 53373" d="M367.58,208.1l.612-.077a.492.492,0,0,0,.352-.459.473.473,0,0,0-.352-.459l-.612-.077a.6.6,0,0,0-.551.138.556.556,0,0,0-.168.4.583.583,0,0,0,.168.4.593.593,0,0,0,.551.138h0Z" transform="translate(-158.249 -104.675)" fill="#d1b3f4"/>
        <path id="Path_53374" data-name="Path 53374" d="M380.224,210.285c-.781,2.235-1.837,4.47-2.419,6.751-.138.52.674.919.919.383.98-2.2,1.531-4.639,2.312-6.92.184-.521-.643-.735-.811-.23h0Z" transform="translate(-152.446 -103.097)" fill="#d1b3f4"/>
        <path id="Path_53375" data-name="Path 53375" d="M379.431,236.52a28.253,28.253,0,0,0,6.093-5.756c.337-.49-.4-1.01-.811-.628-2.005,1.9-3.69,4.042-5.863,5.787-.413.337.168.9.582.582h0Z" transform="translate(-151.958 -92.467)" fill="#d1b3f4"/>
        <path id="Path_53376" data-name="Path 53376" d="M364.859,232.263c-2.817.429-5.113,3.2-4.256,6.093a4.92,4.92,0,0,0,6.445,3.154,5.16,5.16,0,0,0,2.633-6.522,4.976,4.976,0,0,0-6.461-2.358c-.444.2-.122.98.337.8a4.406,4.406,0,0,1,5.266,1.516,4.031,4.031,0,0,1-2.021,5.848,4.324,4.324,0,0,1-5.266-2.71,4.254,4.254,0,0,1,3.506-5.22c.413-.061.245-.689-.168-.628h0Z" transform="translate(-161.667 -91.287)" fill="#d1b3f4"/>
        <path id="Path_53377" data-name="Path 53377" d="M348.117,233.2c1.868,2.373,3.69,4.776,5.6,7.119.413.505,1.118-.214.7-.7-1.914-2.327-3.9-4.577-5.848-6.874-.276-.322-.72.138-.459.459h0Z" transform="translate(-168.242 -91.074)" fill="#d1b3f4"/>
        <path id="Path_53378" data-name="Path 53378" d="M341.433,241.213s.107.015.153.015h.153s.107-.061.153-.092a.576.576,0,0,0,.214-.214.641.641,0,0,0,.061-.153l-.061.138v-.031c.015-.031.046-.107.061-.138h0a.612.612,0,0,0-.061-.49.667.667,0,0,0-.383-.291.685.685,0,0,0-.352,0,.366.366,0,0,0-.2.107.546.546,0,0,0-.153.168l-.061.138a.3.3,0,0,0,0,.23.2.2,0,0,0,.046.153.39.39,0,0,0,.122.184.532.532,0,0,0,.413.168H341.4v-.015l-.138-.061h0l-.122-.092h0l-.092-.122v.015l-.061-.138a.748.748,0,0,0,.061.153.357.357,0,0,0,.107.138l-.092-.122a.047.047,0,0,0,.015.031l-.061-.138v-.122H341v-.153h0l.061-.138v.015l.092-.107h0l.107-.092h0l.138-.061h.153a.015.015,0,0,0-.015-.015.342.342,0,0,0-.214.046.574.574,0,0,0-.184.107l-.092.107a.771.771,0,0,0-.061.2v.153a.434.434,0,0,0,.061.2.582.582,0,0,0,.337.26h0Z" transform="translate(-172.013 -87.195)" fill="#d1b3f4"/>
        <path id="Path_53379" data-name="Path 53379" d="M340.46,244.519a5.339,5.339,0,0,0-4.746,5.986,5.318,5.318,0,1,0,5.052-6.154.513.513,0,0,0,0,1.026,4.6,4.6,0,0,1,4.394,4.057,4.247,4.247,0,0,1-8.481.475,4.607,4.607,0,0,1,3.965-4.669c.475-.077.276-.8-.2-.72h0Z" transform="translate(-174.821 -84.851)" fill="#d1b3f4"/>
        <path id="Path_53380" data-name="Path 53380" d="M326.291,254.419a44.011,44.011,0,0,0,2.541,4.455,12.847,12.847,0,0,0,2.71,3.353c.444.322.873-.276.689-.689a29.64,29.64,0,0,0-2.694-3.7,38.859,38.859,0,0,1-2.4-3.919c-.291-.551-1.133-.061-.842.49h0Z" transform="translate(-179.82 -79.901)" fill="#d1b3f4"/>
        <path id="Path_53381" data-name="Path 53381" d="M330.1,267.931c3.246-.8,6.935-1.868,9.6-4,.444-.352-.122-.934-.566-.72-3.108,1.424-5.863,3.108-9.247,3.965a.4.4,0,0,0,.214.765h0Z" transform="translate(-178.028 -74.858)" fill="#d1b3f4"/>
        <path id="Path_53382" data-name="Path 53382" d="M333.085,254.981a.521.521,0,0,0,0-1.041.521.521,0,0,0,0,1.041Z" transform="translate(-176.449 -79.759)" fill="#d1b3f4"/>
        <path id="Path_53383" data-name="Path 53383" d="M341.409,264.489a.59.59,0,0,0,0-1.179.59.59,0,0,0,0,1.179Z" transform="translate(-172.066 -74.784)" fill="#d1b3f4"/>
        <path id="Path_53384" data-name="Path 53384" d="M321.113,265.991c.23.2.444.4.674.6a.416.416,0,0,0,.6,0,.445.445,0,0,0,0-.6c-.2-.23-.4-.444-.6-.674a.487.487,0,1,0-.689.689h0Z" transform="translate(-182.618 -73.791)" fill="#d1b3f4"/>
        <path id="Path_53385" data-name="Path 53385" d="M338.168,271.906a4.367,4.367,0,0,0-5.45,3.766,5.139,5.139,0,0,0,5.389,5.5,5.662,5.662,0,0,0,5.374-5.021,4.828,4.828,0,0,0-5.175-5.19c-.674.061-.7,1.118,0,1.072,5.052-.245,5.251,6.767.72,7.869a4.27,4.27,0,0,1-5.236-3.031,3.567,3.567,0,0,1,4.179-4.317c.413.077.612-.551.184-.643h0Z" transform="translate(-176.388 -70.734)" fill="#d1b3f4"/>
        <path id="Path_53386" data-name="Path 53386" d="M326.29,276.151c.153,2.541-.092,5.481.566,7.946.122.475.75.321.8-.107.306-2.5-.321-5.328-.52-7.838-.046-.536-.873-.551-.842,0Z" transform="translate(-179.789 -68.182)" fill="#d1b3f4"/>
        <path id="Path_53387" data-name="Path 53387" d="M320.5,285.311c2.22,2.22,4.378,4.547,6.751,6.6a.563.563,0,0,0,.8-.8c-2.128-2.312-4.516-4.394-6.8-6.552-.49-.459-1.225.26-.735.735h0Z" transform="translate(-182.94 -63.579)" fill="#d1b3f4"/>
        <path id="Path_53388" data-name="Path 53388" d="M337.713,291.794a.728.728,0,0,0,0-1.454.728.728,0,0,0,0,1.454Z" transform="translate(-174.096 -60.433)" fill="#d1b3f4"/>
        <path id="Path_53389" data-name="Path 53389" d="M323.008,298.535a2.206,2.206,0,0,0-.337.413.765.765,0,0,0,.061.98.784.784,0,0,0,.98.061,2.847,2.847,0,0,0,.413-.337.817.817,0,0,0,.23-.551.787.787,0,0,0-.23-.551.817.817,0,0,0-.551-.23.934.934,0,0,0-.551.23h0Z" transform="translate(-181.788 -56.196)" fill="#d1b3f4"/>
        <path id="Path_53390" data-name="Path 53390" d="M317.631,246.5c3.506.26,7.088.75,10.594.7.429,0,.551-.7.107-.765-3.521-.475-7.165-.429-10.7-.6-.429-.015-.429.643,0,.674h0Z" transform="translate(-184.556 -84.059)" fill="#d1b3f4"/>
        <path id="Path_53391" data-name="Path 53391" d="M308.293,246.153a47.625,47.625,0,0,0,.122,12.523c.092.521.949.4.919-.122-.245-4.179-.7-8.206-.352-12.4.031-.444-.643-.429-.689,0h0Z" transform="translate(-189.532 -84.067)" fill="#d1b3f4"/>
        <path id="Path_53392" data-name="Path 53392" d="M314.023,254.582a.552.552,0,0,0,0-1.1.552.552,0,0,0,0,1.1Z" transform="translate(-186.582 -80.003)" fill="#d1b3f4"/>
        <path id="Path_53393" data-name="Path 53393" d="M312.21,239.725v.367a2.066,2.066,0,0,0,.061.429.445.445,0,0,0,.429.322.428.428,0,0,0,.429-.322c.015-.138.046-.291.061-.429v-.367a.477.477,0,0,0-.475-.475.487.487,0,0,0-.475.475h0Z" transform="translate(-187.264 -87.558)" fill="#d1b3f4"/>
        <path id="Path_53394" data-name="Path 53394" d="M321.947,228.808a.444.444,0,0,0,0-.888.444.444,0,0,0,0,.888Z" transform="translate(-182.32 -93.574)" fill="#d1b3f4"/>
        <path id="Path_53395" data-name="Path 53395" d="M335.953,234.77a.49.49,0,0,0,0-.98.49.49,0,0,0,0,.98Z" transform="translate(-174.908 -90.457)" fill="#d1b3f4"/>
        <path id="Path_53396" data-name="Path 53396" d="M300.807,263.667c2.97,1.424,5.848,3.138,8.895,4.378.566.23.934-.689.413-.98-2.832-1.577-5.94-2.74-8.864-4.149-.505-.245-.949.505-.444.75h0Z" transform="translate(-193.436 -75.018)" fill="#d1b3f4"/>
        <path id="Path_53397" data-name="Path 53397" d="M301.641,260.426a.513.513,0,0,0,0-1.026.513.513,0,0,0,0,1.026Z" transform="translate(-193.137 -76.86)" fill="#d1b3f4"/>
        <path id="Path_53398" data-name="Path 53398" d="M300.809,273.131a.651.651,0,0,0,0-1.3.651.651,0,0,0,0,1.3Z" transform="translate(-193.652 -70.26)" fill="#d1b3f4"/>
        <path id="Path_53399" data-name="Path 53399" d="M291.834,273.918a3.679,3.679,0,0,1,4.669,1.133,3.567,3.567,0,0,1-.8,4.669,3.463,3.463,0,0,1-4.685-.444,3.855,3.855,0,0,1,.245-4.792.488.488,0,0,0-.689-.689,4.424,4.424,0,0,0-.26,6.093,4.43,4.43,0,1,0,1.148-6.614c-.429.23-.046.873.383.643h0Z" transform="translate(-199.466 -69.792)" fill="#d1b3f4"/>
        <path id="Path_53400" data-name="Path 53400" d="M293.591,266.27a.592.592,0,0,1-.015.138.908.908,0,0,0,0,.352.509.509,0,0,0,.168.291.64.64,0,0,0,.184.122.414.414,0,0,0,.23.046h.153a1.09,1.09,0,0,0,.26-.168.509.509,0,0,0,.168-.291.686.686,0,0,0,0-.352.424.424,0,0,0-.015-.138l-.061-.138a1.125,1.125,0,0,0-.153-.168.3.3,0,0,0-.138-.077.414.414,0,0,0-.23-.046.753.753,0,0,0-.306.077.407.407,0,0,0-.168.153.5.5,0,0,0-.107.2h0Z" transform="translate(-197.167 -73.442)" fill="#d1b3f4"/>
        <path id="Path_53401" data-name="Path 53401" d="M285.021,270.529c-1.01,2.878-2.45,5.833-3.077,8.818-.107.505.612.873.873.367,1.393-2.756,2.159-6,3.2-8.91.214-.612-.765-.888-.98-.276h0Z" transform="translate(-203.339 -71.134)" fill="#d1b3f4"/>
        <path id="Path_53402" data-name="Path 53402" d="M278.417,272.867a.674.674,0,0,0,0-1.347.674.674,0,0,0,0,1.347Z" transform="translate(-205.553 -70.425)" fill="#d1b3f4"/>
        <path id="Path_53403" data-name="Path 53403" d="M269.334,267.5a4.451,4.451,0,0,0,2.388,4.914,3.9,3.9,0,0,0,4.072-6.6,3.549,3.549,0,0,0-4.945.735c-.291.413.352.873.689.536a2.992,2.992,0,0,1,3.674-.6,2.836,2.836,0,0,1,.566,4.072c-2.25,2.8-6.231.2-5.833-2.955.046-.337-.551-.413-.6-.077h0Z" transform="translate(-210.065 -73.817)" fill="#d1b3f4"/>
        <path id="Path_53404" data-name="Path 53404" d="M259.25,262.627c.674,2.587,1.072,5.6,2.235,8.022a.437.437,0,0,0,.811-.214c-.276-2.664-1.5-5.45-2.281-8.007a.405.405,0,0,0-.781.214h0Z" transform="translate(-215.398 -75.402)" fill="#d1b3f4"/>
        <path id="Path_53405" data-name="Path 53405" d="M253.047,265.648a.559.559,0,0,0,0-1.118.559.559,0,0,0,0,1.118Z" transform="translate(-218.962 -74.136)" fill="#d1b3f4"/>
        <g id="Group_5392" data-name="Group 5392" transform="translate(0 174.526)">
          <path id="Path_53406" data-name="Path 53406" d="M260.991,260.909s-13.289-7-15.018-6.736-17.1,8.053-15.217,8.589,11.115-3.475,11.115-3.475-11.222,6.6-8.512,6.828c2.71.214,8.895-3.689,8.895-3.689s-3.337,5.312-2.174,5.833,3.368,3.184,3.276,1.623a6.509,6.509,0,0,0-1.1-2.97l1.806-2.128,10.41,5.573,6.506-9.461Z" transform="translate(-230.596 -254.165)" fill="#fcd2b4"/>
          <path id="Path_53407" data-name="Path 53407" d="M237.077,265.087a23.335,23.335,0,0,1,1.577-3.445,10.007,10.007,0,0,1,.9-1.363,2.353,2.353,0,0,1,.551-.551.685.685,0,0,1,1.041-.276,4.769,4.769,0,0,1,1.317.444.3.3,0,0,0,.306-.521c-3.307-2.312-5.664,3.047-6.2,5.573a.262.262,0,0,0,.505.138h0Z" transform="translate(-227.426 -251.699)" fill="#eabb9b"/>
          <path id="Path_53408" data-name="Path 53408" d="M232.365,263.965c2.25-1.562,4.424-3.23,6.644-4.853,2.1-1.531,2.388-1.944,5.909-1.454a31.928,31.928,0,0,0,3.414.628.237.237,0,0,0,0-.475c-3.092-.138-5.328-1.852-8.16-.046a97.289,97.289,0,0,0-7.976,5.955c-.138.107.046.337.184.23h0Z" transform="translate(-229.772 -252.691)" fill="#eabb9b"/>
        </g>
      </g>
      <g id="Group_5394" data-name="Group 5394" transform="translate(485.195 156.415)">
        <path id="Path_53409" data-name="Path 53409" d="M322.4,114.906c-.076.842-.857,31.262-.857,31.262l39.59-7.18.459,6.705,4.47-7.41,7.9-.811L376.5,108.69l-54.1,6.216Z" transform="translate(-321.54 -108.69)" fill="#ee6fc8"/>
        <text id="JS" transform="matrix(0.986, -0.168, 0.168, 0.986, 16.72, 25.743)" fill="#fff" font-size="21" font-family="Montserrat-Italic, Montserrat" font-style="italic"><tspan x="0" y="0">JS</tspan></text>
      </g>
      <g id="Group_5395" data-name="Group 5395" transform="translate(106.87 184.186)">
        <path id="Path_53410" data-name="Path 53410" d="M74.42,137.791c0,.842,1.9,31.216,1.9,31.216l38.794-10.64L116.169,165l3.8-7.777,7.808-1.5V126.83Z" transform="translate(-74.42 -126.83)" fill="#50c8f9"/>
        <text id="CSS" transform="matrix(0.975, -0.223, 0.223, 0.975, 12.558, 28.352)" fill="#fff" font-size="13" font-family="Montserrat-Italic, Montserrat" font-style="italic"><tspan x="0" y="0">CSS</tspan></text>
      </g>
      <g id="Group_5399" data-name="Group 5399" transform="translate(192.863 149.759)">
        <path id="Path_53411" data-name="Path 53411" d="M174.555,244.023s24.342,7.226,47.934,2.327,41.335-9.109,41.335-9.109l-43.463-6.721-45.821,13.5Z" transform="translate(-107.255 -37.351)" fill="#383838" opacity="0.33"/>
        <g id="Group_5398" data-name="Group 5398" transform="translate(0 0)">
          <path id="Path_53412" data-name="Path 53412" d="M351.978,255.8,160.6,295.758,130.59,154.085,329.948,121.4Z" transform="translate(-130.59 -95.286)" fill="#d8d8d8"/>
          <path id="Path_53413" data-name="Path 53413" d="M346.891,242.965,159.949,281.192,132.79,155.839l194.6-31.889Z" transform="translate(-129.422 -93.932)" fill="#8faae5"/>
          <g id="Group_5396" data-name="Group 5396" transform="translate(20.967 61.9)">
            <rect id="Rectangle_6027" data-name="Rectangle 6027" width="20.913" height="2.909" transform="matrix(0.984, -0.178, 0.178, 0.984, 5.342, 26.183)" fill="#fff"/>
            <rect id="Rectangle_6028" data-name="Rectangle 6028" width="20.913" height="2.909" transform="matrix(0.984, -0.178, 0.178, 0.984, 117.98, 14.402)" fill="#fff"/>
            <rect id="Rectangle_6029" data-name="Rectangle 6029" width="65.57" height="3.138" transform="matrix(0.984, -0.178, 0.178, 0.984, 37.078, 20.719)" fill="#fff" opacity="0.64"/>
            <rect id="Rectangle_6030" data-name="Rectangle 6030" width="48.592" height="3.138" transform="matrix(0.984, -0.178, 0.178, 0.984, 65.26, 24.068)" fill="#fff"/>
            <rect id="Rectangle_6031" data-name="Rectangle 6031" width="89.881" height="3.292" transform="matrix(0.984, -0.178, 0.178, 0.984, 81.162, 29.977)" fill="#fff" opacity="0.64"/>
            <rect id="Rectangle_6032" data-name="Rectangle 6032" width="20.913" height="2.909" transform="matrix(0.984, -0.178, 0.178, 0.984, 15.573, 62.99)" fill="#fff"/>
            <rect id="Rectangle_6033" data-name="Rectangle 6033" width="20.913" height="2.909" transform="matrix(0.984, -0.178, 0.178, 0.984, 142.588, 83.893)" fill="#fff"/>
            <rect id="Rectangle_6034" data-name="Rectangle 6034" width="20.913" height="2.909" transform="matrix(0.984, -0.178, 0.178, 0.984, 128.199, 51.208)" fill="#fff"/>
            <rect id="Rectangle_6035" data-name="Rectangle 6035" width="65.57" height="3.138" transform="matrix(0.984, -0.178, 0.178, 0.984, 47.294, 57.526)" fill="#fff" opacity="0.64"/>
            <rect id="Rectangle_6036" data-name="Rectangle 6036" width="48.592" height="3.138" transform="matrix(0.984, -0.178, 0.178, 0.984, 75.476, 60.859)" fill="#fff"/>
            <rect id="Rectangle_6037" data-name="Rectangle 6037" width="89.881" height="3.292" transform="matrix(0.984, -0.178, 0.178, 0.984, 91.366, 66.802)" fill="#fff" opacity="0.64"/>
            <rect id="Rectangle_6038" data-name="Rectangle 6038" width="89.881" height="3.292" transform="matrix(0.984, -0.178, 0.178, 0.984, 0, 16.04)" fill="#fff"/>
            <rect id="Rectangle_6039" data-name="Rectangle 6039" width="89.881" height="3.292" transform="matrix(0.984, -0.178, 0.178, 0.984, 21.823, 94.808)" fill="#fff" opacity="0.64"/>
            <rect id="Rectangle_6040" data-name="Rectangle 6040" width="72.49" height="3.292" transform="matrix(0.984, -0.178, 0.178, 0.984, 23.798, 105.638)" fill="#fff"/>
            <rect id="Rectangle_6041" data-name="Rectangle 6041" width="39.712" height="3.292" transform="matrix(0.984, -0.178, 0.178, 0.984, 99.69, 91.823)" fill="#fff" opacity="0.64"/>
          </g>
          <path id="Path_53414" data-name="Path 53414" d="M132.5,156.123q13.595,62.669,27.174,125.353a.47.47,0,0,0,.566.322L324.161,248.27q11.5-2.365,23.025-4.715a.476.476,0,0,0,.321-.566q-9.76-59.5-19.519-119.015a.476.476,0,0,0-.566-.322q-85.082,13.939-170.148,27.894-12.217,2-24.449,4.011c-.582.092-.337.98.245.888l133.375-21.862c19.734-3.23,39.437-6.966,59.247-9.706.367-.046,1.378-.429,1.73-.291.566.245-.842-.72-.245.138,1.209,1.7,1.056,6.43,1.393,8.451l5.971,36.421,7.272,44.32c1.454,8.864,4.5,18.769,4.547,27.771,0,2.3,1.056.367-.429,1.179-1.837,1.01-5.083,1.041-7.119,1.454l-29.639,6.063c-49.036,10.028-97.98,20.668-147.138,30.1-.367.077-1.363.475-1.715.352-.811-.291.827.735.138-.092-1.24-1.47-1.332-6.17-1.73-7.991l-7.609-35.074q-8.336-38.442-16.672-76.9c-.352-1.638-.7-3.276-1.056-4.9-.122-.582-1.01-.337-.888.245Z" transform="translate(-129.58 -94.093)" fill="#1d2542"/>
          <path id="Path_53415" data-name="Path 53415" d="M202.15,227.847s4.945,24.2,5.68,24.969,44.412-9.844,44.412-9.844l-5.389-24.633-44.688,9.522Z" transform="translate(-92.596 -43.817)" fill="#ceccd6"/>
          <path id="Path_53416" data-name="Path 53416" d="M234.728,222.037c2.159,8.987,12.768,8.175,19.32,4.822,7.226-3.7,13.35-8.252,21.311-10.594a64.112,64.112,0,0,1,29.118-1.225c.536.092.781-.72.23-.827a60.779,60.779,0,0,0-31.951,1.944c-9.706,3.307-31.629,22.336-37.584,5.756a.238.238,0,0,0-.459.122h0Z" transform="translate(-75.312 -46.687)" fill="#1d2542"/>
          <rect id="Rectangle_6042" data-name="Rectangle 6042" width="110.074" height="70.867" transform="matrix(0.984, -0.178, 0.178, 0.984, 161.758, 19.644)" fill="#fff"/>
          <g id="Group_5397" data-name="Group 5397" transform="translate(173.484 20.264)">
            <rect id="Rectangle_6043" data-name="Rectangle 6043" width="20.913" height="2.909" transform="matrix(0.984, -0.178, 0.178, 0.984, 2.854, 23.389)" fill="#f8bd45"/>
            <rect id="Rectangle_6044" data-name="Rectangle 6044" width="20.913" height="2.909" transform="matrix(0.984, -0.178, 0.178, 0.984, 8.778, 46.999)" fill="#f8bd45"/>
            <rect id="Rectangle_6045" data-name="Rectangle 6045" width="57.043" height="3.062" transform="matrix(0.984, -0.178, 0.178, 0.984, 33.518, 42.211)" fill="#f8bd45"/>
            <rect id="Rectangle_6046" data-name="Rectangle 6046" width="65.57" height="3.138" transform="matrix(0.984, -0.178, 0.178, 0.984, 0, 11.702)" fill="#f8bd45"/>
            <rect id="Rectangle_6047" data-name="Rectangle 6047" width="65.57" height="3.138" transform="matrix(0.984, -0.178, 0.178, 0.984, 6.064, 34.986)" fill="#f8bd45"/>
          </g>
          <path id="Path_53417" data-name="Path 53417" d="M240.533,123.95,251.3,183.289l34.324-6.2,1.776,8.879-39.911,8.16L231.7,127.349Z" transform="translate(-76.907 -93.932)" fill="#1d2542" opacity="0.23"/>
          <path id="Path_53418" data-name="Path 53418" d="M214.137,245.156,190.27,238.8l20.836-6.062Z" transform="translate(-98.904 -36.172)" fill="#b7b6c1"/>
          <path id="Path_53419" data-name="Path 53419" d="M219.692,218.777v-.122a1.831,1.831,0,0,0-.214-1.026,1.974,1.974,0,0,0-.551-.857,2.066,2.066,0,0,0-.857-.551,1.98,1.98,0,0,0-1.026-.23l-.7.092a2.564,2.564,0,0,0-1.179.689l-.413.536a2.622,2.622,0,0,0-.367,1.347v.122a2.157,2.157,0,0,0,.245,1.026,2.739,2.739,0,0,0,2.434,1.638l.7-.092a2.644,2.644,0,0,0,1.179-.689l.413-.536a2.582,2.582,0,0,0,.367-1.347h0Z" transform="translate(-86.103 -45.066)" fill="#1d2542"/>
        </g>
      </g>
      <g id="Group_5400" data-name="Group 5400" transform="translate(166.179 225.552)">
        <path id="Path_53420" data-name="Path 53420" d="M113.16,164.811c0,.842,1.9,31.216,1.9,31.216l38.794-10.64,1.056,6.629,3.8-7.777,7.808-1.5V153.85L113.16,164.811Z" transform="translate(-113.16 -153.85)" fill="#9071af"/>
        <text id="PHP" transform="translate(7.91 27.202) rotate(-11.02)" fill="#fff" font-size="12" font-family="Montserrat-Italic, Montserrat" font-style="italic"><tspan x="0" y="0">PHP</tspan></text>
      </g>
    </g>
    <g id="Group_1091" data-name="Group 1091" transform="translate(1704.695 608.342)">
      <path id="Path_25076" data-name="Path 25076" d="M543.955,388.954c0,3.338-12.935,6.092-28.891,6.092s-28.883-2.721-28.883-6.092,12.935-6.084,28.883-6.084S543.955,385.6,543.955,388.954Z" transform="translate(-469.072 -201.351)" fill="#010101" opacity="0.02"/>
      <path id="Path_25094" data-name="Path 25094" d="M533.478,234.7s-2.445-21.765,7.636-39.582,44.072-29.759,44.072-29.759-20.371,38.655-29.776,49.7S533.478,234.7,533.478,234.7Z" transform="translate(-476.855 -165.36)" fill="url(#linear-gradient)"/>
      <path id="Path_25095" data-name="Path 25095" d="M532.21,298.373s1.828-18.443,7.853-29.985,27.665-27.832,38.564-32.188C578.627,236.2,565.04,288.508,532.21,298.373Z" transform="translate(-476.689 -177.082)" fill="url(#linear-gradient)"/>
      <path id="Path_25096" data-name="Path 25096" d="M500.046,278.147s-15.656-9.622-24.135-26.855-10.231-41.6-10.231-41.6S503.7,240.434,500.046,278.147Z" transform="translate(-465.68 -172.695)" fill="url(#linear-gradient)"/>
      <path id="Path_25097" data-name="Path 25097" d="M524.01,345.369a195.577,195.577,0,0,1-3.914-64.434,177.747,177.747,0,0,1,3.53-21.356,162.447,162.447,0,0,1,6.367-20.7l1.936-5.049c.668-1.669,1.394-3.338,2.095-5.007l1.052-2.5q.551-1.252,1.127-2.5c.776-1.627,1.519-3.271,2.328-4.882a168.138,168.138,0,0,1,10.757-18.752c1.018-1.494,2.07-2.954,3.129-4.415s2.17-2.871,3.338-4.248a58.3,58.3,0,0,1,7.511-7.753,41.993,41.993,0,0,0-3.747,3.864c-.609.668-1.177,1.352-1.744,2.053s-1.135,1.385-1.669,2.1c-1.118,1.4-2.136,2.879-3.188,4.331s-2,2.979-2.963,4.49a169.187,169.187,0,0,0-10.306,18.86c-.776,1.619-1.477,3.271-2.211,4.9l-1.1,2.454-1.035,2.5c-.676,1.669-1.385,3.338-2.036,5.007l-1.894,5.007a158.943,158.943,0,0,0-6.176,20.546,194.447,194.447,0,0,0-4.94,42.561,215.062,215.062,0,0,0,.835,21.5,182.047,182.047,0,0,0,2.921,21.422Z" transform="translate(-474.506 -168.406)" fill="#fff"/>
      <path id="Path_25098" data-name="Path 25098" d="M492.53,167.09c2.245,6.459,4.256,13,6.251,19.553s3.78,13.161,5.508,19.8c.834,3.338,1.711,6.635,2.462,9.973l1.143,5.007,1.068,5.007c1.36,6.718,2.662,13.453,3.522,20.271s1.485,13.628,2.036,20.454,1.052,13.661,1.377,20.5.634,13.678.834,20.521.351,13.678.359,20.529c-.367-6.835-.7-13.67-1.143-20.5s-.834-13.653-1.3-20.479c-.985-13.636-2.011-27.281-3.764-40.825a394.894,394.894,0,0,0-7.8-40.191c-1.577-6.676-3.3-13.269-5.074-19.87S494.433,173.691,492.53,167.09Z" transform="translate(-470.123 -165.646)" fill="#fff"/>
      <path id="Path_25099" data-name="Path 25099" d="M554.52,264.63q-5.007,7.744-9.806,15.531c-3.221,5.2-6.409,10.423-9.438,15.723s-5.95,10.665-8.554,16.173a90.554,90.554,0,0,0-3.48,8.437,30.042,30.042,0,0,0-1.9,8.9,19.3,19.3,0,0,1,.2-4.6l.167-1.152.242-1.127.25-1.135.3-1.118a72.948,72.948,0,0,1,3.088-8.713c1.185-2.837,2.5-5.608,3.906-8.345s2.888-5.433,4.406-8.1,3.121-5.291,4.748-7.895,3.3-5.174,5.007-7.7Q548.8,271.857,554.52,264.63Z" transform="translate(-474.881 -181.786)" fill="#fff"/>
      <path id="Path_25100" data-name="Path 25100" d="M485.06,244c3.856,6.718,7.4,13.611,10.707,20.613s6.393,14.129,9.18,21.364a197.282,197.282,0,0,1,7.16,22.14,108.938,108.938,0,0,1,2.253,11.433,52.082,52.082,0,0,1,.392,11.617,58.281,58.281,0,0,0-1.16-11.491c-.709-3.789-1.669-7.511-2.687-11.233s-2.22-7.386-3.48-11.024-2.57-7.277-3.964-10.849-2.812-7.185-4.289-10.757-3-7.11-4.531-10.657Q489.971,254.54,485.06,244Z" transform="translate(-468.887 -178.372)" fill="#fff"/>
      <path id="Path_25101" data-name="Path 25101" d="M535.9,322.81l-.267,4.323-.017.167-.075,1.11v.083l-.008.083-.067,1.11-.008.175-.075,1.093-.008.167-.584,9.313-.017.259-.067,1.01-.017.267-.025.376-.042.634-.017.259-.067,1.018-.017.259-2.128,33.573H501.725l-2.095-33.072-.033-.417-.05-.851-.033-.426-.05-.843-.008-.134-.017-.3-.058-.843-.025-.426-.651-10.3-.017-.292-.067-.985-.017-.309-.025-.4-.033-.551-.025-.3-.058-.993-.017-.292-.225-3.547Z" transform="translate(-471.064 -191.413)" fill="#bee1f4"/>
      <path id="Path_25102" data-name="Path 25102" d="M535.611,329.62l-.008.083-.067,1.11-.008.175-.075,1.093-.008.167-.584,9.313-.017.259-.067,1.01-.017.267-.025.376H499.526l-.017-.3-.058-.843-.025-.426-.651-10.3-.017-.292-.067-.985-.017-.309-.025-.4Z" transform="translate(-471.136 -192.54)" fill="#bee1f4"/>
      <rect id="Rectangle_2021" data-name="Rectangle 2021" width="43.454" height="10.707" transform="translate(24.268 129.427)" fill="#7aabbc"/>
    </g>
  </g>
</svg>
