<?xml version="1.0" encoding="utf-8"?>
<!-- Uploaded to: SVG Repo, www.svgrepo.com, Generator: SVG Repo Mixer Tools -->
<svg width="800px" height="800px" viewBox="0 0 1024 1024" class="icon"  version="1.1" xmlns="http://www.w3.org/2000/svg"><path d="M434.160142 912.155887c-94.108372 0-170.685779-73.320428-170.685779-163.454078V162.150671c0-13.41085 5.2126-25.970851 14.632345-35.390596 9.480154-9.462748 22.059609-14.67842 35.420289-14.67842h392.077431c13.36068 0 25.937063 5.215672 35.387525 14.665109 9.449438 9.433055 14.66511 21.993057 14.665109 35.403907v586.551138c0 90.134673-76.610172 163.454077-170.752331 163.454078H434.160142z" fill="#FFFFFF" /><path d="M752.790183 114.94751c-13.037132-13.03406-30.111444-19.550066-47.185755-19.550067H313.526997c-17.074312 0-34.148623 6.51703-47.185755 19.550067-13.03406 12.986961-19.550066 30.127826-19.550067 47.203161v586.551138c0 99.517558 83.941191 180.138289 187.369991 180.138289h150.744589c103.4288 0 187.436543-80.62073 187.436543-180.138289V162.150671c-0.001024-17.074312-6.518054-34.2162-19.552115-47.203161z" fill="#27323A" /><path d="M722.28864 748.701809c0 71.754907-61.654279 130.086678-137.383909 130.086679H434.160142c-75.72963 0-137.317356-58.330747-137.317356-130.086679V162.150671c0-2.605788 0.58771-7.561393 4.821476-11.796183 4.301342-4.301342 9.255923-4.888029 11.862735-4.888028h392.077431c2.542307 0 7.494841 0.58771 11.796183 4.888028 4.237861 4.23479 4.888029 9.189371 4.888029 11.796183v586.551138z" fill="#F4CE73" /><path d="M340.181804 188.805478h338.701265v482.081047h-338.701265zM526.707089 711.816341h-34.346233c-22.746636 0-41.189883 18.505703-41.189883 41.253363v34.346233c0 22.811141 18.442222 41.189883 41.189883 41.189883h34.346233c22.743565 0 41.186811-18.379765 41.186811-41.189883v-34.346233c0-22.74766-18.443246-41.253364-41.186811-41.253363z" fill="#27323A" /><path d="M534.525477 787.414914c0 4.364823-3.453565 7.82146-7.818388 7.82146h-34.346233c-4.367895 0-7.82146-3.456637-7.82146-7.82146v-34.346234c0-4.367895 3.520118-7.884941 7.82146-7.884941h34.346233c4.301342 0 7.818388 3.517046 7.818388 7.884941v34.346234z" fill="#79CCBF" /><path d="M418.00016 770.210568c0 18.442222-14.925176 33.368423-33.368423 33.368423-18.379765 0-33.368423-14.925176-33.368422-33.368423 0-18.446318 14.988657-33.368423 33.368422-33.368422 18.442222 0 33.368423 14.923129 33.368423 33.368422zM667.80463 770.210568c0 18.442222-14.988657 33.368423-33.368423 33.368423-18.446318 0-33.368423-14.925176-33.368423-33.368423 0-18.446318 14.922105-33.368423 33.368423-33.368422 18.379765 0 33.368423 14.923129 33.368423 33.368422z" fill="#27323A" /><path d="M373.550226 222.173901v415.344201h0.260067l164.953046-207.670565 106.49124-207.673636z" fill="#FFFFFF" /><path d="M373.810293 637.518102h271.704353V222.173901h-0.260067z" fill="#79CCBF" /></svg>