<?xml version="1.0" encoding="iso-8859-1"?>
<!-- Uploaded to: SVG Repo, www.svgrepo.com, Generator: SVG Repo Mixer Tools -->
<svg version="1.1" id="Layer_1" xmlns="http://www.w3.org/2000/svg" xmlns:xlink="http://www.w3.org/1999/xlink" 
	 viewBox="0 0 512 512" xml:space="preserve">
<polygon style="fill:#003DA8;" points="237.223,0 180.146,0 159.248,249.849 180.146,512 237.223,512 "/>
<polygon style="fill:#2F91ED;" points="123.069,0 123.069,41.215 133.518,56.888 123.069,72.562 123.069,154.993 133.518,170.666 
	123.069,186.34 123.069,268.768 133.518,284.445 123.069,300.12 123.069,382.551 133.518,398.221 123.069,413.892 123.069,512 
	180.146,512 180.146,470.793 169.697,455.119 180.146,439.441 180.146,357.012 169.697,341.339 180.146,325.662 180.146,243.231 
	169.697,227.559 180.146,211.884 180.146,129.451 169.697,113.778 180.146,98.104 180.146,0 "/>
<polygon style="fill:#FF0F4D;" points="33.481,462.575 66.962,462.575 66.962,406.809 23.032,396.36 "/>
<polygon style="fill:#FF6E7A;" points="0,406.809 0,462.575 33.481,462.575 33.481,396.36 "/>
<polygon style="fill:#FF8E00;" points="66.962,103.322 23.032,92.873 33.481,406.809 66.962,406.809 "/>
<polygon style="fill:#FFBA00;" points="0,103.322 0,406.809 33.481,406.809 33.481,92.873 "/>
<g>
	<rect x="123.068" y="41.215" style="fill:#B7DBFB;" width="75.4" height="31.347"/>
	<rect x="123.068" y="98.105" style="fill:#B7DBFB;" width="57.076" height="31.347"/>
	<rect x="123.068" y="154.99" style="fill:#B7DBFB;" width="75.4" height="31.347"/>
	<rect x="123.068" y="211.884" style="fill:#B7DBFB;" width="57.076" height="31.347"/>
	<rect x="123.068" y="268.769" style="fill:#B7DBFB;" width="75.4" height="31.347"/>
	<rect x="123.068" y="325.663" style="fill:#B7DBFB;" width="57.076" height="31.347"/>
	<rect x="123.068" y="382.548" style="fill:#B7DBFB;" width="75.4" height="31.347"/>
	<rect x="123.068" y="439.442" style="fill:#B7DBFB;" width="57.076" height="31.347"/>
</g>
<path style="fill:#FFBA00;" d="M66.962,103.322L33.481,49.425L23.032,90.384l10.449,26.951
	C57.49,117.335,66.962,103.322,66.962,103.322z"/>
<path style="fill:#FDE09C;" d="M33.481,49.425L0,103.322c0,0,9.471,14.013,33.481,14.013l0,0V49.425L33.481,49.425z"/>
<path style="fill:#FF0F4D;" d="M501.551,256l9.653-15.68c-0.98-9.589-2.848-18.916-5.521-27.896l-12.359-13.568l0.348-15.396
	c-4.542-8.38-9.845-16.286-15.819-23.625l-15.876-7.674l-6.287-14.486c-7.344-5.975-15.253-11.279-23.638-15.821l-16.899-0.013
	l-12.058-11.992c-0.142-0.043-0.285-0.085-0.427-0.126c-13.681-4.028-28.156-6.2-43.141-6.2l-20.898,31.964l20.898,32.712l0,0
	c15.673,0,30.389,4.148,43.141,11.375c26.633,15.095,44.658,43.685,44.658,76.424s-18.024,61.329-44.658,76.424
	c-12.752,7.227-27.466,11.375-43.141,11.375l0,0l-20.898,32.019l20.898,32.658c14.985,0,29.461-2.172,43.141-6.2
	c0.143-0.043,0.287-0.085,0.43-0.127l12.73-11.007l16.227-0.998c8.381-4.541,16.29-9.844,23.631-15.817l6.422-16.84l15.747-5.324
	c5.975-7.341,11.279-15.249,15.821-23.63l1.021-16.957l10.988-12c2.674-8.982,4.543-18.31,5.522-27.902L501.551,256z"/>
<polygon style="fill:#FF6E7A;" points="358.007,343.799 358.007,168.201 359.524,168.201 359.524,103.524 359.524,63.382 
	293.33,63.382 293.33,448.618 359.524,448.618 359.524,408.476 359.524,343.799 "/>
<g>
	<path style="fill:#FFABB2;" d="M511.201,240.327h-35.84v31.347h35.84C511.727,266.52,512,261.292,512,256
		S511.727,245.48,511.201,240.327z"/>
	<path style="fill:#FFABB2;" d="M472.542,226.152l33.14-13.727c-3.018-10.134-7.066-19.824-12.013-28.954l-33.122,13.72
		L472.542,226.152z"/>
	<path style="fill:#FFABB2;" d="M452.516,185.174l25.331-25.331c-6.611-8.124-14.04-15.554-22.165-22.164l-25.331,25.331
		L452.516,185.174z"/>
	<path style="fill:#FFABB2;" d="M418.333,154.978l13.716-33.114c-9.131-4.947-18.822-8.991-28.956-12.008l-13.722,33.126
		L418.333,154.978z"/>
	<path style="fill:#FFABB2;" d="M389.373,369.017l13.722,33.126c10.134-3.017,19.825-7.061,28.956-12.008l-13.716-33.114
		L389.373,369.017z"/>
	<path style="fill:#FFABB2;" d="M430.351,348.992l25.331,25.331c8.125-6.61,15.554-14.041,22.165-22.164l-25.331-25.331
		L430.351,348.992z"/>
	<path style="fill:#FFABB2;" d="M460.546,314.809l33.122,13.72c4.948-9.13,8.997-18.82,12.013-28.954l-33.14-13.727L460.546,314.809
		z"/>
</g>
</svg>