<svg width="581" height="539" viewBox="0 0 581 539" fill="none" xmlns="http://www.w3.org/2000/svg">
<g clip-path="url(#clip0_2572_17695)">
<path d="M531.319 398.939C513.548 419.769 521.607 435.645 513.953 436.456C513.562 436.5 513.2 436.5 512.852 436.456C506.909 435.688 509.011 421.971 489.92 404.081C477.846 392.754 454.943 372.43 461.002 361.769C466.191 352.658 481.948 372.358 490.08 360.045C495.994 351.093 472.366 348.08 476.077 338.665C480.208 328.25 494.646 342.214 496.66 332.045C498.661 321.876 487.76 307.738 496.718 305.276C496.863 305.232 496.994 305.204 497.124 305.189C505.749 303.248 508.88 316.69 510.489 325.599C512.127 334.652 512.026 337.492 514.765 336.767C517.505 336.043 525.434 324.686 531.203 331.306C536.986 337.926 519.911 353.773 521.679 365.391C523.448 377.037 535.566 357.51 539.958 368.23C542.48 374.4 540.161 388.611 531.319 398.939Z" fill="url(#paint0_linear_2572_17695)"/>
<path d="M532.305 374.951L511.547 394.13L507.735 363.479L507.764 363.493L520.636 344.285L507.402 360.871L502.951 325.078L504.546 346.154L490.732 342.243L504.691 348.138L507.112 380.296L477.44 373.329L507.242 382.179L510.446 422.68L514.243 422.289L511.823 396.36L532.305 374.951Z" fill="white"/>
<path d="M530 420.971L529.71 424.303L527.13 453.433C526.999 455.012 525.695 456.243 524.086 456.258L499.328 456.475C497.719 456.489 496.4 455.287 496.24 453.708L493.457 427.518V427.46L492.805 421.304L530 420.971Z" fill="#3D3D3D"/>
<path opacity="0.2" d="M529.724 424.303L527.144 453.433C527.014 455.012 525.709 456.243 524.1 456.258L512.315 456.359C523.013 452.1 525.622 442.612 523.448 435.326C521.085 427.446 496.124 427.49 493.472 427.519C493.327 427.519 493.24 427.519 493.24 427.519L493.472 427.461L517.142 422.492L529.724 424.303Z" fill="black"/>
<path d="M531.478 427.258L491.457 427.605C490.993 427.605 490.601 427.229 490.601 426.765L490.558 422.159C490.558 421.695 490.935 421.304 491.399 421.304L531.42 420.957C531.884 420.957 532.276 421.333 532.276 421.797L532.319 426.403C532.334 426.867 531.942 427.258 531.478 427.258Z" fill="#3D3D3D"/>
<path d="M571.045 430.929C563.155 440.177 566.733 447.226 563.335 447.587C563.161 447.606 563 447.606 562.846 447.587C560.207 447.246 561.14 441.155 552.664 433.212C547.303 428.183 537.134 419.159 539.825 414.426C542.129 410.38 549.125 419.127 552.735 413.66C555.361 409.685 544.87 408.348 546.518 404.167C548.352 399.543 554.762 405.743 555.657 401.228C556.545 396.713 551.705 390.436 555.683 389.342C555.747 389.323 555.805 389.31 555.863 389.304C559.692 388.442 561.083 394.411 561.797 398.366C562.524 402.386 562.479 403.646 563.696 403.325C564.912 403.003 568.432 397.961 570.994 400.9C573.562 403.839 565.98 410.875 566.765 416.033C567.551 421.204 572.931 412.535 574.881 417.294C576.001 420.034 574.971 426.343 571.045 430.929Z" fill="url(#paint1_linear_2572_17695)"/>
<path d="M571.483 420.278L562.267 428.794L560.574 415.185L560.587 415.191L566.302 406.663L560.426 414.027L558.45 398.135L559.158 407.492L553.025 405.756L559.223 408.374L560.297 422.652L547.123 419.558L560.355 423.488L561.778 441.47L563.464 441.297L562.389 429.784L571.483 420.278Z" fill="white"/>
<path d="M570.46 440.711L570.331 442.19L569.185 455.124C569.127 455.825 568.548 456.372 567.834 456.378L556.841 456.475C556.127 456.481 555.541 455.948 555.47 455.247L554.235 443.618V443.593L553.945 440.859L570.46 440.711Z" fill="#3D3D3D"/>
<path opacity="0.2" d="M570.337 442.191L569.192 455.124C569.134 455.826 568.555 456.372 567.84 456.379L562.608 456.424C567.358 454.533 568.516 450.32 567.551 447.085C566.502 443.586 555.419 443.606 554.241 443.618C554.177 443.618 554.138 443.618 554.138 443.618L554.241 443.593L564.751 441.387L570.337 442.191Z" fill="black"/>
<path d="M571.116 443.503L553.347 443.657C553.141 443.657 552.967 443.49 552.967 443.284L552.948 441.239C552.948 441.033 553.115 440.859 553.321 440.859L571.09 440.705C571.296 440.705 571.47 440.872 571.47 441.078L571.489 443.123C571.496 443.329 571.322 443.503 571.116 443.503Z" fill="#3D3D3D"/>
<path d="M182.77 453.277C171.525 453.277 162.361 444.134 162.361 432.882V21.8917C162.361 10.6541 171.51 1.49634 182.77 1.49634H381.008C392.254 1.49634 401.417 10.6391 401.417 21.8917V432.882C401.417 444.119 392.268 453.277 381.008 453.277H182.77Z" fill="#151515"/>
<path d="M381.008 2.99272C391.445 2.99272 399.92 11.4621 399.92 21.8917V432.882C399.92 443.311 391.445 451.781 381.008 451.781H182.77C172.333 451.781 163.858 443.311 163.858 432.882V21.8917C163.858 11.4621 172.333 2.99272 182.77 2.99272H381.008ZM381.008 0H182.77C170.686 0 160.863 9.81611 160.863 21.8917V432.882C160.863 444.957 170.686 454.773 182.77 454.773H381.008C393.092 454.773 402.915 444.957 402.915 432.882V21.8917C402.915 9.81611 393.092 0 381.008 0Z" fill="#464646"/>
<path d="M386.608 25.2734V404.615H177.17V25.2734C177.17 22.565 179.371 20.3653 182.081 20.3653H240.12C243.159 20.3653 245.615 22.8193 245.615 25.8569C245.615 28.8946 248.071 31.3486 251.111 31.3486H312.653C315.693 31.3486 318.148 28.8946 318.148 25.8569C318.148 22.8193 320.604 20.3653 323.644 20.3653H381.697C384.407 20.3503 386.608 22.55 386.608 25.2734Z" fill="white"/>
<path d="M302.126 431.236H261.667C260.379 431.236 259.331 430.188 259.331 428.901V426.058C259.331 424.771 260.379 423.724 261.667 423.724H302.126C303.414 423.724 304.462 424.771 304.462 426.058V428.901C304.462 430.188 303.414 431.236 302.126 431.236Z" fill="#D0D0D0"/>
<path opacity="0.05" d="M363.564 81.6864H200.215C199.047 81.6864 198.103 80.7436 198.103 79.5765V48.0781C198.103 46.911 199.047 45.9683 200.215 45.9683H363.564C364.732 45.9683 365.675 46.911 365.675 48.0781V79.5765C365.675 80.7436 364.732 81.6864 363.564 81.6864Z" fill="#4C4F51"/>
<path d="M308.666 378H202.334C199.947 378 198 375.156 198 371.669V216.331C198 212.844 199.947 210 202.334 210H308.666C311.053 210 313 212.844 313 216.331V371.669C313 375.156 311.053 378 308.666 378Z" fill="black"/>
<path d="M308.666 378H202.334C199.947 378 198 375.156 198 371.669V216.331C198 212.844 199.947 210 202.334 210H308.666C311.053 210 313 212.844 313 216.331V371.669C313 375.156 311.053 378 308.666 378Z" stroke="black"/>
<g clip-path="url(#clip1_2572_17695)">
<path d="M270.016 316.039C267.313 318.616 264.33 318.214 261.487 316.999C258.464 315.76 255.7 315.681 252.508 316.999C248.533 318.685 246.423 318.195 244.028 316.039C230.51 302.368 232.506 281.543 247.869 280.759C251.595 280.955 254.204 282.783 256.399 282.934C259.661 282.283 262.784 280.416 266.275 280.661C270.47 280.994 273.608 282.621 275.703 285.546C267.073 290.642 269.118 301.814 277.045 304.95C275.458 309.042 273.423 313.084 270.011 316.073L270.016 316.039ZM256.1 280.612C255.695 274.536 260.709 269.538 266.475 269.048C267.268 276.055 259.99 281.298 256.1 280.612Z" fill="white"/>
</g>
<path opacity="0.1" d="M363.055 200.961H200.709C199.256 200.961 198.088 199.794 198.088 198.342V101.977C198.088 100.525 199.256 99.3582 200.709 99.3582H363.055C364.507 99.3582 365.675 100.525 365.675 101.977V198.342C365.675 199.794 364.507 200.961 363.055 200.961Z" fill="url(#paint2_linear_2572_17695)"/>
<path d="M46.1492 294.214L86.0544 290.922L85.0212 222.509L81.5623 205.45L62.8151 199.42L51.0157 202.173C44.3075 203.744 39.7405 209.954 40.2645 216.822L46.5685 265.02L46.1492 294.214Z" fill="#F7D1B7"/>
<path d="M58.0235 191.19L58.5775 204.926C58.5775 204.926 61.5573 206.542 68.3554 206.273C72.024 206.123 72.7726 204.358 72.7726 204.358L72.563 199.285L58.0235 191.19Z" fill="#F7D1B7"/>
<path d="M56.017 180.999C56.0769 181.493 56.1068 181.957 56.1517 182.406C56.1517 182.571 56.1517 182.735 56.1517 182.9C56.1517 191.07 61.737 199.584 69.6731 200.452C69.6731 200.452 69.733 200.467 69.8528 200.482C69.9127 200.482 70.0175 200.497 70.1223 200.482C71.8143 200.617 77.9386 200.871 80.0649 198.327C82.5655 195.335 84.6768 189.948 84.5271 186.326C84.3773 182.705 83.6885 181.882 83.6286 180.416C83.5837 179.279 84.0479 175.687 84.003 174.131C83.7634 166.859 78.5675 159.826 69.8677 160.185C56.8106 160.724 55.2833 172.246 56.017 180.999Z" fill="#F7D1B7"/>
<path d="M100.294 222C100.549 217.361 73.731 213.411 62.2161 212.573C50.7162 211.735 41.4924 213.141 41.1929 218.798C40.8934 224.454 49.8927 226.848 61.4225 227.252C72.9523 227.686 100.04 226.639 100.294 222Z" fill="#EFC6AB"/>
<path d="M133.926 184.426C131.051 181.463 108.5 201.754 102.346 207.709C96.1917 213.665 90.1422 220.399 93.3616 223.72C96.581 227.042 103.499 221.207 109.653 215.251C115.807 209.296 136.801 187.389 133.926 184.426Z" fill="#EFC6AB"/>
<path d="M128.161 189.753C131.275 193.494 137.25 187.239 139.196 185.04C142.386 181.448 142.176 174.64 140.799 173.383C139.421 172.126 132.818 180.805 132.264 180.79C131.71 180.775 135.693 176.465 134.285 175.418C132.862 174.371 128.266 179.832 127.277 182.705C126.289 185.548 126.199 187.404 128.161 189.753Z" fill="#EFC6AB"/>
<path d="M65.9296 212.872C65.9296 212.872 91.6247 213.77 92.0589 213.605C92.4931 213.456 118.473 193.539 118.473 193.539L124.567 199.495C124.567 199.495 107.108 221.386 99.1565 224.843C91.2204 228.314 60.1348 227.028 60.1348 227.028L65.9296 212.872Z" fill="#EFC6AB"/>
<path d="M160.175 190.472L156.042 187.973C156.042 187.973 156.207 186.506 156.611 184.591C157.285 181.329 158.602 176.84 160.819 176.421C162.78 176.047 162.795 179.309 162.72 180.596C162.705 180.91 162.69 181.119 162.69 181.119L170.567 174.939C170.581 174.925 170.956 186.476 160.175 190.472Z" fill="#F7D1B7"/>
<path d="M273.212 180.266H110.866C109.414 180.266 108.246 179.099 108.246 177.648V81.2822C108.246 79.8307 109.414 78.6636 110.866 78.6636H273.212C274.664 78.6636 275.832 79.8307 275.832 81.2822V177.648C275.832 179.099 274.649 180.266 273.212 180.266Z" fill="url(#paint3_linear_2572_17695)"/>
<path d="M121.782 156.205C127.951 148.978 137.744 139.97 149.903 139.895C166.404 139.79 174.475 156.22 186.633 152.808C198.493 149.486 197.459 131.979 209.304 129.465C219.516 127.295 225.071 139.281 236.511 138.533C245.705 137.935 253.821 129.42 261.008 115.878" stroke="white" stroke-miterlimit="10"/>
<path d="M261.248 118.018C262.877 118.018 264.198 116.698 264.198 115.07C264.198 113.442 262.877 112.122 261.248 112.122C259.619 112.122 258.298 113.442 258.298 115.07C258.298 116.698 259.619 118.018 261.248 118.018Z" fill="#E8505B"/>
<path d="M143.584 99.5377H125.256C124.837 99.5377 124.492 99.1936 124.492 98.7746V97.802C124.492 97.383 124.837 97.0388 125.256 97.0388H143.569C143.988 97.0388 144.332 97.383 144.332 97.802V98.7746C144.347 99.2085 144.003 99.5377 143.584 99.5377Z" fill="white"/>
<path d="M136.471 105.209H125.256C124.837 105.209 124.492 104.865 124.492 104.446V103.473C124.492 103.054 124.837 102.71 125.256 102.71H136.471C136.89 102.71 137.235 103.054 137.235 103.473V104.446C137.235 104.865 136.905 105.209 136.471 105.209Z" fill="white"/>
<path d="M76.2316 286.598C72.0988 287.645 69.164 293.66 69.8228 299.661C70.3469 304.434 71.5298 310.629 74.0155 317.991C80.2146 336.381 83.8832 360.428 89.723 361.026C95.5777 361.625 99.1864 347.38 95.6526 327.882C92.4632 310.255 90.3219 287.376 86.1442 285.775C84.0329 284.966 79.8552 285.685 76.2316 286.598Z" fill="#F7D1B7"/>
<path d="M91.9541 348.158C76.1867 342.666 79.99 431.655 84.8266 445.571C89.6481 459.472 93.5114 411.424 95.3831 387.811C97.2698 364.199 98.1532 350.313 91.9541 348.158Z" fill="#F7D1B7"/>
<path d="M81.3377 428.243C81.5024 428.497 81.8468 449.581 81.8468 449.581C81.8468 449.581 91.984 450.703 92.014 449.97C92.0439 449.237 93.5263 431.011 93.5263 431.011L81.3377 428.243Z" fill="#F7D1B7"/>
<path d="M92.1787 447.845C92.1787 447.845 93.137 451.003 99.456 455.297C105.775 459.592 107.512 458.784 107.602 460.295C107.692 461.821 80.6638 459.532 80.6638 459.532L81.5623 447.097C81.5623 447.082 92.1937 447.516 92.1787 447.845Z" fill="#1B2124"/>
<path d="M15.9621 417.963C15.977 418.262 5.33067 436.488 5.33067 436.488C5.33067 436.488 13.4315 442.698 13.8208 442.084C14.2251 441.471 24.9463 426.657 24.9463 426.657L15.9621 417.963Z" fill="#F7D1B7"/>
<path d="M51.2553 288.648C47.0776 289.53 43.9181 295.441 44.3374 301.456C44.6818 306.245 45.6252 312.47 47.8113 319.936C53.2917 338.551 56.017 362.732 61.8418 363.555C67.6666 364.378 71.8293 350.298 69.0592 330.665C66.5585 312.933 65.3007 289.994 61.1979 288.214C59.1165 287.316 54.9089 287.869 51.2553 288.648Z" fill="#F7D1B7"/>
<path d="M67.6217 357.63C57.6491 344.252 12.2186 421.016 8.41527 435.231C4.61192 449.447 33.4215 410.885 48.2156 392.39C63.0247 373.88 71.5448 362.897 67.6217 357.63Z" fill="#F7D1B7"/>
<path d="M94.1253 439.54C94.1253 439.54 80.1697 439.406 80.1397 439.301C79.7654 437.715 78.3728 408.715 80.1397 366.353C80.1397 365.381 70.5865 326.191 69.9725 323.767V323.872C70.3469 326.161 73.1919 345.135 73.132 356.657C73.132 359.291 72.9673 361.565 72.6079 363.151C70.9458 370.214 20.3494 434.438 20.3494 434.438L11.3202 429.171L8.93936 427.779C8.93936 427.779 29.9176 389.936 35.1136 382.05C40.549 373.79 51.0606 360.772 50.866 358.812C50.6564 356.881 38.4827 306.933 43.424 289.949C51.4949 262.132 89.8428 287.181 89.8428 287.181C89.8428 287.181 98.1083 306.933 100.849 357.016C101.567 369.541 94.1253 439.54 94.1253 439.54Z" fill="#1B2124"/>
<path opacity="0.3" d="M73.147 356.642C73.147 359.276 72.9823 361.55 72.6229 363.136C70.9608 370.199 20.3644 434.423 20.3644 434.423L11.3352 429.156C26.3539 425.116 28.6 418.816 37.5992 407.219C47.7664 394.171 65.151 370.588 67.8912 362.852C70.6314 355.101 65.3007 312.111 65.3007 312.111L69.9426 323.633L69.9725 323.767V323.872L73.147 356.642Z" fill="white" fill-opacity="0.2"/>
<path d="M90.5615 288.259L73.8508 289.231L44.6069 290.922C43.2294 290.997 42.1213 289.92 42.1812 288.543C42.5555 279.34 43.6636 247.662 42.1512 240.181C36.7906 213.65 40.7587 204.867 48.1108 202.487C59.1465 198.896 79.9152 202.487 82.7901 204.941C85.6651 207.425 88.016 211.825 88.9144 221.027C89.0941 222.898 90.3369 227.117 89.7529 232.654C89.6481 233.791 89.4684 234.973 89.169 236.185C89.169 236.185 89.169 236.185 89.169 236.215C89.0641 236.664 88.9593 237.113 88.7946 237.562C88.5251 238.43 88.3454 239.088 88.2406 239.358C83.434 252.885 89.9626 280.283 91.6247 286.777C91.8193 287.495 91.3252 288.199 90.5615 288.259Z" fill="#006BFE"/>
<path opacity="0.1" d="M90.5615 288.259L73.8508 289.231C77.5643 288.393 81.2927 287.226 83.3741 285.775C88.5401 282.168 84.2126 268.237 84.4822 255.847C84.7517 243.472 81.5473 243.712 81.5473 243.712C84.9314 242.32 88.0459 236.38 89.7529 232.669C89.6481 233.806 89.4684 234.988 89.169 236.2C89.169 236.2 89.169 236.2 89.169 236.23C89.0641 236.679 88.9593 237.128 88.7946 237.577C88.5251 238.445 88.3454 239.103 88.2406 239.372C83.434 252.899 89.9626 280.298 91.6247 286.792C91.8193 287.495 91.3252 288.199 90.5615 288.259Z" fill="white"/>
<path d="M129.389 223.511C130.497 219.037 105.101 210.223 94.0504 207.275C82.9997 204.328 73.7609 203.983 72.4133 209.445C71.0656 214.907 79.3911 218.902 90.5465 221.431C101.702 223.96 128.281 227.97 129.389 223.511Z" fill="#F7D1B7"/>
<path d="M163.379 183.977C160.429 181.149 138.807 202.053 132.922 208.173C127.038 214.293 121.288 221.192 124.597 224.364C127.906 227.536 134.555 221.506 140.439 215.386C146.324 209.266 166.329 186.805 163.379 183.977Z" fill="#F7D1B7"/>
<path d="M79.9301 203.819L123.863 214.368L150.891 191.339L156.776 196.651C156.776 196.651 135.618 225.202 127.891 227.775C120.165 230.349 80.1697 221.491 80.1697 221.491L79.9301 203.819Z" fill="#F7D1B7"/>
<path d="M83.8083 217.705C84.7367 225.771 84.9463 234.644 79.6905 241.393C77.5044 244.221 74.3 246.106 70.9608 247.348C61.9316 250.64 51.2403 249.323 43.439 243.652C42.8251 243.233 42.256 242.754 41.702 242.276C38.7971 239.792 36.5361 236.664 34.9488 233.208C31.7295 226.25 31.2054 217.81 34.5595 210.792C38.7821 201.934 46.853 194.856 48.1707 184.741C49.0392 177.962 49.4884 170.361 54.0105 164.824C54.0404 164.794 54.0404 164.764 54.0404 164.764C56.7357 161.472 59.7904 158.599 64.0729 157.537C71.44 155.741 84.8715 158.405 86.294 167.532C86.3988 168.221 86.4288 168.879 86.3988 169.508C86.2341 173.338 84.2276 176.78 82.865 180.326C82.4457 181.359 82.1462 182.361 81.9366 183.409C79.5258 194.631 82.5056 206.528 83.8083 217.705Z" fill="url(#paint4_linear_2572_17695)"/>
<path opacity="0.1" d="M53.9805 164.824C53.6661 165.482 51.1804 170.839 49.9676 179.174C48.6948 188.092 47.991 194.527 43.9181 200.273C40.2196 205.465 31.1904 224.484 43.409 243.652C42.7951 243.233 42.2261 242.754 41.6721 242.275C38.7672 239.792 36.5061 236.664 34.9189 233.208C31.6995 226.249 31.1754 217.81 34.5296 210.792C38.7522 201.934 46.8231 194.856 48.1408 184.74C49.0242 177.962 49.4734 170.375 53.9805 164.824Z" fill="white"/>
<path d="M15.2733 440.049C15.2733 440.049 14.854 442.907 16.1717 448.833C17.3397 454.07 20.6189 455.282 19.6157 456.225C18.6723 457.138 0 443.835 0 443.835L6.36386 434.184C6.36386 434.184 15.2733 440.064 15.2733 440.049Z" fill="#1B2124"/>
<path d="M162.735 180.595L160.04 184.995L156.611 184.591C157.285 181.329 158.602 176.84 160.819 176.421C162.78 176.046 162.81 179.309 162.735 180.595Z" fill="#F7D1B7"/>
<path d="M528.737 508.658L535.845 514.131L527.704 525.31L518.382 517.807L528.737 508.658Z" fill="#F7D1B7"/>
<path d="M359.455 423.068C366.263 435.977 389.186 441.799 409.079 444.544C425.559 446.823 439.942 446.973 441.34 447.223C444.42 447.772 458.836 471.427 469.59 482.54C480.344 493.652 518.415 519.354 518.415 519.354L530.451 508.807C530.451 508.807 483.157 451.049 468.575 436.476C454.009 421.903 414.506 411.573 414.506 411.573C414.506 411.573 346.986 399.479 359.455 423.068Z" fill="#1B2124"/>
<path opacity="0.04" d="M389.985 420.839L409.079 444.544C425.559 446.823 439.942 446.973 441.34 447.222C444.42 447.771 458.836 471.427 469.59 482.54C480.344 493.652 518.415 519.354 518.415 519.354L530.451 508.807C510.125 512.517 507.512 507.327 491.697 493.835C475.883 480.377 464.629 450.6 456.206 443.729C447.783 436.875 427.44 433.382 426.408 429.489C425.376 425.596 435.348 422.768 435.348 422.768L420.715 420.622L389.985 420.839Z" fill="white"/>
<path d="M536.444 492.089L545.333 493.37L543.719 507.094L531.916 505.148L536.444 492.089Z" fill="#F7D1B7"/>
<path d="M344.822 445.942C353.012 473.29 437.129 472.01 437.129 472.01C437.129 472.01 454.009 484.27 472.17 492.721C490.332 501.155 535.562 506.512 535.562 506.512L538.625 490.458C508.71 482.789 456.822 446.724 450.43 443.646C446.701 441.866 423.329 431.801 404.667 423.783C393.73 419.092 384.392 415.116 381.528 413.885C380.946 413.652 380.629 413.502 380.629 413.502C380.629 413.502 379.98 413.586 378.848 413.769C370.658 415.066 337.631 421.937 344.822 445.942Z" fill="#1B2124"/>
<path opacity="0.03" d="M344.822 445.942C353.012 473.291 437.129 472.01 437.129 472.01C437.129 472.01 454.009 484.27 472.17 492.721C490.332 501.155 535.562 506.512 535.562 506.512L538.625 490.459C526.073 505.83 514.886 499.575 490.415 493.104C465.928 486.632 442.739 463.842 438.327 462.694C433.916 461.529 427.324 460.664 402.637 459.899C377.966 459.117 359.122 450.783 358.922 443.979C358.722 437.192 371.357 434.081 377.966 430.97C384.575 427.859 405.749 425.331 405.749 425.331L404.651 423.783L398.159 414.651L381.512 413.869L378.831 413.752C370.658 415.066 337.631 421.937 344.822 445.942Z" fill="white"/>
<path d="M409.462 325.401C412.491 325.966 414.805 328.462 415.638 331.423C419.317 344.698 430.903 389.364 421.281 392.575C409.961 396.351 402.054 356.16 401.238 344.265C400.556 334.35 402.137 324.02 409.462 325.401Z" fill="#F7D1B7"/>
<path d="M409.861 323.671C409.861 323.671 416.004 326.898 418.684 339.424C421.348 351.951 433.799 418.776 433.799 418.776C433.799 418.776 408.896 423.617 408.246 419.092C407.597 414.584 409.861 323.671 409.861 323.671Z" fill="#006BFE"/>
<path opacity="0.3" d="M415.604 356.792L424.577 421.038L406.615 416.68L415.604 356.792Z" fill="#BFBFBF"/>
<path d="M351.048 325.218C347.985 324.902 345.038 326.632 343.407 329.227C336.082 340.905 312.211 380.398 320.518 386.22C330.289 393.074 349.35 356.808 353.528 345.646C357.024 336.347 358.472 325.999 351.048 325.218Z" fill="#F7D1B7"/>
<path d="M370.275 355.029C372.273 354.696 374.32 356.409 374.753 358.722C375.086 360.568 375.519 365.093 375.485 368.271C375.402 376.122 375.719 383.425 373.155 384.656C370.575 385.888 367.895 381.096 367.145 373.344C366.463 366.324 364.016 357.757 365.697 356.459C366.563 355.777 368.544 355.311 370.275 355.029Z" fill="#F7D1B7"/>
<path d="M419.65 422.02L403.502 420.356L379.83 419.525L376.867 419.857L369.493 416.88L351.997 415.083L347.103 414.584L347.053 413.403C347.053 413.403 346.936 411.24 346.77 407.597C346.636 405.102 346.487 401.908 346.32 398.231C345.937 389.614 345.504 378.385 345.255 367.406C344.872 351.053 344.905 335.282 346.12 329.56C349.034 315.985 370.375 318.963 370.375 318.963H370.408L396.244 320.826C396.244 320.826 410.161 320.577 412.458 326.599C415.255 333.835 419.65 422.02 419.65 422.02Z" fill="white"/>
<path d="M344.206 435.378L348.051 434.247L381.395 424.449C381.695 413.452 382.344 380.98 382.594 367.771C382.61 366.89 382.61 366.041 382.61 365.276C382.477 342.602 370.441 318.979 370.441 318.979H370.391C370.391 318.979 349.05 315.985 346.137 329.576C344.922 335.299 344.889 351.086 345.271 367.439C345.504 378.401 345.937 389.63 346.32 398.264C346.487 401.924 346.636 405.101 346.77 407.613C346.936 411.257 347.069 413.419 347.069 413.419L344.206 435.378Z" fill="#006BFE"/>
<path opacity="0.3" d="M344.206 435.378L348.051 434.247C353.628 411.523 350.066 397.649 349.2 386.952C347.785 369.668 353.345 356.526 353.711 355.794L345.371 366.856C345.371 366.856 345.321 367.073 345.255 367.439C345.488 378.401 345.921 389.63 346.303 398.264C346.47 401.924 346.62 405.101 346.753 407.613C346.919 411.256 347.053 413.419 347.053 413.419L344.206 435.378Z" fill="#BFBFBF"/>
<path opacity="0.15" d="M377.616 414.983V417.711C377.616 418.975 377.616 420.19 377.616 420.19L369.476 416.879L346.753 407.597C346.62 405.101 346.47 401.907 346.303 398.231C356.408 403.355 377.616 414.517 377.616 414.983Z" fill="white"/>
<path d="M321.15 384.257C321.317 386.902 322.948 389.214 325.229 390.578C336.449 397.316 377.25 421.421 381.911 418.094C387.321 414.218 330.073 376.771 326.843 378.185C324.313 379.3 320.884 380.015 321.15 384.257Z" fill="#F7D1B7"/>
<path d="M377.2 412.304C377.2 412.304 382.078 410.591 387.022 411.456C390.701 412.105 395.578 417.162 395.112 419.358C394.646 421.554 392.548 420.971 388.42 418.676C384.142 416.297 384.708 420.506 380.613 419.607C376.518 418.709 375.902 416.546 375.902 416.546" fill="#F7D1B7"/>
<path d="M370.425 318.979C380.496 328.029 394.846 321.525 396.028 320.959C396.028 320.959 396.028 320.976 396.044 320.959C396.094 320.942 396.111 320.926 396.111 320.926C391.084 319.229 390.9 312.708 390.9 312.708C399.224 314.521 406.099 297.27 407.431 293.411C408.746 289.518 413.124 275.228 394.679 272.916C376.251 270.603 376.118 292.779 375.752 301.512C375.402 310.262 369.609 318.231 370.425 318.979Z" fill="#F7D1B7"/>
<path d="M384.125 310.811C384.125 310.811 386.239 320.194 396.028 320.959C396.028 320.959 396.028 320.976 396.044 320.959C396.094 320.942 396.111 320.926 396.111 320.926C391.084 319.229 390.9 312.708 390.9 312.708C390.9 312.708 387.038 312.491 384.125 310.811Z" fill="#EFC6AB"/>
<path d="M352.762 321.641C352.762 321.641 344.189 323.255 336.099 338.775C328.009 354.296 313.626 377.569 319.286 387.102C324.946 396.634 361.669 411.19 361.669 411.19L367.645 403.105C367.645 403.105 336.598 381.129 336.598 380.481C336.598 379.832 351.797 357.041 351.797 357.041L352.762 321.641Z" fill="#006BFE"/>
<path d="M404.817 367.039C404.251 344.249 396.927 323.288 396.078 320.926L395.928 320.61H396.277C396.86 320.593 410.377 320.427 412.708 326.515C415.455 333.685 419.7 418.376 419.883 421.986L419.899 422.236L403.502 420.556L403.286 420.539L403.302 420.323C404.101 408.645 405.117 382.377 404.851 367.804C404.834 367.572 404.817 367.305 404.817 367.039Z" fill="#006BFE"/>
<path d="M382.61 365.276C382.61 366.041 382.61 366.873 382.594 367.771L382.494 368.071L372.922 357.158C372.922 357.158 375.219 352.916 375.219 350.853C375.219 348.79 369.876 344.199 369.393 342.985C368.91 341.77 370.458 318.979 370.458 318.979C370.458 318.979 382.477 342.602 382.61 365.276Z" fill="white" fill-opacity="0.3"/>
<path d="M396.477 320.759L408.763 347.725L408.796 347.809L407.514 351.518L409.295 355.245L404.851 368.853L404.817 367.039C404.251 344.249 396.927 323.288 396.078 320.926L396.477 320.759Z" fill="white" fill-opacity="0.3"/>
<path d="M377.899 279.986C378.365 278.854 378.881 277.74 379.414 276.642C381.345 272.683 384.308 268.507 388.686 268.041C392.199 267.675 395.395 269.821 398.625 271.235C403.768 273.498 409.695 273.997 415.138 272.616C417.485 272.017 419.866 271.086 422.247 271.535C425.443 272.134 427.723 275.161 428.489 278.322C429.688 283.23 427.79 288.753 423.811 291.863C419.883 294.958 414.073 295.507 409.578 293.294C406.465 291.747 403.069 290.183 399.64 289.534C397.925 289.218 395.861 289.119 394.363 290.1C392.881 291.082 392.049 292.662 391.233 294.192C390.501 295.606 389.719 298.002 388.154 298.717C386.606 299.416 386.805 296.887 386.889 296.072C387.072 294.409 387.305 292.745 387.538 291.098C387.671 290.2 388.254 288.137 387.338 287.455C387.205 287.355 387.022 287.322 386.855 287.305C385.274 287.122 383.692 288.021 382.66 289.135C380.13 291.847 381.295 295.939 380.496 299.216C379.947 301.479 378.332 305.871 375.219 305.188C373.754 304.856 373.771 302.66 373.754 301.495C373.721 299.449 373.554 297.403 373.638 295.357C373.721 293.294 374.32 291.314 374.82 289.335C375.619 286.124 376.651 283.013 377.899 279.986Z" fill="#454545"/>
<path d="M407.381 426.428C407.647 426.079 449.847 422.735 449.847 422.735L465.295 382.444C465.329 382.361 465.345 382.327 465.345 382.327C465.961 382.278 424.061 383.176 424.061 383.176L407.564 425.979L407.381 426.428Z" fill="#B7B7B7"/>
<path d="M407.381 426.428C407.647 426.079 449.847 422.735 449.847 422.735L465.295 382.444C464.113 384.922 444.67 424.598 408.696 425.929C408.313 425.945 407.947 425.962 407.564 425.979L407.381 426.428Z" fill="#9C9C9C"/>
<path d="M376.484 424.565L407.481 426.278L408.479 423.683L409.628 420.739L376.817 418.925L376.634 421.753L376.484 424.565Z" fill="#9C9C9C"/>
<path d="M424.294 383.176L422.729 383.309L406.415 426.212L407.714 426.278L424.294 383.176Z" fill="#9C9C9C"/>
<path d="M376.484 424.565L407.481 426.295L408.48 423.7C400.589 423.234 382.377 422.153 376.634 421.77L376.484 424.565Z" fill="#9C9C9C"/>
<path d="M440.774 404.17C440.125 405.916 438.46 406.915 437.029 406.399C435.597 405.883 434.965 404.037 435.614 402.273C436.263 400.526 437.928 399.528 439.359 400.044C440.774 400.576 441.407 402.423 440.774 404.17Z" fill="#9C9C9C"/>
<path d="M543.336 507.243C543.336 507.243 554.423 509.622 560.399 509.805C572.118 510.204 571.918 505.363 576.43 500.123C580.408 495.515 580.625 489.992 579.293 486.598C579.293 486.582 579.293 486.582 579.293 486.582C578.81 485.384 578.161 484.453 577.412 483.92C574.465 481.791 573.234 483.488 568.289 488.162C563.329 492.853 555.172 493.818 555.172 493.818L545.067 493.203L543.336 507.243Z" fill="#1B2124"/>
<path opacity="0.3" d="M543.336 507.243C543.336 507.243 554.423 509.622 560.399 509.805C572.118 510.204 571.918 505.363 576.43 500.123C580.408 495.515 580.625 489.992 579.293 486.599C578.511 489.377 576.13 496.796 572.002 501.321C566.858 506.96 561.714 506.561 557.136 506.079C552.575 505.58 546.465 504.249 545.067 493.17L543.336 507.243Z" fill="#4C4F51"/>
<path d="M526.156 524.228C526.156 524.228 535.229 534.11 541.571 537.886C547.914 541.646 554.173 535.258 560.199 528.138C566.242 521.034 568.323 514.896 564.96 512.417C561.581 509.938 551.892 520.336 547.348 519.936C542.786 519.537 535.861 513.598 535.861 513.598L526.156 524.228Z" fill="#1B2124"/>
<path opacity="0.3" d="M526.156 524.228C526.156 524.228 535.229 534.11 541.571 537.886C547.914 541.646 554.173 535.258 560.199 528.138C566.242 521.034 568.323 514.896 564.96 512.417C564.96 512.417 564.094 522.282 557.236 528.554C550.361 534.825 544.717 536.256 539.474 532.696C534.23 529.119 531.45 519.87 535.861 513.598L526.156 524.228Z" fill="#4C4F51"/>
<path d="M501.131 222.256L416.783 222.331C415.376 222.331 414.238 221.194 414.238 219.787L414.148 116.958C414.148 115.551 415.286 114.414 416.693 114.414L501.041 114.339C502.448 114.339 503.586 115.476 503.586 116.883L503.676 219.713C503.676 221.119 502.538 222.256 501.131 222.256Z" fill="url(#paint5_linear_2572_17695)"/>
<path d="M458.889 171.455C452.915 171.455 447.3 169.136 443.077 164.916C438.839 160.696 436.519 155.07 436.504 149.1C436.504 143.129 438.825 137.503 443.047 133.283C447.27 129.048 452.885 126.729 458.874 126.714H458.889C464.864 126.714 470.479 129.033 474.702 133.253C478.939 137.473 481.26 143.084 481.275 149.07C481.275 155.04 478.954 160.666 474.732 164.901C470.509 169.136 464.894 171.455 458.904 171.47C458.904 171.455 458.904 171.455 458.889 171.455ZM458.904 129.408H458.889C453.634 129.408 448.692 131.458 444.979 135.183C441.265 138.909 439.214 143.847 439.229 149.1C439.229 154.352 441.28 159.29 445.009 163.016C448.722 166.727 453.664 168.762 458.919 168.762H458.934C464.19 168.762 469.132 166.712 472.86 162.986C476.574 159.26 478.625 154.322 478.61 149.07C478.61 143.817 476.559 138.879 472.83 135.169C469.087 131.458 464.145 129.408 458.904 129.408Z" fill="white"/>
<path d="M489.346 188.992L428.508 189.037C428.133 189.037 427.834 188.738 427.834 188.364V187.346C427.834 186.972 428.133 186.673 428.508 186.673L489.346 186.643C489.721 186.643 490.02 186.942 490.02 187.316V188.334C490.02 188.693 489.721 188.992 489.346 188.992Z" fill="white"/>
<path d="M489.346 196.085L428.508 196.13C428.133 196.13 427.834 195.831 427.834 195.456V194.439C427.834 194.065 428.133 193.766 428.508 193.766L489.346 193.721C489.721 193.721 490.02 194.02 490.02 194.394V195.412C490.02 195.786 489.721 196.085 489.346 196.085Z" fill="white"/>
<path d="M476.244 203.178L441.64 203.208C441.265 203.208 440.966 202.908 440.966 202.534V201.517C440.966 201.143 441.265 200.843 441.64 200.843L476.244 200.813C476.618 200.813 476.918 201.113 476.918 201.487V202.504C476.918 202.878 476.618 203.178 476.244 203.178Z" fill="white"/>
</g>
<defs>
<linearGradient id="paint0_linear_2572_17695" x1="460" y1="305" x2="574.957" y2="350.521" gradientUnits="userSpaceOnUse">
<stop stop-color="#64D698"/>
<stop offset="1" stop-color="#006BFE"/>
</linearGradient>
<linearGradient id="paint1_linear_2572_17695" x1="539.38" y1="389.22" x2="590.421" y2="409.431" gradientUnits="userSpaceOnUse">
<stop stop-color="#64D698"/>
<stop offset="1" stop-color="#006BFE"/>
</linearGradient>
<linearGradient id="paint2_linear_2572_17695" x1="176.616" y1="56.7677" x2="307.499" y2="245.499" gradientUnits="userSpaceOnUse">
<stop stop-color="#2D6967"/>
<stop offset="1" stop-color="#12315C"/>
</linearGradient>
<linearGradient id="paint3_linear_2572_17695" x1="86.7735" y1="36.0731" x2="217.656" y2="224.805" gradientUnits="userSpaceOnUse">
<stop stop-color="#2D6967"/>
<stop offset="1" stop-color="#12315C"/>
</linearGradient>
<linearGradient id="paint4_linear_2572_17695" x1="25.3415" y1="118.397" x2="128.339" y2="171.313" gradientUnits="userSpaceOnUse">
<stop stop-color="#2D6967"/>
<stop offset="1" stop-color="#12315C"/>
</linearGradient>
<linearGradient id="paint5_linear_2572_17695" x1="402.677" y1="69.0703" x2="543.836" y2="171.378" gradientUnits="userSpaceOnUse">
<stop stop-color="#2D6967"/>
<stop offset="1" stop-color="#12315C"/>
</linearGradient>
<clipPath id="clip0_2572_17695">
<rect width="581" height="539" fill="white"/>
</clipPath>
<clipPath id="clip1_2572_17695">
<rect width="42" height="49" fill="white" transform="translate(235 269)"/>
</clipPath>
</defs>
</svg>
