<svg width="626" height="560" viewBox="0 0 626 560" fill="none" xmlns="http://www.w3.org/2000/svg">
<g clip-path="url(#clip0_6357_274)">
<path d="M550.707 304.199H137.341C134.365 304.199 131.984 301.816 131.984 298.836V69.8669C131.984 66.8875 134.365 64.5039 137.341 64.5039H550.855C553.831 64.5039 556.212 66.8875 556.212 69.8669V298.985C556.063 301.816 553.683 304.199 550.707 304.199Z" fill="#4E92FF"/>
<path d="M556.063 93.5534H131.984V68.8241C131.984 66.4405 133.919 64.5039 136.3 64.5039H551.599C553.98 64.5039 555.915 66.4405 555.915 68.8241V93.5534H556.063Z" fill="white"/>
<path d="M162.787 79.996C162.787 82.3795 160.852 84.3161 158.471 84.3161C156.091 84.3161 154.156 82.3795 154.156 79.996C154.156 77.6124 156.091 75.6758 158.471 75.6758C160.852 75.6758 162.787 77.6124 162.787 79.996Z" fill="#B0ADF9"/>
<path d="M179.748 79.996C179.748 82.3795 177.813 84.3161 175.432 84.3161C173.052 84.3161 171.117 82.3795 171.117 79.996C171.117 77.6124 173.052 75.6758 175.432 75.6758C177.813 75.6758 179.748 77.6124 179.748 79.996Z" fill="#B0ADF9"/>
<path d="M196.716 79.996C196.716 82.3795 194.782 84.3161 192.401 84.3161C190.02 84.3161 188.086 82.3795 188.086 79.996C188.086 77.6124 190.02 75.6758 192.401 75.6758C194.782 75.6758 196.716 77.6124 196.716 79.996Z" fill="#B0ADF9"/>
<path d="M29.4653 338.759C29.4653 343.675 25.4477 347.846 20.5374 347.846C15.627 347.846 11.6094 343.824 11.6094 338.759C11.6094 333.843 15.627 329.672 20.5374 329.672C25.4477 329.672 29.4653 333.694 29.4653 338.759Z" stroke="#D1D1F2" stroke-width="2.0209" stroke-miterlimit="10"/>
<path d="M215.763 25.6217C222.338 25.6217 227.667 20.2192 227.667 13.555C227.667 6.89073 222.338 1.48828 215.763 1.48828C209.189 1.48828 203.859 6.89073 203.859 13.555C203.859 20.2192 209.189 25.6217 215.763 25.6217Z" stroke="#D1D1F2" stroke-width="2.0209" stroke-miterlimit="10"/>
<path d="M617.969 291.537C617.969 295.112 615.142 298.091 611.422 298.091C607.851 298.091 604.875 295.112 604.875 291.537C604.875 287.961 607.702 284.982 611.422 284.982C615.142 284.833 617.969 287.812 617.969 291.537Z" stroke="#D1D1F2" stroke-width="2.0209" stroke-miterlimit="10"/>
<path d="M121.568 24.7277H32.8833C30.9489 24.7277 29.4609 23.238 29.4609 21.3013C29.4609 19.3647 30.9489 17.875 32.8833 17.875H121.568C123.502 17.875 124.99 19.3647 124.99 21.3013C125.139 23.089 123.502 24.7277 121.568 24.7277Z" fill="white"/>
<path d="M622.578 214.517H590.586C588.652 214.517 587.164 213.027 587.164 211.09C587.164 209.154 588.652 207.664 590.586 207.664H622.578C624.513 207.664 626.001 209.154 626.001 211.09C626.001 212.878 624.364 214.517 622.578 214.517Z" fill="white"/>
<path d="M534.192 10.7249H528.686C527.198 10.7249 526.008 9.53312 526.008 8.0434V2.97836C526.008 1.48865 527.198 0.296875 528.686 0.296875H534.192C535.68 0.296875 536.87 1.48865 536.87 2.97836V8.19237C536.721 9.53312 535.531 10.7249 534.192 10.7249Z" fill="#64AEF9"/>
<path d="M53.1213 241.781L21.4269 258.019L30.6525 262.488L19.3438 276.045L28.1229 283.195L38.9853 268.745L46.2765 276.492L53.1213 241.781Z" fill="white"/>
<g clip-path="url(#clip1_6357_274)">
<path d="M92.2295 200H4.77048C2.15139 200 0 197.442 0 194.327V108.673C0 105.558 2.15139 103 4.77048 103H92.2295C94.8486 103 97 105.558 97 108.673V194.327C97 197.442 94.8486 200 92.2295 200Z" fill="#FEDE00"/>
<path d="M96.7708 199.974C96.7708 168.121 96.7708 136.242 96.7961 104.389C96.7961 103.429 96.5687 103.227 95.6341 103.227C63.7555 103.227 31.8768 103.227 0.0234375 103.227C0.20026 102.848 0.528646 103.05 0.78125 103.05C4.72187 103.025 8.6625 103.05 12.6031 103.05C40.4401 103.05 68.2771 103.05 96.114 103.025C96.8213 103.025 96.9729 103.176 96.9729 103.884C96.9476 135.636 96.9476 167.363 96.9476 199.115C96.9476 199.418 97.1497 199.772 96.7708 199.974Z" fill="#FEFEFE"/>
<path d="M74.0141 192.421C68.9115 192.345 64.1626 190.956 60.3988 187.041C59.4641 186.056 58.681 184.969 57.9737 183.782C57.6959 183.302 57.6454 183.05 58.2264 182.721C60.2977 181.585 62.3185 180.397 64.3394 179.16C64.8698 178.831 65.0972 178.932 65.4256 179.437C67.017 181.963 69.1894 183.732 72.2459 184.186C73.9383 184.439 75.6308 184.388 77.2474 183.706C78.7631 183.075 79.8493 182.039 80.0766 180.347C80.304 178.604 79.6219 177.214 78.1821 176.204C76.3886 174.941 74.3425 174.183 72.3722 173.324C69.5683 172.112 66.7644 170.899 64.4657 168.828C60.5503 165.292 59.5399 160.846 60.7777 155.92C61.9902 151.07 65.5266 148.468 70.3008 147.458C72.6753 146.952 75.075 147.028 77.4243 147.483C81.3902 148.241 84.2446 150.539 86.2907 153.95C86.4675 154.253 86.5433 154.455 86.1644 154.682C84.093 155.996 82.0217 157.309 79.9756 158.673C79.3946 159.052 79.2935 158.648 79.0915 158.294C77.9295 156.4 76.3886 155.213 74.0899 155.061C71.9175 154.935 70.124 155.92 69.5178 157.663C68.8357 159.608 69.5935 161.528 71.5133 162.766C73.3826 163.953 75.454 164.685 77.4748 165.595C79.9503 166.681 82.3753 167.868 84.5224 169.561C88.8167 172.945 89.9282 177.492 88.943 182.595C87.9831 187.521 84.5982 190.274 79.9503 191.663C78.0558 192.219 76.1107 192.396 74.0141 192.421Z" fill="#020100"/>
<path d="M52.7181 164.13C52.7181 168.955 52.7181 173.754 52.7181 178.579C52.7181 180.827 52.4403 183.05 51.5814 185.147C49.8384 189.416 46.4535 191.537 42.0582 192.169C38.446 192.699 34.8843 192.371 31.6004 190.628C29.0239 189.264 27.1546 187.193 25.7653 184.616C25.5379 184.187 25.5632 183.985 26.0179 183.732C28.165 182.469 30.2869 181.181 32.3835 179.892C32.8382 179.615 33.015 179.766 33.2424 180.145C33.6213 180.802 34.0254 181.433 34.4801 182.04C36.021 184.111 38.6228 184.818 41.0478 183.909C42.6392 183.303 43.2455 182.014 43.4728 180.473C43.5991 179.64 43.6496 178.781 43.6496 177.922C43.6496 168.172 43.6749 158.396 43.6496 148.645C43.6496 147.862 43.7759 147.559 44.6601 147.584C47.0598 147.66 49.4343 147.635 51.834 147.584C52.5666 147.559 52.7939 147.736 52.7686 148.494C52.6929 153.748 52.7181 158.952 52.7181 164.13Z" fill="#010100"/>
</g>
<path d="M454.88 139.735H315.753C311.586 139.735 308.164 136.309 308.164 132.138V17.4296C308.164 13.2584 311.586 9.83203 315.753 9.83203H454.88C459.047 9.83203 462.469 13.2584 462.469 17.4296V132.138C462.469 136.309 459.047 139.735 454.88 139.735Z" fill="#DC5871"/>
<path d="M355.93 77.3164H410.093" stroke="white" stroke-width="1.0369" stroke-miterlimit="10"/>
<path d="M331.078 94.1484H443.422" stroke="white" stroke-width="1.0369" stroke-miterlimit="10"/>
<path d="M331.078 55.7148H443.422" stroke="white" stroke-width="1.0369" stroke-miterlimit="10"/>
<path d="M329.594 113.367H363.371" stroke="white" stroke-width="1.0369" stroke-miterlimit="10"/>
<path d="M373.492 113.367H410.097" stroke="white" stroke-width="1.0369" stroke-miterlimit="10"/>
<path d="M329.594 77.3164H344.771" stroke="white" stroke-width="1.0369" stroke-miterlimit="10"/>
<path d="M372.742 37.8398H410.091" stroke="white" stroke-width="1.0369" stroke-miterlimit="10"/>
<path d="M349.539 30.5391L343.289 45.2873" stroke="white" stroke-width="1.0369" stroke-miterlimit="10"/>
<path d="M337.186 32.625L331.531 37.839L337.186 43.351" stroke="white" stroke-width="1.0369" stroke-miterlimit="10"/>
<path d="M356.828 32.625L362.334 37.839L356.828 43.351" stroke="white" stroke-width="1.0369" stroke-miterlimit="10"/>
<path d="M586.567 166.253H526.898V136.012C526.898 133.48 528.982 131.543 531.362 131.543H586.567C589.097 131.543 591.031 133.629 591.031 136.012V161.784C591.18 164.168 589.097 166.253 586.567 166.253Z" fill="#64AEF9"/>
<path d="M526.899 158.953L526.75 174.446L539.844 159.102L526.899 158.953Z" fill="#64AEF9"/>
<path d="M569.758 148.377C569.758 150.016 571.097 151.208 572.585 151.357C574.222 151.357 575.412 150.016 575.561 148.526C575.561 146.888 574.222 145.696 572.734 145.547C571.097 145.547 569.758 146.888 569.758 148.377Z" fill="white"/>
<path d="M557.406 148.377C557.406 150.016 558.745 151.208 560.233 151.357C561.87 151.357 563.061 150.016 563.209 148.526C563.209 146.888 561.87 145.696 560.382 145.547C558.745 145.547 557.406 146.739 557.406 148.377Z" fill="white"/>
<path d="M545.055 148.377C545.055 150.016 546.394 151.207 547.882 151.356C549.519 151.356 550.709 150.016 550.858 148.526C550.858 146.887 549.519 145.695 548.031 145.546C546.245 145.398 545.055 146.738 545.055 148.377Z" fill="white"/>
<path d="M217.24 436.935H301.312C306.223 436.935 310.24 432.913 310.24 427.997C310.24 423.081 306.223 419.059 301.312 419.059H217.24C212.33 419.059 208.312 423.081 208.312 427.997C208.461 433.062 212.33 436.935 217.24 436.935Z" fill="#0D005D"/>
<path d="M159.361 436.934H258.61C265.306 436.934 270.217 430.23 268.282 423.676L220.815 260.105C219.476 255.785 215.607 252.656 211.143 252.656H112.043C105.347 252.656 100.436 259.36 102.371 265.915L149.838 429.486C151.028 433.955 154.897 436.934 159.361 436.934Z" fill="#0D005D"/>
<path d="M173.049 436.934H259.501C266.197 436.934 271.108 430.23 269.173 423.676L221.706 260.105C220.367 255.785 216.498 252.656 212.034 252.656H125.73C119.034 252.656 114.124 259.36 116.058 265.915L163.525 429.486C164.567 433.955 168.585 436.934 173.049 436.934Z" fill="#79ACFF"/>
<path d="M159.358 436.935H264.41C269.321 436.935 273.338 432.913 273.338 427.997C273.338 423.081 269.321 419.059 264.41 419.059H159.358C154.447 419.059 150.43 423.081 150.43 427.997C150.578 433.062 154.596 436.935 159.358 436.935Z" fill="#0D005D"/>
<path d="M324.156 501.205L298.711 501.098L298.566 535.51L324.01 535.618L324.156 501.205Z" fill="#EEC4CB"/>
<path d="M285.313 516.996H339.625V498.673H285.313V516.996Z" fill="#64AEF9"/>
<path d="M240.752 363.793L238.967 374.817C235.098 398.205 253.252 419.508 276.911 419.508H288.22V516.34L335.389 516.936L338.067 398.354C338.365 379.435 323.336 363.942 304.439 363.942L240.752 363.793Z" fill="#B7DAFE"/>
<path d="M288.367 497.719H335.983" stroke="#0D005D" stroke-width="1.0285" stroke-miterlimit="10"/>
<path d="M298.337 530.641C304.289 532.28 317.979 536.451 324.377 527.215L367.38 550.454L291.492 550.008L294.915 532.876C295.063 531.237 296.7 530.194 298.337 530.641Z" fill="#0D005D"/>
<path d="M367.411 550.566L291.523 550.066L291.48 556.621L367.368 557.121L367.411 550.566Z" fill="white"/>
<path d="M323.927 537.344C324.076 537.195 324.225 537.195 324.374 536.897C327.201 533.024 329.879 531.236 330.028 531.087C330.623 530.789 330.772 530.044 330.326 529.448C330.028 528.853 329.135 528.704 328.689 529.15C328.54 529.299 325.564 531.236 322.439 535.407C321.993 536.003 322.142 536.748 322.737 537.046C323.183 537.493 323.63 537.493 323.927 537.344Z" fill="white"/>
<path d="M329.732 540.473C329.881 540.324 330.03 540.324 330.178 540.026C333.006 536.153 335.684 534.365 335.833 534.216C336.428 533.918 336.577 533.173 336.13 532.577C335.833 531.981 334.94 531.832 334.494 532.279C334.345 532.428 331.369 534.365 328.244 538.536C327.798 539.132 327.946 539.877 328.542 540.175C328.988 540.622 329.434 540.622 329.732 540.473Z" fill="white"/>
<path d="M335.685 543.602C335.834 543.453 335.983 543.453 336.131 543.155C338.959 539.282 341.637 537.494 341.786 537.345C342.381 537.047 342.53 536.302 342.083 535.706C341.786 535.11 340.893 534.961 340.447 535.408C340.298 535.557 337.322 537.494 334.197 541.665C333.751 542.261 333.899 543.006 334.495 543.304C334.792 543.602 335.239 543.751 335.685 543.602Z" fill="white"/>
<path d="M257.492 501.201L232.047 501.094L231.902 535.506L257.346 535.614L257.492 501.201Z" fill="#EEC4CB"/>
<path d="M232.119 529.149C238.071 530.788 251.611 536.002 258.01 526.766L301.013 550.005L225.125 549.558L228.696 531.384C228.994 529.745 230.482 528.702 232.119 529.149Z" fill="#0D005D"/>
<path d="M301.044 550.117L225.156 549.617L225.113 556.172L301.001 556.671L301.044 550.117Z" fill="white"/>
<path d="M257.56 536.895C257.709 536.746 257.858 536.746 258.006 536.448C260.834 532.575 263.512 530.787 263.661 530.638C264.256 530.34 264.405 529.595 263.958 528.999C263.661 528.403 262.768 528.254 262.322 528.701C262.173 528.85 259.197 530.787 256.072 534.958C255.626 535.554 255.774 536.299 256.37 536.597C256.816 537.044 257.262 537.044 257.56 536.895Z" fill="white"/>
<path d="M263.365 540.024C263.514 539.875 263.662 539.875 263.811 539.577C266.638 535.703 269.317 533.916 269.466 533.767C270.061 533.469 270.21 532.724 269.763 532.128C269.466 531.532 268.573 531.383 268.126 531.83C267.978 531.979 265.002 533.916 261.877 538.087C261.43 538.683 261.579 539.428 262.174 539.726C262.621 540.173 263.067 540.173 263.365 540.024Z" fill="white"/>
<path d="M269.318 543.153C269.467 543.004 269.615 543.004 269.764 542.706C272.591 538.832 275.27 537.045 275.419 536.896C276.014 536.598 276.163 535.853 275.716 535.257C275.419 534.661 274.526 534.512 274.079 534.959C273.931 535.108 270.955 537.045 267.83 541.216C267.383 541.812 267.532 542.557 268.127 542.855C268.425 543.153 268.871 543.301 269.318 543.153Z" fill="white"/>
<path d="M218.766 516.996H273.078V498.673H218.766V516.996Z" fill="#64AEF9"/>
<path d="M174.237 363.793L172.451 374.817C168.582 398.205 186.736 419.508 210.395 419.508H221.704V516.34L268.873 516.936L271.552 398.354C271.849 379.435 256.821 363.942 237.923 363.942L174.237 363.793Z" fill="#B7DAFE"/>
<path d="M221.703 498.164H269.319" stroke="#0D005D" stroke-width="1.0285" stroke-miterlimit="10"/>
<path d="M271.851 421.145L272 396.714C272 378.241 257.12 363.195 238.818 363.195H230.336" stroke="#0D005D" stroke-width="1.0285" stroke-miterlimit="10"/>
<path d="M285.095 245.656C285.095 245.656 308.605 277.685 325.122 315.524C327.056 319.844 326.61 324.76 324.08 328.633C318.277 337.423 303.248 335.337 297.445 327.293C297.445 327.293 253.103 266.214 254.888 263.682C255.335 263.086 285.095 245.656 285.095 245.656Z" fill="#4B3DE4"/>
<path d="M312.473 304.501L370.654 281.262L375.713 311.503L317.235 333.7C315.151 334.445 312.771 334.743 310.539 334.296C302.95 332.657 297.593 325.208 298.932 317.015C300.123 310.162 305.628 305.097 312.473 304.501Z" fill="#4B3DE4"/>
<path d="M239.707 237.465L279.882 242.679C284.049 243.275 286.876 246.85 286.578 251.021L260.539 363.942L174.086 363.793L186.288 251.468C185.841 247.297 188.817 243.424 192.983 242.977L239.707 237.465Z" fill="#4B3DE4"/>
<path d="M275.117 297.947C275.117 296.606 282.408 269.195 282.408 269.195" stroke="#0D005D" stroke-width="1.0285" stroke-miterlimit="10"/>
<path d="M253.695 239.4L261.135 240.293C261.135 240.293 264.408 252.807 247.148 253.999C229.143 255.339 222.001 248.636 218.578 239.697L238.368 235.824L253.695 239.4Z" fill="#EEC4CB"/>
<path d="M220.811 264.725C220.811 264.725 198.938 308.225 174.088 343.234C171.261 347.107 164.714 349.043 159.952 348.894C149.09 348.448 144.477 336.679 148.644 327.294C148.644 327.294 183.314 246.998 188.076 245.657C188.82 245.508 220.811 264.725 220.811 264.725Z" fill="#4B3DE4"/>
<path d="M245.803 333.4L227.055 331.91L227.501 350.83H243.869L245.803 333.4Z" fill="#EEC4CB"/>
<path d="M164.563 319.698L232.415 321.783L231.076 352.174L160.694 350.684C150.724 349.343 144.623 338.915 148.343 329.53C150.873 322.826 157.569 318.804 164.563 319.698Z" fill="#4B3DE4"/>
<path d="M207.716 281.41L189.711 320.441L232.416 321.632V331.912" stroke="#0D005D" stroke-width="1.0285" stroke-miterlimit="10"/>
<path d="M189.71 320.441L180.336 325.06" stroke="#0D005D" stroke-width="1.0285" stroke-miterlimit="10"/>
<path d="M244.469 333.4C244.469 333.4 287.769 316.715 282.859 350.83H241.344L244.469 333.4Z" fill="#EEC4CB"/>
<path d="M274.39 201.809C276.323 197.537 274.431 192.505 270.164 190.57C265.897 188.635 260.871 190.529 258.938 194.8C257.005 199.072 258.896 204.104 263.163 206.04C267.43 207.975 272.456 206.081 274.39 201.809Z" fill="#DC5871"/>
<path d="M256.524 210.648L252.506 240.889C251.762 249.381 245.81 249.381 237.478 248.636C230.335 247.891 224.383 245.21 224.234 238.059L227.359 205.285L256.524 210.648Z" fill="#EEC4CB"/>
<path d="M253.103 235.226L233.461 215.859L255.93 217.945L253.103 235.226Z" fill="#DC5871"/>
<path d="M241.197 221.225L251.018 222.268C260.987 223.311 269.915 215.714 270.51 205.732L271.998 183.089C272.742 171.916 264.41 162.084 253.399 161.041C241.941 159.849 229.888 168.043 228.698 179.513L227.507 205.285C227.061 213.479 233.162 220.481 241.197 221.225Z" fill="#EEC4CB"/>
<path d="M233.611 194.409L236.439 175.043C236.439 175.043 258.163 180.853 272.151 177.724L272.299 176.086C272.895 169.531 267.984 163.125 261.437 161.635C255.485 160.295 244.325 159.401 237.331 160.593C230.635 161.784 226.767 168.19 226.767 175.49L226.32 185.769L233.611 194.409Z" fill="#0D005D"/>
<path d="M232.419 195.75L227.359 207.519L227.657 200.368L232.419 195.75Z" fill="#0D005D"/>
<path d="M217.094 193.367C216.647 197.985 220.07 202.157 224.683 202.752C229.295 203.199 233.462 199.773 234.057 195.155C234.503 190.537 231.081 186.366 226.468 185.77C221.707 185.323 217.54 188.749 217.094 193.367Z" fill="#EEC4CB"/>
<path d="M228.255 196.942C228.255 196.942 228.85 190.834 222.898 191.132" stroke="#0D005D" stroke-width="0.7606" stroke-miterlimit="10" stroke-linecap="round" stroke-linejoin="round"/>
<path d="M259.803 197.238L260.1 203.942L257.422 203.644" stroke="#0D005D" stroke-width="0.7606" stroke-miterlimit="10" stroke-linecap="round" stroke-linejoin="round"/>
<path d="M249.83 186.065C249.83 186.065 254.443 185.768 254.294 188.3C254.294 188.3 254.145 189.939 250.128 190.088C246.11 190.237 245.068 189.79 244.771 188.151C244.622 186.661 247.747 186.065 249.83 186.065Z" fill="#0D005D"/>
<path d="M267.392 187.705C267.392 187.705 263.672 186.96 263.226 189.195C263.226 189.195 262.928 190.685 266.202 191.28C269.475 191.876 270.666 191.28 270.963 190.089C271.41 188.748 269.178 187.854 267.392 187.705Z" fill="#0D005D"/>
<path d="M259.357 207.22L246.56 205.879C246.56 205.879 246.113 210.348 253.553 211.093C258.464 211.689 259.357 207.22 259.357 207.22Z" fill="white"/>
<path d="M252.809 195.6C252.66 196.494 251.767 197.239 250.874 197.09C249.981 196.941 249.237 196.047 249.386 195.153C249.535 194.259 250.428 193.515 251.321 193.664C252.213 193.813 252.809 194.706 252.809 195.6Z" fill="#0D005D"/>
<path d="M267.981 196.495C267.832 197.389 266.939 198.133 266.046 197.984C265.153 197.835 264.409 196.942 264.558 196.048C264.707 195.154 265.6 194.409 266.493 194.558C267.385 194.707 267.981 195.601 267.981 196.495Z" fill="#0D005D"/>
<path d="M321.701 197.986L300.572 302.713C299.679 307.182 303.101 311.353 307.714 311.353H459.192C462.615 311.353 465.591 308.97 466.335 305.692L488.655 200.965C489.547 196.496 486.125 192.176 481.512 192.176H328.695C325.273 192.176 322.297 194.559 321.701 197.986Z" fill="#0D005D"/>
<path d="M328.545 202.904L307.564 307.631C306.671 312.1 310.094 316.271 314.706 316.271H466.184C469.607 316.271 472.583 313.888 473.327 310.61L495.647 205.883C496.54 201.414 493.117 197.094 488.504 197.094H335.538C332.116 197.094 329.14 199.626 328.545 202.904Z" fill="white"/>
<path d="M383.601 288.711L380.773 316.271H393.124L383.601 288.711Z" fill="#0D005D"/>
<path d="M383.602 288.113L396.25 350.085H441.931L420.504 288.113H383.602Z" fill="white"/>
<path d="M408.304 249.383C413.399 249.383 417.529 245.247 417.529 240.146C417.529 235.045 413.399 230.91 408.304 230.91C403.209 230.91 399.078 235.045 399.078 240.146C399.078 245.247 403.209 249.383 408.304 249.383Z" stroke="#B8B6F1" stroke-width="2.0283" stroke-miterlimit="10"/>
<path d="M469.609 345.469H314.858C313.519 345.469 312.328 346.512 312.328 348.001C312.328 349.342 313.37 350.534 314.858 350.534H469.609C470.949 350.534 472.139 349.491 472.139 348.001C471.99 346.661 470.949 345.469 469.609 345.469Z" fill="white"/>
<path d="M380.625 559.242L448.329 357.684L502.938 556.71" stroke="#0D005D" stroke-width="2.0283" stroke-miterlimit="10"/>
<path d="M66.3762 364.117L547.445 364.117V350.412L66.3762 350.412V364.117Z" fill="#0D005D"/>
<path d="M103.414 559.242L171.118 357.684L225.727 556.71" stroke="#0D005D" stroke-width="2.0283" stroke-miterlimit="10"/>
</g>
<defs>
<clipPath id="clip0_6357_274">
<rect width="626" height="559.686" fill="white"/>
</clipPath>
<clipPath id="clip1_6357_274">
<rect width="97" height="97" fill="white" transform="translate(0 103)"/>
</clipPath>
</defs>
</svg>
