<svg width="432" height="567" viewBox="0 0 432 567" fill="none" xmlns="http://www.w3.org/2000/svg">
<g clip-path="url(#clip0_2758_16941)">
<path d="M428.2 274.2L364.2 237.2C362.5 236.2 361.1 233.5 361.1 231.2V158.4C361.1 156.1 362.5 155.1 364.2 156L428.2 193C429.9 194 431.3 196.7 431.3 199V271.8C431.3 274.1 429.9 275.2 428.2 274.2Z" fill="url(#paint0_linear_2758_16941)"/>
<path d="M391.3 188L373.7 177.8C372.5 177.1 371.5 175.3 371.5 173.7C371.5 172.1 372.5 171.4 373.7 172.1L391.3 182.3C392.5 183 393.5 184.8 393.5 186.4C393.5 187.9 392.5 188.6 391.3 188Z" fill="white"/>
<path d="M419.4 215.1L373.7 188.7C372.5 188 371.5 186.2 371.5 184.6C371.5 183 372.5 182.3 373.7 183L419.4 209.4C420.6 210.1 421.6 211.9 421.6 213.5C421.6 215.1 420.6 215.8 419.4 215.1Z" fill="white"/>
<path d="M391.3 209.8L373.7 199.6C372.5 198.9 371.5 197.1 371.5 195.5C371.5 193.9 372.5 193.2 373.7 193.9L391.3 204.1C392.5 204.8 393.5 206.6 393.5 208.2C393.5 209.7 392.5 210.4 391.3 209.8Z" fill="white"/>
<path d="M418.4 225.4L400.8 215.2C399.6 214.5 398.6 212.7 398.6 211.1C398.6 209.5 399.6 208.8 400.8 209.5L418.4 219.7C419.6 220.4 420.6 222.2 420.6 223.8C420.6 225.3 419.6 226.1 418.4 225.4Z" fill="white"/>
<path d="M382.6 215.6L373.7 210.5C372.5 209.8 371.5 208 371.5 206.4C371.5 204.8 372.5 204.1 373.7 204.8L382.6 209.9C383.8 210.6 384.8 212.4 384.8 214C384.7 215.6 383.8 216.3 382.6 215.6Z" fill="white"/>
<path d="M415.2 245.3L373.7 221.3C372.5 220.6 371.5 218.8 371.5 217.2C371.5 215.6 372.5 214.9 373.7 215.6L415.2 239.6C416.4 240.3 417.4 242.1 417.4 243.7C417.4 245.3 416.4 246 415.2 245.3Z" fill="white"/>
<path d="M394.4 244.2L373.7 232.2C372.5 231.5 371.5 229.7 371.5 228.1C371.5 226.5 372.5 225.8 373.7 226.5L394.4 238.5C395.6 239.2 396.6 241 396.6 242.6C396.6 244.2 395.6 244.9 394.4 244.2Z" fill="white"/>
<path d="M339.8 206.3L254.3 157C252 155.7 250.1 152.1 250.1 149.1V51.8C250.1 48.7 252 47.3 254.3 48.7L339.8 98C342.1 99.3 344 102.9 344 105.9V203.1C343.9 206.2 342.1 207.6 339.8 206.3Z" fill="url(#paint1_linear_2758_16941)"/>
<path d="M280.4 79.9L262.8 69.7C261.6 69 260.6 67.2 260.6 65.6C260.6 64 261.6 63.3 262.8 64L280.4 74.2C281.6 74.9 282.6 76.7 282.6 78.3C282.6 79.9 281.6 80.6 280.4 79.9Z" fill="white"/>
<path d="M308.5 107L262.8 80.6C261.6 79.9 260.6 78.1 260.6 76.5C260.6 74.9 261.6 74.2 262.8 74.9L308.5 101.3C309.7 102 310.7 103.8 310.7 105.4C310.7 107 309.7 107.7 308.5 107Z" fill="white"/>
<path d="M280.4 101.7L262.8 91.5C261.6 90.8 260.6 89 260.6 87.4C260.6 85.8 261.6 85.1 262.8 85.8L280.4 96C281.6 96.7 282.6 98.5 282.6 100.1C282.6 101.6 281.6 102.4 280.4 101.7Z" fill="white"/>
<path d="M307.5 117.3L289.9 107.1C288.7 106.4 287.7 104.6 287.7 103C287.7 101.4 288.7 100.7 289.9 101.4L307.5 111.6C308.7 112.3 309.7 114.1 309.7 115.7C309.6 117.3 308.7 118 307.5 117.3Z" fill="white"/>
<path d="M330.4 130.6L316.8 122.8C315.6 122.1 314.6 120.3 314.6 118.7C314.6 117.1 315.6 116.4 316.8 117.1L330.4 124.9C331.6 125.6 332.6 127.4 332.6 129C332.6 130.5 331.6 131.2 330.4 130.6Z" fill="white"/>
<path d="M303.8 93.4L290.2 85.6C289 84.9 288 83.1 288 81.5C288 79.9 289 79.2 290.2 79.9L303.8 87.7C305 88.4 306 90.2 306 91.8C306 93.4 305 94.1 303.8 93.4Z" fill="white"/>
<path d="M327.2 106.9L313.6 99.1C312.4 98.4 311.4 96.6 311.4 95C311.4 93.4 312.4 92.7 313.6 93.4L327.2 101.2C328.4 101.9 329.4 103.7 329.4 105.3C329.3 106.9 328.4 107.6 327.2 106.9Z" fill="white"/>
<path d="M327.2 182.7L313.6 174.9C312.4 174.2 311.4 172.4 311.4 170.8C311.4 169.2 312.4 168.5 313.6 169.2L327.2 177C328.4 177.7 329.4 179.5 329.4 181.1C329.3 182.7 328.4 183.4 327.2 182.7Z" fill="white"/>
<path d="M271.6 107.5L262.7 102.4C261.5 101.7 260.5 99.9 260.5 98.3C260.5 96.7 261.5 96 262.7 96.7L271.6 101.8C272.8 102.5 273.8 104.3 273.8 105.9C273.8 107.5 272.8 108.2 271.6 107.5Z" fill="white"/>
<path d="M304.3 137.3L262.8 113.3C261.6 112.6 260.6 110.8 260.6 109.2C260.6 107.6 261.6 106.9 262.8 107.6L304.3 131.6C305.5 132.3 306.5 134.1 306.5 135.7C306.4 137.2 305.5 138 304.3 137.3Z" fill="white"/>
<path d="M304.3 159.4L262.8 135.4C261.6 134.7 260.6 132.9 260.6 131.3C260.6 129.7 261.6 129 262.8 129.7L304.3 153.7C305.5 154.4 306.5 156.2 306.5 157.8C306.4 159.4 305.5 160.1 304.3 159.4Z" fill="white"/>
<path d="M304.3 169.5L262.8 145.5C261.6 144.8 260.6 143 260.6 141.4C260.6 139.8 261.6 139.1 262.8 139.8L304.3 163.8C305.5 164.5 306.5 166.3 306.5 167.9C306.4 169.5 305.5 170.2 304.3 169.5Z" fill="white"/>
<path d="M283.5 136.2L262.8 124.2C261.6 123.5 260.6 121.7 260.6 120.1C260.6 118.5 261.6 117.8 262.8 118.5L283.5 130.5C284.7 131.2 285.7 133 285.7 134.6C285.6 136.1 284.7 136.9 283.5 136.2Z" fill="white"/>
<path d="M315.2 154.5L294.5 142.5C293.3 141.8 292.3 140 292.3 138.4C292.3 136.8 293.3 136.1 294.5 136.8L315.2 148.8C316.4 149.5 317.4 151.3 317.4 152.9C317.4 154.4 316.4 155.2 315.2 154.5Z" fill="white"/>
<path d="M209.6 139.9L134 96.2C132 95 130.3 91.9 130.3 89.2V3.2C130.3 0.499999 131.9 -0.800001 134 0.399999L209.6 44.1C211.6 45.3 213.3 48.4 213.3 51.1V137.1C213.3 139.9 211.6 141.1 209.6 139.9Z" fill="url(#paint2_linear_2758_16941)"/>
<path d="M160.5 32L142.9 21.8C141.7 21.1 140.7 19.3 140.7 17.7C140.7 16.1 141.7 15.4 142.9 16.1L160.5 26.3C161.7 27 162.7 28.8 162.7 30.4C162.7 31.9 161.7 32.7 160.5 32Z" fill="white"/>
<path d="M166.1 46.1L142.9 32.7C141.7 32 140.7 30.2 140.7 28.6C140.7 27 141.7 26.3 142.9 27L166.1 40.4C167.3 41.1 168.3 42.9 168.3 44.5C168.3 46.1 167.3 46.8 166.1 46.1Z" fill="white"/>
<path d="M201.9 66.8L174.9 51.2C173.7 50.5 172.7 48.7 172.7 47.1C172.7 45.5 173.7 44.8 174.9 45.5L201.9 61.1C203.1 61.8 204.1 63.6 204.1 65.2C204.1 66.7 203.1 67.5 201.9 66.8Z" fill="white"/>
<path d="M160.5 53.8L142.9 43.6C141.7 42.9 140.7 41.1 140.7 39.5C140.7 37.9 141.7 37.2 142.9 37.9L160.5 48C161.7 48.7 162.7 50.5 162.7 52.1C162.7 53.7 161.7 54.5 160.5 53.8Z" fill="white"/>
<path d="M187.6 69.4L170 59.2C168.8 58.5 167.8 56.7 167.8 55.1C167.8 53.5 168.8 52.8 170 53.5L187.6 63.7C188.8 64.4 189.8 66.2 189.8 67.8C189.7 69.4 188.8 70.1 187.6 69.4Z" fill="white"/>
<path d="M151.8 59.6L142.9 54.5C141.7 53.8 140.7 52 140.7 50.4C140.7 48.8 141.7 48.1 142.9 48.8L151.8 53.9C153 54.6 154 56.4 154 58C153.9 59.6 152.9 60.3 151.8 59.6Z" fill="white"/>
<path d="M184.4 89.3L142.9 65.3C141.7 64.6 140.7 62.8 140.7 61.2C140.7 59.6 141.7 58.9 142.9 59.6L184.4 83.6C185.6 84.3 186.6 86.1 186.6 87.7C186.6 89.3 185.6 90 184.4 89.3Z" fill="white"/>
<path d="M184.4 111.5L142.9 87.5C141.7 86.8 140.7 85 140.7 83.4C140.7 81.8 141.7 81.1 142.9 81.8L184.4 105.8C185.6 106.5 186.6 108.3 186.6 109.9C186.6 111.4 185.6 112.2 184.4 111.5Z" fill="white"/>
<path d="M201.9 121.6L192.5 116.2C191.3 115.5 190.3 113.7 190.3 112.1C190.3 110.5 191.3 109.8 192.5 110.5L201.9 115.9C203.1 116.6 204.1 118.4 204.1 120C204.1 121.6 203.1 122.3 201.9 121.6Z" fill="white"/>
<path d="M163.6 88.2L142.9 76.2C141.7 75.5 140.7 73.7 140.7 72.1C140.7 70.5 141.7 69.8 142.9 70.5L163.6 82.5C164.8 83.2 165.8 85 165.8 86.6C165.8 88.2 164.8 88.9 163.6 88.2Z" fill="white"/>
<path d="M409.4 160L333.8 116.3C331.8 115.1 330.1 112 330.1 109.3V23.3C330.1 20.6 331.7 19.3 333.8 20.5L409.4 64.2C411.4 65.4 413.1 68.5 413.1 71.2V157.2C413 159.9 411.4 161.2 409.4 160Z" fill="url(#paint3_linear_2758_16941)"/>
<path d="M360.3 52L342.7 41.8C341.5 41.1 340.5 39.3 340.5 37.7C340.5 36.1 341.5 35.4 342.7 36.1L360.3 46.3C361.5 47 362.5 48.8 362.5 50.4C362.5 52 361.5 52.7 360.3 52Z" fill="white"/>
<path d="M400.4 75.1L382.7 65C381.5 64.3 380.5 62.5 380.5 60.9C380.5 59.3 381.5 58.6 382.7 59.3L400.3 69.5C401.5 70.2 402.5 72 402.5 73.6C402.5 75.1 401.6 75.8 400.4 75.1Z" fill="white"/>
<path d="M374.8 60.4L368.2 56.6C367 55.9 366 54.1 366 52.5C366 50.9 367 50.2 368.2 50.9L374.8 54.7C376 55.4 377 57.2 377 58.8C377 60.4 376 61.1 374.8 60.4Z" fill="white"/>
<path d="M388.4 79.1L342.7 52.7C341.5 52 340.5 50.2 340.5 48.6C340.5 47 341.5 46.3 342.7 47L388.4 73.4C389.6 74.1 390.6 75.9 390.6 77.5C390.6 79.1 389.6 79.8 388.4 79.1Z" fill="white"/>
<path d="M360.3 73.8L342.7 63.6C341.5 62.9 340.5 61.1 340.5 59.5C340.5 57.9 341.5 57.2 342.7 57.9L360.3 68C361.5 68.7 362.5 70.5 362.5 72.1C362.5 73.8 361.5 74.5 360.3 73.8Z" fill="white"/>
<path d="M387.4 89.4L369.8 79.2C368.6 78.5 367.6 76.7 367.6 75.1C367.6 73.5 368.6 72.8 369.8 73.5L387.4 83.7C388.6 84.4 389.6 86.2 389.6 87.8C389.5 89.4 388.6 90.1 387.4 89.4Z" fill="white"/>
<path d="M351.5 79.6L342.6 74.5C341.4 73.8 340.4 72 340.4 70.4C340.4 68.8 341.4 68.1 342.6 68.8L351.5 73.9C352.7 74.6 353.7 76.4 353.7 78C353.7 79.6 352.7 80.3 351.5 79.6Z" fill="white"/>
<path d="M384.2 109.4L342.7 85.4C341.5 84.7 340.5 82.9 340.5 81.3C340.5 79.7 341.5 79 342.7 79.7L384.2 103.7C385.4 104.4 386.4 106.2 386.4 107.8C386.3 109.4 385.4 110.1 384.2 109.4Z" fill="white"/>
<path d="M363.4 108.3L342.7 96.3C341.5 95.6 340.5 93.8 340.5 92.2C340.5 90.6 341.5 89.9 342.7 90.6L363.4 102.6C364.6 103.3 365.6 105.1 365.6 106.7C365.5 108.2 364.6 109 363.4 108.3Z" fill="white"/>
<path d="M352.7 112.9L342.6 107.1C341.4 106.4 340.4 104.6 340.4 103C340.4 101.4 341.4 100.7 342.6 101.4L352.7 107.2C353.9 107.9 354.9 109.7 354.9 111.3C354.9 112.8 353.9 113.6 352.7 112.9Z" fill="white"/>
<path d="M371.3 123.6L361.2 117.8C360 117.1 359 115.3 359 113.7C359 112.1 360 111.4 361.2 112.1L371.3 117.9C372.5 118.6 373.5 120.4 373.5 122C373.5 123.6 372.5 124.3 371.3 123.6Z" fill="white"/>
<path d="M400.4 140.4L379.2 128.2C378 127.5 377 125.7 377 124.1C377 122.5 378 121.8 379.2 122.5L400.4 134.7C401.6 135.4 402.6 137.2 402.6 138.8C402.5 140.3 401.6 141.1 400.4 140.4Z" fill="white"/>
<path d="M279.5 566.1C277.9 566.1 276.6 564.8 276.6 563.2V397.2C276.6 395.6 277.9 394.3 279.5 394.3C281.1 394.3 282.4 395.6 282.4 397.2V563.3C282.4 564.8 281.1 566.1 279.5 566.1Z" fill="#233357"/>
<path d="M421.4 486.9C419.8 486.9 418.5 485.6 418.5 484V317.9C418.5 316.3 419.8 315 421.4 315C423 315 424.3 316.3 424.3 317.9V484C424.3 485.6 423 486.9 421.4 486.9Z" fill="#233357"/>
<path d="M11.3 411.7C9.70002 411.7 8.40002 410.4 8.40002 408.8V242.7C8.40002 241.1 9.70002 239.8 11.3 239.8C12.9 239.8 14.2 241.1 14.2 242.7V408.8C14.3 410.4 13 411.7 11.3 411.7Z" fill="#233357"/>
<path d="M428.4 316.4C429.8 317.2 429.8 318.6 428.4 319.4L283.4 403.7C282 404.5 279.7 404.5 278.2 403.7L1.49995 243.9C0.0999511 243.1 0.0999511 241.7 1.49995 240.9L146.5 156.6C147.9 155.8 150.2 155.8 151.7 156.6L428.4 316.4Z" fill="url(#paint4_linear_2758_16941)"/>
<path d="M428 319.4L283 403.7C281.6 404.5 279.3 404.5 277.8 403.7L1.1 243.9C0.4 243.5 0 242.9 0 242.4V247.2C0 247.7 0.4 248.3 1.1 248.7L277.8 408.5C279.2 409.3 281.6 409.3 283 408.5L428 324.2C428.7 323.8 429.1 323.2 429.1 322.7V317.9C429.1 318.4 428.7 319 428 319.4Z" fill="#233357"/>
<path d="M181 219.4L163.5 222.8L146 219.4C146 219.4 145.9 221.4 152.6 236C152.7 236.3 152.8 236.5 153 236.8C153 236.8 153 236.8 153 236.9C153.5 237.8 154.4 238.7 155.7 239.4C160.1 241.9 167.2 241.9 171.6 239.4C173.5 238.3 174.6 236.9 174.8 235.5C181 221.4 181 219.4 181 219.4Z" fill="url(#paint5_linear_2758_16941)"/>
<path d="M163.5 228.7C173.275 228.7 181.2 224.133 181.2 218.5C181.2 212.867 173.275 208.3 163.5 208.3C153.725 208.3 145.8 212.867 145.8 218.5C145.8 224.133 153.725 228.7 163.5 228.7Z" fill="white"/>
<path d="M163.5 227.5C158.9 227.5 154.5 226.4 151.3 224.4C148.6 222.7 147 220.5 147 218.5C147 216.4 148.6 214.2 151.3 212.6C154.5 210.6 158.9 209.5 163.5 209.5C168.1 209.5 172.5 210.6 175.7 212.6C178.4 214.3 180 216.5 180 218.5C180 220.6 178.4 222.8 175.7 224.4C172.5 226.4 168 227.5 163.5 227.5Z" fill="#233357"/>
<path d="M177.7 226C177.7 226 180 221.3 183.9 221.8C187.9 222.3 187.7 228.4 182.2 231C179 232.5 176.8 231 173.4 235.4" stroke="white" stroke-width="0.8505" stroke-miterlimit="10" stroke-linecap="round" stroke-linejoin="round"/>
<path d="M241 298L202.9 275.8V275L241 297.1V298Z" fill="#84C4ED"/>
<path d="M280.6 266.6L242.5 244.5C243.6 245.1 243.9 246.8 243.3 248.8C242.7 250.8 241.4 252.6 239.8 253.5L202.5 275L240.6 297.1L278 275.5C279.6 274.6 280.9 272.8 281.5 270.8C282 268.8 281.7 267.2 280.6 266.6Z" fill="url(#paint6_linear_2758_16941)"/>
<path d="M261.4 250.2L261.3 224.9L223.2 202.8L223.3 228.1C223.3 231.5 224.5 234 226.6 235.2L264.7 257.3C262.5 256.2 261.4 253.6 261.4 250.2Z" fill="url(#paint7_linear_2758_16941)"/>
<path d="M262.5 224.5L262.6 249.8C262.6 252.9 263.7 255.3 265.6 256.4L281.6 265.6C282.9 266.4 283.3 268.3 282.6 270.7C281.9 273.1 280.3 275.3 278.4 276.3L241 298V297.1L278.4 275.5C280 274.6 281.3 272.8 281.9 270.8C282.5 268.8 282.2 267.2 281.1 266.5L265.1 257.3C263 256.1 261.9 253.6 261.8 250.2L261.7 224.9L262.5 224.5Z" fill="#84C4ED"/>
<path d="M317.5 163.9L179.2 84.1C178.6 83.7 178 83.7 177.6 83.9L174.2 85.9C174.6 85.7 175.2 85.7 175.8 86.1L314 165.9C315.3 166.6 316.3 168.4 316.3 169.9L316 269.8C316 270.5 315.7 271 315.3 271.3L318.7 269.3C319.1 269.1 319.4 268.5 319.4 267.8L319.7 167.9C319.8 166.5 318.7 164.7 317.5 163.9Z" fill="url(#paint8_linear_2758_16941)"/>
<path d="M314.5 166C315.8 166.7 316.8 168.3 316.8 169.8L316.5 260.2L173.6 177.7L173.9 87.3C173.9 85.8 174.9 85.4 176.2 86.2L314.5 166Z" fill="#233357"/>
<path d="M316.5 260.2V269.6C316.5 271.1 315.5 271.9 314.2 271.1L175.9 191.3C174.6 190.6 173.6 188.6 173.6 187.1V177.7L316.5 260.2Z" fill="url(#paint9_linear_2758_16941)"/>
<path d="M296.2 251.9C296.7 252.2 297 252.8 297 253.4C297 253.9 296.6 254.2 296.2 253.9C295.7 253.6 295.4 253 295.4 252.4C295.4 251.9 295.7 251.7 296.2 251.9Z" fill="#DE5C94"/>
<path d="M307 258.2C307.5 258.5 307.8 259.1 307.8 259.7C307.8 260.2 307.4 260.5 306.9 260.2C306.4 259.9 306.1 259.3 306.1 258.7C306.1 258.1 306.5 257.9 307 258.2Z" fill="#DE5C94"/>
<path d="M211.4 156.3L181 138.8C180.2 138.3 179.6 137.1 179.6 136.1C179.6 135 180.2 134.6 181 135L211.4 152.5C212.2 153 212.8 154.2 212.8 155.2C212.8 156.3 212.1 156.8 211.4 156.3Z" fill="url(#paint10_linear_2758_16941)"/>
<path d="M192.7 152.7L181 146C180.2 145.5 179.6 144.3 179.6 143.3C179.6 142.2 180.2 141.8 181 142.2L192.7 149C193.5 149.5 194.1 150.7 194.1 151.7C194.1 152.7 193.5 153.2 192.7 152.7Z" fill="url(#paint11_linear_2758_16941)"/>
<path d="M210.7 163.1L199 156.3C198.2 155.8 197.6 154.6 197.6 153.6C197.6 152.5 198.2 152.1 199 152.5L210.7 159.3C211.5 159.8 212.1 161 212.1 162C212.1 163.1 211.5 163.6 210.7 163.1Z" fill="url(#paint12_linear_2758_16941)"/>
<path d="M186.9 156.6L181 153.2C180.2 152.7 179.6 151.5 179.6 150.5C179.6 149.4 180.2 149 181 149.4L186.9 152.8C187.7 153.3 188.3 154.5 188.3 155.5C188.3 156.6 187.7 157.1 186.9 156.6Z" fill="url(#paint13_linear_2758_16941)"/>
<path d="M208.5 176.4L181 160.5C180.2 160 179.6 158.8 179.6 157.8C179.6 156.7 180.2 156.3 181 156.7L208.6 172.6C209.4 173.1 210 174.3 210 175.3C210 176.3 209.3 176.8 208.5 176.4Z" fill="url(#paint14_linear_2758_16941)"/>
<path d="M194.7 175.6L181 167.7C180.2 167.2 179.6 166 179.6 165C179.6 163.9 180.2 163.5 181 163.9L194.7 171.8C195.5 172.3 196.1 173.5 196.1 174.5C196.2 175.6 195.5 176.1 194.7 175.6Z" fill="url(#paint15_linear_2758_16941)"/>
<path d="M187.7 178.7L181 174.8C180.2 174.3 179.6 173.1 179.6 172.1C179.6 171 180.2 170.6 181 171L187.7 174.9C188.5 175.4 189.1 176.6 189.1 177.6C189.1 178.7 188.5 179.1 187.7 178.7Z" fill="url(#paint16_linear_2758_16941)"/>
<path d="M200 185.8L193.3 181.9C192.5 181.4 191.9 180.2 191.9 179.2C191.9 178.1 192.5 177.7 193.3 178.1L200 182C200.8 182.5 201.4 183.7 201.4 184.7C201.4 185.8 200.8 186.3 200 185.8Z" fill="url(#paint17_linear_2758_16941)"/>
<path d="M219.3 196.9L205.2 188.8C204.4 188.3 203.8 187.1 203.8 186.1C203.8 185 204.4 184.6 205.2 185L219.3 193.1C220.1 193.6 220.7 194.8 220.7 195.8C220.7 196.9 220.1 197.4 219.3 196.9Z" fill="url(#paint18_linear_2758_16941)"/>
<path d="M263.5 322.4C264.8 323.1 265 324.2 263.7 325L225.7 347.1C224.4 347.8 222.2 347.9 220.9 347.2L82.6 267.4C81.3 266.7 81.5 265.4 82.8 264.6L120.8 242.5C122.1 241.8 124 241.9 125.2 242.6L263.5 322.4Z" fill="#F1F1F1"/>
<path d="M263.7 325L225.7 347.1C224.4 347.8 222.2 347.9 220.9 347.2L82.6 267.4C82 267.1 81.7 266.6 81.7 266.1V269.2C81.7 269.7 82 270.1 82.6 270.5L220.9 350.3C222.2 351 224.4 350.9 225.7 350.2L263.7 328.1C264.3 327.8 264.6 327.3 264.6 326.9V323.8C264.5 324.3 264.3 324.7 263.7 325Z" fill="url(#paint19_linear_2758_16941)"/>
<path d="M147.5 263.2L141.6 266.6L130.3 260.1L136.3 256.7L147.5 263.2Z" fill="url(#paint20_linear_2758_16941)"/>
<path d="M218.8 313.2L212.9 316.6L201.6 310.1L207.6 306.7L218.8 313.2Z" fill="url(#paint21_linear_2758_16941)"/>
<path d="M160.7 270.8L154.7 274.2L143.5 267.7L149.4 264.3L160.7 270.8Z" fill="url(#paint22_linear_2758_16941)"/>
<path d="M153.1 275.2L147.1 278.6L135.9 272.2L141.8 268.7L153.1 275.2Z" fill="url(#paint23_linear_2758_16941)"/>
<path d="M173.8 278.4L167.9 281.8L156.6 275.3L162.6 271.9L173.8 278.4Z" fill="url(#paint24_linear_2758_16941)"/>
<path d="M145.5 279.6L139.5 283.1L128.3 276.6L134.2 273.1L145.5 279.6Z" fill="url(#paint25_linear_2758_16941)"/>
<path d="M166.2 282.8L160.3 286.2L149 279.8L155 276.3L166.2 282.8Z" fill="url(#paint26_linear_2758_16941)"/>
<path d="M137.8 284L131.9 287.5L120.6 281L126.6 277.5L137.8 284Z" fill="url(#paint27_linear_2758_16941)"/>
<path d="M187 285.9L181 289.4L169.8 282.9L175.7 279.5L187 285.9Z" fill="url(#paint28_linear_2758_16941)"/>
<path d="M158.6 287.2L152.6 290.7L141.4 284.2L147.4 280.7L158.6 287.2Z" fill="url(#paint29_linear_2758_16941)"/>
<path d="M179.4 290.4L173.4 293.8L162.2 287.3L168.1 283.9L179.4 290.4Z" fill="url(#paint30_linear_2758_16941)"/>
<path d="M200.1 293.5L194.2 297L182.9 290.5L188.9 287.1L200.1 293.5Z" fill="url(#paint31_linear_2758_16941)"/>
<path d="M171.8 294.8L165.8 298.3L154.6 291.8L160.5 288.3L171.8 294.8Z" fill="url(#paint32_linear_2758_16941)"/>
<path d="M192.5 298L186.6 301.4L175.3 294.9L181.3 291.5L192.5 298Z" fill="url(#paint33_linear_2758_16941)"/>
<path d="M213.3 301.1L207.3 304.6L196.1 298.1L202.1 294.6L213.3 301.1Z" fill="url(#paint34_linear_2758_16941)"/>
<path d="M184.9 302.4L178.9 305.9L167.7 299.4L173.7 295.9L184.9 302.4Z" fill="url(#paint35_linear_2758_16941)"/>
<path d="M226.4 308.7L220.5 312.2L209.2 305.7L215.2 302.2L226.4 308.7Z" fill="url(#paint36_linear_2758_16941)"/>
<path d="M198.1 310L192.1 313.4L180.9 307L186.8 303.5L198.1 310Z" fill="url(#paint37_linear_2758_16941)"/>
<path d="M190.5 314.6L184.7 317.9L145.2 295L140.3 292.2L133.8 288.5L139.5 285.1L146 288.9L150.9 291.7L190.5 314.6Z" fill="url(#paint38_linear_2758_16941)"/>
<path d="M232 320.7L226 324.2L214.8 317.7L220.7 314.3L232 320.7Z" fill="url(#paint39_linear_2758_16941)"/>
<path d="M203.6 322L197.6 325.5L186.4 319L192.4 315.5L203.6 322Z" fill="url(#paint40_linear_2758_16941)"/>
<path d="M224.1 325.2L218.4 328.5L209.3 323.3L207.3 322.1L194.3 314.6L200 311.2L213 318.8L215 319.9L224.1 325.2Z" fill="url(#paint41_linear_2758_16941)"/>
<path d="M252.7 324.1L245.3 328.4L243.9 329.2L239.4 331.8L227.9 325.2L232.4 322.6L233.8 321.8L235.5 320.7L222.5 313.2L228.2 309.9L241.4 317.5L244.3 319.2L252.7 324.1Z" fill="url(#paint42_linear_2758_16941)"/>
<path d="M216.8 329.6L210.8 333.1L199.6 326.6L205.5 323.1L216.8 329.6Z" fill="url(#paint43_linear_2758_16941)"/>
<path d="M237.5 332.8L231.6 336.2L220.3 329.7L226.3 326.3L237.5 332.8Z" fill="url(#paint44_linear_2758_16941)"/>
<path d="M229.9 337.2L223.9 340.6L212.7 334.2L218.7 330.7L229.9 337.2Z" fill="url(#paint45_linear_2758_16941)"/>
<path d="M139.9 267.6L134 271.1L122.7 264.6L128.7 261.1L139.9 267.6Z" fill="url(#paint46_linear_2758_16941)"/>
<path d="M119.1 264.4L113.2 267.9L101.9 261.4L107.9 257.9L119.1 264.4Z" fill="url(#paint47_linear_2758_16941)"/>
<path d="M111.5 268.8L105.6 272.3L94.2999 265.8L100.3 262.4L111.5 268.8Z" fill="url(#paint48_linear_2758_16941)"/>
<path d="M126.8 260L120.8 263.5L109.6 257L115.5 253.5L126.8 260Z" fill="url(#paint49_linear_2758_16941)"/>
<path d="M134.4 255.6L128.4 259L117.2 252.6L123.1 249.1L134.4 255.6Z" fill="url(#paint50_linear_2758_16941)"/>
<path d="M205.7 305.6L199.7 309L188.5 302.5L194.4 299.1L205.7 305.6Z" fill="url(#paint51_linear_2758_16941)"/>
<path d="M124.7 276.4L118.7 279.9L107.5 273.4L113.5 270L124.7 276.4Z" fill="url(#paint52_linear_2758_16941)"/>
<path d="M132.3 272L126.3 275.5L115.1 269L121.1 265.5L132.3 272Z" fill="url(#paint53_linear_2758_16941)"/>
<path d="M315.7 326.6C316.4 326.2 317.1 325.8 317.8 325.5C327.2 321.2 328.6 327.4 328.7 327.7L293.4 348.1C295.5 344.7 306.5 331.9 315.7 326.6Z" fill="url(#paint54_linear_2758_16941)"/>
<path d="M307.2 313.5C305.6 312.6 303 312.3 298.5 314.3C297.8 314.6 297.1 315 296.4 315.4C287.2 320.7 276.2 333.5 274.1 336.9L293.4 348.1C295.5 344.7 306.5 331.9 315.7 326.6C316.4 326.2 317.1 325.8 317.8 325.5C322.2 323.5 324.9 323.8 326.5 324.7L307.2 313.5Z" fill="url(#paint55_linear_2758_16941)"/>
<path d="M304.5 322.5C305.7 321.8 307.7 320.8 308.8 320.4C308.8 320.4 308.5 317.9 305.9 318.4C304.2 318.8 302.6 321.7 302.5 323.7L303.6 324L305 323.2L304.4 322.6C304.5 322.5 304.5 322.5 304.5 322.5Z" fill="#DE5C94"/>
<path d="M303.6 324C303.6 324 307.2 321.7 309.3 321C309.3 321 308.6 318.3 307 318.7C305.4 319.1 303.8 322 303.6 324Z" fill="url(#paint56_linear_2758_16941)"/>
<path d="M149.1 168.1L125.6 172.6L102.1 168.1C102.1 168.1 102 170.8 110.9 190.3C111 190.7 111.2 191 111.4 191.3V191.4C112.1 192.6 113.3 193.8 115 194.7C120.9 198.1 130.4 198.1 136.2 194.7C138.7 193.2 140.2 191.4 140.5 189.5C149.2 170.8 149.1 168.1 149.1 168.1Z" fill="white"/>
<path d="M149.1 168.1L125.6 172.6L102.1 168.1C102.1 168.1 102 170.8 110.9 190.3C111 190.7 111.2 191 111.4 191.3V191.4C112.1 192.6 113.3 193.8 115 194.7C120.9 198.1 130.4 198.1 136.2 194.7C138.7 193.2 140.2 191.4 140.5 189.5C149.2 170.8 149.1 168.1 149.1 168.1Z" fill="url(#paint57_linear_2758_16941)"/>
<path d="M125.8 180.5C138.834 180.5 149.4 174.411 149.4 166.9C149.4 159.389 138.834 153.3 125.8 153.3C112.766 153.3 102.2 159.389 102.2 166.9C102.2 174.411 112.766 180.5 125.8 180.5Z" fill="#EAADCF"/>
<path d="M125.8 179.2C119.4 179.2 113.4 177.7 108.9 175C105.1 172.7 103 169.8 103 166.9C103 164.1 105.2 161.1 108.9 158.8C113.3 156.1 119.5 154.6 125.8 154.6C132.2 154.6 138.2 156.1 142.7 158.8C146.5 161.1 148.6 164 148.6 166.9C148.6 169.7 146.4 172.7 142.7 175C138.3 177.6 132.1 179.2 125.8 179.2Z" fill="#273054"/>
<path d="M125.8 170.9C124.8 170.9 123.9 170.7 123.2 170.3C122.6 170 122.3 169.5 122.3 169.1C122.3 168.7 122.6 168.2 123.2 167.9C123.9 167.5 124.8 167.3 125.8 167.3C126.8 167.3 127.7 167.5 128.4 167.9C129 168.2 129.3 168.7 129.3 169.1C129.3 169.5 129 170 128.4 170.3C127.7 170.7 126.8 170.9 125.8 170.9Z" fill="#5FA5C3"/>
<path d="M140.1 135.8C136.8 136.7 134 137.5 134 137.5L138.9 138.8C136.6 143.8 133.5 147.8 131.3 150.4C127 155.5 126.7 167.9 126.7 167.9L124.7 169.2C124.7 169.2 124.3 162.2 124.1 150.5C123.9 138.9 142.2 121.9 142.2 121.9C142.5 127 141.6 131.7 140.1 135.8Z" fill="#5FA5C3"/>
<path d="M125.4 168.9H121.8C121.8 168.9 111.6 153.3 102 150.1C97.2 148.5 90.1 145.8 83.2 141.3L88.9 136.4L78.9 138.3C73.7 134.2 68.8 128.9 65.3 122C65.3 122 102.3 129.3 111.4 144.4C120.4 159.6 125.4 168.9 125.4 168.9Z" fill="#5FA5C3"/>
<path d="M125.1 170.4C125.1 170.4 114.2 168.4 109.5 171C104.9 173.6 95.5 178 84 174.7C84 174.7 99.4 162.8 109.7 165.1C120 167.4 126.2 169 126.2 169L125.1 170.4Z" fill="#5FA5C3"/>
<path d="M139.7 479C139.7 479 136.9 485.7 136.1 489.3C136.1 489.3 134.4 494.6 143 497.9C151.6 501.2 158.8 495.1 160.4 492.7C160.4 492.7 183.2 492 191.7 481.8C200.3 471.5 192 468 184.9 469.8C177.9 471.6 156.3 474.7 152 474C147.7 473.3 139.7 479 139.7 479Z" fill="#263238"/>
<path d="M65.1 413.6C65.1 413.6 70.2001 428.4 94.9001 422C111.9 417.6 124.5 413.2 130.1 411.7C142.3 408.3 150.6 403.6 153.1 408.2C154.8 411.2 143.1 463.3 141.2 468.6C141.2 468.6 138.8 479.1 139.3 480.8C142.9 493.3 167.4 489.9 166.5 480.9C165.6 471.9 180.2 398.2 180.3 392.1C180.4 383.5 174.7 374.1 157.5 375.7C140.3 377.3 120.8 379.6 108.2 381.3C95.6 383 36.8 374.6 65.1 413.6Z" fill="#222629"/>
<path d="M99.6001 554.8H99.4001C98.5001 554.8 97.7001 554.1 97.7001 553.1V463.2C97.7001 462.3 98.4001 461.5 99.4001 461.5H99.6001C100.5 461.5 101.3 462.2 101.3 463.2V553.1C101.2 554 100.5 554.8 99.6001 554.8Z" fill="#233357"/>
<path d="M155.9 525.6H155.7C154.8 525.6 154 524.9 154 523.9V434C154 433.1 154.7 432.3 155.7 432.3H155.9C156.8 432.3 157.6 433 157.6 434V524C157.5 524.9 156.8 525.6 155.9 525.6Z" fill="#233357"/>
<path d="M35.3 516.6H35.1C34.2 516.6 33.4 515.9 33.4 514.9V425C33.4 424.1 34.1 423.3 35.1 423.3H35.3C36.2 423.3 37 424 37 425V515C37 515.9 36.2 516.6 35.3 516.6Z" fill="#233357"/>
<path d="M96.2 394.6L45.1 424.1C41.2 426.3 37.5 426.7 34.8 425.1L99.7 462.8C102.4 464.4 106.1 464 110 461.8L161.1 432.3L96.2 394.6Z" fill="url(#paint58_linear_2758_16941)"/>
<path d="M174.9 497.9C174.9 497.9 172.1 504.6 171.3 508.2C171.3 508.2 169.6 513.5 178.2 516.8C186.8 520.1 194 514 195.6 511.6C195.6 511.6 218.4 510.9 226.9 500.7C235.5 490.4 227.2 486.9 220.1 488.7C213.1 490.5 191.5 493.6 187.2 492.9C182.9 492.2 174.9 497.9 174.9 497.9Z" fill="#263238"/>
<path d="M202.4 403.1C201.4 394.5 194.6 385.9 177.7 389.6C160.8 393.3 141.7 398.1 129.5 401.3C117.3 404.6 57.9 403.5 90.8001 438.8C90.8001 438.8 97.7 452.8 121.4 443.4C137.7 436.9 149.7 431 155 428.8C166.7 423.9 174.4 418.2 177.4 422.4C177.5 422.5 177.6 422.8 177.7 423.2C176.8 428.3 175.5 437.2 175.7 445.7C175.7 446.5 175.7 447.2 175.8 448C176.1 453.3 176.1 458.6 175.6 463.8C174.7 473.6 173.7 481.8 173.3 483.8C173.3 483.8 172.3 494.6 173 496.2C178.1 508.2 202 501.7 200 492.9C197.7 484.1 203.1 409.1 202.4 403.1Z" fill="#222629"/>
<path d="M63.8 389.5C63.7 395 66.4 400.1 70.9 403.2C81.6 410.4 99.4001 419.8 109.3 421.2C133.1 424.6 135 409 135 409C135 409 134.3 315.8 131 296.5C129.2 286.2 121.2 281 112.8 275.5C111.7 274.8 110.7 274.1 109.8 273.6C103.5 269.7 96.2 267.3 88.7 267.4C86.7 267.4 84.9 267.6 83.2 267.9C74.8 269.5 71.1001 274.5 68.3001 278.6C66.5001 281.1 65.6 284.2 65.5 287.3L63.8 389.5Z" fill="#467BFA"/>
<path d="M114.6 287.4C114.6 287.4 102 291.7 105.3 306.8C105.3 306.8 123.2 358.1 150.6 361.2C178 364.3 208.9 348.7 212.4 344.6C212.4 344.6 208.3 334.5 204.7 334.3C201.1 334.2 172.2 343.1 159.2 342.4C146.2 341.7 143.8 334.1 140.5 327C137.3 319.8 130.1 282 114.6 287.4Z" fill="#467BFA"/>
<path d="M209.1 343.9C209.1 343.9 213.4 346.3 219.1 342.3C224.8 338.3 225.7 332.5 225.7 332.5C225.7 332.5 234.4 331.3 235.3 329.7C236.6 327.4 236.5 322.8 226.5 322.5C224.9 322.4 215.8 324.5 213.3 326.1C210.8 327.7 204.5 332.9 204.4 336.3C204.4 339.7 206.3 343.2 209.1 343.9Z" fill="#ECB59D"/>
<path d="M90.8001 325.8L101.2 383.4C102.6 390.5 102.7 398.5 101.6 407.2L96.1001 450.9C95.4001 456.1 96.6001 460.3 99.4001 462.4C102.2 464.5 106.2 464.3 110.4 461.9L161.5 432.4V433.6L110.4 463C105.8 465.6 101.5 465.8 98.6001 463.6C95.6001 461.3 94.3001 456.8 95.0001 451.2L100.5 407.5C101.6 399 101.4 391.2 100.1 384.1L89.7001 326.5L90.8001 325.8Z" fill="url(#paint59_linear_2758_16941)"/>
<path d="M89.8 326.6L24.8 288.9L25.9 288L90.8 325.8L89.8 326.6Z" fill="#F1F1F1"/>
<path d="M100.1 407.5C101.2 399 101 391.2 99.7 384.1L89.3 326.5L24.4 288.8L34.8 346.4C36.2 353.4 36.3 361.3 35.2 369.8L29.7 413.5C29 419.1 30.3 423.6 33.3 425.9C33.6 426.1 33.8 426.3 34.1 426.4L99 464.1C98.7 463.9 98.5 463.8 98.2 463.6C95.2 461.3 93.9 456.8 94.6 451.2L100.1 407.5Z" fill="url(#paint60_linear_2758_16941)"/>
<path d="M97.9001 253.2V271" stroke="#ECB59D" stroke-width="12.7122" stroke-miterlimit="10" stroke-linecap="round" stroke-linejoin="round"/>
<path d="M128 225.7C133.4 241.1 128.6 258.8 116.6 263C114.8 263.6 113 263.9 111.2 263.9C102.7 263.9 93.7001 257.7 88.1001 248.5C86.7001 246.1 85.4001 243.6 84.5001 240.9C84.4001 240.5 84.2001 240.1 84.1001 239.8C83.8001 239 83.6001 238.2 83.4001 237.4C81.1001 227.7 83.2001 218.8 88.4001 213C90.1001 211.1 92.1001 209.6 94.3001 208.4C95.2001 208 96.1001 207.6 97.0001 207.2C106.3 204 116.4 207.6 123.1 216.6C125.1 219.1 126.8 222.2 128 225.7Z" fill="#ECB59D"/>
<path d="M125.4 217.4C126.8 215.4 127.9 212.6 128 208.7C128 208.7 127.6 206.8 125.5 210.7C125 211.6 124.1 212.4 123 213.1C116.7 200.4 92.3001 188.9 82.2001 213.7C81.4001 213.1 80.2001 212.5 80.3001 213.8C80.3001 214.1 80.3001 214.5 80.4001 214.8C79.1001 214.1 76.3001 212.9 77.2001 215.4C77.6001 216.6 77.9001 217.6 78.3001 218.4C75.1001 222 71.9001 228.1 72.8001 235.1C73.6001 241.8 77.9001 249.9 83.0001 255.6C83.7001 256.3 84.4001 257 85.1001 257.7C85.4001 258.3 85.5001 259 85.1001 259.6C84.2001 260.9 84.8001 262.5 87.2001 263.2C90.8001 264.2 95.5001 264.2 98.3001 262.1C98.4001 262.3 98.5001 262.5 98.6001 262.7C100.2 265.6 102.7 264.5 101.6 262.7C100.8 261.3 101.1 259.6 102.2 258.5C105.6 255.1 108.1 250.6 110.8 249.3C115.9 246.6 105.8 240.7 110.2 236.8C113.5 233.9 116.8 242 119.5 239.4C121.5 237.4 116.4 232.1 115.7 228.6C118 228.3 124.2 226.8 126.8 217.7C126.9 217.4 126.9 216.1 125.4 217.4Z" fill="#233357"/>
<path d="M119.8 239.5C121.3 243.2 120.3 247.6 117.4 248.7C114.5 249.9 110.8 247.4 109.3 243.7C107.8 240 109.1 236.5 112 235.3C115 234.1 118.3 235.8 119.8 239.5Z" fill="#ECB59D"/>
<path d="M212.3 87C213.9 87.9 215.2 90.2 215.2 92L215 147.7C215 149.5 213.7 150.3 212.1 149.4L163.6 121.4C162 120.5 160.7 118.2 160.7 116.4L160.9 60.7C160.9 58.9 162.2 58.1 163.8 59L212.3 87Z" fill="#A5D5DB"/>
<path d="M216.3 84.4L167.8 56.4C167 55.9 166.3 55.9 165.7 56.2L161.2 58.8C161.7 58.5 162.5 58.5 163.3 59L211.8 87C213.4 87.9 214.7 90.2 214.7 92L214.5 147.7C214.5 148.6 214.2 149.3 213.7 149.6L218.2 147C218.7 146.7 219 146.1 219 145.1L219.2 89.4C219.2 87.6 217.9 85.3 216.3 84.4Z" fill="#5FA5C3"/>
<path d="M176.2 103.9C175.4 103 174.7 102.1 174.2 101L176 99.5C176.8 101.1 177.6 102.3 178.6 102.8C179.9 103.6 180.6 103.1 180.6 101.2V93.4L175.6 90.5V87.5L183.8 92.3V102.9C183.8 104.9 183.4 106.2 182.5 106.7C181.6 107.2 180.4 107 178.7 106C177.9 105.5 177 104.7 176.2 103.9Z" fill="white"/>
<path d="M188.6 111.1C187.6 110.1 186.7 109.2 186.1 108.3L187.2 106.1C187.8 107 188.5 107.8 189.4 108.6C190.2 109.4 191.1 110 191.9 110.5C192.8 111 193.5 111.3 194 111.2C194.4 111.1 194.7 110.8 194.7 110.3C194.7 109.9 194.6 109.5 194.3 109.1C194 108.7 193.7 108.3 193.3 107.9C192.9 107.5 192.3 107 191.6 106.4C190.5 105.5 189.6 104.7 188.9 104C188.2 103.3 187.6 102.5 187.1 101.6C186.6 100.7 186.4 99.6 186.4 98.6C186.4 97.6 186.6 96.9 187.1 96.4C187.5 95.9 188.2 95.7 189.1 95.7C190 95.8 191.1 96.2 192.4 96.9C193.3 97.4 194.2 98.1 195.1 98.8C196 99.5 196.7 100.3 197.4 101.2L196.4 103.5C195.1 101.9 193.8 100.7 192.5 99.9C191.6 99.4 190.9 99.1 190.5 99.2C190.1 99.3 189.8 99.6 189.8 100.2C189.8 100.8 190.1 101.3 190.6 101.9C191.1 102.5 191.9 103.2 192.9 104C194 104.9 194.9 105.7 195.6 106.4C196.3 107.1 196.9 107.9 197.4 108.8C197.9 109.7 198.1 110.7 198.1 111.8C198.1 112.7 197.9 113.5 197.4 114C196.9 114.5 196.3 114.7 195.4 114.7C194.5 114.7 193.4 114.2 192.1 113.5C190.7 112.9 189.6 112.1 188.6 111.1Z" fill="white"/>
<path d="M289.3 41.5C290.9 42.4 292.2 44.7 292.2 46.5L292 102.2C292 104 290.7 104.8 289.1 103.9L240.6 75.9C239 75 237.7 72.7 237.7 70.9L237.9 15.2C237.9 13.4 239.2 12.6 240.8 13.5L289.3 41.5Z" fill="#6884FA"/>
<path d="M293.4 38.9L244.9 10.9C244.1 10.4 243.4 10.4 242.8 10.7L238.3 13.3C238.8 13 239.6 13 240.4 13.5L288.9 41.5C290.5 42.4 291.8 44.7 291.8 46.5L291.6 102.2C291.6 103.1 291.3 103.8 290.8 104.1L295.3 101.5C295.8 101.2 296.1 100.6 296.1 99.6L296.3 43.9C296.3 42.1 295 39.9 293.4 38.9Z" fill="#455ECF"/>
<path d="M249.3 57.1C248.1 55.7 247.2 54.2 246.5 52.5C245.8 50.8 245.5 49.2 245.5 47.6C245.5 46 245.8 44.7 246.5 43.8C247.2 42.9 248.1 42.4 249.3 42.4C250.5 42.3 251.8 42.7 253.2 43.6C254.4 44.3 255.5 45.2 256.5 46.3C257.5 47.4 258.3 48.6 259 49.9L256.9 50.9C255.9 49.1 254.8 47.7 253.3 46.9C252.4 46.4 251.6 46.2 251 46.2C250.3 46.2 249.8 46.6 249.4 47.1C249 47.7 248.8 48.5 248.8 49.5C248.8 50.5 249 51.5 249.4 52.5C249.8 53.5 250.3 54.4 251 55.3C251.7 56.1 252.5 56.8 253.3 57.3C254.7 58.1 255.9 58.2 256.9 57.4L259 60.9C258.3 61.5 257.5 61.7 256.5 61.6C255.5 61.5 254.4 61.1 253.2 60.4C251.8 59.7 250.5 58.5 249.3 57.1Z" fill="white"/>
<path d="M262.5 65.4C261.5 64.4 260.6 63.5 260 62.6L261.1 60.4C261.7 61.3 262.4 62.1 263.3 62.9C264.1 63.7 265 64.3 265.8 64.8C266.7 65.3 267.4 65.6 267.9 65.5C268.3 65.4 268.6 65.1 268.6 64.6C268.6 64.2 268.5 63.8 268.2 63.4C267.9 63 267.6 62.6 267.2 62.2C266.8 61.8 266.2 61.3 265.5 60.7C264.4 59.8 263.5 59 262.8 58.3C262.1 57.6 261.5 56.8 261 55.9C260.5 55 260.3 53.9 260.3 52.9C260.3 51.9 260.5 51.2 261 50.7C261.4 50.2 262.1 50 263 50C263.9 50.1 265 50.5 266.3 51.2C267.2 51.7 268.1 52.4 269 53.1C269.9 53.8 270.6 54.6 271.3 55.5L270.3 57.8C269 56.2 267.7 55 266.4 54.2C265.5 53.7 264.8 53.4 264.4 53.5C264 53.6 263.7 53.9 263.7 54.5C263.7 55.1 264 55.6 264.5 56.2C265 56.8 265.8 57.5 266.8 58.3C267.9 59.2 268.8 60 269.5 60.7C270.2 61.4 270.8 62.2 271.3 63.1C271.8 64 272 65 272 66.1C272 67 271.8 67.8 271.3 68.3C270.8 68.8 270.2 69 269.3 69C268.4 69 267.3 68.5 266 67.8C264.7 67.1 263.6 66.3 262.5 65.4Z" fill="white"/>
<path d="M275.5 72.8C274.5 71.8 273.6 70.9 273 70L274.1 67.8C274.7 68.7 275.4 69.5 276.3 70.3C277.1 71.1 278 71.7 278.8 72.2C279.7 72.7 280.4 73 280.9 72.9C281.3 72.8 281.6 72.5 281.6 72C281.6 71.6 281.5 71.2 281.2 70.8C280.9 70.4 280.6 70 280.2 69.6C279.8 69.2 279.2 68.7 278.5 68.1C277.4 67.2 276.5 66.4 275.8 65.7C275.1 65 274.5 64.2 274 63.3C273.5 62.4 273.3 61.3 273.3 60.3C273.3 59.3 273.5 58.6 274 58.1C274.4 57.6 275.1 57.4 276 57.4C276.9 57.5 278 57.9 279.3 58.6C280.2 59.1 281.1 59.8 282 60.5C282.9 61.2 283.6 62 284.3 62.9L283.3 65.2C282 63.6 280.7 62.4 279.4 61.6C278.5 61.1 277.8 60.8 277.4 60.9C277 61 276.7 61.3 276.7 61.9C276.7 62.5 277 63 277.5 63.6C278 64.2 278.8 64.9 279.8 65.7C280.9 66.6 281.8 67.4 282.5 68.1C283.2 68.8 283.8 69.6 284.3 70.5C284.8 71.4 285 72.4 285 73.5C285 74.4 284.8 75.2 284.3 75.7C283.8 76.2 283.2 76.4 282.3 76.4C281.4 76.3 280.3 75.9 279 75.2C277.6 74.6 276.5 73.8 275.5 72.8Z" fill="white"/>
<path d="M229 162.6L232.3 164.5V177.8L239.4 181.9V185L229 179V162.6Z" fill="white"/>
<path d="M249.4 179.4C250.3 180.8 250.8 182.5 250.8 184.4V191.6L247.8 189.9V188.3C247.2 189.1 246.1 189.1 244.5 188.1C243.7 187.6 242.9 187 242.3 186.4C241.7 185.7 241.2 185 240.9 184.2C240.6 183.4 240.4 182.7 240.4 182C240.4 180.8 240.8 180.1 241.5 179.9C242.2 179.7 243.4 180 245 180.9L247.5 182.3C247.5 181.5 247.3 180.8 246.9 180.1C246.5 179.4 245.9 178.9 245 178.4C244.4 178.1 243.8 177.8 243.3 177.7C242.7 177.6 242.3 177.6 241.9 177.7L240.8 174.5C241.4 174.4 242.1 174.4 242.9 174.6C243.7 174.8 244.6 175.2 245.5 175.7C247.2 176.7 248.5 177.9 249.4 179.4ZM246.7 186.5C247.1 186.5 247.4 186.2 247.6 185.7V184.4L245.4 183.1C244.1 182.4 243.5 182.5 243.5 183.5C243.5 184 243.7 184.4 244 184.9C244.3 185.4 244.8 185.7 245.3 186.1C245.9 186.4 246.3 186.5 246.7 186.5Z" fill="white"/>
<path d="M258.2 183.5C258.8 183.6 259.6 183.8 260.4 184.3V187.7C260 187.5 259.8 187.3 259.7 187.2C258.8 186.7 258.1 186.6 257.6 186.8C257.1 187.1 256.8 187.8 256.8 189V194.9L253.6 193.1V180.5L256.6 182.2V183.9C257 183.6 257.6 183.4 258.2 183.5Z" fill="white"/>
<path d="M270.5 191.5C271.4 192.9 271.9 194.6 271.9 196.5V203.7L268.9 202V200.4C268.3 201.2 267.2 201.2 265.6 200.2C264.8 199.7 264 199.1 263.4 198.5C262.8 197.9 262.3 197.1 262 196.3C261.7 195.5 261.5 194.8 261.5 194.1C261.5 192.9 261.9 192.2 262.6 192C263.4 191.8 264.5 192.1 266.1 193L268.6 194.4C268.6 193.6 268.4 192.9 268 192.2C267.6 191.5 267 191 266.1 190.5C265.5 190.2 264.9 189.9 264.4 189.8C263.8 189.7 263.4 189.7 263 189.8L261.9 186.6C262.5 186.5 263.2 186.5 264 186.7C264.8 186.9 265.7 187.3 266.6 187.8C268.3 188.9 269.6 190.1 270.5 191.5ZM267.8 198.6C268.2 198.6 268.5 198.3 268.7 197.8V196.5L266.5 195.2C265.2 194.5 264.6 194.6 264.6 195.6C264.6 196.1 264.8 196.5 265.1 197C265.4 197.5 265.9 197.8 266.4 198.2C266.9 198.6 267.4 198.7 267.8 198.6Z" fill="white"/>
<path d="M285.3 198.9L280.7 208.8L277.4 206.9L272.8 191.7L276.1 193.6L279.1 203.9L282.2 197.1L285.3 198.9Z" fill="white"/>
<path d="M296.9 212.9L288.7 208.1C288.8 209 289.2 209.8 289.8 210.6C290.4 211.4 291 212 291.9 212.5C292.5 212.8 293 213 293.4 213.1C293.8 213.2 294.2 213.1 294.6 212.9L296.3 216C295.3 216.8 293.8 216.6 291.8 215.4C290.6 214.7 289.5 213.8 288.5 212.7C287.6 211.6 286.8 210.4 286.3 209.1C285.8 207.8 285.5 206.6 285.5 205.3C285.5 204.1 285.8 203.1 286.3 202.4C286.8 201.7 287.5 201.3 288.4 201.3C289.3 201.3 290.3 201.6 291.4 202.2C292.5 202.8 293.4 203.6 294.3 204.7C295.2 205.8 295.8 206.9 296.3 208.2C296.8 209.5 297 210.8 297 212.1C297 212 297 212.3 296.9 212.9ZM289.5 204.6C289 204.8 288.7 205.3 288.6 206L294 209.1C293.9 208.2 293.6 207.4 293.1 206.7C292.6 206 292 205.4 291.3 205C290.6 204.5 290 204.4 289.5 204.6Z" fill="white"/>
<path d="M299.1 202L302.3 203.8V221.1L299.1 219.3V202Z" fill="white"/>
<path d="M400.5 225.9C402.1 226.8 403.4 229.1 403.4 230.9L403.2 286.6C403.2 288.4 401.9 289.2 400.3 288.3L351.8 260.3C350.2 259.4 348.9 257.1 348.9 255.3L349.1 199.6C349.1 197.8 350.4 197 352 197.9L400.5 225.9Z" fill="#8D69F9"/>
<path d="M404.5 223.4L356 195.4C355.2 194.9 354.5 194.9 353.9 195.2L349.4 197.8C349.9 197.5 350.7 197.5 351.5 198L400 226C401.6 226.9 402.9 229.2 402.9 231L402.7 286.7C402.7 287.6 402.4 288.3 401.9 288.6L406.4 286C406.9 285.7 407.2 285.1 407.2 284.1L407.4 228.4C407.4 226.5 406.1 224.3 404.5 223.4Z" fill="#5D3DE2"/>
<path d="M364.4 227.9C365.3 228.9 366 230 366.5 231.2C367 232.4 367.2 233.6 367.2 234.8C367.2 236 366.9 236.9 366.5 237.5C366 238.1 365.3 238.4 364.4 238.3C363.5 238.2 362.4 237.8 361.1 237.1L358.2 235.5V240L354.9 238.1V221.7L361 225.2C362.4 226 363.5 226.9 364.4 227.9ZM363.2 234.5C363.7 234.3 364 233.8 364 232.9C364 232 363.7 231.1 363.2 230.3C362.7 229.5 361.9 228.8 361 228.3L358.3 226.8V232.5L361 234C362 234.5 362.7 234.7 363.2 234.5Z" fill="white"/>
<path d="M382.6 237.7V254L379.3 252.1V245.4L372.9 241.7V248.4L369.6 246.5V230.1L372.9 232V238.5L379.3 242.2V235.7L382.6 237.7Z" fill="white"/>
<path d="M395.4 245.8C396.3 246.8 397 247.9 397.5 249.1C398 250.3 398.2 251.5 398.2 252.7C398.2 253.9 397.9 254.8 397.5 255.4C397 256 396.3 256.3 395.4 256.2C394.5 256.1 393.4 255.8 392.1 255L389.2 253.4V257.9L386 256V239.6L392.1 243.1C393.4 243.9 394.5 244.8 395.4 245.8ZM394.2 252.4C394.7 252.2 395 251.7 395 250.8C395 249.9 394.7 249 394.2 248.2C393.7 247.4 392.9 246.7 392 246.2L389.3 244.7V250.4L392 251.9C392.9 252.4 393.7 252.6 394.2 252.4Z" fill="white"/>
</g>
<defs>
<linearGradient id="paint0_linear_2758_16941" x1="361.074" y1="215.133" x2="431.309" y2="215.133" gradientUnits="userSpaceOnUse">
<stop stop-color="#8FD499"/>
<stop offset="1" stop-color="#3C6BF9"/>
</linearGradient>
<linearGradient id="paint1_linear_2758_16941" x1="250.148" y1="127.474" x2="343.945" y2="127.474" gradientUnits="userSpaceOnUse">
<stop stop-color="#8FD499"/>
<stop offset="1" stop-color="#3C6BF9"/>
</linearGradient>
<linearGradient id="paint2_linear_2758_16941" x1="130.259" y1="70.1903" x2="213.252" y2="70.1903" gradientUnits="userSpaceOnUse">
<stop stop-color="#8FD499"/>
<stop offset="1" stop-color="#3C6BF9"/>
</linearGradient>
<linearGradient id="paint3_linear_2758_16941" x1="330.049" y1="90.2349" x2="413.041" y2="90.2349" gradientUnits="userSpaceOnUse">
<stop stop-color="#8FD499"/>
<stop offset="1" stop-color="#3C6BF9"/>
</linearGradient>
<linearGradient id="paint4_linear_2758_16941" x1="0.434151" y1="280.14" x2="429.493" y2="280.14" gradientUnits="userSpaceOnUse">
<stop stop-color="white"/>
<stop offset="1" stop-color="#C7DDF4" stop-opacity="0.4"/>
</linearGradient>
<linearGradient id="paint5_linear_2758_16941" x1="145.87" y1="230.293" x2="180.966" y2="230.293" gradientUnits="userSpaceOnUse">
<stop stop-color="white"/>
<stop offset="1" stop-color="#B1D2EA"/>
</linearGradient>
<linearGradient id="paint6_linear_2758_16941" x1="202.513" y1="270.758" x2="281.739" y2="270.758" gradientUnits="userSpaceOnUse">
<stop stop-color="white"/>
<stop offset="1" stop-color="#B1D2EA"/>
</linearGradient>
<linearGradient id="paint7_linear_2758_16941" x1="208.768" y1="209.312" x2="270.869" y2="246.032" gradientUnits="userSpaceOnUse">
<stop stop-color="white"/>
<stop offset="1" stop-color="#B1D2EA"/>
</linearGradient>
<linearGradient id="paint8_linear_2758_16941" x1="174.127" y1="177.535" x2="319.766" y2="177.535" gradientUnits="userSpaceOnUse">
<stop stop-color="white"/>
<stop offset="1" stop-color="#384680"/>
</linearGradient>
<linearGradient id="paint9_linear_2758_16941" x1="173.589" y1="224.563" x2="316.505" y2="224.563" gradientUnits="userSpaceOnUse">
<stop stop-color="white"/>
<stop offset="1" stop-color="#B1D2EA"/>
</linearGradient>
<linearGradient id="paint10_linear_2758_16941" x1="142.587" y1="115.538" x2="276.492" y2="190.702" gradientUnits="userSpaceOnUse">
<stop stop-color="#DE5A71" stop-opacity="0.7"/>
<stop offset="0.1248" stop-color="#E06671" stop-opacity="0.6626"/>
<stop offset="0.7119" stop-color="#E79970" stop-opacity="0.4864"/>
<stop offset="1" stop-color="#EAAD70" stop-opacity="0.4"/>
</linearGradient>
<linearGradient id="paint11_linear_2758_16941" x1="139.563" y1="120.925" x2="273.469" y2="196.089" gradientUnits="userSpaceOnUse">
<stop stop-color="#DE5A71" stop-opacity="0.7"/>
<stop offset="0.1248" stop-color="#E06671" stop-opacity="0.6626"/>
<stop offset="0.7119" stop-color="#E79970" stop-opacity="0.4864"/>
<stop offset="1" stop-color="#EAAD70" stop-opacity="0.4"/>
</linearGradient>
<linearGradient id="paint12_linear_2758_16941" x1="139.44" y1="121.144" x2="273.345" y2="196.308" gradientUnits="userSpaceOnUse">
<stop stop-color="#DE5A71" stop-opacity="0.7"/>
<stop offset="0.1248" stop-color="#E06671" stop-opacity="0.6626"/>
<stop offset="0.7119" stop-color="#E79970" stop-opacity="0.4864"/>
<stop offset="1" stop-color="#EAAD70" stop-opacity="0.4"/>
</linearGradient>
<linearGradient id="paint13_linear_2758_16941" x1="136.495" y1="126.391" x2="270.401" y2="201.554" gradientUnits="userSpaceOnUse">
<stop stop-color="#DE5A71" stop-opacity="0.7"/>
<stop offset="0.1248" stop-color="#E06671" stop-opacity="0.6626"/>
<stop offset="0.7119" stop-color="#E79970" stop-opacity="0.4864"/>
<stop offset="1" stop-color="#EAAD70" stop-opacity="0.4"/>
</linearGradient>
<linearGradient id="paint14_linear_2758_16941" x1="133.333" y1="132.024" x2="267.238" y2="207.187" gradientUnits="userSpaceOnUse">
<stop stop-color="#DE5A71" stop-opacity="0.7"/>
<stop offset="0.1248" stop-color="#E06671" stop-opacity="0.6626"/>
<stop offset="0.7119" stop-color="#E79970" stop-opacity="0.4864"/>
<stop offset="1" stop-color="#EAAD70" stop-opacity="0.4"/>
</linearGradient>
<linearGradient id="paint15_linear_2758_16941" x1="130.293" y1="137.44" x2="264.199" y2="212.604" gradientUnits="userSpaceOnUse">
<stop stop-color="#DE5A71" stop-opacity="0.7"/>
<stop offset="0.1248" stop-color="#E06671" stop-opacity="0.6626"/>
<stop offset="0.7119" stop-color="#E79970" stop-opacity="0.4864"/>
<stop offset="1" stop-color="#EAAD70" stop-opacity="0.4"/>
</linearGradient>
<linearGradient id="paint16_linear_2758_16941" x1="127.274" y1="142.818" x2="261.179" y2="217.982" gradientUnits="userSpaceOnUse">
<stop stop-color="#DE5A71" stop-opacity="0.7"/>
<stop offset="0.1248" stop-color="#E06671" stop-opacity="0.6626"/>
<stop offset="0.7119" stop-color="#E79970" stop-opacity="0.4864"/>
<stop offset="1" stop-color="#EAAD70" stop-opacity="0.4"/>
</linearGradient>
<linearGradient id="paint17_linear_2758_16941" x1="127.189" y1="142.969" x2="261.095" y2="218.133" gradientUnits="userSpaceOnUse">
<stop stop-color="#DE5A71" stop-opacity="0.7"/>
<stop offset="0.1248" stop-color="#E06671" stop-opacity="0.6626"/>
<stop offset="0.7119" stop-color="#E79970" stop-opacity="0.4864"/>
<stop offset="1" stop-color="#EAAD70" stop-opacity="0.4"/>
</linearGradient>
<linearGradient id="paint18_linear_2758_16941" x1="127.083" y1="143.158" x2="260.988" y2="218.322" gradientUnits="userSpaceOnUse">
<stop stop-color="#DE5A71" stop-opacity="0.7"/>
<stop offset="0.1248" stop-color="#E06671" stop-opacity="0.6626"/>
<stop offset="0.7119" stop-color="#E79970" stop-opacity="0.4864"/>
<stop offset="1" stop-color="#EAAD70" stop-opacity="0.4"/>
</linearGradient>
<linearGradient id="paint19_linear_2758_16941" x1="81.71" y1="308.452" x2="264.532" y2="308.452" gradientUnits="userSpaceOnUse">
<stop stop-color="white"/>
<stop offset="1" stop-color="#384680"/>
</linearGradient>
<linearGradient id="paint20_linear_2758_16941" x1="79.488" y1="227.378" x2="269.569" y2="336.999" gradientUnits="userSpaceOnUse">
<stop stop-color="white"/>
<stop offset="1" stop-color="#384680"/>
</linearGradient>
<linearGradient id="paint21_linear_2758_16941" x1="75.6525" y1="234.03" x2="265.734" y2="343.65" gradientUnits="userSpaceOnUse">
<stop stop-color="white"/>
<stop offset="1" stop-color="#384680"/>
</linearGradient>
<linearGradient id="paint22_linear_2758_16941" x1="79.4839" y1="227.384" x2="269.567" y2="337.005" gradientUnits="userSpaceOnUse">
<stop stop-color="white"/>
<stop offset="1" stop-color="#384680"/>
</linearGradient>
<linearGradient id="paint23_linear_2758_16941" x1="75.6701" y1="233.997" x2="265.754" y2="343.62" gradientUnits="userSpaceOnUse">
<stop stop-color="white"/>
<stop offset="1" stop-color="#384680"/>
</linearGradient>
<linearGradient id="paint24_linear_2758_16941" x1="79.4808" y1="227.391" x2="269.562" y2="337.012" gradientUnits="userSpaceOnUse">
<stop stop-color="white"/>
<stop offset="1" stop-color="#384680"/>
</linearGradient>
<linearGradient id="paint25_linear_2758_16941" x1="71.8554" y1="240.612" x2="261.939" y2="350.233" gradientUnits="userSpaceOnUse">
<stop stop-color="white"/>
<stop offset="1" stop-color="#384680"/>
</linearGradient>
<linearGradient id="paint26_linear_2758_16941" x1="75.6666" y1="234.004" x2="265.75" y2="343.625" gradientUnits="userSpaceOnUse">
<stop stop-color="white"/>
<stop offset="1" stop-color="#384680"/>
</linearGradient>
<linearGradient id="paint27_linear_2758_16941" x1="68.0421" y1="247.225" x2="258.124" y2="356.846" gradientUnits="userSpaceOnUse">
<stop stop-color="white"/>
<stop offset="1" stop-color="#384680"/>
</linearGradient>
<linearGradient id="paint28_linear_2758_16941" x1="79.4759" y1="227.397" x2="269.56" y2="337.019" gradientUnits="userSpaceOnUse">
<stop stop-color="white"/>
<stop offset="1" stop-color="#384680"/>
</linearGradient>
<linearGradient id="paint29_linear_2758_16941" x1="71.8521" y1="240.618" x2="261.934" y2="350.239" gradientUnits="userSpaceOnUse">
<stop stop-color="white"/>
<stop offset="1" stop-color="#384680"/>
</linearGradient>
<linearGradient id="paint30_linear_2758_16941" x1="75.6628" y1="234.01" x2="265.746" y2="343.632" gradientUnits="userSpaceOnUse">
<stop stop-color="white"/>
<stop offset="1" stop-color="#384680"/>
</linearGradient>
<linearGradient id="paint31_linear_2758_16941" x1="79.4738" y1="227.404" x2="269.555" y2="337.025" gradientUnits="userSpaceOnUse">
<stop stop-color="white"/>
<stop offset="1" stop-color="#384680"/>
</linearGradient>
<linearGradient id="paint32_linear_2758_16941" x1="71.8477" y1="240.624" x2="261.931" y2="350.246" gradientUnits="userSpaceOnUse">
<stop stop-color="white"/>
<stop offset="1" stop-color="#384680"/>
</linearGradient>
<linearGradient id="paint33_linear_2758_16941" x1="75.6593" y1="234.017" x2="265.742" y2="343.638" gradientUnits="userSpaceOnUse">
<stop stop-color="white"/>
<stop offset="1" stop-color="#384680"/>
</linearGradient>
<linearGradient id="paint34_linear_2758_16941" x1="79.4689" y1="227.41" x2="269.552" y2="337.031" gradientUnits="userSpaceOnUse">
<stop stop-color="white"/>
<stop offset="1" stop-color="#384680"/>
</linearGradient>
<linearGradient id="paint35_linear_2758_16941" x1="71.8455" y1="240.631" x2="261.926" y2="350.252" gradientUnits="userSpaceOnUse">
<stop stop-color="white"/>
<stop offset="1" stop-color="#384680"/>
</linearGradient>
<linearGradient id="paint36_linear_2758_16941" x1="79.4663" y1="227.416" x2="269.549" y2="337.038" gradientUnits="userSpaceOnUse">
<stop stop-color="white"/>
<stop offset="1" stop-color="#384680"/>
</linearGradient>
<linearGradient id="paint37_linear_2758_16941" x1="71.84" y1="240.637" x2="261.924" y2="350.259" gradientUnits="userSpaceOnUse">
<stop stop-color="white"/>
<stop offset="1" stop-color="#384680"/>
</linearGradient>
<linearGradient id="paint38_linear_2758_16941" x1="68.0324" y1="247.241" x2="258.116" y2="356.862" gradientUnits="userSpaceOnUse">
<stop stop-color="white"/>
<stop offset="1" stop-color="#384680"/>
</linearGradient>
<linearGradient id="paint39_linear_2758_16941" x1="75.6481" y1="234.035" x2="265.731" y2="343.657" gradientUnits="userSpaceOnUse">
<stop stop-color="white"/>
<stop offset="1" stop-color="#384680"/>
</linearGradient>
<linearGradient id="paint40_linear_2758_16941" x1="68.0231" y1="247.257" x2="258.106" y2="356.878" gradientUnits="userSpaceOnUse">
<stop stop-color="white"/>
<stop offset="1" stop-color="#384680"/>
</linearGradient>
<linearGradient id="paint41_linear_2758_16941" x1="71.8357" y1="240.647" x2="261.918" y2="350.268" gradientUnits="userSpaceOnUse">
<stop stop-color="white"/>
<stop offset="1" stop-color="#384680"/>
</linearGradient>
<linearGradient id="paint42_linear_2758_16941" x1="77.5527" y1="230.732" x2="267.636" y2="340.354" gradientUnits="userSpaceOnUse">
<stop stop-color="white"/>
<stop offset="1" stop-color="#384680"/>
</linearGradient>
<linearGradient id="paint43_linear_2758_16941" x1="68.02" y1="247.263" x2="258.102" y2="356.884" gradientUnits="userSpaceOnUse">
<stop stop-color="white"/>
<stop offset="1" stop-color="#384680"/>
</linearGradient>
<linearGradient id="paint44_linear_2758_16941" x1="71.8305" y1="240.657" x2="261.913" y2="350.277" gradientUnits="userSpaceOnUse">
<stop stop-color="white"/>
<stop offset="1" stop-color="#384680"/>
</linearGradient>
<linearGradient id="paint45_linear_2758_16941" x1="68.018" y1="247.271" x2="258.099" y2="356.891" gradientUnits="userSpaceOnUse">
<stop stop-color="white"/>
<stop offset="1" stop-color="#384680"/>
</linearGradient>
<linearGradient id="paint46_linear_2758_16941" x1="75.6741" y1="233.991" x2="265.757" y2="343.612" gradientUnits="userSpaceOnUse">
<stop stop-color="white"/>
<stop offset="1" stop-color="#384680"/>
</linearGradient>
<linearGradient id="paint47_linear_2758_16941" x1="71.8631" y1="240.599" x2="261.945" y2="350.22" gradientUnits="userSpaceOnUse">
<stop stop-color="white"/>
<stop offset="1" stop-color="#384680"/>
</linearGradient>
<linearGradient id="paint48_linear_2758_16941" x1="68.0495" y1="247.212" x2="258.13" y2="356.833" gradientUnits="userSpaceOnUse">
<stop stop-color="white"/>
<stop offset="1" stop-color="#384680"/>
</linearGradient>
<linearGradient id="paint49_linear_2758_16941" x1="75.6776" y1="233.985" x2="265.761" y2="343.606" gradientUnits="userSpaceOnUse">
<stop stop-color="white"/>
<stop offset="1" stop-color="#384680"/>
</linearGradient>
<linearGradient id="paint50_linear_2758_16941" x1="79.4915" y1="227.371" x2="269.574" y2="336.993" gradientUnits="userSpaceOnUse">
<stop stop-color="white"/>
<stop offset="1" stop-color="#384680"/>
</linearGradient>
<linearGradient id="paint51_linear_2758_16941" x1="75.6557" y1="234.023" x2="265.739" y2="343.644" gradientUnits="userSpaceOnUse">
<stop stop-color="white"/>
<stop offset="1" stop-color="#384680"/>
</linearGradient>
<linearGradient id="paint52_linear_2758_16941" x1="68.0455" y1="247.218" x2="258.129" y2="356.84" gradientUnits="userSpaceOnUse">
<stop stop-color="white"/>
<stop offset="1" stop-color="#384680"/>
</linearGradient>
<linearGradient id="paint53_linear_2758_16941" x1="71.8593" y1="240.606" x2="261.941" y2="350.226" gradientUnits="userSpaceOnUse">
<stop stop-color="white"/>
<stop offset="1" stop-color="#384680"/>
</linearGradient>
<linearGradient id="paint54_linear_2758_16941" x1="322.638" y1="343.68" x2="244.316" y2="299.045" gradientUnits="userSpaceOnUse">
<stop stop-color="white"/>
<stop offset="1" stop-color="#B1D2EA"/>
</linearGradient>
<linearGradient id="paint55_linear_2758_16941" x1="274.099" y1="330.467" x2="326.424" y2="330.467" gradientUnits="userSpaceOnUse">
<stop stop-color="white"/>
<stop offset="1" stop-color="#B1D2EA"/>
</linearGradient>
<linearGradient id="paint56_linear_2758_16941" x1="278.851" y1="310.785" x2="308.044" y2="322.259" gradientUnits="userSpaceOnUse">
<stop stop-color="white"/>
<stop offset="1" stop-color="#BF2564"/>
</linearGradient>
<linearGradient id="paint57_linear_2758_16941" x1="102.245" y1="182.707" x2="149.148" y2="182.707" gradientUnits="userSpaceOnUse">
<stop stop-color="#DE5A71" stop-opacity="0.7"/>
<stop offset="0.1248" stop-color="#E06671" stop-opacity="0.6626"/>
<stop offset="0.7119" stop-color="#E79970" stop-opacity="0.4864"/>
<stop offset="1" stop-color="#EAAD70" stop-opacity="0.4"/>
</linearGradient>
<linearGradient id="paint58_linear_2758_16941" x1="130.123" y1="387.249" x2="32.6573" y2="512.781" gradientUnits="userSpaceOnUse">
<stop stop-color="white"/>
<stop offset="1" stop-color="#384680"/>
</linearGradient>
<linearGradient id="paint59_linear_2758_16941" x1="89.7568" y1="395.448" x2="161.539" y2="395.448" gradientUnits="userSpaceOnUse">
<stop stop-color="white"/>
<stop offset="1" stop-color="#384680"/>
</linearGradient>
<linearGradient id="paint60_linear_2758_16941" x1="11.4264" y1="248.678" x2="104.573" y2="490.049" gradientUnits="userSpaceOnUse">
<stop stop-color="white"/>
<stop offset="0.00907791" stop-color="#FEFEFF"/>
<stop offset="0.6739" stop-color="#CBD9EE"/>
<stop offset="1" stop-color="#B7CAE7"/>
</linearGradient>
<clipPath id="clip0_2758_16941">
<rect width="431.3" height="566.1" fill="white"/>
</clipPath>
</defs>
</svg>
