<svg xmlns="http://www.w3.org/2000/svg" xmlns:xlink="http://www.w3.org/1999/xlink" width="142" zoomAndPan="magnify" viewBox="0 0 106.5 37.5" height="50" preserveAspectRatio="xMidYMid meet" version="1.0"><defs><g/></defs><g fill="#123e75" fill-opacity="1"><g transform="translate(3.661291, 21.696591)"><g><path d="M 5.796875 -13.390625 C 6.515625 -13.390625 7.210938 -13.285156 7.890625 -13.078125 C 8.566406 -12.867188 9.070312 -12.664062 9.40625 -12.46875 L 9.875 -12.140625 L 8.671875 -9.75 C 8.578125 -9.8125 8.441406 -9.894531 8.265625 -10 C 8.097656 -10.101562 7.78125 -10.238281 7.3125 -10.40625 C 6.84375 -10.570312 6.410156 -10.65625 6.015625 -10.65625 C 5.515625 -10.65625 5.128906 -10.550781 4.859375 -10.34375 C 4.585938 -10.132812 4.453125 -9.847656 4.453125 -9.484375 C 4.453125 -9.304688 4.515625 -9.140625 4.640625 -8.984375 C 4.765625 -8.828125 4.976562 -8.660156 5.28125 -8.484375 C 5.59375 -8.304688 5.863281 -8.164062 6.09375 -8.0625 C 6.332031 -7.957031 6.695312 -7.800781 7.1875 -7.59375 C 8.039062 -7.226562 8.765625 -6.734375 9.359375 -6.109375 C 9.960938 -5.492188 10.265625 -4.789062 10.265625 -4 C 10.265625 -3.25 10.128906 -2.585938 9.859375 -2.015625 C 9.585938 -1.453125 9.210938 -1.007812 8.734375 -0.6875 C 8.265625 -0.375 7.742188 -0.144531 7.171875 0 C 6.597656 0.15625 5.976562 0.234375 5.3125 0.234375 C 4.738281 0.234375 4.175781 0.175781 3.625 0.0625 C 3.070312 -0.0507812 2.609375 -0.195312 2.234375 -0.375 C 1.859375 -0.550781 1.519531 -0.722656 1.21875 -0.890625 C 0.925781 -1.054688 0.710938 -1.203125 0.578125 -1.328125 L 0.359375 -1.5 L 1.859375 -4.015625 C 1.992188 -3.910156 2.171875 -3.773438 2.390625 -3.609375 C 2.609375 -3.441406 3.003906 -3.21875 3.578125 -2.9375 C 4.148438 -2.664062 4.648438 -2.53125 5.078125 -2.53125 C 6.347656 -2.53125 6.984375 -2.960938 6.984375 -3.828125 C 6.984375 -4.003906 6.9375 -4.171875 6.84375 -4.328125 C 6.75 -4.484375 6.585938 -4.632812 6.359375 -4.78125 C 6.140625 -4.9375 5.941406 -5.0625 5.765625 -5.15625 C 5.585938 -5.25 5.296875 -5.382812 4.890625 -5.5625 C 4.492188 -5.75 4.203125 -5.894531 4.015625 -6 C 3.222656 -6.382812 2.609375 -6.867188 2.171875 -7.453125 C 1.734375 -8.046875 1.515625 -8.6875 1.515625 -9.375 C 1.515625 -10.550781 1.945312 -11.515625 2.8125 -12.265625 C 3.6875 -13.015625 4.679688 -13.390625 5.796875 -13.390625 Z M 5.796875 -13.390625 "/></g></g></g><g fill="#123e75" fill-opacity="1"><g transform="translate(15.689991, 21.696591)"><g><path d="M 7.953125 -2.703125 C 8.410156 -2.703125 8.851562 -2.769531 9.28125 -2.90625 C 9.707031 -3.050781 10.023438 -3.1875 10.234375 -3.3125 L 10.53125 -3.515625 L 11.8125 -0.96875 C 11.769531 -0.9375 11.707031 -0.894531 11.625 -0.84375 C 11.550781 -0.789062 11.378906 -0.691406 11.109375 -0.546875 C 10.835938 -0.398438 10.546875 -0.273438 10.234375 -0.171875 C 9.929688 -0.0664062 9.53125 0.0234375 9.03125 0.109375 C 8.53125 0.191406 8.015625 0.234375 7.484375 0.234375 C 6.265625 0.234375 5.109375 -0.0625 4.015625 -0.65625 C 2.921875 -1.257812 2.035156 -2.085938 1.359375 -3.140625 C 0.691406 -4.191406 0.359375 -5.328125 0.359375 -6.546875 C 0.359375 -7.472656 0.554688 -8.359375 0.953125 -9.203125 C 1.347656 -10.054688 1.867188 -10.785156 2.515625 -11.390625 C 3.171875 -11.992188 3.9375 -12.476562 4.8125 -12.84375 C 5.6875 -13.207031 6.578125 -13.390625 7.484375 -13.390625 C 8.335938 -13.390625 9.125 -13.285156 9.84375 -13.078125 C 10.5625 -12.878906 11.066406 -12.679688 11.359375 -12.484375 L 11.8125 -12.171875 L 10.53125 -9.625 C 10.457031 -9.6875 10.347656 -9.765625 10.203125 -9.859375 C 10.054688 -9.953125 9.757812 -10.070312 9.3125 -10.21875 C 8.863281 -10.363281 8.410156 -10.4375 7.953125 -10.4375 C 7.234375 -10.4375 6.582031 -10.316406 6 -10.078125 C 5.425781 -9.847656 4.972656 -9.539062 4.640625 -9.15625 C 4.304688 -8.78125 4.050781 -8.367188 3.875 -7.921875 C 3.707031 -7.484375 3.625 -7.035156 3.625 -6.578125 C 3.625 -5.578125 3.992188 -4.679688 4.734375 -3.890625 C 5.484375 -3.097656 6.554688 -2.703125 7.953125 -2.703125 Z M 7.953125 -2.703125 "/></g></g></g><g fill="#123e75" fill-opacity="1"><g transform="translate(29.009176, 21.696591)"><g><path d="M 7.640625 -13.15625 L 12.9375 0 L 9.71875 0 L 8.75 -2.625 L 3.75 -2.625 L 2.765625 0 L -0.453125 0 L 4.859375 -13.15625 Z M 7.734375 -5.265625 L 6.265625 -9.078125 L 6.234375 -9.078125 L 4.765625 -5.265625 Z M 7.734375 -5.265625 "/></g></g></g><g fill="#123e75" fill-opacity="1"><g transform="translate(42.822249, 21.696591)"><g><path d="M 0.953125 -13.15625 L 5.65625 -13.15625 C 6.914062 -13.15625 7.941406 -12.816406 8.734375 -12.140625 C 9.535156 -11.460938 9.9375 -10.5 9.9375 -9.25 C 9.9375 -8.28125 9.695312 -7.46875 9.21875 -6.8125 C 8.738281 -6.15625 8.082031 -5.695312 7.25 -5.4375 L 11.78125 0 L 7.96875 0 L 3.953125 -5.203125 L 3.953125 0 L 0.953125 0 Z M 3.953125 -7.3125 L 4.296875 -7.3125 C 4.578125 -7.3125 4.8125 -7.316406 5 -7.328125 C 5.195312 -7.335938 5.414062 -7.375 5.65625 -7.4375 C 5.90625 -7.5 6.101562 -7.585938 6.25 -7.703125 C 6.394531 -7.828125 6.519531 -8 6.625 -8.21875 C 6.738281 -8.445312 6.796875 -8.71875 6.796875 -9.03125 C 6.796875 -9.351562 6.738281 -9.625 6.625 -9.84375 C 6.519531 -10.070312 6.394531 -10.242188 6.25 -10.359375 C 6.101562 -10.472656 5.90625 -10.5625 5.65625 -10.625 C 5.414062 -10.6875 5.195312 -10.722656 5 -10.734375 C 4.8125 -10.753906 4.578125 -10.765625 4.296875 -10.765625 L 3.953125 -10.765625 Z M 3.953125 -7.3125 "/></g></g></g><g fill="#123e75" fill-opacity="1"><g transform="translate(55.551954, 21.696591)"><g><path d="M 0.953125 -13.15625 L 5.03125 -13.15625 C 6.269531 -13.15625 7.253906 -12.890625 7.984375 -12.359375 C 8.710938 -11.835938 9.078125 -10.984375 9.078125 -9.796875 C 9.078125 -8.484375 8.53125 -7.546875 7.4375 -6.984375 C 9.3125 -6.648438 10.25 -5.546875 10.25 -3.671875 C 10.25 -2.566406 9.863281 -1.675781 9.09375 -1 C 8.332031 -0.332031 7.28125 0 5.9375 0 L 0.953125 0 Z M 3.953125 -8 L 4.1875 -8 C 4.863281 -8 5.363281 -8.113281 5.6875 -8.34375 C 6.019531 -8.582031 6.1875 -8.96875 6.1875 -9.5 C 6.1875 -10.394531 5.519531 -10.84375 4.1875 -10.84375 L 3.953125 -10.84375 Z M 3.953125 -2.3125 L 4.890625 -2.3125 C 6.359375 -2.3125 7.09375 -2.800781 7.09375 -3.78125 C 7.09375 -4.363281 6.910156 -4.78125 6.546875 -5.03125 C 6.179688 -5.289062 5.628906 -5.421875 4.890625 -5.421875 L 3.953125 -5.421875 Z M 3.953125 -2.3125 "/></g></g></g><g fill="#123e75" fill-opacity="1"><g transform="translate(67.485064, 21.696591)"><g><path d="M 3.953125 -13.15625 L 3.953125 -2.625 L 8.484375 -2.625 L 8.484375 0 L 0.953125 0 L 0.953125 -13.15625 Z M 3.953125 -13.15625 "/></g></g></g><g fill="#123e75" fill-opacity="1"><g transform="translate(77.80905, 21.696591)"><g><path d="M 11.0625 -13.15625 L 11.0625 -4.671875 C 11.0625 -3.054688 10.625 -1.832031 9.75 -1 C 8.882812 -0.175781 7.609375 0.234375 5.921875 0.234375 C 4.242188 0.234375 2.96875 -0.175781 2.09375 -1 C 1.226562 -1.832031 0.796875 -3.054688 0.796875 -4.671875 L 0.796875 -13.15625 L 3.796875 -13.15625 L 3.796875 -5.546875 C 3.796875 -4.484375 3.960938 -3.742188 4.296875 -3.328125 C 4.628906 -2.910156 5.171875 -2.703125 5.921875 -2.703125 C 6.679688 -2.703125 7.226562 -2.910156 7.5625 -3.328125 C 7.894531 -3.742188 8.0625 -4.484375 8.0625 -5.546875 L 8.0625 -13.15625 Z M 11.0625 -13.15625 "/></g></g></g><g fill="#123e75" fill-opacity="1"><g transform="translate(90.98485, 21.696591)"><g><path d="M 11.0625 -13.15625 L 11.0625 -4.671875 C 11.0625 -3.054688 10.625 -1.832031 9.75 -1 C 8.882812 -0.175781 7.609375 0.234375 5.921875 0.234375 C 4.242188 0.234375 2.96875 -0.175781 2.09375 -1 C 1.226562 -1.832031 0.796875 -3.054688 0.796875 -4.671875 L 0.796875 -13.15625 L 3.796875 -13.15625 L 3.796875 -5.546875 C 3.796875 -4.484375 3.960938 -3.742188 4.296875 -3.328125 C 4.628906 -2.910156 5.171875 -2.703125 5.921875 -2.703125 C 6.679688 -2.703125 7.226562 -2.910156 7.5625 -3.328125 C 7.894531 -3.742188 8.0625 -4.484375 8.0625 -5.546875 L 8.0625 -13.15625 Z M 11.0625 -13.15625 "/></g></g></g><g fill="#26b1d8" fill-opacity="1"><g transform="translate(1.386889, 27.979281)"><g><path d="M 1.46875 -3.375 C 1.644531 -3.375 1.816406 -3.347656 1.984375 -3.296875 C 2.160156 -3.242188 2.289062 -3.191406 2.375 -3.140625 L 2.484375 -3.0625 L 2.1875 -2.453125 C 2.15625 -2.472656 2.117188 -2.492188 2.078125 -2.515625 C 2.035156 -2.546875 1.957031 -2.582031 1.84375 -2.625 C 1.726562 -2.664062 1.617188 -2.6875 1.515625 -2.6875 C 1.390625 -2.6875 1.289062 -2.660156 1.21875 -2.609375 C 1.15625 -2.554688 1.125 -2.484375 1.125 -2.390625 C 1.125 -2.347656 1.140625 -2.304688 1.171875 -2.265625 C 1.203125 -2.222656 1.253906 -2.179688 1.328125 -2.140625 C 1.410156 -2.097656 1.476562 -2.0625 1.53125 -2.03125 C 1.59375 -2 1.6875 -1.957031 1.8125 -1.90625 C 2.019531 -1.820312 2.203125 -1.703125 2.359375 -1.546875 C 2.515625 -1.390625 2.59375 -1.210938 2.59375 -1.015625 C 2.59375 -0.816406 2.554688 -0.644531 2.484375 -0.5 C 2.410156 -0.363281 2.316406 -0.253906 2.203125 -0.171875 C 2.085938 -0.0976562 1.957031 -0.0390625 1.8125 0 C 1.664062 0.0390625 1.507812 0.0625 1.34375 0.0625 C 1.195312 0.0625 1.050781 0.046875 0.90625 0.015625 C 0.769531 -0.015625 0.65625 -0.0507812 0.5625 -0.09375 C 0.46875 -0.132812 0.382812 -0.175781 0.3125 -0.21875 C 0.238281 -0.269531 0.179688 -0.304688 0.140625 -0.328125 L 0.09375 -0.375 L 0.46875 -1.015625 C 0.5 -0.984375 0.539062 -0.945312 0.59375 -0.90625 C 0.65625 -0.863281 0.753906 -0.804688 0.890625 -0.734375 C 1.035156 -0.671875 1.164062 -0.640625 1.28125 -0.640625 C 1.601562 -0.640625 1.765625 -0.75 1.765625 -0.96875 C 1.765625 -1.007812 1.75 -1.050781 1.71875 -1.09375 C 1.695312 -1.132812 1.65625 -1.171875 1.59375 -1.203125 C 1.539062 -1.242188 1.492188 -1.273438 1.453125 -1.296875 C 1.410156 -1.316406 1.335938 -1.347656 1.234375 -1.390625 C 1.128906 -1.441406 1.054688 -1.484375 1.015625 -1.515625 C 0.804688 -1.609375 0.644531 -1.726562 0.53125 -1.875 C 0.425781 -2.03125 0.375 -2.191406 0.375 -2.359375 C 0.375 -2.660156 0.484375 -2.90625 0.703125 -3.09375 C 0.929688 -3.28125 1.1875 -3.375 1.46875 -3.375 Z M 1.46875 -3.375 "/></g></g></g><g fill="#26b1d8" fill-opacity="1"><g transform="translate(4.079983, 27.979281)"><g><path d="M 0.03125 -2.65625 L 0.03125 -3.3125 L 2.359375 -3.3125 L 2.359375 -2.65625 L 1.578125 -2.65625 L 1.578125 0 L 0.8125 0 L 0.8125 -2.65625 Z M 0.03125 -2.65625 "/></g></g></g><g fill="#26b1d8" fill-opacity="1"><g transform="translate(6.4685, 27.979281)"><g><path d="M 0.234375 -3.3125 L 1.421875 -3.3125 C 1.742188 -3.3125 2.003906 -3.222656 2.203125 -3.046875 C 2.398438 -2.878906 2.5 -2.640625 2.5 -2.328125 C 2.5 -2.085938 2.4375 -1.882812 2.3125 -1.71875 C 2.195312 -1.550781 2.035156 -1.4375 1.828125 -1.375 L 2.96875 0 L 2.015625 0 L 1 -1.3125 L 1 0 L 0.234375 0 Z M 1 -1.84375 L 1.078125 -1.84375 C 1.148438 -1.84375 1.207031 -1.84375 1.25 -1.84375 C 1.300781 -1.84375 1.359375 -1.851562 1.421875 -1.875 C 1.484375 -1.894531 1.53125 -1.914062 1.5625 -1.9375 C 1.601562 -1.96875 1.632812 -2.007812 1.65625 -2.0625 C 1.6875 -2.125 1.703125 -2.191406 1.703125 -2.265625 C 1.703125 -2.347656 1.6875 -2.414062 1.65625 -2.46875 C 1.632812 -2.53125 1.601562 -2.578125 1.5625 -2.609375 C 1.53125 -2.640625 1.484375 -2.660156 1.421875 -2.671875 C 1.359375 -2.691406 1.300781 -2.703125 1.25 -2.703125 C 1.207031 -2.703125 1.148438 -2.703125 1.078125 -2.703125 L 1 -2.703125 Z M 1 -1.84375 "/></g></g></g><g fill="#26b1d8" fill-opacity="1"><g transform="translate(9.337928, 27.979281)"><g><path d="M 2.78125 -3.3125 L 2.78125 -1.171875 C 2.78125 -0.765625 2.671875 -0.457031 2.453125 -0.25 C 2.234375 -0.0390625 1.910156 0.0625 1.484375 0.0625 C 1.066406 0.0625 0.75 -0.0390625 0.53125 -0.25 C 0.3125 -0.457031 0.203125 -0.765625 0.203125 -1.171875 L 0.203125 -3.3125 L 0.953125 -3.3125 L 0.953125 -1.390625 C 0.953125 -1.128906 0.992188 -0.945312 1.078125 -0.84375 C 1.160156 -0.738281 1.296875 -0.6875 1.484375 -0.6875 C 1.679688 -0.6875 1.820312 -0.738281 1.90625 -0.84375 C 1.988281 -0.945312 2.03125 -1.128906 2.03125 -1.390625 L 2.03125 -3.3125 Z M 2.78125 -3.3125 "/></g></g></g><g fill="#26b1d8" fill-opacity="1"><g transform="translate(12.319567, 27.979281)"><g><path d="M 2 -0.6875 C 2.113281 -0.6875 2.222656 -0.703125 2.328125 -0.734375 C 2.441406 -0.765625 2.523438 -0.796875 2.578125 -0.828125 L 2.65625 -0.890625 L 2.96875 -0.25 C 2.957031 -0.238281 2.941406 -0.222656 2.921875 -0.203125 C 2.910156 -0.191406 2.867188 -0.164062 2.796875 -0.125 C 2.734375 -0.09375 2.660156 -0.0625 2.578125 -0.03125 C 2.503906 -0.0078125 2.40625 0.0078125 2.28125 0.03125 C 2.15625 0.0507812 2.023438 0.0625 1.890625 0.0625 C 1.578125 0.0625 1.28125 -0.0078125 1 -0.15625 C 0.726562 -0.3125 0.507812 -0.519531 0.34375 -0.78125 C 0.175781 -1.050781 0.09375 -1.34375 0.09375 -1.65625 C 0.09375 -1.882812 0.140625 -2.101562 0.234375 -2.3125 C 0.335938 -2.53125 0.472656 -2.710938 0.640625 -2.859375 C 0.804688 -3.015625 1 -3.140625 1.21875 -3.234375 C 1.4375 -3.328125 1.660156 -3.375 1.890625 -3.375 C 2.097656 -3.375 2.289062 -3.347656 2.46875 -3.296875 C 2.65625 -3.242188 2.785156 -3.191406 2.859375 -3.140625 L 2.96875 -3.0625 L 2.65625 -2.421875 C 2.632812 -2.441406 2.601562 -2.460938 2.5625 -2.484375 C 2.53125 -2.503906 2.457031 -2.53125 2.34375 -2.5625 C 2.226562 -2.601562 2.113281 -2.625 2 -2.625 C 1.820312 -2.625 1.660156 -2.59375 1.515625 -2.53125 C 1.367188 -2.476562 1.253906 -2.40625 1.171875 -2.3125 C 1.085938 -2.21875 1.019531 -2.113281 0.96875 -2 C 0.925781 -1.882812 0.90625 -1.769531 0.90625 -1.65625 C 0.90625 -1.40625 1 -1.179688 1.1875 -0.984375 C 1.382812 -0.785156 1.65625 -0.6875 2 -0.6875 Z M 2 -0.6875 "/></g></g></g><g fill="#26b1d8" fill-opacity="1"><g transform="translate(15.337274, 27.979281)"><g><path d="M 0.03125 -2.65625 L 0.03125 -3.3125 L 2.359375 -3.3125 L 2.359375 -2.65625 L 1.578125 -2.65625 L 1.578125 0 L 0.8125 0 L 0.8125 -2.65625 Z M 0.03125 -2.65625 "/></g></g></g><g fill="#26b1d8" fill-opacity="1"><g transform="translate(17.725792, 27.979281)"><g><path d="M 2.78125 -3.3125 L 2.78125 -1.171875 C 2.78125 -0.765625 2.671875 -0.457031 2.453125 -0.25 C 2.234375 -0.0390625 1.910156 0.0625 1.484375 0.0625 C 1.066406 0.0625 0.75 -0.0390625 0.53125 -0.25 C 0.3125 -0.457031 0.203125 -0.765625 0.203125 -1.171875 L 0.203125 -3.3125 L 0.953125 -3.3125 L 0.953125 -1.390625 C 0.953125 -1.128906 0.992188 -0.945312 1.078125 -0.84375 C 1.160156 -0.738281 1.296875 -0.6875 1.484375 -0.6875 C 1.679688 -0.6875 1.820312 -0.738281 1.90625 -0.84375 C 1.988281 -0.945312 2.03125 -1.128906 2.03125 -1.390625 L 2.03125 -3.3125 Z M 2.78125 -3.3125 "/></g></g></g><g fill="#26b1d8" fill-opacity="1"><g transform="translate(20.707431, 27.979281)"><g><path d="M 0.234375 -3.3125 L 1.421875 -3.3125 C 1.742188 -3.3125 2.003906 -3.222656 2.203125 -3.046875 C 2.398438 -2.878906 2.5 -2.640625 2.5 -2.328125 C 2.5 -2.085938 2.4375 -1.882812 2.3125 -1.71875 C 2.195312 -1.550781 2.035156 -1.4375 1.828125 -1.375 L 2.96875 0 L 2.015625 0 L 1 -1.3125 L 1 0 L 0.234375 0 Z M 1 -1.84375 L 1.078125 -1.84375 C 1.148438 -1.84375 1.207031 -1.84375 1.25 -1.84375 C 1.300781 -1.84375 1.359375 -1.851562 1.421875 -1.875 C 1.484375 -1.894531 1.53125 -1.914062 1.5625 -1.9375 C 1.601562 -1.96875 1.632812 -2.007812 1.65625 -2.0625 C 1.6875 -2.125 1.703125 -2.191406 1.703125 -2.265625 C 1.703125 -2.347656 1.6875 -2.414062 1.65625 -2.46875 C 1.632812 -2.53125 1.601562 -2.578125 1.5625 -2.609375 C 1.53125 -2.640625 1.484375 -2.660156 1.421875 -2.671875 C 1.359375 -2.691406 1.300781 -2.703125 1.25 -2.703125 C 1.207031 -2.703125 1.148438 -2.703125 1.078125 -2.703125 L 1 -2.703125 Z M 1 -1.84375 "/></g></g></g><g fill="#26b1d8" fill-opacity="1"><g transform="translate(23.576858, 27.979281)"><g><path d="M 2.140625 -3.3125 L 2.140625 -2.65625 L 1 -2.65625 L 1 -1.984375 L 2.09375 -1.984375 L 2.09375 -1.328125 L 1 -1.328125 L 1 -0.65625 L 2.140625 -0.65625 L 2.140625 0 L 0.234375 0 L 0.234375 -3.3125 Z M 2.140625 -3.3125 "/></g></g></g><g fill="#26b1d8" fill-opacity="1"><g transform="translate(25.901255, 27.979281)"><g/></g></g><g fill="#da624c" fill-opacity="1"><g transform="translate(26.994067, 27.979281)"><g><path d="M 2 -0.6875 C 2.113281 -0.6875 2.222656 -0.703125 2.328125 -0.734375 C 2.441406 -0.765625 2.523438 -0.796875 2.578125 -0.828125 L 2.65625 -0.890625 L 2.96875 -0.25 C 2.957031 -0.238281 2.941406 -0.222656 2.921875 -0.203125 C 2.910156 -0.191406 2.867188 -0.164062 2.796875 -0.125 C 2.734375 -0.09375 2.660156 -0.0625 2.578125 -0.03125 C 2.503906 -0.0078125 2.40625 0.0078125 2.28125 0.03125 C 2.15625 0.0507812 2.023438 0.0625 1.890625 0.0625 C 1.578125 0.0625 1.28125 -0.0078125 1 -0.15625 C 0.726562 -0.3125 0.507812 -0.519531 0.34375 -0.78125 C 0.175781 -1.050781 0.09375 -1.34375 0.09375 -1.65625 C 0.09375 -1.882812 0.140625 -2.101562 0.234375 -2.3125 C 0.335938 -2.53125 0.472656 -2.710938 0.640625 -2.859375 C 0.804688 -3.015625 1 -3.140625 1.21875 -3.234375 C 1.4375 -3.328125 1.660156 -3.375 1.890625 -3.375 C 2.097656 -3.375 2.289062 -3.347656 2.46875 -3.296875 C 2.65625 -3.242188 2.785156 -3.191406 2.859375 -3.140625 L 2.96875 -3.0625 L 2.65625 -2.421875 C 2.632812 -2.441406 2.601562 -2.460938 2.5625 -2.484375 C 2.53125 -2.503906 2.457031 -2.53125 2.34375 -2.5625 C 2.226562 -2.601562 2.113281 -2.625 2 -2.625 C 1.820312 -2.625 1.660156 -2.59375 1.515625 -2.53125 C 1.367188 -2.476562 1.253906 -2.40625 1.171875 -2.3125 C 1.085938 -2.21875 1.019531 -2.113281 0.96875 -2 C 0.925781 -1.882812 0.90625 -1.769531 0.90625 -1.65625 C 0.90625 -1.40625 1 -1.179688 1.1875 -0.984375 C 1.382812 -0.785156 1.65625 -0.6875 2 -0.6875 Z M 2 -0.6875 "/></g></g></g><g fill="#da624c" fill-opacity="1"><g transform="translate(30.011774, 27.979281)"><g><path d="M 1.921875 -3.3125 L 3.265625 0 L 2.453125 0 L 2.203125 -0.65625 L 0.9375 -0.65625 L 0.703125 0 L -0.109375 0 L 1.21875 -3.3125 Z M 1.953125 -1.328125 L 1.578125 -2.28125 L 1.5625 -2.28125 L 1.203125 -1.328125 Z M 1.953125 -1.328125 "/></g></g></g><g fill="#da624c" fill-opacity="1"><g transform="translate(33.153718, 27.979281)"><g><path d="M 0.03125 -2.65625 L 0.03125 -3.3125 L 2.359375 -3.3125 L 2.359375 -2.65625 L 1.578125 -2.65625 L 1.578125 0 L 0.8125 0 L 0.8125 -2.65625 Z M 0.03125 -2.65625 "/></g></g></g><g fill="#da624c" fill-opacity="1"><g transform="translate(35.542235, 27.979281)"><g><path d="M 1.921875 -3.3125 L 3.265625 0 L 2.453125 0 L 2.203125 -0.65625 L 0.9375 -0.65625 L 0.703125 0 L -0.109375 0 L 1.21875 -3.3125 Z M 1.953125 -1.328125 L 1.578125 -2.28125 L 1.5625 -2.28125 L 1.203125 -1.328125 Z M 1.953125 -1.328125 "/></g></g></g><g fill="#da624c" fill-opacity="1"><g transform="translate(38.684178, 27.979281)"><g><path d="M 1 -3.3125 L 1 -0.65625 L 2.140625 -0.65625 L 2.140625 0 L 0.234375 0 L 0.234375 -3.3125 Z M 1 -3.3125 "/></g></g></g><g fill="#da624c" fill-opacity="1"><g transform="translate(40.948462, 27.979281)"><g><path d="M -0.125 -3.3125 L 0.78125 -3.3125 L 1.484375 -2.25 L 2.171875 -3.3125 L 3.078125 -3.3125 L 1.859375 -1.484375 L 1.859375 0 L 1.09375 0 L 1.09375 -1.484375 Z M -0.125 -3.3125 "/></g></g></g><g fill="#da624c" fill-opacity="1"><g transform="translate(43.89804, 27.979281)"><g><path d="M 1.46875 -3.375 C 1.644531 -3.375 1.816406 -3.347656 1.984375 -3.296875 C 2.160156 -3.242188 2.289062 -3.191406 2.375 -3.140625 L 2.484375 -3.0625 L 2.1875 -2.453125 C 2.15625 -2.472656 2.117188 -2.492188 2.078125 -2.515625 C 2.035156 -2.546875 1.957031 -2.582031 1.84375 -2.625 C 1.726562 -2.664062 1.617188 -2.6875 1.515625 -2.6875 C 1.390625 -2.6875 1.289062 -2.660156 1.21875 -2.609375 C 1.15625 -2.554688 1.125 -2.484375 1.125 -2.390625 C 1.125 -2.347656 1.140625 -2.304688 1.171875 -2.265625 C 1.203125 -2.222656 1.253906 -2.179688 1.328125 -2.140625 C 1.410156 -2.097656 1.476562 -2.0625 1.53125 -2.03125 C 1.59375 -2 1.6875 -1.957031 1.8125 -1.90625 C 2.019531 -1.820312 2.203125 -1.703125 2.359375 -1.546875 C 2.515625 -1.390625 2.59375 -1.210938 2.59375 -1.015625 C 2.59375 -0.816406 2.554688 -0.644531 2.484375 -0.5 C 2.410156 -0.363281 2.316406 -0.253906 2.203125 -0.171875 C 2.085938 -0.0976562 1.957031 -0.0390625 1.8125 0 C 1.664062 0.0390625 1.507812 0.0625 1.34375 0.0625 C 1.195312 0.0625 1.050781 0.046875 0.90625 0.015625 C 0.769531 -0.015625 0.65625 -0.0507812 0.5625 -0.09375 C 0.46875 -0.132812 0.382812 -0.175781 0.3125 -0.21875 C 0.238281 -0.269531 0.179688 -0.304688 0.140625 -0.328125 L 0.09375 -0.375 L 0.46875 -1.015625 C 0.5 -0.984375 0.539062 -0.945312 0.59375 -0.90625 C 0.65625 -0.863281 0.753906 -0.804688 0.890625 -0.734375 C 1.035156 -0.671875 1.164062 -0.640625 1.28125 -0.640625 C 1.601562 -0.640625 1.765625 -0.75 1.765625 -0.96875 C 1.765625 -1.007812 1.75 -1.050781 1.71875 -1.09375 C 1.695312 -1.132812 1.65625 -1.171875 1.59375 -1.203125 C 1.539062 -1.242188 1.492188 -1.273438 1.453125 -1.296875 C 1.410156 -1.316406 1.335938 -1.347656 1.234375 -1.390625 C 1.128906 -1.441406 1.054688 -1.484375 1.015625 -1.515625 C 0.804688 -1.609375 0.644531 -1.726562 0.53125 -1.875 C 0.425781 -2.03125 0.375 -2.191406 0.375 -2.359375 C 0.375 -2.660156 0.484375 -2.90625 0.703125 -3.09375 C 0.929688 -3.28125 1.1875 -3.375 1.46875 -3.375 Z M 1.46875 -3.375 "/></g></g></g><g fill="#da624c" fill-opacity="1"><g transform="translate(46.591134, 27.979281)"><g><path d="M 2.140625 -3.3125 L 2.140625 -2.65625 L 1 -2.65625 L 1 -1.984375 L 2.09375 -1.984375 L 2.09375 -1.328125 L 1 -1.328125 L 1 -0.65625 L 2.140625 -0.65625 L 2.140625 0 L 0.234375 0 L 0.234375 -3.3125 Z M 2.140625 -3.3125 "/></g></g></g><g fill="#da624c" fill-opacity="1"><g transform="translate(48.915531, 27.979281)"><g/></g></g><g fill="#1c60b6" fill-opacity="1"><g transform="translate(50.009293, 27.979281)"><g><path d="M 1.921875 -3.3125 L 3.265625 0 L 2.453125 0 L 2.203125 -0.65625 L 0.9375 -0.65625 L 0.703125 0 L -0.109375 0 L 1.21875 -3.3125 Z M 1.953125 -1.328125 L 1.578125 -2.28125 L 1.5625 -2.28125 L 1.203125 -1.328125 Z M 1.953125 -1.328125 "/></g></g></g><g fill="#1c60b6" fill-opacity="1"><g transform="translate(53.151236, 27.979281)"><g><path d="M 1 -2.0625 L 1 0 L 0.234375 0 L 0.234375 -3.3125 L 1 -3.3125 L 2.3125 -1.25 L 2.328125 -1.25 L 2.328125 -3.3125 L 3.078125 -3.3125 L 3.078125 0 L 2.328125 0 Z M 1 -2.0625 "/></g></g></g><g fill="#1c60b6" fill-opacity="1"><g transform="translate(56.461497, 27.979281)"><g><path d="M 1.921875 -3.3125 L 3.265625 0 L 2.453125 0 L 2.203125 -0.65625 L 0.9375 -0.65625 L 0.703125 0 L -0.109375 0 L 1.21875 -3.3125 Z M 1.953125 -1.328125 L 1.578125 -2.28125 L 1.5625 -2.28125 L 1.203125 -1.328125 Z M 1.953125 -1.328125 "/></g></g></g><g fill="#1c60b6" fill-opacity="1"><g transform="translate(59.603441, 27.979281)"><g><path d="M 1 -3.3125 L 1 -0.65625 L 2.140625 -0.65625 L 2.140625 0 L 0.234375 0 L 0.234375 -3.3125 Z M 1 -3.3125 "/></g></g></g><g fill="#1c60b6" fill-opacity="1"><g transform="translate(61.867724, 27.979281)"><g><path d="M -0.125 -3.3125 L 0.78125 -3.3125 L 1.484375 -2.25 L 2.171875 -3.3125 L 3.078125 -3.3125 L 1.859375 -1.484375 L 1.859375 0 L 1.09375 0 L 1.09375 -1.484375 Z M -0.125 -3.3125 "/></g></g></g><g fill="#1c60b6" fill-opacity="1"><g transform="translate(64.817303, 27.979281)"><g><path d="M 1.46875 -3.375 C 1.644531 -3.375 1.816406 -3.347656 1.984375 -3.296875 C 2.160156 -3.242188 2.289062 -3.191406 2.375 -3.140625 L 2.484375 -3.0625 L 2.1875 -2.453125 C 2.15625 -2.472656 2.117188 -2.492188 2.078125 -2.515625 C 2.035156 -2.546875 1.957031 -2.582031 1.84375 -2.625 C 1.726562 -2.664062 1.617188 -2.6875 1.515625 -2.6875 C 1.390625 -2.6875 1.289062 -2.660156 1.21875 -2.609375 C 1.15625 -2.554688 1.125 -2.484375 1.125 -2.390625 C 1.125 -2.347656 1.140625 -2.304688 1.171875 -2.265625 C 1.203125 -2.222656 1.253906 -2.179688 1.328125 -2.140625 C 1.410156 -2.097656 1.476562 -2.0625 1.53125 -2.03125 C 1.59375 -2 1.6875 -1.957031 1.8125 -1.90625 C 2.019531 -1.820312 2.203125 -1.703125 2.359375 -1.546875 C 2.515625 -1.390625 2.59375 -1.210938 2.59375 -1.015625 C 2.59375 -0.816406 2.554688 -0.644531 2.484375 -0.5 C 2.410156 -0.363281 2.316406 -0.253906 2.203125 -0.171875 C 2.085938 -0.0976562 1.957031 -0.0390625 1.8125 0 C 1.664062 0.0390625 1.507812 0.0625 1.34375 0.0625 C 1.195312 0.0625 1.050781 0.046875 0.90625 0.015625 C 0.769531 -0.015625 0.65625 -0.0507812 0.5625 -0.09375 C 0.46875 -0.132812 0.382812 -0.175781 0.3125 -0.21875 C 0.238281 -0.269531 0.179688 -0.304688 0.140625 -0.328125 L 0.09375 -0.375 L 0.46875 -1.015625 C 0.5 -0.984375 0.539062 -0.945312 0.59375 -0.90625 C 0.65625 -0.863281 0.753906 -0.804688 0.890625 -0.734375 C 1.035156 -0.671875 1.164062 -0.640625 1.28125 -0.640625 C 1.601562 -0.640625 1.765625 -0.75 1.765625 -0.96875 C 1.765625 -1.007812 1.75 -1.050781 1.71875 -1.09375 C 1.695312 -1.132812 1.65625 -1.171875 1.59375 -1.203125 C 1.539062 -1.242188 1.492188 -1.273438 1.453125 -1.296875 C 1.410156 -1.316406 1.335938 -1.347656 1.234375 -1.390625 C 1.128906 -1.441406 1.054688 -1.484375 1.015625 -1.515625 C 0.804688 -1.609375 0.644531 -1.726562 0.53125 -1.875 C 0.425781 -2.03125 0.375 -2.191406 0.375 -2.359375 C 0.375 -2.660156 0.484375 -2.90625 0.703125 -3.09375 C 0.929688 -3.28125 1.1875 -3.375 1.46875 -3.375 Z M 1.46875 -3.375 "/></g></g></g><g fill="#1c60b6" fill-opacity="1"><g transform="translate(67.510396, 27.979281)"><g><path d="M 2.140625 -3.3125 L 2.140625 -2.65625 L 1 -2.65625 L 1 -1.984375 L 2.09375 -1.984375 L 2.09375 -1.328125 L 1 -1.328125 L 1 -0.65625 L 2.140625 -0.65625 L 2.140625 0 L 0.234375 0 L 0.234375 -3.3125 Z M 2.140625 -3.3125 "/></g></g></g><g fill="#1c60b6" fill-opacity="1"><g transform="translate(69.834794, 27.979281)"><g/></g></g><g fill="#f7993e" fill-opacity="1"><g transform="translate(70.928214, 27.979281)"><g><path d="M 0.234375 -3.3125 L 1.421875 -3.3125 C 1.742188 -3.3125 2.003906 -3.222656 2.203125 -3.046875 C 2.398438 -2.878906 2.5 -2.640625 2.5 -2.328125 C 2.5 -2.085938 2.4375 -1.882812 2.3125 -1.71875 C 2.195312 -1.550781 2.035156 -1.4375 1.828125 -1.375 L 2.96875 0 L 2.015625 0 L 1 -1.3125 L 1 0 L 0.234375 0 Z M 1 -1.84375 L 1.078125 -1.84375 C 1.148438 -1.84375 1.207031 -1.84375 1.25 -1.84375 C 1.300781 -1.84375 1.359375 -1.851562 1.421875 -1.875 C 1.484375 -1.894531 1.53125 -1.914062 1.5625 -1.9375 C 1.601562 -1.96875 1.632812 -2.007812 1.65625 -2.0625 C 1.6875 -2.125 1.703125 -2.191406 1.703125 -2.265625 C 1.703125 -2.347656 1.6875 -2.414062 1.65625 -2.46875 C 1.632812 -2.53125 1.601562 -2.578125 1.5625 -2.609375 C 1.53125 -2.640625 1.484375 -2.660156 1.421875 -2.671875 C 1.359375 -2.691406 1.300781 -2.703125 1.25 -2.703125 C 1.207031 -2.703125 1.148438 -2.703125 1.078125 -2.703125 L 1 -2.703125 Z M 1 -1.84375 "/></g></g></g><g fill="#f7993e" fill-opacity="1"><g transform="translate(73.797642, 27.979281)"><g><path d="M 2.140625 -3.3125 L 2.140625 -2.65625 L 1 -2.65625 L 1 -1.984375 L 2.09375 -1.984375 L 2.09375 -1.328125 L 1 -1.328125 L 1 -0.65625 L 2.140625 -0.65625 L 2.140625 0 L 0.234375 0 L 0.234375 -3.3125 Z M 2.140625 -3.3125 "/></g></g></g><g fill="#f7993e" fill-opacity="1"><g transform="translate(76.122039, 27.979281)"><g><path d="M 1.28125 0 L -0.109375 -3.3125 L 0.734375 -3.3125 L 1.578125 -1.140625 L 2.40625 -3.3125 L 3.265625 -3.3125 L 1.875 0 Z M 1.28125 0 "/></g></g></g><g fill="#f7993e" fill-opacity="1"><g transform="translate(79.263982, 27.979281)"><g><path d="M 0.09375 -1.65625 C 0.09375 -2.132812 0.253906 -2.539062 0.578125 -2.875 C 0.910156 -3.207031 1.304688 -3.375 1.765625 -3.375 C 2.222656 -3.375 2.613281 -3.207031 2.9375 -2.875 C 3.257812 -2.539062 3.421875 -2.132812 3.421875 -1.65625 C 3.421875 -1.175781 3.257812 -0.769531 2.9375 -0.4375 C 2.625 -0.101562 2.234375 0.0625 1.765625 0.0625 C 1.273438 0.0625 0.875 -0.0976562 0.5625 -0.421875 C 0.25 -0.753906 0.09375 -1.164062 0.09375 -1.65625 Z M 0.90625 -1.65625 C 0.90625 -1.476562 0.929688 -1.316406 0.984375 -1.171875 C 1.035156 -1.035156 1.128906 -0.914062 1.265625 -0.8125 C 1.398438 -0.71875 1.566406 -0.671875 1.765625 -0.671875 C 2.046875 -0.671875 2.253906 -0.765625 2.390625 -0.953125 C 2.535156 -1.148438 2.609375 -1.382812 2.609375 -1.65625 C 2.609375 -1.925781 2.535156 -2.15625 2.390625 -2.34375 C 2.242188 -2.539062 2.035156 -2.640625 1.765625 -2.640625 C 1.492188 -2.640625 1.28125 -2.539062 1.125 -2.34375 C 0.976562 -2.15625 0.90625 -1.925781 0.90625 -1.65625 Z M 0.90625 -1.65625 "/></g></g></g><g fill="#f7993e" fill-opacity="1"><g transform="translate(82.778631, 27.979281)"><g><path d="M 1 -3.3125 L 1 -0.65625 L 2.140625 -0.65625 L 2.140625 0 L 0.234375 0 L 0.234375 -3.3125 Z M 1 -3.3125 "/></g></g></g><g fill="#f7993e" fill-opacity="1"><g transform="translate(85.042914, 27.979281)"><g><path d="M 2.78125 -3.3125 L 2.78125 -1.171875 C 2.78125 -0.765625 2.671875 -0.457031 2.453125 -0.25 C 2.234375 -0.0390625 1.910156 0.0625 1.484375 0.0625 C 1.066406 0.0625 0.75 -0.0390625 0.53125 -0.25 C 0.3125 -0.457031 0.203125 -0.765625 0.203125 -1.171875 L 0.203125 -3.3125 L 0.953125 -3.3125 L 0.953125 -1.390625 C 0.953125 -1.128906 0.992188 -0.945312 1.078125 -0.84375 C 1.160156 -0.738281 1.296875 -0.6875 1.484375 -0.6875 C 1.679688 -0.6875 1.820312 -0.738281 1.90625 -0.84375 C 1.988281 -0.945312 2.03125 -1.128906 2.03125 -1.390625 L 2.03125 -3.3125 Z M 2.78125 -3.3125 "/></g></g></g><g fill="#f7993e" fill-opacity="1"><g transform="translate(88.024553, 27.979281)"><g><path d="M 0.03125 -2.65625 L 0.03125 -3.3125 L 2.359375 -3.3125 L 2.359375 -2.65625 L 1.578125 -2.65625 L 1.578125 0 L 0.8125 0 L 0.8125 -2.65625 Z M 0.03125 -2.65625 "/></g></g></g><g fill="#f7993e" fill-opacity="1"><g transform="translate(90.41307, 27.979281)"><g><path d="M 1 -3.3125 L 1 0 L 0.234375 0 L 0.234375 -3.3125 Z M 1 -3.3125 "/></g></g></g><g fill="#f7993e" fill-opacity="1"><g transform="translate(91.647405, 27.979281)"><g><path d="M 0.09375 -1.65625 C 0.09375 -2.132812 0.253906 -2.539062 0.578125 -2.875 C 0.910156 -3.207031 1.304688 -3.375 1.765625 -3.375 C 2.222656 -3.375 2.613281 -3.207031 2.9375 -2.875 C 3.257812 -2.539062 3.421875 -2.132812 3.421875 -1.65625 C 3.421875 -1.175781 3.257812 -0.769531 2.9375 -0.4375 C 2.625 -0.101562 2.234375 0.0625 1.765625 0.0625 C 1.273438 0.0625 0.875 -0.0976562 0.5625 -0.421875 C 0.25 -0.753906 0.09375 -1.164062 0.09375 -1.65625 Z M 0.90625 -1.65625 C 0.90625 -1.476562 0.929688 -1.316406 0.984375 -1.171875 C 1.035156 -1.035156 1.128906 -0.914062 1.265625 -0.8125 C 1.398438 -0.71875 1.566406 -0.671875 1.765625 -0.671875 C 2.046875 -0.671875 2.253906 -0.765625 2.390625 -0.953125 C 2.535156 -1.148438 2.609375 -1.382812 2.609375 -1.65625 C 2.609375 -1.925781 2.535156 -2.15625 2.390625 -2.34375 C 2.242188 -2.539062 2.035156 -2.640625 1.765625 -2.640625 C 1.492188 -2.640625 1.28125 -2.539062 1.125 -2.34375 C 0.976562 -2.15625 0.90625 -1.925781 0.90625 -1.65625 Z M 0.90625 -1.65625 "/></g></g></g><g fill="#f7993e" fill-opacity="1"><g transform="translate(95.162053, 27.979281)"><g><path d="M 1 -2.0625 L 1 0 L 0.234375 0 L 0.234375 -3.3125 L 1 -3.3125 L 2.3125 -1.25 L 2.328125 -1.25 L 2.328125 -3.3125 L 3.078125 -3.3125 L 3.078125 0 L 2.328125 0 Z M 1 -2.0625 "/></g></g></g><g fill="#f7993e" fill-opacity="1"><g transform="translate(98.472314, 27.979281)"><g><path d="M 1 -3.3125 L 1 0 L 0.234375 0 L 0.234375 -3.3125 Z M 1 -3.3125 "/></g></g></g><g fill="#f7993e" fill-opacity="1"><g transform="translate(99.70665, 27.979281)"><g><path d="M 3.03125 -3.3125 L 1.375 -0.65625 L 2.921875 -0.65625 L 2.921875 0 L 0.0625 0 L 1.703125 -2.65625 L 0.296875 -2.65625 L 0.296875 -3.3125 Z M 3.03125 -3.3125 "/></g></g></g><g fill="#f7993e" fill-opacity="1"><g transform="translate(102.78848, 27.979281)"><g><path d="M 2.140625 -3.3125 L 2.140625 -2.65625 L 1 -2.65625 L 1 -1.984375 L 2.09375 -1.984375 L 2.09375 -1.328125 L 1 -1.328125 L 1 -0.65625 L 2.140625 -0.65625 L 2.140625 0 L 0.234375 0 L 0.234375 -3.3125 Z M 2.140625 -3.3125 "/></g></g></g></svg>