<?xml version="1.0" encoding="utf-8"?>
<!-- Uploaded to: SVG Repo, www.svgrepo.com, Generator: SVG Repo Mixer Tools -->
<svg width="800px" height="800px" viewBox="-17.75 0 105.335 105.335" xmlns="http://www.w3.org/2000/svg">
  <g id="Group_1127" data-name="Group 1127" transform="translate(-1980.325 -14271.444)">
    <path id="Path_774" data-name="Path 774" d="M-3203.479,2514.225l-2.2,5.613,2.052,9.928,5.9,2.013h56.909l4.317-4.462v-13.561l-66.983.469" transform="translate(5186 11845)" fill="#2c2938" fill-rule="evenodd"/>
    <path id="Path_775" data-name="Path 775" d="M-3165.622,2523.255a5.109,5.109,0,0,1-5.111,5.112,5.112,5.112,0,0,1-5.112-5.112,5.113,5.113,0,0,1,5.112-5.114,5.11,5.11,0,0,1,5.111,5.114" transform="translate(5186 11845)" fill="#e5e5e3" fill-rule="evenodd"/>
    <path id="Path_776" data-name="Path 776" d="M-3139.3,2426.444h-59.681l-5.4,3.238-1.3,84.074h69.179l.649-3.13v-74.145l-3.455-10.037" transform="translate(5186 11845)" fill="#d858a3" fill-rule="evenodd"/>
    <path id="Path_777" data-name="Path 777" d="M-3143.619,2435.621l-2.765-2.206-2.685-.209-3.373,1.613-.668-.458-2.462-1.155-2.3.129-3.015,1.767-.9,2.817.256,2.71,2.869,4.22,2.71,2.968,3.738,2.483,1.989-1.64,4.836-4.27,2.382-5.53-.614-3.239" transform="translate(5186 11845)" fill="#ef204d" fill-rule="evenodd"/>
    <path id="Path_778" data-name="Path 778" d="M-3165.622,2455.082l-10.223-.721-9.452,6.906-3.6,15.542,14.391-6.709,13.814-12-4.931-3.023" transform="translate(5186 11845)" fill="#f1ca25" fill-rule="evenodd"/>
    <path id="Path_779" data-name="Path 779" d="M-3164,2461.668l5.693-.4,5.254,3.846,2,8.646-8.006-3.733-7.691-6.673,2.746-1.685" transform="translate(5186 11845)" fill="#f1ca25" fill-rule="evenodd"/>
    <path id="Path_780" data-name="Path 780" d="M-3167.025,2465.584l-17.193,10.142v5.039l6.907,12.735,10.144,1.079,7.265-7.845,3.96-13.453-11.083-7.7" transform="translate(5186 11845)" fill="#e7aca1" fill-rule="evenodd"/>
    <path id="Path_781" data-name="Path 781" d="M-3155.942,2475.663l-2.3,11.726-3.541,7.19,9.389,4.536v-23.452h-3.547" transform="translate(5186 11845)" fill="#f0ae19" fill-rule="evenodd"/>
    <path id="Path_782" data-name="Path 782" d="M-3180.979,2489.185l-3.239-3.594-3.093-8.782-3.022,2.3,1.437,20.579,8.493-4.317-.576-6.19" transform="translate(5186 11845)" fill="#f0ae19" fill-rule="evenodd"/>
    <path id="Path_783" data-name="Path 783" d="M-3144.429,2503.865l-14.469-5.613-4.957-5.325-2.894,2.3-5.308.433-7.769-1.083-8.2,5.113-9.787,5.177-1.294,8.635,56.105-.574-1.424-9.064" transform="translate(5186 11845)" fill="#946fa9" fill-rule="evenodd"/>
    <path id="Path_785" data-name="Path 785" d="M-3170.765,2525.163a2.307,2.307,0,0,1-2.3-2.306,2.3,2.3,0,0,1,2.3-2.3,2.3,2.3,0,0,1,2.3,2.3A2.306,2.306,0,0,1-3170.765,2525.163Zm6.91-2.306a6.908,6.908,0,0,0-6.91-6.909,6.909,6.909,0,0,0-6.905,6.909,6.9,6.9,0,0,0,6.905,6.905,6.9,6.9,0,0,0,6.91-6.905" transform="translate(5186 11845)" fill="#070505" fill-rule="evenodd"/>
    <path id="Path_786" data-name="Path 786" d="M-3156.212,2435.369a3.1,3.1,0,0,1,2.226.931l1.646,1.679,1.638-1.679a3.105,3.105,0,0,1,2.227-.931,3.113,3.113,0,0,1,3.109,3.109c0,3.366-4.378,7.076-6.982,8.867-2.6-1.784-6.974-5.485-6.974-8.867A3.113,3.113,0,0,1-3156.212,2435.369Zm-2.328,12.923a32.447,32.447,0,0,0,5.039,3.775l1.161.676,1.159-.676a32.89,32.89,0,0,0,5.033-3.775c3.575-3.274,5.39-6.576,5.39-9.814a7.724,7.724,0,0,0-7.717-7.716,7.618,7.618,0,0,0-3.865,1.035,7.667,7.667,0,0,0-3.872-1.035,7.722,7.722,0,0,0-7.711,7.716c0,3.238,1.809,6.54,5.383,9.814" transform="translate(5186 11845)" fill="#070505" fill-rule="evenodd"/>
  </g>
</svg>