<?xml version="1.0" encoding="UTF-8"?> <svg xmlns="http://www.w3.org/2000/svg" xmlns:xlink="http://www.w3.org/1999/xlink" width="625" height="431" viewBox="0 0 625 431"><defs><clipPath id="clip-path"><rect id="Rectangle_1489" data-name="Rectangle 1489" width="625" height="431" transform="translate(960 180)" fill="#fff"></rect></clipPath><linearGradient id="linear-gradient" y1="0.5" x2="1" y2="0.5" gradientUnits="objectBoundingBox"><stop offset="0" stop-color="#40d5e6"></stop><stop offset="1" stop-color="#57f"></stop></linearGradient></defs><g id="Mask_Group_58" data-name="Mask Group 58" transform="translate(-960 -180)" clip-path="url(#clip-path)"><g id="Group_12350" data-name="Group 12350" transform="translate(885.714 -360.484)"><g id="Group_12349" data-name="Group 12349" transform="translate(163.203 559.712)"><g id="Group_12188" data-name="Group 12188" transform="translate(159.947 221.088)"><rect id="Rectangle_1458" data-name="Rectangle 1458" width="41.898" height="127.26" transform="translate(41.898 127.26) rotate(180)" fill="#4da8f2"></rect></g><g id="Group_12189" data-name="Group 12189" transform="translate(0 27.165)"><rect id="Rectangle_1459" data-name="Rectangle 1459" width="361.791" height="255.225" rx="15.981" transform="translate(361.791 255.225) rotate(180)" fill="#b5deff"></rect></g><g id="Group_12190" data-name="Group 12190" transform="translate(14.169 0)"><rect id="Rectangle_1460" data-name="Rectangle 1460" width="333.453" height="242.394" transform="translate(333.453 242.394) rotate(180)" fill="#fff"></rect></g><g id="Group_12191" data-name="Group 12191" transform="translate(14.169 0)"><rect id="Rectangle_1461" data-name="Rectangle 1461" width="333.453" height="29.277" transform="translate(333.453 29.277) rotate(180)" fill="url(#linear-gradient)"></rect></g><g id="Group_12192" data-name="Group 12192" transform="translate(169.226 249.025)"><path id="Path_20427" data-name="Path 20427" d="M310.178,787.664a11.669,11.669,0,1,0,11.671-11.671A11.67,11.67,0,0,0,310.178,787.664Z" transform="translate(-310.178 -775.993)" fill="#4da8f2"></path></g><g id="Group_12195" data-name="Group 12195" transform="translate(122.669 50.1)"><g id="Group_12194" data-name="Group 12194" transform="translate(0 0)"><g id="Group_12193" data-name="Group 12193"><rect id="Rectangle_1462" data-name="Rectangle 1462" width="107.693" height="8.675" rx="3.517" transform="translate(107.693 8.675) rotate(180)" fill="#dfe1e8"></rect></g></g></g><g id="Group_12198" data-name="Group 12198" transform="translate(122.669 65.746)"><g id="Group_12197" data-name="Group 12197" transform="translate(0 0)"><g id="Group_12196" data-name="Group 12196"><path id="Rectangle_1463" data-name="Rectangle 1463" d="M3.518,0H104.176a3.518,3.518,0,0,1,3.518,3.518V5.158a3.517,3.517,0,0,1-3.517,3.517H3.517A3.517,3.517,0,0,1,0,5.158V3.518A3.518,3.518,0,0,1,3.518,0Z" transform="translate(107.693 8.675) rotate(180)" fill="#dfe1e8"></path></g></g></g><g id="Group_12201" data-name="Group 12201" transform="translate(122.669 81.393)"><g id="Group_12200" data-name="Group 12200" transform="translate(0 0)"><g id="Group_12199" data-name="Group 12199"><path id="Rectangle_1464" data-name="Rectangle 1464" d="M3.517,0H104.176a3.518,3.518,0,0,1,3.518,3.518v1.64a3.518,3.518,0,0,1-3.518,3.518H3.517A3.517,3.517,0,0,1,0,5.158V3.517A3.517,3.517,0,0,1,3.517,0Z" transform="translate(107.693 8.675) rotate(180)" fill="#dfe1e8"></path></g></g></g><g id="Group_12205" data-name="Group 12205" transform="translate(29.607 111.501)"><g id="Group_12204" data-name="Group 12204"><g id="Group_12203" data-name="Group 12203"><g id="Group_12202" data-name="Group 12202"><path id="Path_20428" data-name="Path 20428" d="M332.815,770.389h-125a18.924,18.924,0,0,1-18.9-18.9V675.454a18.924,18.924,0,0,1,18.9-18.9h125a18.924,18.924,0,0,1,18.9,18.9v76.032A18.923,18.923,0,0,1,332.815,770.389Zm-125-111.468a16.551,16.551,0,0,0-16.533,16.533v76.032a16.552,16.552,0,0,0,16.533,16.534h125a16.553,16.553,0,0,0,16.532-16.534V675.454a16.551,16.551,0,0,0-16.532-16.533Z" transform="translate(-188.917 -656.552)" fill="#dfe1e8"></path></g></g></g></g><g id="Group_12208" data-name="Group 12208" transform="translate(50.048 121.872)"><g id="Group_12207" data-name="Group 12207" transform="translate(0 0)"><g id="Group_12206" data-name="Group 12206"><rect id="Rectangle_1465" data-name="Rectangle 1465" width="121.917" height="18.284" rx="7.25" transform="translate(121.917 18.284) rotate(180)" fill="#dfe1e8"></rect></g></g></g><rect id="Rectangle_1466" data-name="Rectangle 1466" width="188.494" height="9.607" transform="translate(86.649 343.544)" fill="#b5deff"></rect><g id="Group_12217" data-name="Group 12217" transform="translate(255.857 109.349)"><path id="Path_20429" data-name="Path 20429" d="M439.683,681.817A27.134,27.134,0,0,1,421.1,707.572c-.161.055-.326.108-.49.159a27.137,27.137,0,1,1,19.073-25.914Z" transform="translate(-385.418 -654.683)" fill="#eef0f7"></path><g id="Group_12209" data-name="Group 12209" transform="translate(20.513 12.499)"><path id="Path_20430" data-name="Path 20430" d="M403.371,677.309s-1.853-11.989,8.077-11.767,9.8,6.15,9.62,12.033-3.982,5.442.31,13.626-3.716,8.184-3.716,8.184l-6.214-8.538Z" transform="translate(-403.234 -665.538)" fill="#3c4145"></path></g><g id="Group_12210" data-name="Group 12210" transform="translate(20.628 13.512)"><path id="Path_20431" data-name="Path 20431" d="M410.347,666.558s-6.725,1.062-6.991,10.617,1.816,11.591,7.7,9.6,7.743-11.99,7.876-13.537S419.417,665.408,410.347,666.558Z" transform="translate(-403.334 -666.419)" fill="#eea886"></path></g><g id="Group_12211" data-name="Group 12211" transform="translate(14.815 37.376)"><path id="Path_20432" data-name="Path 20432" d="M422.92,696.658a6.5,6.5,0,0,1-3.767,6c-.161.055-.326.108-.49.159a27.237,27.237,0,0,1-20.12-1.6c-.819-1.633.366-3.949,2.773-7.5,1.652-2.443,3.273-4.938,6.045-6.151,4.09-.652,8.419-.69,11.469,1.034C421.26,689.966,422.88,692.46,422.92,696.658Z" transform="translate(-398.285 -687.144)" fill="#e55353"></path></g><g id="Group_12212" data-name="Group 12212" transform="translate(16.071 38.55)"><path id="Path_20433" data-name="Path 20433" d="M402.466,693.411l-3.09,4.873c.007-.026.212-.765.562-2.9.067-.406.138-.862.215-1.372a3.19,3.19,0,0,1,.1-.45h0c1.323-3.051,5.45-5.321,5.6-5.4Z" transform="translate(-399.376 -688.164)" fill="#e55353"></path></g><g id="Group_12213" data-name="Group 12213" transform="translate(31.716 38.766)"><path id="Path_20434" data-name="Path 20434" d="M422.076,700.147a27.02,27.02,0,0,1-5.146,2.328c-.161.055-.326.108-.49.159-.685-1.77-1.28-3.3-1.409-3.7-.037-.115-.127-.331-.246-.621-.559-1.356-1.805-4.368-1.82-6.725-.01-1.52.492-2.766,2.021-3.12a3.963,3.963,0,0,1,1.622-.06c1.708.309,2.7,1.842,3.26,3.2a.644.644,0,0,1,.025.069,10.479,10.479,0,0,1,.61,2.168s.027.107.076.3c.1.38.279,1.1.517,2.043C421.368,697.273,421.71,698.65,422.076,700.147Z" transform="translate(-412.964 -688.352)" fill="#eea886"></path></g><g id="Group_12214" data-name="Group 12214" transform="translate(23.49 29.425)"><path id="Path_20435" data-name="Path 20435" d="M414.461,680.38c-.584,1.1-1.2,7.933-1.2,7.933s-8.224,3.109-7.383,1.351a6.744,6.744,0,0,0,.5-2.727,13.115,13.115,0,0,0-.092-1.659c-.021-.181-.038-.284-.038-.284S415.044,679.279,414.461,680.38Z" transform="translate(-405.82 -680.239)" fill="#eea886"></path></g><g id="Group_12215" data-name="Group 12215" transform="translate(20.65 13.351)"><path id="Path_20436" data-name="Path 20436" d="M407.6,673.436s3.45,5.619,6.592,7.831,1.547,3.982,1.547,3.982,8.2-17.254.4-18.448-12.57-1.284-12.792,10.4C403.353,677.2,406.894,673.348,407.6,673.436Z" transform="translate(-403.353 -666.279)" fill="#3c4145"></path></g><g id="Group_12216" data-name="Group 12216" transform="translate(23.961 33.759)"><path id="Path_20437" data-name="Path 20437" d="M410.919,684c-1.263,1.862-4.6,2.364-4.6,2.364h0a13.114,13.114,0,0,0-.092-1.659A9.4,9.4,0,0,0,410.919,684Z" transform="translate(-406.228 -684.003)" fill="#a77860"></path></g><path id="Path_20438" data-name="Path 20438" d="M400.19,693.529h0a6.9,6.9,0,0,0-.325,1.858l1.211-1.828s2.164-3.1,2.9-3.909a11.4,11.4,0,0,1,1.816-1.515S401.483,690.182,400.19,693.529Z" transform="translate(-383.231 -649.618)" fill="#bd4444"></path><path id="Path_20439" data-name="Path 20439" d="M414.608,698.13s5.279-2.07,6.842-2.191c0,0-1.062-8.477-6.247-7.578S414.608,698.13,414.608,698.13Z" transform="translate(-381.283 -649.594)" fill="#e55353"></path><path id="Path_20440" data-name="Path 20440" d="M406.54,687.628s-3.874,5.96-2.564,6.48,8.413-.694,11.433-6.355C415.409,687.753,410.894,685.438,406.54,687.628Z" transform="translate(-382.649 -649.838)" fill="#eea886"></path></g><g id="Group_12218" data-name="Group 12218" transform="translate(67.022 287.02)"><rect id="Rectangle_1467" data-name="Rectangle 1467" width="3.299" height="101.644" fill="#706865"></rect></g><g id="Group_12228" data-name="Group 12228" transform="translate(249.536 22.019)"><path id="Path_20441" data-name="Path 20441" d="M450.536,614.141a35.163,35.163,0,0,1-8.273,22.711,35.542,35.542,0,0,1-3.945,4c-.405.35-.819.693-1.24,1.022q-.713.563-1.453,1.09a35.118,35.118,0,0,1-16.057,6.215c-1.044.129-2.1.212-3.176.246-.385.013-.771.017-1.159.017q-1.713,0-3.386-.16a34.7,34.7,0,0,1-3.673-.547,35.342,35.342,0,0,1-18-9.724c-.216-.219-.432-.441-.642-.666a34.428,34.428,0,0,1-2.241-2.622,35.3,35.3,0,1,1,63.24-21.585Z" transform="translate(-379.928 -578.836)" fill="#eef0f7"></path><g id="Group_12227" data-name="Group 12227" transform="translate(7.368 15.488)"><g id="Group_12219" data-name="Group 12219" transform="translate(4.939 31.083)"><path id="Path_20442" data-name="Path 20442" d="M436.612,627.5l-2.6,9.344a35.117,35.117,0,0,1-16.057,6.215c-1.044.129-2.1.212-3.176.246-.385.013-.771.017-1.159.017q-1.713,0-3.386-.16a34.712,34.712,0,0,1-3.673-.547,35.094,35.094,0,0,1-14.43-6.586c-.5-3.088-1.036-6.507-1.508-9.705,2.6-.966,10.854-3.774,16.065-5.536l.218-.073c.114-.04.227-.079.339-.115l.884-.3c.286-.1.558-.188.811-.275,1.067-.358,1.82-.613,2.09-.7l0,0c.069-.023.1-.037.1-.037l.061,0,7.009.524,1.176.089.366.028s.054.012.16.039c.423.107,1.65.431,3.276.926l.008,0C427.338,622.166,434.072,624.578,436.612,627.5Z" transform="translate(-390.617 -619.284)" fill="#d9c7c1"></path></g><g id="Group_12220" data-name="Group 12220" transform="translate(19.583 2.191)"><path id="Path_20443" data-name="Path 20443" d="M413.526,594.286s8.405,1.419,6.98,14.578-8.844,12-9.341,11.979-7.462.159-7.83-15.931C403.335,604.912,403.228,593.017,413.526,594.286Z" transform="translate(-403.335 -594.191)" fill="#eea987"></path></g><g id="Group_12221" data-name="Group 12221" transform="translate(22.419 23.506)"><path id="Path_20444" data-name="Path 20444" d="M416.836,614.225s-.289,5.416.221,6.594-6.748,4.908-11.259.661c0,0,.912-5.92.629-8.01S416.836,614.225,416.836,614.225Z" transform="translate(-405.798 -612.703)" fill="#eea987"></path></g><g id="Group_12222" data-name="Group 12222" transform="translate(36.376 12.718)"><path id="Path_20445" data-name="Path 20445" d="M418.469,603.759s.933-.974,1.26.026-1.49,5.436-1.376,5.636c0,0-.173.386-.392.17S418.469,603.759,418.469,603.759Z" transform="translate(-417.92 -603.334)" fill="#eea987"></path></g><g id="Group_12223" data-name="Group 12223" transform="translate(18.356 12.331)"><path id="Path_20446" data-name="Path 20446" d="M403.593,603.455s-.892-1.012-1.261-.025.976,5.415,1.143,5.689c0,0,.289.454.518.249S403.593,603.455,403.593,603.455Z" transform="translate(-402.269 -602.998)" fill="#eea987"></path></g><g id="Group_12224" data-name="Group 12224" transform="translate(18.994)"><path id="Path_20447" data-name="Path 20447" d="M421.293,604.313c-.291,1.8-.563,3.139-.563,3.139l-1.223,1.6a32.32,32.32,0,0,0-.115-4.087c-.071-.211-.154-.583-.24-.987-.142-.666-.284-1.417-.383-1.666-.158-.4-7.2-2.458-13.481.431,0,0,.054.543.05,1.15,0,.7-.078,1.495-.4,1.613-.6.22-.351,4.135-.351,4.135l-.978-1.13s-.283-2.045-.561-4.395l0-.016c-.063-.548-.129-1.112-.189-1.671-.142-2.365.093-6.656,3.171-9.178,2.077-.889,5.393-1.644,10.921.047a3.814,3.814,0,0,1,1.624.427C422.012,597.513,421.293,604.313,421.293,604.313Z" transform="translate(-402.823 -592.288)" fill="#e8734d"></path></g><path id="Path_20448" data-name="Path 20448" d="M406.845,615.81A5.349,5.349,0,0,0,411.3,617.6a6.065,6.065,0,0,0,4.47-1.695s-1.476,3.087-4.485,3.053S406.845,615.81,406.845,615.81Z" transform="translate(-383.221 -588.727)" fill="#c78d71"></path><path id="Path_20449" data-name="Path 20449" d="M405.054,620.635s2.252,3.922,6.526,4.291c2.712.234,5.058-3.2,6.158-4.889A16.412,16.412,0,0,0,405.054,620.635Z" transform="translate(-383.492 -588.238)" fill="#eea987"></path><path id="Path_20450" data-name="Path 20450" d="M416.1,618.828a23.325,23.325,0,0,1-5.379,4.661L413,627l3.881-6.927Z" transform="translate(-382.634 -588.27)" fill="#eddad3"></path><path id="Path_20451" data-name="Path 20451" d="M406.126,619.284a15.649,15.649,0,0,0,5.5,4.136l-2.5,3.613-4.367-6.32Z" transform="translate(-383.536 -588.201)" fill="#eddad3"></path><path id="Path_20452" data-name="Path 20452" d="M410.985,622.876l1.95,2.968a4.06,4.06,0,0,1-3.954-.074Z" transform="translate(-382.897 -587.657)" fill="#5073ab"></path><path id="Path_20453" data-name="Path 20453" d="M435.271,626.851s-.018.068-.055.2c-.215.761-1.039,3.691-2.109,7.588-.405.35-.819.693-1.24,1.022q-.713.563-1.453,1.09a35.117,35.117,0,0,1-16.057,6.215c.523-12.221,1.974-23.058,1.974-23.058q1.717.451,3.256.895l.008,0c8.958,2.571,13.5,4.827,15.051,5.683l.033.018C435.082,626.729,435.271,626.851,435.271,626.851Z" transform="translate(-382.084 -588.107)" fill="#323657"></path><path id="Path_20454" data-name="Path 20454" d="M407.05,642.417a35.341,35.341,0,0,1-18-9.724c-.216-.219-.432-.441-.643-.666-.618-2.624-1.028-4.336-1.056-4.448v-.006s4.368-2.87,19.821-6.994v.009C407.176,620.944,407.185,630.857,407.05,642.417Z" transform="translate(-386.171 -588.005)" fill="#323657"></path><path id="Path_20455" data-name="Path 20455" d="M412.3,625.88c-.144,3.218-.158,9.462-.108,16.588-.385.013-.771.017-1.159.017q-1.713,0-3.386-.16A108.063,108.063,0,0,1,410,625.869c.17-.712.275-1.067.275-1.067l2.071.342C412.328,625.369,412.315,625.613,412.3,625.88Z" transform="translate(-383.099 -587.365)" fill="#5073ab"></path><g id="Group_12225" data-name="Group 12225" transform="translate(49.783 38.375)"><path id="Path_20456" data-name="Path 20456" d="M434.749,629.77a35.555,35.555,0,0,1-3.945,4c-.405.35-.819.693-1.24,1.022l2.778-9.172v0a.2.2,0,0,1,.033.022,2.3,2.3,0,0,1,.538.543A17.256,17.256,0,0,1,434.749,629.77Z" transform="translate(-429.564 -625.617)" fill="#323657"></path></g><g id="Group_12226" data-name="Group 12226" transform="translate(0 39.57)"><path id="Path_20457" data-name="Path 20457" d="M389.21,631.774c-.216-.219-.432-.441-.642-.666a34.44,34.44,0,0,1-2.241-2.622,4.093,4.093,0,0,1,1.184-1.832v.006Z" transform="translate(-386.327 -626.655)" fill="#323657"></path></g></g></g><rect id="Rectangle_1468" data-name="Rectangle 1468" width="47.56" height="11.063" rx="3.454" transform="translate(28.096 9.107)" fill="#f5f7ff"></rect><g id="Group_12233" data-name="Group 12233" transform="translate(204.915 112.686)"><g id="Group_12229" data-name="Group 12229"><path id="Rectangle_1469" data-name="Rectangle 1469" d="M4.624,0h16.2a4.625,4.625,0,0,1,4.625,4.625v16.2a4.624,4.624,0,0,1-4.624,4.624H4.625A4.625,4.625,0,0,1,0,20.822V4.624A4.624,4.624,0,0,1,4.624,0Z" fill="#78c2ff"></path></g><g id="Group_12232" data-name="Group 12232" transform="translate(5.05 7.119)"><g id="Group_12231" data-name="Group 12231"><g id="Group_12230" data-name="Group 12230"><path id="Path_20458" data-name="Path 20458" d="M352.428,674.973,346,669.365a1.267,1.267,0,1,1,1.665-1.91l4.549,3.967,6.487-7.236a1.267,1.267,0,1,1,1.886,1.693Z" transform="translate(-345.56 -663.764)" fill="#f3f3f3"></path></g></g></g></g><g id="Group_12352" data-name="Group 12352" transform="translate(50.048 150.356)" opacity="0.1"><path id="Path_20531" data-name="Path 20531" d="M199.945,603.391H296.67a11.072,11.072,0,0,1,11.077,11.077v36.922a11.072,11.072,0,0,1-11.077,11.077H261.984l4.761,11.658-20.939-11.658H199.993a11.071,11.071,0,0,1-11.075-11.077V614.468A11.028,11.028,0,0,1,199.945,603.391Z" transform="translate(-188.918 -603.391)" fill="#9b5c8f"></path><path id="Path_20532" data-name="Path 20532" d="M192.834,610.34a3.888,3.888,0,0,1,3.043-1.5q3.7-.291,4.2,3.476,2.245,15.143,4.879,25.651l10.578-20.143q1.448-2.753,3.622-2.9c2.126-.144,3.43,1.208,3.961,4.059a90.284,90.284,0,0,0,4.59,16.519q1.884-18.4,6.375-26.566a3.711,3.711,0,0,1,3.19-2.126,4.193,4.193,0,0,1,3.041.966,3.786,3.786,0,0,1,1.5,2.753,4.2,4.2,0,0,1-.483,2.32c-1.883,3.478-3.43,9.322-4.686,17.436-1.208,7.874-1.643,14.01-1.352,18.406a5.738,5.738,0,0,1-.579,3.188,3.117,3.117,0,0,1-2.56,1.739,4.858,4.858,0,0,1-3.817-1.787q-6.738-6.885-10.675-20.578-4.712,9.274-6.956,13.91c-2.851,5.459-5.265,8.26-7.295,8.406-1.3.1-2.414-1.016-3.38-3.334q-3.7-9.491-7.97-36.664a4.1,4.1,0,0,1,.771-3.236Zm103.807,7.583a11.128,11.128,0,0,0-7.728-5.6,12.743,12.743,0,0,0-2.61-.289c-4.636,0-8.4,2.414-11.35,7.245a25.6,25.6,0,0,0-3.768,13.622,18.711,18.711,0,0,0,2.318,9.565,11.127,11.127,0,0,0,7.729,5.6,12.6,12.6,0,0,0,2.609.29c4.686,0,8.453-2.416,11.352-7.247a25.893,25.893,0,0,0,3.767-13.67,17.82,17.82,0,0,0-2.318-9.517ZM290.554,631.3a12.775,12.775,0,0,1-3.67,7.149c-1.4,1.256-2.7,1.787-3.913,1.545-1.16-.24-2.126-1.254-2.851-3.14a12.263,12.263,0,0,1-.87-4.4,16.886,16.886,0,0,1,.339-3.526,15.622,15.622,0,0,1,2.56-5.748c1.595-2.366,3.286-3.332,5.023-3,1.16.242,2.128,1.256,2.851,3.141a12.265,12.265,0,0,1,.87,4.4,16.893,16.893,0,0,1-.339,3.574ZM266.4,617.923a11.227,11.227,0,0,0-7.729-5.6,12.725,12.725,0,0,0-2.609-.289c-4.636,0-8.4,2.414-11.35,7.245a25.6,25.6,0,0,0-3.769,13.622,18.711,18.711,0,0,0,2.318,9.565,11.127,11.127,0,0,0,7.729,5.6,12.6,12.6,0,0,0,2.609.29c4.684,0,8.453-2.416,11.352-7.247a25.876,25.876,0,0,0,3.767-13.67,18.287,18.287,0,0,0-2.318-9.517ZM260.267,631.3a12.788,12.788,0,0,1-3.67,7.149c-1.4,1.256-2.707,1.787-3.913,1.545-1.16-.24-2.126-1.254-2.851-3.14a12.263,12.263,0,0,1-.869-4.4,16.753,16.753,0,0,1,.339-3.526,15.623,15.623,0,0,1,2.56-5.748c1.595-2.366,3.284-3.332,5.023-3,1.16.242,2.126,1.256,2.851,3.141a12.263,12.263,0,0,1,.869,4.4,14.239,14.239,0,0,1-.339,3.574Z" transform="translate(-186.068 -600.244)" fill="#fff"></path></g><g id="Group_12238" data-name="Group 12238" transform="translate(204.915 145.295)"><g id="Group_12234" data-name="Group 12234"><path id="Rectangle_1470" data-name="Rectangle 1470" d="M4.624,0h16.2a4.625,4.625,0,0,1,4.625,4.625v16.2a4.624,4.624,0,0,1-4.624,4.624H4.625A4.625,4.625,0,0,1,0,20.822V4.624A4.624,4.624,0,0,1,4.624,0Z" fill="#78c2ff"></path></g><g id="Group_12237" data-name="Group 12237" transform="translate(5.05 7.118)"><g id="Group_12236" data-name="Group 12236"><g id="Group_12235" data-name="Group 12235"><path id="Path_20459" data-name="Path 20459" d="M352.428,703.3,346,697.687a1.267,1.267,0,1,1,1.665-1.91l4.549,3.965,6.487-7.235a1.267,1.267,0,1,1,1.886,1.691Z" transform="translate(-345.56 -692.085)" fill="#f3f3f3"></path></g></g></g></g><g id="Group_12240" data-name="Group 12240" transform="translate(204.915 177.904)"><g id="Group_12239" data-name="Group 12239"><rect id="Rectangle_1471" data-name="Rectangle 1471" width="25.448" height="25.448" rx="4.625" fill="#78c2ff"></rect></g></g><g id="Group_12257" data-name="Group 12257" transform="translate(105.64 152.075)"><g id="Group_12243" data-name="Group 12243" transform="translate(6.142 195.711)"><g id="Group_12242" data-name="Group 12242"><g id="Group_12241" data-name="Group 12241"><path id="Path_20460" data-name="Path 20460" d="M272.8,868.02s.767,5.157,1.282,7.356,5.272,8.51,5.188,9.583-2.1,2.339-3.109,1.474-7.734-7.77-9.171-10.729-6.189-6.815-6.676-8.128,5.606-5.157,7.176-5.77S272.8,868.02,272.8,868.02Z" transform="translate(-260.287 -861.768)" fill="#1d2033"></path></g></g></g><path id="Path_20461" data-name="Path 20461" d="M261.6,787.7a19.081,19.081,0,0,0,1.091,3.9,28.633,28.633,0,0,1,1.84,4.1c.127.429.895,3.518,1.026,3.908s-.748,1-1.351.176a26.034,26.034,0,0,1-1.3-3.158c-.266-.645-1.086-2.686-1.307-2.313a24.056,24.056,0,0,0-.2,3.813,22.928,22.928,0,0,0,.621,3.766c.21.9,1.4,4.654.923,4.857s-.883.146-1.5-.862c0,0-.978.547-1.549-.69,0,0-.875.317-1.416-1.3a2.171,2.171,0,0,1-.862-.92,35.344,35.344,0,0,1-1.647-7.538c.013-2.015.486-3.421.4-4.843a37.9,37.9,0,0,0-.815-4.467Z" transform="translate(-254.861 -677.509)" fill="#eea886"></path><path id="Path_20462" data-name="Path 20462" d="M268.374,861.1l-1.831.808,5.31,6.212,1.759-1.947Z" transform="translate(-253.198 -666.158)" fill="#50558a"></path><path id="Path_20463" data-name="Path 20463" d="M285.173,872.406a19.562,19.562,0,0,1-2.178,3.978c-1,1.129-4.813,3.148-4.832,6.5-.023,3.637,6.432,2.628,8.956,2.5s2.716-2.077,3.779-4.136,2.134-1.71,2.333-3.371-.814-5.378-.814-5.378Z" transform="translate(-251.439 -664.447)" fill="#1d2033"></path><path id="Path_20464" data-name="Path 20464" d="M284.179,871.556,284,873.282a13.127,13.127,0,0,0,7.724.147l-.21-2.357Z" transform="translate(-250.556 -664.649)" fill="#50558a"></path><path id="Path_20465" data-name="Path 20465" d="M308.664,842.6c0-4.482-3.273-43.607-3.124-45.1.1-.974-.943-10.341-1.68-16.74-.006-.055-.013-.111-.018-.162,0-.014,0-.028,0-.04-.21-1.8-.39-3.347-.512-4.386l-.128-1.09c-.024-.2-.036-.3-.036-.3s-21.115-4.163-32.063-.23c-.456.165-.9.342-1.315.535,0,0-.025.187-.074.537-.111.809-.339,2.5-.644,4.791-.052.387-.1.791-.162,1.21-1.558,11.8-.556,24.616,2.17,37.739,2.676,12.874,4.15,22.5,4.425,24.372.363,2.454,1.436,9.2,2.625,16.605-5.812,7.169-10.767,13.263-10.4,13.867.918,1.5,9.072,9.94,9.521,8.445,0,0,1.471-1.667,3.778-4.325.733,4.528,1.235,7.619,1.235,7.619s8.938,2.134,12.227.191c0,0-1.292-9.821-2.641-20.5C300.054,855.813,308.664,844.945,308.664,842.6Zm-19.819-3.238c-.111-6.021-2.79-39.758-2.507-39.758,1.318,0,8.741,32.129,9.018,36.649.056.926-1.1,3-2.972,5.724-.843,1.227-1.828,2.586-2.914,4.033h0C289.1,842.7,288.862,840.27,288.845,839.358Z" transform="translate(-253.022 -679.518)" fill="#292c47"></path><g id="Group_12244" data-name="Group 12244" transform="translate(13.175 31.083)"><path id="Path_20466" data-name="Path 20466" d="M312.39,727l-5.679,20.372c-.195.66-.427,1.473-.674,2.418l-.01.036a.156.156,0,0,0-.007.025,80.071,80.071,0,0,0-2.469,15.316c-.237,4.191.541,21.045.541,21.045s-8.593,3.206-21.449,2.394c0,0-13.829-.322-12.7-8.8,2.983-22.442.066-31.694-.326-33.948,0,0-1.877-10.9-3.22-20.032,3.892-1.448,20.514-7.039,20.514-7.039l8.611.645S308.608,722.655,312.39,727Z" transform="translate(-266.396 -718.787)" fill="#d9c7c1"></path></g><g id="Group_12245" data-name="Group 12245" transform="translate(27.818 2.192)"><path id="Path_20467" data-name="Path 20467" d="M289.305,693.789s8.405,1.417,6.98,14.577-8.845,12-9.341,11.98-7.462.159-7.831-15.931C279.113,704.416,279.006,692.52,289.305,693.789Z" transform="translate(-279.113 -693.695)" fill="#eea987"></path></g><g id="Group_12246" data-name="Group 12246" transform="translate(30.654 23.506)"><path id="Path_20468" data-name="Path 20468" d="M292.616,713.729s-.29,5.416.221,6.594-6.749,4.908-11.261.66c0,0,.912-5.919.629-8.01S292.616,713.729,292.616,713.729Z" transform="translate(-281.576 -712.206)" fill="#eea987"></path></g><g id="Group_12247" data-name="Group 12247" transform="translate(44.611 12.718)"><path id="Path_20469" data-name="Path 20469" d="M294.247,703.262s.933-.974,1.26.027-1.489,5.437-1.376,5.637c0,0-.173.385-.391.169S294.247,703.262,294.247,703.262Z" transform="translate(-293.698 -702.837)" fill="#eea987"></path></g><g id="Group_12248" data-name="Group 12248" transform="translate(26.59 12.331)"><path id="Path_20470" data-name="Path 20470" d="M279.371,702.959s-.892-1.013-1.261-.027.976,5.415,1.145,5.689c0,0,.289.455.517.249S279.371,702.959,279.371,702.959Z" transform="translate(-278.047 -702.501)" fill="#eea987"></path></g><g id="Group_12249" data-name="Group 12249" transform="translate(27.229)"><path id="Path_20471" data-name="Path 20471" d="M297.07,703.816c-.29,1.8-.563,3.139-.563,3.139l-1.224,1.6a32.274,32.274,0,0,0-.114-4.087c-.071-.21-.154-.583-.239-.986-.141-.666-.284-1.417-.383-1.668-.158-.4-7.2-2.457-13.479.432,0,0,.053.543.049,1.15,0,.7-.081,1.495-.4,1.614-.6.22-.35,4.133-.35,4.133l-.978-1.129s-.283-2.044-.562-4.394l0-.017c-.063-.548-.128-1.112-.189-1.671-.14-2.364.093-6.656,3.171-9.178,2.077-.889,5.393-1.644,10.922.048a3.8,3.8,0,0,1,1.622.426C297.79,697.016,297.07,703.816,297.07,703.816Z" transform="translate(-278.602 -691.791)" fill="#e8734d"></path></g><path id="Path_20472" data-name="Path 20472" d="M282.623,715.314a5.35,5.35,0,0,0,4.458,1.792,6.066,6.066,0,0,0,4.47-1.695s-1.475,3.086-4.485,3.053S282.623,715.314,282.623,715.314Z" transform="translate(-250.764 -688.23)" fill="#c78d71"></path><path id="Path_20473" data-name="Path 20473" d="M280.831,720.138s2.254,3.922,6.527,4.291c2.712.235,5.058-3.2,6.159-4.889A16.424,16.424,0,0,0,280.831,720.138Z" transform="translate(-251.035 -687.741)" fill="#eea987"></path><path id="Path_20474" data-name="Path 20474" d="M291.879,718.331a23.327,23.327,0,0,1-5.379,4.661l2.276,3.507,3.883-6.927Z" transform="translate(-250.177 -687.773)" fill="#eddad3"></path><path id="Path_20475" data-name="Path 20475" d="M281.9,718.787a15.61,15.61,0,0,0,5.5,4.136l-2.5,3.613-4.367-6.32Z" transform="translate(-251.08 -687.704)" fill="#eddad3"></path><path id="Path_20476" data-name="Path 20476" d="M286.763,722.379l1.951,2.968a4.062,4.062,0,0,1-3.953-.074Z" transform="translate(-250.44 -687.16)" fill="#5073ab"></path><path id="Path_20477" data-name="Path 20477" d="M269.066,781.29s10.547,3.891,34.4.226l-.318-4.318s-13.825,4.08-33.658.585Z" transform="translate(-252.816 -678.861)" fill="#1d2033"></path><path id="Path_20478" data-name="Path 20478" d="M292.133,719.409s-2.466,18.422-2.129,34.31,12.34,44.747,12.34,44.747,5.246-5.074,7.53-7.947c0,0-8.167-23.566-8.017-27.817s9.217-36.347,9.217-36.347S306.035,723.068,292.133,719.409Z" transform="translate(-249.651 -687.61)" fill="#323657"></path><path id="Path_20479" data-name="Path 20479" d="M282.955,720.084s.021,17.645-.318,33.533-2.431,45.472-2.431,45.472-11.747-1.861-14.03-4.733c0,0,4.759-27.5,4.609-31.756s-7.652-35.522-7.652-35.522S267.5,724.207,282.955,720.084Z" transform="translate(-253.714 -687.508)" fill="#323657"></path><rect id="Rectangle_1472" data-name="Rectangle 1472" width="6.479" height="4.818" transform="translate(30.634 99.667)" fill="#3a4066"></rect><path id="Path_20480" data-name="Path 20480" d="M286.127,724.305s-2.895,9.878-3.147,29.5.356,25.244.356,25.244l2.259,4.471,3.01-4.665s-.965-45.145-.406-54.2Z" transform="translate(-250.719 -686.869)" fill="#5073ab"></path><g id="Group_12254" data-name="Group 12254" transform="translate(45.059 100.39)"><g id="Group_12253" data-name="Group 12253"><g id="Group_12252" data-name="Group 12252"><g id="Group_12251" data-name="Group 12251"><g id="Group_12250" data-name="Group 12250"><path id="Path_20481" data-name="Path 20481" d="M301.068,789.613a3.885,3.885,0,0,0,.9-.807s.3-.636.545-1.077a3.472,3.472,0,0,1,.2-.332,6.309,6.309,0,0,0,1.166-1.792,37.505,37.505,0,0,0,.588-4.923l-2.486-.729-2.212-.973s-4.842,3.711-5.247,4.494a1.976,1.976,0,0,0-.1.228,7.167,7.167,0,0,0-.23,1.675c-.035.138-.261,1.531.064,1.839a1.7,1.7,0,0,0,1.423.5,3.878,3.878,0,0,0,1.81.876,2.526,2.526,0,0,0,1.959.586S300.394,789.874,301.068,789.613Z" transform="translate(-294.087 -778.981)" fill="#eea886"></path></g></g></g></g></g><g id="Group_12255" data-name="Group 12255" transform="translate(48.869 38.746)"><path id="Path_20482" data-name="Path 20482" d="M297.4,786.639a26.1,26.1,0,0,0,8.069,4.542s15.608-25.433,15.805-27.267c.182-1.7-7.744-36.284-11.321-38.472l-6.5,19.02c.431-.125,7.393,14.449,7.421,16.323C310.912,763.3,297.4,786.639,297.4,786.639Z" transform="translate(-297.396 -725.442)" fill="#323657"></path></g><g id="Group_12256" data-name="Group 12256" transform="translate(0 39.571)"><path id="Path_20483" data-name="Path 20483" d="M263.533,800.221a39.556,39.556,0,0,1-8.58.365s1.976-32.646,1.779-34.482c-.182-1.7,4.066-37.755,7.641-39.945l6.38,19.22c-.431-.127-4.276,19.66-4.3,21.535C266.412,769.427,263.533,800.221,263.533,800.221Z" transform="translate(-254.953 -726.159)" fill="#323657"></path></g><path id="Path_20484" data-name="Path 20484" d="M294.171,781.731l10.029,5.2-3.942,7.3-8.536-9.127Z" transform="translate(-249.386 -678.175)" fill="#292c47"></path><path id="Path_20485" data-name="Path 20485" d="M289.523,832.885l-1.014,19.848-1.9-15.813h0C287.695,835.471,288.68,834.112,289.523,832.885Z" transform="translate(-250.16 -670.43)" fill="#1d2033"></path></g><path id="Path_20486" data-name="Path 20486" d="M439.683,737.975a27.133,27.133,0,1,1-27.133-27.134A27.134,27.134,0,0,1,439.683,737.975Z" transform="translate(-129.561 -536.832)" fill="#eef0f7"></path><g id="Group_12346" data-name="Group 12346" transform="translate(254.158 198.41)"><g id="Group_12258" data-name="Group 12258" transform="translate(93.848 80.492)"><rect id="Rectangle_1473" data-name="Rectangle 1473" width="37.652" height="2.235" transform="translate(37.652 2.235) rotate(180)" fill="#e2d2ca"></rect></g><g id="Group_12259" data-name="Group 12259" transform="translate(123.154 88.543)"><rect id="Rectangle_1474" data-name="Rectangle 1474" width="3.299" height="101.646" fill="#706865"></rect></g><g id="Group_12260" data-name="Group 12260" transform="translate(73.569 79.859)"><rect id="Rectangle_1475" data-name="Rectangle 1475" width="26.172" height="3.192" transform="translate(26.172 3.192) rotate(180)" fill="#ccbdb7"></rect></g><g id="Group_12261" data-name="Group 12261" transform="translate(81.7 52.624)"><rect id="Rectangle_1476" data-name="Rectangle 1476" width="9.911" height="30.103" transform="translate(9.911 30.103) rotate(180)" fill="#4667a8"></rect></g><g id="Group_12262" data-name="Group 12262" transform="translate(0 82.764)"><rect id="Rectangle_1477" data-name="Rectangle 1477" width="145.006" height="5.779" transform="translate(145.006 5.779) rotate(180)" fill="#b59074"></rect></g><g id="Group_12263" data-name="Group 12263" transform="translate(156.815 38.075)"><path id="Path_20487" data-name="Path 20487" d="M536.16,774.811s1.586,22.242-2.761,24.9c-2.722,1.668-13.576,7.291-13.254,8.345s6.129,9.385,6.129,9.385,20.848-13.729,21.521-18.056c.656-4.227-1.026-32.565-3.892-33.871-2.146-.978-3.279-.168-5.984,1.84C534.122,770.175,536.16,774.811,536.16,774.811Z" transform="translate(-520.138 -765.102)" fill="#ffc05c"></path></g><g id="Group_12266" data-name="Group 12266" transform="translate(147.184 175.731)"><g id="Group_12265" data-name="Group 12265"><g id="Group_12264" data-name="Group 12264"><path id="Path_20488" data-name="Path 20488" d="M511.773,885.238s.648,4.5.73,5.177,7.212-.4,7.212-.4l.577-5.357S512.665,884.6,511.773,885.238Z" transform="translate(-511.773 -884.658)" fill="#424773"></path></g></g></g><g id="Group_12269" data-name="Group 12269" transform="translate(135.462 180.61)"><g id="Group_12268" data-name="Group 12268"><g id="Group_12267" data-name="Group 12267"><path id="Path_20489" data-name="Path 20489" d="M513.969,889.2a19.235,19.235,0,0,1-4.447,3.894c-2.184,1.182-5.618,1.651-6.912,2.874-.932.883-3.4,4.685,5.68,4.608s13.452.536,14.423-.92-1.406-10.76-1.406-10.76S519.159,889.67,513.969,889.2Z" transform="translate(-501.593 -888.896)" fill="#292c47"></path></g></g></g><g id="Group_12272" data-name="Group 12272" transform="translate(101.496 175.773)"><g id="Group_12271" data-name="Group 12271"><g id="Group_12270" data-name="Group 12270"><path id="Path_20490" data-name="Path 20490" d="M472.093,885.277s.647,4.5.729,5.174,7.211-.4,7.211-.4l.578-5.356S472.984,884.641,472.093,885.277Z" transform="translate(-472.093 -884.695)" fill="#424773"></path></g></g></g><g id="Group_12275" data-name="Group 12275" transform="translate(85.582 180.653)"><g id="Group_12274" data-name="Group 12274"><g id="Group_12273" data-name="Group 12273"><path id="Path_20491" data-name="Path 20491" d="M474.838,889.238a19.253,19.253,0,0,1-4.446,3.893c-2.185,1.183-10.227,2.154-11.519,3.377-.933.882-2.484,4.439,10.285,4.1,9.073-.236,13.453.537,14.425-.92s-1.407-10.76-1.407-10.76S480.152,889.76,474.838,889.238Z" transform="translate(-458.271 -888.933)" fill="#292c47"></path></g></g></g><g id="Group_12278" data-name="Group 12278" transform="translate(95.768 98.577)"><g id="Group_12277" data-name="Group 12277"><g id="Group_12276" data-name="Group 12276"><path id="Path_20492" data-name="Path 20492" d="M541.535,817.649s-25.927,4.386-31.782,5.3-37.607,8.821-41.577,11.228c-3.161,1.916,1.658,47.942,2.783,65.5h12.505l.907-52.673c15.008.375,25.718-3.511,36.645-1.851s20.038,4.02,26.982-5.3C548,839.863,548.257,819.681,541.535,817.649Z" transform="translate(-467.118 -817.649)" fill="#292c47"></path></g></g></g><g id="Group_12281" data-name="Group 12281" transform="translate(140.757 104.183)"><g id="Group_12280" data-name="Group 12280"><g id="Group_12279" data-name="Group 12279"><path id="Path_20493" data-name="Path 20493" d="M510.065,898.988l12.188-.754,1.187-51.961a74.166,74.166,0,0,0,13.9-.882l9.839-22.872c-8.623,1.724-36.253,8.693-39.939,10.927C504.084,835.362,508.939,881.428,510.065,898.988Z" transform="translate(-506.192 -822.518)" fill="#292c47"></path></g></g></g><g id="Group_12284" data-name="Group 12284" transform="translate(143.152 0.939)"><g id="Group_12283" data-name="Group 12283"><g id="Group_12282" data-name="Group 12282"><path id="Path_20494" data-name="Path 20494" d="M523.37,733.3s-9.5-2.626-13.132,4.752-1.98,21.365,2.809,22.681,11.677-.2,13.666-4.791,3.575-11.118,3.1-15.344S525.894,734.313,523.37,733.3Z" transform="translate(-508.272 -732.85)" fill="#eea886"></path></g></g></g><g id="Group_12287" data-name="Group 12287" transform="translate(149.877 20.888)"><g id="Group_12286" data-name="Group 12286"><g id="Group_12285" data-name="Group 12285"><path id="Path_20495" data-name="Path 20495" d="M514.646,756.641s.1,5.611-.513,6.807,13.234.9,13.234.9-2.182-6.738-.944-12.478C527.648,746.184,514.646,756.641,514.646,756.641Z" transform="translate(-514.113 -750.175)" fill="#eea886"></path></g></g></g><g id="Group_12290" data-name="Group 12290" transform="translate(142.856)"><g id="Group_12289" data-name="Group 12289"><g id="Group_12288" data-name="Group 12288"><path id="Path_20496" data-name="Path 20496" d="M528.091,752.489s-.739,1.5-4.326,1.262-8.314-4.569-9.836-4.956-1.613-1.253-1.613-1.253l-.8,1.431-1.56.238s1.059-4.335-1.25-5.862,1.041-13.821,12.733-10.857c0,0,8.923,1.634,9.042,6.617S529.824,749.848,528.091,752.489Z" transform="translate(-508.015 -732.034)" fill="#3a3f47"></path></g></g></g><g id="Group_12293" data-name="Group 12293" transform="translate(149.169 30.327)"><g id="Group_12292" data-name="Group 12292"><g id="Group_12291" data-name="Group 12291"><path id="Path_20497" data-name="Path 20497" d="M513.5,762.063s.039-2.285,1.075-2.5,10.89-1.575,12.16-1.075l.547,3.018S524.829,763.011,513.5,762.063Z" transform="translate(-513.497 -758.374)" fill="#e2d2ca"></path></g></g></g><g id="Group_12296" data-name="Group 12296" transform="translate(146.194 11.95)"><g id="Group_12295" data-name="Group 12295"><g id="Group_12294" data-name="Group 12294"><path id="Path_20498" data-name="Path 20498" d="M511.037,744.95c.266-1.873,2.4-4.025,3.615-1.107s-.823,7.166-2.191,6.938S510.677,747.491,511.037,744.95Z" transform="translate(-510.914 -742.412)" fill="#eea886"></path></g></g></g><g id="Group_12299" data-name="Group 12299" transform="translate(107.856 61.019)"><g id="Group_12298" data-name="Group 12298"><g id="Group_12297" data-name="Group 12297"><path id="Path_20499" data-name="Path 20499" d="M477.659,785.032a.029.029,0,0,1,.017,0C477.6,785.061,477.6,785.063,477.659,785.032Z" transform="translate(-477.616 -785.03)" fill="#323657"></path></g></g></g><g id="Group_12302" data-name="Group 12302" transform="translate(161.022 2.731)"><g id="Group_12301" data-name="Group 12301"><g id="Group_12300" data-name="Group 12300"><path id="Path_20500" data-name="Path 20500" d="M523.792,734.407s11.588-.546,2.023,17.544Z" transform="translate(-523.792 -734.405)" fill="#3a3f47"></path></g></g></g><g id="Group_12304" data-name="Group 12304" transform="translate(149.557 173.045)"><g id="Group_12303" data-name="Group 12303"><path id="Path_20501" data-name="Path 20501" d="M551.119,896.1l-.862,2.425-36.423-11.285,1.746-4.911Z" transform="translate(-513.834 -882.326)" fill="#918783"></path></g></g><g id="Group_12306" data-name="Group 12306" transform="translate(148.307 136.629)"><g id="Group_12305" data-name="Group 12305" transform="translate(0 0)"><rect id="Rectangle_1478" data-name="Rectangle 1478" width="4.14" height="39.599" transform="translate(4.14 39.599) rotate(180)" fill="#918783"></rect></g></g><g id="Group_12308" data-name="Group 12308" transform="translate(138.169 134.524)"><g id="Group_12307" data-name="Group 12307" transform="translate(0 0)"><rect id="Rectangle_1479" data-name="Rectangle 1479" width="24.418" height="2.334" transform="translate(24.418 2.334) rotate(180)" fill="#5e5854"></rect></g></g><g id="Group_12310" data-name="Group 12310" transform="translate(113.592 172.737)"><g id="Group_12309" data-name="Group 12309"><path id="Path_20502" data-name="Path 20502" d="M482.6,896.137l.862,2.425,36.423-11.285-1.6-5.22Z" transform="translate(-482.599 -882.058)" fill="#918783"></path></g></g><g id="Group_12312" data-name="Group 12312" transform="translate(139.256 172.737)"><g id="Group_12311" data-name="Group 12311"><path id="Path_20503" data-name="Path 20503" d="M504.888,898.3v2.82l11.622-13.846-1.6-5.22Z" transform="translate(-504.888 -882.058)" fill="#918783"></path></g></g><g id="Group_12314" data-name="Group 12314" transform="translate(110.189 186.785)"><g id="Group_12313" data-name="Group 12313"><path id="Path_20504" data-name="Path 20504" d="M479.643,897.663a3.4,3.4,0,1,0,3.4-3.4A3.4,3.4,0,0,0,479.643,897.663Z" transform="translate(-479.643 -894.259)" fill="#bfb2ac"></path></g></g><g id="Group_12316" data-name="Group 12316" transform="translate(138.966 186.785)"><g id="Group_12315" data-name="Group 12315"><path id="Path_20505" data-name="Path 20505" d="M504.636,897.663a3.4,3.4,0,1,0,3.4-3.4A3.4,3.4,0,0,0,504.636,897.663Z" transform="translate(-504.636 -894.259)" fill="#bfb2ac"></path></g></g><g id="Group_12318" data-name="Group 12318" transform="translate(183.438 186.785)"><g id="Group_12317" data-name="Group 12317"><path id="Path_20506" data-name="Path 20506" d="M543.26,897.663a3.4,3.4,0,1,0,3.4-3.4A3.4,3.4,0,0,0,543.26,897.663Z" transform="translate(-543.26 -894.259)" fill="#bfb2ac"></path></g></g><g id="Group_12319" data-name="Group 12319" transform="translate(121.295 125.686)"><rect id="Rectangle_1480" data-name="Rectangle 1480" width="57.845" height="8.838" rx="3.789" transform="translate(57.845 8.838) rotate(180)" fill="#e2d2ca"></rect></g><g id="Group_12320" data-name="Group 12320" transform="translate(18.553 88.543)"><rect id="Rectangle_1481" data-name="Rectangle 1481" width="3.298" height="101.646" transform="translate(3.298 101.646) rotate(180)" fill="#706865"></rect></g><g id="Group_12321" data-name="Group 12321" transform="translate(43.865 6.755)"><path id="Rectangle_1482" data-name="Rectangle 1482" d="M3.78,0H81.8a3.78,3.78,0,0,1,3.78,3.78V56.59a3.78,3.78,0,0,1-3.78,3.78H3.781A3.781,3.781,0,0,1,0,56.589V3.78A3.78,3.78,0,0,1,3.78,0Z" transform="translate(85.578 60.371) rotate(180)" fill="#5f8be3"></path></g><g id="Group_12322" data-name="Group 12322" transform="translate(47.217 10.018)"><rect id="Rectangle_1483" data-name="Rectangle 1483" width="78.875" height="47.647" transform="translate(78.875 47.647) rotate(180)" fill="#f5f7ff"></rect></g><g id="Group_12323" data-name="Group 12323" transform="translate(47.217 10.018)"><rect id="Rectangle_1484" data-name="Rectangle 1484" width="78.875" height="3.792" transform="translate(78.875 3.792) rotate(180)" fill="#cecfd6"></rect></g><g id="Group_12324" data-name="Group 12324" transform="translate(50.134 16.662)"><path id="Rectangle_1485" data-name="Rectangle 1485" d="M2.339,0h4.83a2.34,2.34,0,0,1,2.34,2.34V35.728a2.34,2.34,0,0,1-2.34,2.34H2.339A2.339,2.339,0,0,1,0,35.729V2.339A2.339,2.339,0,0,1,2.339,0Z" transform="translate(9.509 38.068) rotate(180)" fill="#cecfd6"></path></g><g id="Group_12325" data-name="Group 12325" transform="translate(106.514 16.662)"><path id="Rectangle_1486" data-name="Rectangle 1486" d="M1.263,0H16.084a1.264,1.264,0,0,1,1.264,1.264v1a1.264,1.264,0,0,1-1.264,1.264H1.264A1.264,1.264,0,0,1,0,2.262v-1A1.263,1.263,0,0,1,1.263,0Z" transform="translate(17.347 3.526) rotate(180)" fill="#cecfd6"></path></g><g id="Group_12326" data-name="Group 12326" transform="translate(106.514 22.553)"><path id="Rectangle_1487" data-name="Rectangle 1487" d="M2.609,0H14.737a2.61,2.61,0,0,1,2.61,2.61v27.93a2.609,2.609,0,0,1-2.609,2.609H2.609A2.609,2.609,0,0,1,0,30.541V2.609A2.609,2.609,0,0,1,2.609,0Z" transform="translate(17.347 33.15) rotate(180)" fill="#cecfd6"></path></g><g id="Group_12327" data-name="Group 12327" transform="translate(83.895 59.353)"><path id="Path_20507" data-name="Path 20507" d="M456.806,786.344a2.76,2.76,0,1,0,2.76-2.761A2.76,2.76,0,0,0,456.806,786.344Z" transform="translate(-456.806 -783.583)" fill="#5c5552"></path></g><g id="Group_12328" data-name="Group 12328" transform="translate(68.938 75.085)"><path id="Path_20508" data-name="Path 20508" d="M443.816,805v-1.074s1.511-6.683,12.193-6.683S466.477,805,466.477,805Z" transform="translate(-443.816 -797.246)" fill="#2e436e"></path></g><g id="Group_12330" data-name="Group 12330" transform="translate(72.547 71.939)"><g id="Group_12329" data-name="Group 12329"><path id="Path_20509" data-name="Path 20509" d="M466.132,798.653a10.578,10.578,0,0,1-3.172-.694c-.85-.512-5.938-3.934-7.132-3.386s-9.147,2.984-8.872,4.146,1.012,1.05,1.573.845,6.336-1.418,6.846-1.214c0,0-5.672,2.069-5.695,3.578s1.186,1.877,1.724,2.448,1.185,1.99,2.646,2.1,8.594-2.372,10.061-2.486,4.186.092,4.371-.147S466.132,798.653,466.132,798.653Z" transform="translate(-446.95 -794.514)" fill="#eea886"></path></g></g><g id="Group_12333" data-name="Group 12333" transform="translate(89.329 33.455)"><g id="Group_12332" data-name="Group 12332"><g id="Group_12331" data-name="Group 12331"><path id="Path_20510" data-name="Path 20510" d="M506.177,764.819c7.4-1.3,15.188-3.167,15.188-3.167l13.782-.562s12.648,2.784,17.629,5.034c.473.214.474,11.285,1.771,14.188l-4.129,8.713s-2.387,17.258-2.882,24.933c-.227,3.525.644,34.055.644,34.055s-1.238.611-10.644,1.648-32.906-.374-33.054-1.484,4.55-41.367,4.76-43.451c.318-3.2-.926-17.985-.926-17.985-1.771,2.381-6.289,13.132-11,18.245-2.769,3.009-16.486,4.854-19.07,4.941-5.628.188-15.9,1.308-16.2.76-.238-.328-.893-9.112-.25-9.326.564-.188,19.627-1.285,24.512-3.877,1.786-.949,7.127-12.6,7.127-12.6S502.1,766.654,506.177,764.819Z" transform="translate(-461.526 -761.09)" fill="#ffc05c"></path></g></g></g><g id="Group_12334" data-name="Group 12334" transform="translate(152.762 64.246)"><rect id="Rectangle_1488" data-name="Rectangle 1488" width="39.892" height="55.25" rx="7.276" transform="translate(39.892 55.25) rotate(180)" fill="#e2d2ca"></rect></g><g id="Group_12335" data-name="Group 12335" transform="translate(157.611 99.518)"><path id="Path_20511" data-name="Path 20511" d="M523.049,851.273c5.88,0,10.65-1.975,14.179-5.87,7.975-8.8,6.541-24.282,6.477-24.937a2.22,2.22,0,0,0-4.418.438c.018.177,1.288,14.2-5.357,21.529-2.687,2.963-6.247,4.4-10.881,4.4a2.219,2.219,0,1,0,0,4.438Z" transform="translate(-520.829 -818.466)" fill="#e2d2ca"></path></g><g id="Group_12345" data-name="Group 12345" transform="translate(65.519 18.352)"><path id="Path_20512" data-name="Path 20512" d="M463.127,759.114a11.1,11.1,0,0,1-2.61,7.166,11.211,11.211,0,0,1-1.246,1.262c-.128.112-.258.219-.39.324-.151.119-.3.231-.459.344a11.076,11.076,0,0,1-5.066,1.961q-.5.06-1,.078c-.122,0-.243.006-.366.006-.36,0-.717-.018-1.067-.051a11.276,11.276,0,0,1-1.161-.173,11.116,11.116,0,0,1-4.554-2.078,10.959,10.959,0,0,1-1.124-.991c-.068-.067-.137-.138-.2-.208-.249-.265-.486-.54-.708-.828a11.141,11.141,0,1,1,19.957-6.812Z" transform="translate(-440.846 -747.973)" fill="#eef0f7"></path><g id="Group_12344" data-name="Group 12344" transform="translate(2.324 4.888)"><g id="Group_12336" data-name="Group 12336" transform="translate(1.56 9.809)"><path id="Path_20513" data-name="Path 20513" d="M458.731,763.329l-.821,2.949a11.075,11.075,0,0,1-5.066,1.961q-.5.06-1,.078c-.122,0-.243.006-.366.006-.36,0-.717-.018-1.067-.051a11.276,11.276,0,0,1-1.161-.173,11.116,11.116,0,0,1-4.554-2.078c-.158-.974-.326-2.054-.474-3.063.819-.305,3.424-1.192,5.07-1.747l.068-.023c.037-.014.071-.024.106-.037l.28-.094.256-.086.659-.222h0l.033-.01h.017l2.212.165.372.029.115.008.051.013c.132.035.521.136,1.034.292h0C455.807,761.647,457.931,762.408,458.731,763.329Z" transform="translate(-444.219 -760.737)" fill="#d9c7c1"></path></g><g id="Group_12337" data-name="Group 12337" transform="translate(6.18 0.691)"><path id="Path_20514" data-name="Path 20514" d="M451.448,752.848s2.652.449,2.2,4.6-2.791,3.785-2.949,3.78-2.355.05-2.471-5.028C448.231,756.2,448.2,752.447,451.448,752.848Z" transform="translate(-448.231 -752.818)" fill="#eea987"></path></g><g id="Group_12338" data-name="Group 12338" transform="translate(7.075 7.417)"><path id="Path_20515" data-name="Path 20515" d="M452.492,759.14a9.583,9.583,0,0,0,.07,2.082c.161.372-2.13,1.549-3.553.208a14.665,14.665,0,0,0,.2-2.528C449.117,758.242,452.492,759.14,452.492,759.14Z" transform="translate(-449.009 -758.66)" fill="#eea987"></path></g><g id="Group_12339" data-name="Group 12339" transform="translate(11.48 4.013)"><path id="Path_20516" data-name="Path 20516" d="M453.007,755.839s.295-.309.4.007-.47,1.717-.435,1.779c0,0-.054.122-.122.053A14.985,14.985,0,0,1,453.007,755.839Z" transform="translate(-452.834 -755.704)" fill="#eea987"></path></g><g id="Group_12340" data-name="Group 12340" transform="translate(5.794 3.892)"><path id="Path_20517" data-name="Path 20517" d="M448.313,755.742s-.281-.319-.4-.008a5.341,5.341,0,0,0,.362,1.8s.091.144.162.078A15.172,15.172,0,0,0,448.313,755.742Z" transform="translate(-447.896 -755.598)" fill="#eea987"></path></g><g id="Group_12341" data-name="Group 12341" transform="translate(5.994)"><path id="Path_20518" data-name="Path 20518" d="M453.9,756.013c-.092.568-.178.989-.178.989l-.385.506a10.037,10.037,0,0,0-.038-1.29c-.021-.067-.048-.184-.075-.312a5.328,5.328,0,0,0-.121-.526,5.686,5.686,0,0,0-4.253.136s.016.173.016.364c0,.222-.027.471-.129.509-.189.07-.109,1.3-.109,1.3l-.309-.357s-.09-.644-.177-1.386v-.006c-.021-.173-.04-.35-.061-.527a3.472,3.472,0,0,1,1-2.9,4.791,4.791,0,0,1,3.446.015,1.194,1.194,0,0,1,.513.136A4.925,4.925,0,0,1,453.9,756.013Z" transform="translate(-448.07 -752.218)" fill="#e8734d"></path></g><path id="Path_20519" data-name="Path 20519" d="M449.339,759.641a1.691,1.691,0,0,0,1.406.565,1.914,1.914,0,0,0,1.412-.535,1.716,1.716,0,0,1-1.415.964A1.738,1.738,0,0,1,449.339,759.641Z" transform="translate(-441.884 -751.094)" fill="#c78d71"></path><path id="Path_20520" data-name="Path 20520" d="M448.773,761.163a2.89,2.89,0,0,0,2.061,1.354c.855.074,1.6-1.01,1.944-1.543A5.187,5.187,0,0,0,448.773,761.163Z" transform="translate(-441.969 -750.94)" fill="#eea987"></path><path id="Path_20521" data-name="Path 20521" d="M452.259,760.593a7.4,7.4,0,0,1-1.7,1.47l.717,1.106,1.226-2.185Z" transform="translate(-441.698 -750.95)" fill="#eddad3"></path><path id="Path_20522" data-name="Path 20522" d="M449.113,760.737a4.927,4.927,0,0,0,1.735,1.3l-.789,1.141-1.378-2Z" transform="translate(-441.983 -750.928)" fill="#eddad3"></path><path id="Path_20523" data-name="Path 20523" d="M450.646,761.87l.616.937a1.284,1.284,0,0,1-1.248-.024Z" transform="translate(-441.782 -750.757)" fill="#5073ab"></path><path id="Path_20524" data-name="Path 20524" d="M458.309,763.125c-.009.037-.672,2.418-.683,2.455-.128.112-.258.219-.39.324-.151.119-.3.231-.459.344a11.077,11.077,0,0,1-5.066,1.961c.163-3.856.623-7.276.623-7.276q.541.142,1.027.282h0A24.9,24.9,0,0,1,458.309,763.125Z" transform="translate(-441.525 -750.899)" fill="#323657"></path><path id="Path_20525" data-name="Path 20525" d="M449.4,768.037a11.116,11.116,0,0,1-4.554-2.078,10.959,10.959,0,0,1-1.124-.991c-.068-.067-.137-.138-.2-.208-.195-.828-.325-1.369-.334-1.4v0s1.378-.906,6.256-2.207v0C449.445,761.26,449.447,764.388,449.4,768.037Z" transform="translate(-442.815 -750.866)" fill="#323657"></path><path id="Path_20526" data-name="Path 20526" d="M451.062,762.819c-.045,1.014-.049,2.986-.035,5.234-.122,0-.243.006-.366.006-.36,0-.717-.018-1.067-.051a34.327,34.327,0,0,1,.739-5.193c.054-.225.086-.337.086-.337l.655.108C451.07,762.656,451.066,762.735,451.062,762.819Z" transform="translate(-441.845 -750.665)" fill="#5073ab"></path><g id="Group_12342" data-name="Group 12342" transform="translate(15.711 12.227)"><path id="Path_20527" data-name="Path 20527" d="M458.145,764.03a11.209,11.209,0,0,1-1.246,1.262c-.128.112-.258.219-.39.324l1.073-2.778C457.863,763,458.022,763.735,458.145,764.03Z" transform="translate(-456.509 -762.837)" fill="#323657"></path></g><g id="Group_12343" data-name="Group 12343" transform="translate(0 12.487)"><path id="Path_20528" data-name="Path 20528" d="M443.775,764.677c-.068-.067-.137-.138-.2-.208-.249-.265-.486-.54-.708-.828a1.286,1.286,0,0,1,.374-.578v0Z" transform="translate(-442.864 -763.063)" fill="#323657"></path></g></g></g></g><g id="Group_12347" data-name="Group 12347" transform="translate(281.623 190.323)"><path id="Path_20529" data-name="Path 20529" d="M409.162,746.646a1.366,1.366,0,0,1-1.366-1.367v-18.9a1.367,1.367,0,0,1,2.733,0v18.9A1.366,1.366,0,0,1,409.162,746.646Z" transform="translate(-407.796 -725.01)" fill="#949494"></path></g><g id="Group_12348" data-name="Group 12348" transform="translate(272.173 199.774)"><path id="Path_20530" data-name="Path 20530" d="M419.856,735.951h-18.9a1.367,1.367,0,0,1,0-2.733h18.9a1.367,1.367,0,0,1,0,2.733Z" transform="translate(-399.588 -733.218)" fill="#949494"></path></g><g id="Group_12351" data-name="Group 12351" transform="translate(29.607 50.1)"><path id="Path_20531-2" data-name="Path 20531" d="M195.149,603.391H249.8a6.256,6.256,0,0,1,6.259,6.259v20.863a6.256,6.256,0,0,1-6.259,6.259H230.2l2.69,6.587-11.832-6.587H195.176a6.256,6.256,0,0,1-6.258-6.259V609.65A6.231,6.231,0,0,1,195.149,603.391Z" transform="translate(-188.918 -603.391)" fill="#9b5c8f"></path><path id="Path_20532-2" data-name="Path 20532" d="M192.473,608.8a2.2,2.2,0,0,1,1.72-.846,1.993,1.993,0,0,1,2.375,1.964q1.269,8.557,2.757,14.494L205.3,613.03a2.594,2.594,0,0,1,2.047-1.638c1.2-.082,1.938.683,2.238,2.294a51.017,51.017,0,0,0,2.594,9.334q1.065-10.4,3.6-15.012a2.1,2.1,0,0,1,1.8-1.2,2.369,2.369,0,0,1,1.719.546,2.139,2.139,0,0,1,.847,1.555,2.372,2.372,0,0,1-.273,1.311c-1.064,1.965-1.938,5.268-2.648,9.853a50.794,50.794,0,0,0-.764,10.4,3.243,3.243,0,0,1-.327,1.8,1.761,1.761,0,0,1-1.447.983,2.745,2.745,0,0,1-2.157-1.01q-3.807-3.89-6.032-11.628-2.663,5.241-3.931,7.86c-1.611,3.085-2.975,4.668-4.122,4.75-.737.054-1.364-.574-1.91-1.884q-2.089-5.363-4.5-20.717a2.32,2.32,0,0,1,.436-1.828Zm58.657,4.285a6.288,6.288,0,0,0-4.367-3.166,7.2,7.2,0,0,0-1.475-.163c-2.62,0-4.749,1.364-6.413,4.094a14.463,14.463,0,0,0-2.129,7.7,10.573,10.573,0,0,0,1.31,5.4,6.287,6.287,0,0,0,4.368,3.166,7.123,7.123,0,0,0,1.474.164c2.648,0,4.776-1.365,6.414-4.095a14.631,14.631,0,0,0,2.128-7.724,10.069,10.069,0,0,0-1.31-5.378Zm-3.439,7.561a7.218,7.218,0,0,1-2.074,4.039,2.621,2.621,0,0,1-2.211.873c-.655-.136-1.2-.709-1.611-1.774a6.929,6.929,0,0,1-.491-2.484,9.541,9.541,0,0,1,.191-1.992,8.827,8.827,0,0,1,1.447-3.248c.9-1.337,1.857-1.883,2.838-1.693.655.137,1.2.71,1.611,1.775a6.93,6.93,0,0,1,.491,2.484,9.547,9.547,0,0,1-.191,2.02Zm-13.647-7.561a6.344,6.344,0,0,0-4.368-3.166,7.189,7.189,0,0,0-1.474-.163c-2.62,0-4.749,1.364-6.413,4.094a14.463,14.463,0,0,0-2.129,7.7,10.573,10.573,0,0,0,1.31,5.4,6.287,6.287,0,0,0,4.368,3.166,7.123,7.123,0,0,0,1.474.164c2.647,0,4.776-1.365,6.414-4.095a14.621,14.621,0,0,0,2.128-7.724,10.333,10.333,0,0,0-1.31-5.378Zm-3.466,7.561a7.226,7.226,0,0,1-2.074,4.039,2.623,2.623,0,0,1-2.211.873c-.655-.136-1.2-.709-1.611-1.774a6.929,6.929,0,0,1-.491-2.484,9.466,9.466,0,0,1,.191-1.992,8.827,8.827,0,0,1,1.447-3.248c.9-1.337,1.856-1.883,2.838-1.693.655.137,1.2.71,1.611,1.775a6.929,6.929,0,0,1,.491,2.484,8.046,8.046,0,0,1-.191,2.02Z" transform="translate(-188.649 -603.095)" fill="#fff"></path></g></g></g></g></svg> 