<?xml version="1.0" encoding="UTF-8"?>
<!DOCTYPE svg PUBLIC "-//W3C//DTD SVG 1.1//EN" "http://www.w3.org/Graphics/SVG/1.1/DTD/svg11.dtd">
<!-- Creator: CorelDRAW -->
<svg xmlns="http://www.w3.org/2000/svg" xml:space="preserve" width="2.52365in" height="0.667421in" version="1.1" style="shape-rendering:geometricPrecision; text-rendering:geometricPrecision; image-rendering:optimizeQuality; fill-rule:evenodd; clip-rule:evenodd"
viewBox="0 0 4626.31 1223.51"
 xmlns:xlink="http://www.w3.org/1999/xlink"
 xmlns:xodm="http://www.corel.com/coreldraw/odm/2003">
 <defs>
  <style type="text/css">
   <![CDATA[
    .fil0 {fill:#2B2A29}
   ]]>
  </style>
 </defs>
 <g id="Layer_x0020_1">
  <metadata id="CorelCorpID_0Corel-Layer"/>
  <path class="fil0" d="M3138 0c52.96,0 102.72,10.32 149.19,31 46.5,20.64 86.85,48.41 121.05,83.32 34.23,34.89 61.37,75.55 81.41,122.05 20.02,46.46 30.02,96.23 30.02,149.21 0,46.5 -7.72,90.74 -23.25,132.72 -15.5,41.98 -36.8,79.41 -63.97,112.38 -27.08,32.92 -59.4,60.68 -96.83,83.3 -37.49,22.65 -78.16,38.43 -122.1,47.5l-347.45 0.14 0 -238.47 269.98 0c37.41,-1.31 69.72,-15.21 96.86,-41.67 27.14,-26.47 40.69,-58.47 40.69,-95.91 0,-34.88 -10.95,-64.88 -32.88,-90.13 -21.99,-25.17 -49.76,-40.98 -83.36,-47.47l-410.76 0 0 218.27 0 508.29 0 246.12 -247.98 0 0 -1220.67 639.37 0zm-2229.3 0c52.95,0 102.69,10 149.18,30.02 46.5,20.04 87.19,47.18 122.08,81.38 34.85,34.26 62.62,74.61 83.27,121.08 20.68,46.52 31.03,96.29 31.03,149.25l0 838.94 -248.01 0 0 -854.44c-5.18,-33.57 -20.65,-62.03 -46.5,-85.3 -25.82,-23.19 -56.19,-34.86 -91.05,-34.86 -36.15,0 -67.18,11.95 -92.99,35.86 -25.85,23.87 -40.7,53.27 -44.55,88.16l0 850.58 -247.99 0 0 -837c0,-37.49 -13.58,-69.78 -40.72,-96.91 -27.12,-27.11 -59.4,-40.69 -96.88,-40.69 -34.89,0 -64.88,10.98 -90.05,32.94 -25.22,21.96 -41.04,49.76 -47.5,83.33l0 858.33 -248.01 0 0 -838.94c0,-52.96 10.32,-102.72 31.03,-149.25 20.65,-46.46 48.44,-86.82 83.3,-121.08 34.89,-34.2 75.55,-61.34 122.04,-81.38 46.5,-20.02 96.26,-30.02 149.19,-30.02 50.38,0 98.17,9.04 143.35,27.11 45.27,18.1 84.64,43.29 118.22,75.58 34.89,-32.29 74.6,-57.48 119.19,-75.58 44.55,-18.07 92.02,-27.11 142.38,-27.11zm3469.63 2.83l247.99 0 0 1220.68 -247.99 0 0 -461.94 -372.4 0.09 0 -238.49 372.4 0 0 -520.33zm-2615.84 -2.69c83.9,0 163.14,16.3 237.26,48.44 74.09,32.15 138.83,75.84 193.68,130.77 54.94,54.85 98.49,119.42 130.77,193.68 32.29,74.24 48.41,153.39 48.41,237.29 0,83.99 -15.81,162.77 -47.44,236.4 -31.6,73.55 -74.92,138.12 -129.8,193.65 -54.88,55.53 -119.11,99.45 -192.77,131.77 -73.55,32.25 -152.36,48.41 -236.29,48.41l-352.53 0 0 -246.01 350.59 0c50.39,0 97.48,-9.69 141.41,-29.08 43.92,-19.39 82.36,-45.5 115.27,-78.47 32.97,-32.91 59.04,-71.28 78.47,-115.21 19.36,-43.92 29.02,-91.08 29.02,-141.47 0,-50.33 -9.66,-97.48 -29.02,-141.38 -19.42,-43.92 -45.5,-82.33 -78.47,-115.27 -32.92,-32.98 -71.55,-59.28 -115.27,-78.47 -43.78,-19.21 -91.31,-29.08 -141.41,-29.08l-371.66 0c-5.98,-20.81 -13.41,-41.21 -22.3,-61.25 -26.2,-58.91 -62.28,-111.95 -108.32,-157.16 -9.84,-9.64 -19.99,-18.82 -30.49,-27.57l530.89 0zm1877.64 2.69l247.99 0 0 1220.68 -247.99 0 0 -1220.68z"/>
 </g>
</svg>
