<?xml version="1.0" encoding="iso-8859-1"?>
<!-- Uploaded to: SVG Repo, www.svgrepo.com, Generator: SVG Repo Mixer Tools -->
<svg height="800px" width="800px" version="1.1" id="Layer_1" xmlns="http://www.w3.org/2000/svg" xmlns:xlink="http://www.w3.org/1999/xlink" 
	 viewBox="0 0 512 512" xml:space="preserve">
<path style="fill:#A6673A;" d="M439.641,17.839l-3.116,47.524c-8.904,107.513-75.46,201.226-173.736,244.855
	c-2.116,1.002-4.452,1.447-6.789,1.447c-2.337,0-4.673-0.445-6.789-1.447C150.935,266.589,84.38,172.876,75.475,65.697
	l-3.116-47.858c-0.556-9.238,6.456-17.14,15.582-17.808c9.349-0.556,17.139,6.455,17.808,15.582l3.005,47.635
	C116.432,155.514,172.638,236.65,256,276.605c83.362-39.956,139.567-121.203,147.247-213.691l3.005-47.301
	c0.669-9.126,8.347-16.138,17.808-15.582C433.185,0.699,440.197,8.6,439.641,17.839z"/>
<path style="fill:#99522E;" d="M439.641,17.839l-3.116,47.524c-8.904,107.513-75.46,201.226-173.736,244.855
	c-2.116,1.002-4.452,1.447-6.789,1.447v-35.059c83.362-39.956,139.567-121.203,147.247-213.691l3.005-47.301
	c0.669-9.126,8.347-16.138,17.808-15.582C433.185,0.699,440.197,8.6,439.641,17.839z"/>
<path style="fill:#F5B420;" d="M256,278.275c-64.441,0-116.862,52.421-116.862,116.862c0,26.266,8.681,50.529,23.262,70.006
	c6.788,8.904,14.689,16.806,23.594,23.595h0.111c15.249,11.464,33.389,19.254,53.2,22.037C244.759,511.554,250.324,512,256,512
	s11.241-0.445,16.695-1.224c19.811-2.782,37.951-10.573,53.2-22.037h0.111c8.904-6.789,16.806-14.691,23.594-23.595
	c14.581-19.477,23.262-43.74,23.262-70.006C372.862,330.695,320.441,278.275,256,278.275z"/>
<path style="fill:#F09C12;" d="M272.695,510.776c19.811-2.782,37.951-10.573,53.2-22.037h0.111
	c8.904-6.789,16.806-14.691,23.594-23.595c14.581-19.477,23.262-43.74,23.262-70.006c0-64.441-52.421-116.862-116.862-116.862V512
	C261.676,512,267.241,511.554,272.695,510.776z"/>
<path style="fill:#EDF0F2;" d="M272.583,313.333c-5.342-1.113-10.907-1.669-16.583-1.669s-11.352,0.556-16.695,1.669
	c-38.063,7.791-66.779,41.403-66.779,81.804c0,17.029,5.12,32.833,13.912,45.966c6.121,9.46,14.135,17.474,23.595,23.595
	c8.791,5.899,18.587,10.017,29.271,12.243c5.342,1.113,11.018,1.669,16.695,1.669c5.676,0,11.241-0.556,16.583-1.669
	c10.685-2.115,20.591-6.344,29.383-12.131c9.46-6.233,17.473-14.246,23.595-23.706c8.792-13.133,13.912-28.937,13.912-45.966
	C339.473,354.736,310.757,321.012,272.583,313.333z"/>
<path style="fill:#DAE1E6;" d="M272.583,476.941c10.685-2.115,20.591-6.344,29.383-12.131c9.46-6.233,17.473-14.246,23.595-23.706
	c8.792-13.133,13.912-28.937,13.912-45.966c0-40.401-28.716-74.124-66.89-81.804c-5.342-1.113-10.907-1.669-16.583-1.669v166.946
	C261.676,478.611,267.241,478.054,272.583,476.941z"/>
<path style="fill:#FF9F19;" d="M325.561,441.103c-6.121,9.46-14.135,17.474-23.595,23.706l-29.383-29.383v41.514
	c-5.342,1.113-10.907,1.669-16.583,1.669s-11.352-0.556-16.695-1.669v-41.514l-29.271,29.271
	c-9.46-6.121-17.473-14.135-23.595-23.595l52.866-52.866v-74.903c5.342-1.113,11.018-1.669,16.695-1.669
	c5.676,0,11.241,0.556,16.583,1.669v74.903L325.561,441.103z"/>
<path style="fill:#F28618;" d="M272.583,476.941v-41.514l29.383,29.383c9.46-6.233,17.473-14.246,23.595-23.706l-52.978-52.866
	v-74.903c-5.342-1.113-10.907-1.669-16.583-1.669v166.946C261.676,478.611,267.241,478.054,272.583,476.941z"/>
</svg>