<?xml version="1.0" encoding="UTF-8"?>
<svg id="Layer_1" data-name="Layer 1" xmlns="http://www.w3.org/2000/svg" viewBox="0 0 125 90">
  <defs>
    <style>
      .cls-1 {
        fill: #272828;
        opacity: .3;
      }

      .cls-2 {
        fill: #ea6428;
      }
    </style>
  </defs>
  <g>
    <polygon class="cls-1" points="75.21 38.71 53.48 34.13 33 36.41 61.6 47.27 65.25 44.65 43.3 37.33 53.24 36.21 71.33 40.7 75.21 38.71"/>
    <polygon class="cls-2" points="76.72 37.94 76.72 18.74 61.6 9.67 61.6 47.27 66.59 43.82 66.59 18.94 71.33 22.16 71.33 40.7 76.72 37.94"/>
  </g>
  <g>
    <path class="cls-2" d="M32.2,56.75c-.42,0-.78,.17-1.09,.5-.3,.33-.46,.74-.48,1.21v14.71c0,1.27,.08,2.35,.23,3.22l.08,.43h-.23l-12.78-13.71v11.32c0,.47,.15,.88,.46,1.21,.3,.33,.67,.5,1.09,.5h.48v.29h-7.67v-.29h.46c.44,0,.81-.17,1.11-.5,.3-.33,.46-.75,.46-1.24v-14.79c0-1.25-.08-2.3-.23-3.14l-.05-.43h.23l12.78,13.71v-11.26c-.02-.49-.18-.91-.48-1.24-.3-.33-.67-.5-1.09-.5h-.46v-.29h7.67v.29h-.48Z"/>
    <path class="cls-2" d="M34.4,76.14c.44,0,.81-.18,1.13-.53,.31-.35,.48-.77,.49-1.27v-15.82c-.02-.49-.18-.91-.49-1.25-.31-.34-.69-.51-1.13-.51h-.33v-.29h7.7l-.03,.29h-.3c-.44,0-.82,.17-1.14,.51-.32,.34-.48,.76-.48,1.25v15.82c0,.49,.16,.92,.48,1.27,.32,.35,.7,.53,1.14,.53h.3l.03,.29h-7.7v-.29h.33Z"/>
    <path class="cls-2" d="M61.94,56.75h-.23c-.39,0-.78,.13-1.16,.4-.39,.27-.71,.67-.96,1.2l-6,14.91c-.78,1.88-1.19,3.13-1.24,3.73h-.23l-7.67-18.62c-.25-.53-.57-.94-.96-1.21-.39-.28-.79-.41-1.19-.41h-.2v-.29h8.05v.29h-.2c-.37,0-.65,.13-.82,.38-.18,.26-.27,.5-.27,.73s.03,.46,.1,.68l4.3,11.77,4.46-11.77c.08-.25,.13-.48,.13-.7s-.09-.46-.27-.71c-.18-.26-.45-.38-.82-.38h-.23v-.29h5.42v.29Z"/>
    <path class="cls-2" d="M62.58,76.14c.44,0,.81-.18,1.13-.53,.31-.35,.48-.77,.49-1.27v-15.82c-.02-.49-.18-.91-.49-1.25-.31-.34-.69-.51-1.13-.51h-.33v-.29h7.7l-.03,.29h-.3c-.44,0-.82,.17-1.14,.51-.32,.34-.48,.76-.48,1.25v15.82c0,.49,.16,.92,.48,1.27,.32,.35,.7,.53,1.14,.53h.3l.03,.29h-7.7v-.29h.33Z"/>
    <path class="cls-2" d="M72.22,73.77c0-1.37,.26-2.54,.78-3.51h.23c-.02,.15-.03,.3-.03,.46,0,1.31,.42,2.46,1.25,3.43,.83,.98,1.98,1.47,3.43,1.47,1.13,0,2.01-.3,2.65-.91s.95-1.38,.95-2.31c0-1.12-.68-2.1-2.03-2.94l-4.4-3.28c-.88-.57-1.51-1.26-1.89-2.07-.38-.81-.57-1.63-.57-2.47,0-1.79,.5-3.16,1.51-4.13,1-.97,2.29-1.45,3.86-1.45,.93,0,2.08,.1,3.44,.29h1.59l-.33,4.19h-.25c0-.99-.33-1.78-.97-2.38-.65-.6-1.51-.9-2.59-.9-1.32,0-2.27,.46-2.86,1.37-.3,.44-.46,.93-.46,1.48,0,.91,.59,1.76,1.77,2.54l4.83,3.54c1.52,.99,2.28,2.44,2.28,4.36,0,2.03-.61,3.59-1.84,4.66-1.22,1.07-2.85,1.61-4.87,1.61-1.15,0-2.21-.16-3.18-.47-.97-.31-1.68-.74-2.14-1.27-.12-.36-.18-.8-.18-1.31Z"/>
    <path class="cls-2" d="M98.82,76.14c.44,0,.78-.12,1.01-.37,.39-.44,.59-.9,.61-1.4v-7.27h-8.2v7.24c0,.49,.16,.92,.48,1.27s.7,.53,1.14,.53h.3l.03,.29h-7.7v-.29h.33c.44,0,.81-.18,1.12-.53s.48-.77,.49-1.27v-15.82c-.02-.49-.18-.91-.49-1.25s-.69-.51-1.12-.51h-.33v-.29h7.7l-.03,.29h-.3c-.44,0-.82,.17-1.14,.51s-.48,.76-.48,1.25v7.36h8.2v-7.36c-.02-.49-.18-.91-.49-1.25-.31-.34-.69-.51-1.12-.51h-.33v-.29h7.7v.29h-.33c-.44,0-.82,.18-1.14,.53-.32,.35-.48,.77-.48,1.27v15.79c0,.49,.16,.92,.48,1.27,.32,.35,.7,.53,1.14,.53h.33v.29h-7.7v-.29h.33Z"/>
    <path class="cls-2" d="M98.9,76.14c.44,0,.81-.18,1.13-.53s.48-.77,.49-1.27v-15.88c-.05-.67-.33-1.16-.84-1.48-.25-.15-.51-.23-.78-.23h-.33v-.29h9.69c.52,0,1.1-.06,1.72-.17,.62-.11,1.06-.23,1.32-.34v4.99h-.25v-.34c0-.85-.22-1.54-.67-2.07-.45-.52-1.05-.8-1.81-.84h-4.25v8.29h3.34c.62-.02,1.14-.26,1.54-.73,.41-.47,.61-1.04,.61-1.72v-.26h.25v6.58h-.25v-.23c0-.95-.34-1.65-1.01-2.11-.34-.21-.71-.32-1.11-.34h-3.37v8.01h3.32c1.23,0,2.27-.4,3.1-1.2,.83-.8,1.46-1.93,1.86-3.39h.25l-1.16,5.82h-13.11v-.29h.33Z"/>
  </g>
</svg>