<svg width="629" height="436" viewBox="0 0 629 436" fill="none" xmlns="http://www.w3.org/2000/svg">
<g clip-path="url(#clip0_2798_19726)">
<path d="M245.255 39.7653L245.255 39.7653V39.7735V100.751C245.255 106.715 250.141 111.6 256.104 111.6H268.098V124.62C268.098 127.032 271.219 128.128 272.639 126.125L283.395 111.6H365.566C371.529 111.6 376.415 106.715 376.415 100.751V39.7735C376.415 33.8098 371.529 28.9241 365.566 28.9241H256.198C250.232 28.9241 245.353 33.8096 245.255 39.7653Z" fill="white" stroke="#E1E9FD"/>
<path d="M461.379 314.833H512.38V202.668H461.379V314.833Z" fill="#334383"/>
<path d="M450.505 314.826H501.506V202.661H450.505V314.826Z" fill="url(#paint0_linear_2798_19726)"/>
<path d="M426.646 314.833H565.757V301.78H426.646V314.833Z" fill="#334383"/>
<path d="M397.08 314.826H544.676V301.772H397.08V314.826Z" fill="url(#paint1_linear_2798_19726)"/>
<path d="M598.66 277.437H367.524C363.981 277.437 361.09 274.547 361.09 271.004V133.757C361.09 130.214 363.981 127.324 367.524 127.324H598.567C602.11 127.324 605.001 130.214 605.001 133.757V271.004C605.001 274.547 602.203 277.437 598.66 277.437Z" fill="#334383"/>
<path d="M591.107 277.437H359.971C356.428 277.437 353.537 274.547 353.537 271.004V133.758C353.537 130.215 356.428 127.324 359.971 127.324H591.014C594.557 127.324 597.447 130.215 597.447 133.758V271.004C597.447 274.547 594.65 277.437 591.107 277.437Z" fill="#4766A5"/>
<path d="M580.759 270.724H370.321C367.057 270.724 364.447 268.113 364.447 264.85V139.818C364.447 136.555 367.057 133.944 370.321 133.944H580.852C584.115 133.944 586.726 136.555 586.726 139.818V264.85C586.633 268.113 584.022 270.724 580.759 270.724Z" fill="url(#paint2_linear_2798_19726)"/>
<path d="M421.042 155.669H500.76C501.226 155.669 501.506 155.296 501.506 154.923C501.506 154.457 501.133 154.177 500.76 154.177H421.042C420.575 154.177 420.296 154.55 420.296 154.923C420.202 155.296 420.575 155.669 421.042 155.669Z" fill="#E2E7F9"/>
<path d="M515.212 155.669H547.472C547.938 155.669 548.218 155.296 548.218 154.923C548.218 154.456 547.845 154.177 547.472 154.177H515.212C514.746 154.177 514.466 154.55 514.466 154.923C514.373 155.296 514.746 155.669 515.212 155.669Z" fill="#E2E7F9"/>
<path d="M421.042 168.162H463.465C463.931 168.162 464.211 167.79 464.211 167.417C464.211 166.95 463.838 166.671 463.465 166.671H421.042C420.575 166.671 420.296 167.044 420.296 167.417C420.202 167.79 420.575 168.162 421.042 168.162Z" fill="#E2E7F9"/>
<path d="M476.052 168.162H547.472C547.938 168.162 548.218 167.79 548.218 167.417C548.218 166.95 547.845 166.671 547.472 166.671H476.052C475.586 166.671 475.306 167.044 475.306 167.417C475.306 167.79 475.586 168.162 476.052 168.162Z" fill="#E2E7F9"/>
<path d="M415.54 217.299H486.96C487.426 217.299 487.706 216.926 487.706 216.553C487.706 216.087 487.333 215.807 486.96 215.807H415.54C415.074 215.807 414.794 216.18 414.794 216.553C414.794 217.019 415.074 217.299 415.54 217.299Z" fill="#E2E7F9"/>
<path d="M499.92 217.299H528.824C529.29 217.299 529.57 216.926 529.57 216.553C529.57 216.087 529.197 215.807 528.824 215.807H499.92C499.454 215.807 499.174 216.18 499.174 216.553C499.174 217.019 499.547 217.299 499.92 217.299Z" fill="#E2E7F9"/>
<path d="M415.54 229.793H453.581C454.047 229.793 454.327 229.42 454.327 229.047C454.327 228.58 453.954 228.301 453.581 228.301H415.54C415.074 228.301 414.794 228.674 414.794 229.047C414.794 229.42 415.074 229.793 415.54 229.793Z" fill="#E2E7F9"/>
<path d="M464.863 229.793H528.917C529.383 229.793 529.663 229.42 529.663 229.047C529.663 228.58 529.29 228.301 528.917 228.301H464.863C464.396 228.301 464.117 228.674 464.117 229.047C464.117 229.42 464.49 229.793 464.863 229.793Z" fill="#E2E7F9"/>
<path d="M394.561 241.727H465.981C466.447 241.727 466.727 241.354 466.727 240.981C466.727 240.608 466.354 240.235 465.981 240.235H394.561C394.095 240.235 393.815 240.608 393.815 240.981C393.815 241.354 394.095 241.727 394.561 241.727Z" fill="#E2E7F9"/>
<path d="M479.034 241.727H507.938C508.404 241.727 508.684 241.354 508.684 240.981C508.684 240.608 508.311 240.235 507.938 240.235H479.034C478.568 240.235 478.289 240.608 478.289 240.981C478.289 241.354 478.568 241.727 479.034 241.727Z" fill="#E2E7F9"/>
<path d="M394.561 254.221H432.602C433.068 254.221 433.348 253.848 433.348 253.475C433.348 253.009 432.975 252.729 432.602 252.729H394.561C394.095 252.729 393.815 253.102 393.815 253.475C393.815 253.848 394.095 254.221 394.561 254.221Z" fill="#E2E7F9"/>
<path d="M443.884 254.221H507.938C508.404 254.221 508.684 253.848 508.684 253.475C508.684 253.009 508.311 252.729 507.938 252.729H443.884C443.417 252.729 443.138 253.102 443.138 253.475C443.138 253.848 443.511 254.221 443.884 254.221Z" fill="#E2E7F9"/>
<path d="M409.387 180.097H473.441C473.908 180.097 474.187 179.724 474.187 179.351C474.187 178.885 473.814 178.605 473.441 178.605H409.387C408.921 178.605 408.641 178.978 408.641 179.351C408.641 179.724 409.014 180.097 409.387 180.097Z" fill="#E2E7F9"/>
<path d="M485.188 180.097H511.108C511.574 180.097 511.854 179.724 511.854 179.351C511.854 178.885 511.481 178.605 511.108 178.605H485.188C484.722 178.605 484.442 178.978 484.442 179.351C484.442 179.724 484.722 180.097 485.188 180.097Z" fill="#E2E7F9"/>
<path d="M409.386 191.659H443.511C443.977 191.659 444.257 191.286 444.257 190.913C444.257 190.446 443.884 190.167 443.511 190.167H409.386C408.92 190.167 408.64 190.54 408.64 190.913C408.64 191.379 409.013 191.659 409.386 191.659Z" fill="#E2E7F9"/>
<path d="M453.674 191.659H511.109C511.575 191.659 511.855 191.286 511.855 190.913C511.855 190.446 511.482 190.167 511.109 190.167H453.674C453.208 190.167 452.928 190.54 452.928 190.913C452.928 191.379 453.301 191.659 453.674 191.659Z" fill="#E2E7F9"/>
<path d="M390.459 183.453C391.298 183.36 391.951 183.267 392.417 182.894C392.79 182.614 393.163 182.055 393.349 181.309C393.536 180.749 393.536 179.631 393.536 177.952C393.536 176.46 393.629 175.435 393.815 174.689C394.002 174.036 394.282 173.384 394.748 172.917C395.214 172.451 395.773 172.078 396.426 171.892C397.079 171.705 398.104 171.612 399.317 171.612H400.062V174.969C399.037 174.969 398.291 175.062 398.011 175.155C397.731 175.248 397.545 175.435 397.359 175.715C397.265 175.901 397.172 176.367 397.172 177.113C397.172 179.351 397.079 180.749 396.986 181.402C396.799 182.334 396.519 183.174 396.053 183.733C395.773 184.199 395.214 184.572 394.561 185.038C395.121 185.318 395.494 185.691 395.867 186.064C396.24 186.437 396.519 186.996 396.706 187.556C396.892 188.115 397.079 188.954 397.079 189.887C397.172 191.472 397.172 192.591 397.172 193.15C397.172 193.709 397.265 194.082 397.359 194.362C397.545 194.642 397.731 194.735 398.011 194.922C398.291 195.015 398.944 195.108 399.969 195.108V198.465H399.223C398.011 198.465 397.079 198.371 396.519 198.185C395.68 197.905 395.028 197.625 394.561 197.159C394.095 196.693 393.815 196.134 393.629 195.388C393.443 194.642 393.349 193.43 393.349 191.565C393.349 190.446 393.349 189.7 393.256 189.234C393.163 188.675 392.976 188.115 392.697 187.742C392.417 187.369 392.137 187.09 391.764 186.903C391.391 186.717 390.925 186.623 390.272 186.623V183.453H390.459Z" fill="url(#paint3_linear_2798_19726)"/>
<path d="M572.459 164.433C571.807 164.433 571.247 164.619 570.968 164.712C570.595 164.899 570.315 165.179 570.035 165.552C569.756 165.924 569.569 166.484 569.476 167.043C569.383 167.51 569.383 168.255 569.383 169.374C569.383 171.146 569.289 172.451 569.103 173.197C568.916 173.943 568.637 174.502 568.17 174.969C567.704 175.435 567.052 175.714 566.213 175.994C565.653 176.181 564.721 176.274 563.509 176.274H562.763V172.917C563.788 172.917 564.441 172.824 564.721 172.731C565 172.638 565.28 172.451 565.373 172.171C565.56 171.892 565.56 171.519 565.56 170.959C565.56 170.4 565.56 169.281 565.653 167.696C565.746 166.764 565.84 165.924 566.026 165.365C566.213 164.806 566.492 164.246 566.865 163.873C567.238 163.5 567.611 163.127 568.17 162.848C567.518 162.381 566.958 162.008 566.679 161.542C566.213 160.89 565.933 160.144 565.746 159.211C565.653 158.559 565.56 157.16 565.56 154.922C565.56 154.27 565.467 153.71 565.373 153.524C565.28 153.337 565.094 153.151 564.721 152.964C564.441 152.871 563.695 152.778 562.669 152.778V149.421H563.415C564.627 149.421 565.653 149.515 566.306 149.701C566.958 149.888 567.518 150.261 567.984 150.727C568.45 151.193 568.73 151.752 568.916 152.498C569.103 153.151 569.196 154.27 569.196 155.762C569.196 157.44 569.289 158.559 569.383 159.118C569.569 159.864 569.942 160.423 570.315 160.703C570.781 160.983 571.341 161.169 572.273 161.263V164.433H572.459Z" fill="url(#paint4_linear_2798_19726)"/>
<path d="M377.872 244.897C378.711 244.804 379.364 244.71 379.83 244.337C380.296 244.058 380.576 243.498 380.762 242.752C380.949 242.193 380.949 241.074 380.949 239.396C380.949 237.904 381.042 236.878 381.229 236.133C381.415 235.48 381.695 234.827 382.161 234.361C382.627 233.895 383.187 233.522 383.839 233.335C384.492 233.149 385.518 233.056 386.73 233.056H387.476V236.412C386.45 236.412 385.704 236.505 385.424 236.599C385.145 236.692 384.865 236.878 384.772 237.158C384.678 237.438 384.585 237.811 384.585 238.557C384.585 240.794 384.492 242.193 384.399 242.846C384.212 243.778 383.932 244.617 383.466 245.177C383.187 245.643 382.627 246.016 381.974 246.482C382.534 246.762 382.907 247.135 383.28 247.508C383.653 247.88 383.932 248.44 384.119 248.999C384.305 249.559 384.492 250.398 384.492 251.33C384.585 252.915 384.585 254.034 384.585 254.594C384.585 255.153 384.678 255.526 384.772 255.806C384.958 256.085 385.145 256.179 385.424 256.365C385.704 256.458 386.357 256.552 387.382 256.552V259.908H386.636C385.424 259.908 384.492 259.815 383.932 259.628C383.093 259.349 382.441 259.069 381.974 258.603C381.508 258.137 381.229 257.577 381.042 256.925C380.856 256.179 380.762 254.967 380.762 253.102C380.762 251.983 380.762 251.237 380.669 250.771C380.576 250.211 380.389 249.652 380.11 249.279C379.83 248.906 379.55 248.626 379.177 248.44C378.804 248.253 378.338 248.16 377.686 248.16V244.897H377.872Z" fill="url(#paint5_linear_2798_19726)"/>
<path d="M546.073 224.478C545.421 224.478 544.861 224.665 544.581 224.758C544.208 224.944 543.929 225.224 543.649 225.597C543.369 225.97 543.183 226.529 543.09 227.089C542.996 227.555 542.996 228.301 542.996 229.42C542.996 231.191 542.903 232.497 542.717 233.242C542.53 233.988 542.25 234.548 541.784 234.921C541.318 235.387 540.665 235.667 539.826 235.946C539.267 236.133 538.334 236.226 537.122 236.226H536.47V232.869C537.495 232.869 538.148 232.776 538.428 232.683C538.707 232.59 538.987 232.403 539.08 232.124C539.267 231.844 539.267 231.471 539.267 230.911C539.267 230.352 539.267 229.233 539.36 227.648C539.453 226.716 539.547 225.877 539.733 225.317C539.919 224.758 540.199 224.198 540.572 223.825C540.945 223.452 541.318 223.079 541.877 222.8C541.225 222.334 540.665 221.867 540.386 221.494C539.919 220.842 539.64 220.096 539.453 219.164C539.36 218.511 539.267 217.112 539.267 214.875C539.267 214.222 539.174 213.756 539.08 213.476C538.987 213.196 538.801 213.103 538.428 212.917C538.148 212.823 537.402 212.73 536.376 212.73V209.374H537.122C538.334 209.374 539.36 209.467 540.013 209.653C540.665 209.84 541.225 210.213 541.691 210.679C542.157 211.145 542.437 211.704 542.623 212.45C542.81 213.103 542.903 214.222 542.903 215.714C542.903 217.392 542.996 218.511 543.09 219.07C543.276 219.816 543.649 220.376 544.022 220.655C544.395 220.935 545.048 221.122 545.98 221.215V224.478H546.073Z" fill="url(#paint6_linear_2798_19726)"/>
<path d="M376.38 435.102H370.227L387.382 322.75H393.536L376.38 435.102Z" fill="#233357"/>
<path d="M368.548 435.103H370.227L387.382 322.751H385.704L368.548 435.103Z" fill="#415C8C"/>
<path d="M419.642 435.102H413.488L430.644 322.75H436.705L419.642 435.102Z" fill="#233357"/>
<path d="M411.811 435.103H413.489L430.645 322.751H428.966L411.811 435.103Z" fill="#415C8C"/>
<path d="M546.26 435.102H540.107L523.044 322.75H529.104L546.26 435.102Z" fill="#233357"/>
<path d="M538.428 435.103H540.107L523.044 322.751H521.366L538.428 435.103Z" fill="#415C8C"/>
<path d="M598.753 435.102H592.693L575.537 322.75H581.691L598.753 435.102Z" fill="#233357"/>
<path d="M591.014 435.103H592.692L575.537 322.751H573.858L591.014 435.103Z" fill="#415C8C"/>
<path d="M585.886 314.825H378.245V324.242H585.886V314.825Z" fill="url(#paint7_linear_2798_19726)"/>
<path d="M585.886 314.825H514.652V324.242H585.886V314.825Z" fill="url(#paint8_linear_2798_19726)"/>
<path d="M296.383 430.813L289.204 384.474H275.125L285.754 430.813H296.383Z" fill="#233357"/>
<path d="M250.043 430.813L242.864 384.474H228.785L239.414 430.813H250.043Z" fill="#233357"/>
<path d="M198.949 386.898H288.644V301.772H198.949V386.898Z" fill="url(#paint9_linear_2798_19726)"/>
<path d="M272.607 386.898H304.867V317.902C304.867 309.044 297.688 301.772 288.737 301.772C279.879 301.772 272.607 308.951 272.607 317.902V386.898Z" fill="url(#paint10_linear_2798_19726)"/>
<path d="M180.115 257.95V344.288H220.767C220.021 317.249 215.173 296.644 209.019 281.26C204.171 268.859 198.483 259.815 193.448 253.381C191.677 251.051 189.066 250.211 186.642 250.584C183.285 250.957 180.115 253.754 180.115 257.95Z" fill="#788DDF"/>
<path d="M19 344.288H180.115L182.353 312.867L186.735 250.584V250.491H26.6455L19 344.288Z" fill="url(#paint11_linear_2798_19726)"/>
<path d="M51.4463 344.288H220.86C220.114 317.249 215.265 296.644 209.112 281.26C208.832 282.099 179.182 323.776 162.399 324.149C107.296 325.175 52.5651 294.872 52.5651 294.872L51.4463 344.288Z" fill="#CFDCFA"/>
<path d="M19 257.95V344.288H59.6517C59.0923 324.522 56.3884 308.205 52.5656 294.872C46.9714 275.292 39.1394 261.959 32.4263 253.381C30.9344 251.423 28.79 250.491 26.7387 250.491C22.8228 250.398 19 253.381 19 257.95Z" fill="#E0E8FC"/>
<path d="M34.1978 430.813L41.3771 384.474H55.456L44.8269 430.813H34.1978Z" fill="#233357"/>
<path d="M80.5371 430.813L87.7164 384.474H102.541L91.9121 430.813H80.5371Z" fill="#233357"/>
<path d="M127.435 369.276H270.462V336.55H127.435V369.276Z" fill="url(#paint12_linear_2798_19726)"/>
<path d="M127.435 369.276H270.462V386.805H127.435V369.276Z" fill="url(#paint13_linear_2798_19726)"/>
<path d="M19.3971 386.849H130.816V301.722H19.3971L19.3971 386.849Z" fill="#2A3894"/>
<path d="M114.662 386.898H146.922V317.902C146.922 309.045 139.743 301.772 130.792 301.772C121.935 301.772 114.662 308.951 114.662 317.902V386.898Z" fill="url(#paint14_linear_2798_19726)"/>
<path fill-rule="evenodd" clip-rule="evenodd" d="M276.988 403.214C276.988 403.214 278.853 416.361 283.794 416.267C288.736 416.081 297.034 419.158 300.297 421.675C300.297 421.675 310.926 418.505 317.826 413.75C318.479 413.284 318.479 412.258 317.733 411.792C314.19 409.554 305.425 409.834 300.67 407.876C295.262 405.638 288.363 399.764 282.955 400.231C277.547 400.417 276.988 403.214 276.988 403.214Z" fill="#263238"/>
<path fill-rule="evenodd" clip-rule="evenodd" d="M289.762 427.177C289.762 427.177 282.303 416.827 281.651 414.963C280.998 413.098 287.804 411.886 287.804 411.886L292.746 425.685C292.746 425.685 292.093 427.084 289.762 427.177Z" fill="#263238"/>
<path fill-rule="evenodd" clip-rule="evenodd" d="M287.524 398.459C286.406 397.061 283.702 392.678 283.702 392.678L274.378 399.858L277.268 404.893C277.268 404.893 300.578 414.776 302.722 408.436C293.398 404.333 290.415 402.002 287.524 398.459Z" fill="#EABABB"/>
<path fill-rule="evenodd" clip-rule="evenodd" d="M186.362 397.993C186.362 397.993 177.971 408.249 181.421 411.792C184.87 415.335 188.227 423.54 188.693 427.549C188.693 427.549 198.203 433.237 206.408 435.102C207.247 435.288 207.9 434.542 207.807 433.796C207.061 429.694 200.907 423.354 199.136 418.505C197.178 413.004 196.712 403.96 192.796 400.231C188.693 396.594 186.362 397.993 186.362 397.993Z" fill="#263238"/>
<path fill-rule="evenodd" clip-rule="evenodd" d="M177.318 423.633C177.318 423.633 179.929 411.139 180.861 409.368C181.793 407.596 187.294 411.792 187.294 411.792L180.395 424.752C180.395 424.845 178.996 425.312 177.318 423.633Z" fill="#263238"/>
<path fill-rule="evenodd" clip-rule="evenodd" d="M196.991 402.562C197.271 400.79 198.669 395.848 198.669 395.848L187.108 393.797L185.336 399.391C185.336 399.391 193.821 423.26 199.975 420.556C196.618 410.86 196.245 407.13 196.991 402.562Z" fill="#EABABB"/>
<path d="M188.599 214.594C186.921 208.347 183.191 203.779 184.31 196.599C185.336 189.793 189.625 185.597 186.268 178.511C185.429 176.647 183.005 174.502 181.886 172.731C180.021 169.84 179.555 166.577 176.665 164.619C172.096 161.542 166.036 164.246 161.187 164.992C160.068 165.178 159.509 166.577 159.695 167.602C161.094 174.129 161.84 180.469 161.933 186.996C161.653 188.395 161.281 189.886 160.908 191.378C160.255 194.082 159.975 196.413 160.441 199.117C161.187 203.126 163.145 206.949 163.984 210.958C164.637 213.942 165.01 217.019 166.409 219.816C170.418 227.648 185.056 230.445 188.972 220.841C189.718 218.79 189.159 216.459 188.599 214.594Z" fill="#263238"/>
<path d="M171.537 287.599C155.687 294.779 167.808 322.657 188.227 329.836C208.646 337.016 231.583 332.54 249.298 333.939C254.333 334.312 267.293 325.268 257.782 313.986C248.272 302.797 192.889 277.903 171.537 287.599Z" fill="#222629"/>
<path d="M252.28 309.79C270.462 321.818 284.168 382.702 290.415 393.331C290.415 393.331 282.21 400.884 272.606 404.613C272.606 404.613 239.507 338.507 236.803 330.116C231.115 312.587 246.313 305.874 252.28 309.79Z" fill="#222629"/>
<path d="M154.007 333.845C171.07 339.906 189.624 339.719 206.5 340.372C208.738 340.465 210.883 340.559 213.12 340.652C214.239 340.745 215.358 340.745 216.477 340.838C221.512 341.211 236.243 332.447 226.733 321.258C226.08 320.419 225.055 319.487 223.749 318.368C207.153 304.755 145.243 273.614 135.826 294.499C134.894 296.55 134.148 298.788 133.775 301.026C131.164 313.333 136.758 327.692 154.007 333.845Z" fill="#222629"/>
<path d="M202.958 330.209C202.958 330.396 202.865 330.582 202.772 330.862C202.119 333.286 201.466 338.787 199.135 345.593C190.371 371.327 182.166 397.061 182.166 397.061C189.066 402.562 203.238 403.028 203.238 403.028C204.263 391.187 236.244 348.204 230.37 326.666C230.37 326.666 230.37 326.666 230.37 326.573C230.277 326.014 230.09 325.547 229.904 325.081C227.946 320.233 217.223 315.757 209.578 320.792C206.781 322.657 204.357 325.641 202.958 330.209Z" fill="#222629"/>
<path d="M231.022 271.562C235.964 264.197 244.915 228.673 246.593 222.613C248.644 215.247 239.507 208.813 236.523 216.086C233.726 223.079 213.866 262.612 213.214 267.087C212.281 275.199 224.868 280.793 231.022 271.562Z" fill="#F2CDBC"/>
<path d="M170.698 231.284C175.36 240.328 205.849 267.46 211.443 272.681C218.249 278.928 232.515 271.749 229.345 263.917C226.547 257.018 193.448 220.562 188.786 217.298C180.395 211.517 164.824 220.002 170.698 231.284Z" fill="#F2CDBC"/>
<path d="M185.896 252.636C175.826 243.125 167.714 229.606 165.197 224.664C159.043 212.916 169.299 204.152 181.327 208.627C183.751 209.56 198.762 219.35 207.434 229.885C203.984 240.888 187.854 251.983 185.896 252.636Z" fill="#94ABE6"/>
<path d="M176.012 207.974C178.995 210.025 191.023 218.044 191.862 236.132C192.235 244.71 184.496 254.407 187.293 267.926C189.997 280.886 202.678 290.676 202.678 290.676C202.678 290.676 174.52 310.07 131.258 300.093C127.714 258.509 125.663 243.218 130.139 218.417C132.097 207.881 145.43 206.576 148.04 206.296C150.651 206.016 165.476 205.177 176.012 207.974Z" fill="#94ABE6"/>
<path d="M168.927 196.319C168.927 196.319 168.274 205.736 170.791 206.576C172.936 207.322 176.013 207.974 176.013 207.974C176.013 207.974 163.053 227.554 147.575 206.203C147.575 206.203 152.144 206.296 153.636 204.431C155.034 202.566 155.967 193.429 155.221 187.275L168.927 196.319Z" fill="#F2CDBC"/>
<path d="M153.635 204.338C155.034 202.473 155.966 193.336 155.22 187.182L163.425 193.15C161.84 194.641 159.323 198.651 159.416 198.93C157.271 202.94 156.059 208.627 160.255 211.704C163.518 214.128 167.714 213.942 171.723 212.823C166.409 216.739 157.365 219.722 147.668 206.11C147.668 206.203 152.237 206.203 153.635 204.338Z" fill="#D3AFA1"/>
<path d="M121.188 222.146C114.102 228.58 95.6412 264.01 92.0981 270.63C87.8092 278.555 94.0561 288.345 100.956 285.082C106.923 282.285 134.335 242.193 136.386 236.971C140.116 227.461 130.046 214.128 121.188 222.146Z" fill="#F2CDBC"/>
<path d="M96.6667 286.574C104.032 291.049 133.962 297.483 139.649 298.788C146.456 300.373 151.864 290.303 145.057 287.786C138.437 285.362 101.608 269.138 97.5991 268.859C90.14 268.299 87.5294 280.98 96.6667 286.574Z" fill="#F2CDBC"/>
<path d="M105.524 237.624C112.424 226.249 123.146 216.179 127.062 212.823C136.479 204.897 143.845 216.179 143.378 226.249C143.192 229.419 140.581 242.659 132.563 253.008C122.493 251.143 106.363 239.395 105.524 237.624Z" fill="#94ABE6"/>
<path d="M148.321 191.285C149.067 192.497 150.839 193.243 152.331 192.684C153.822 192.124 153.077 189.7 152.517 188.674C151.771 187.276 152.144 171.425 152.051 171.425C151.585 171.146 146.923 174.875 146.83 175.621C146.457 177.393 143.287 183.826 148.321 191.285Z" fill="#161C41"/>
<path d="M176.572 161.262V189.886C176.572 196.32 170.884 201.541 163.798 201.541C156.805 201.541 151.025 196.32 151.025 189.886V189.327C151.025 189.327 144.498 190.725 144.498 183.639C144.498 176.46 148.601 177.486 148.601 177.486V161.262H176.572Z" fill="#F2CDBC"/>
<path d="M148.694 177.486V162.94H158.577C158.577 163.034 158.577 168.162 158.577 168.255V192.963C158.577 197.252 162.773 200.795 167.062 200.609C168.367 200.609 169.672 200.236 170.698 199.583C168.74 200.795 166.316 201.448 163.798 201.448C156.805 201.448 151.025 196.226 151.025 189.793V189.234C151.025 189.234 144.498 190.632 144.498 183.546C144.591 176.46 148.694 177.486 148.694 177.486Z" fill="#D3AFA1"/>
<path d="M189.345 247.507C185.056 250.304 173.122 256.085 153.169 253.195C153.169 253.195 176.012 258.975 186.921 258.136C186.921 258.136 187.667 254.034 189.345 247.507Z" fill="#94ABE6"/>
<path d="M261.792 304.755H180.489V309.044H261.792V304.755Z" fill="#334383"/>
<path d="M180.488 309.044H143.1V306.62C143.1 305.595 143.939 304.755 144.965 304.755H180.488V309.044Z" fill="#2A396B"/>
<path d="M259.461 304.756H178.531L189.16 254.873C189.44 253.382 190.652 252.356 192.05 252.356H264.962C267.853 252.356 269.997 255.246 269.344 258.23L259.461 304.756Z" fill="#334383"/>
<path d="M261.419 304.755H180.488L191.117 254.873C191.397 253.381 192.609 252.356 194.008 252.356H268.412C270.556 252.356 272.048 254.407 271.582 256.645L261.419 304.755Z" fill="url(#paint15_linear_2798_19726)"/>
<path d="M165.104 302.984C163.052 300.28 161.188 297.576 162.866 299.441C165.01 301.865 168.553 300.466 166.409 298.042C163.705 294.965 161.001 291.236 157.645 288.998C153.915 286.574 148.321 288.625 144.405 287.599C142.82 287.226 137.505 296.83 138.531 297.762C141.981 300.932 147.482 299.441 147.948 299.907C149.16 301.678 149.626 302.704 150.652 304.476C151.957 306.713 156.059 306.434 154.754 304.196C153.915 302.797 154.661 302.611 155.873 304.569C157.458 307.086 161.654 306.527 160.069 304.009C159.416 302.984 159.416 302.331 160.442 303.73C162.493 306.527 167.155 305.594 165.104 302.984Z" fill="#F2CDBC"/>
<path d="M239.041 222.986C243.05 221.867 252.933 223.545 256.663 221.214C260.019 219.07 259.926 216.925 262.537 214.128C263.935 212.543 263.749 210.865 262.537 210.212C262.723 209.653 263.935 208.814 263.842 207.695C263.749 205.83 261.511 205.83 259.553 208.347C258.621 209.56 260.486 206.483 261.138 205.55C262.63 203.313 258.341 203.126 256.849 205.364C256.103 206.483 254.891 208.068 254.705 207.881C254.612 207.788 255.451 206.203 255.73 205.737C256.943 203.686 252.747 203.779 251.535 205.83C250.602 207.415 247.432 210.865 246.22 212.45C245.94 212.636 244.542 212.73 242.77 213.103C243.05 212.077 244.076 211.331 244.915 210.585C245.568 209.932 245.847 209.093 245.101 208.534C244.262 207.881 243.33 208.254 242.491 208.814C241.372 209.466 240.533 210.119 239.414 210.958C238.948 211.331 236.896 215.061 236.244 217.112C235.778 218.324 237.456 223.452 239.041 222.986Z" fill="#F2CDBC"/>
<path d="M185.429 169.281C190.557 166.017 183.378 148.861 168.833 151.845C168.833 151.845 158.484 147.649 149.533 152.498C146.549 154.176 129.953 163.034 133.216 181.495C134.335 187.648 134.894 192.87 132.936 198.93C131.351 203.685 128.554 207.974 127.062 212.729C125.011 218.883 124.545 225.223 128.927 230.445C133.496 235.759 146.922 239.582 153.915 239.955C159.136 240.235 164.451 238.09 165.849 232.589C168.367 222.706 156.899 216.366 155.78 207.322C154.381 196.506 162.773 187.462 158.67 176.367C157.551 173.476 155.966 171.145 153.915 169.187C156.059 167.975 174.054 176.367 185.429 169.281Z" fill="#263238"/>
<path d="M19.2793 386.898H130.792V301.772H19.2793V386.898Z" fill="url(#paint16_linear_2798_19726)"/>
<path d="M112.797 386.898H145.058V317.902C145.058 309.044 137.878 301.772 128.928 301.772C120.07 301.772 112.797 308.951 112.797 317.902V386.898Z" fill="url(#paint17_linear_2798_19726)"/>
<path d="M331.222 36.6001C331.128 36.6001 331.033 36.6001 330.938 36.6948C330.749 36.7895 330.654 36.9788 330.654 37.2629V53.0746C330.654 53.264 330.559 53.3586 330.465 53.4533C330.37 53.548 330.181 53.548 329.991 53.4533L327.435 51.9384C327.056 51.7491 326.583 51.7491 326.204 51.9384L315.884 57.9033C315.505 58.0927 315.221 58.5661 315.221 59.0395V70.9693C315.221 71.4427 315.411 71.8214 315.884 72.0108L326.204 77.9757C326.583 78.1651 327.056 78.1651 327.435 77.9757L337.755 72.0108C338.134 71.8214 338.418 71.348 338.418 70.9693V41.1448C338.418 40.6714 338.134 40.2927 337.755 40.0086L331.601 36.6948C331.412 36.6001 331.317 36.6001 331.222 36.6001ZM264.851 51.465C264.662 51.465 264.472 51.465 264.283 51.6544L253.963 57.6193C253.584 57.8086 253.3 58.2821 253.3 58.6608V74.6619C253.3 74.8512 253.394 75.1353 253.584 75.23C253.773 75.3246 254.057 75.3246 254.247 75.23L260.401 71.7268C260.78 71.5374 261.064 71.064 261.064 70.6853V63.2055C261.064 62.7321 261.253 62.3533 261.726 62.164L264.377 60.6491C264.567 60.5544 264.756 60.4597 265.04 60.4597C265.23 60.4597 265.514 60.5544 265.703 60.6491L268.354 62.164C268.733 62.3533 269.017 62.8267 269.017 63.2055V70.6853C269.017 71.1587 269.301 71.5374 269.68 71.7268L275.834 75.23C276.023 75.3246 276.307 75.3246 276.497 75.23C276.686 75.1353 276.781 74.9459 276.781 74.6619V58.6608C276.781 58.1874 276.591 57.8086 276.118 57.6193L265.798 51.6544C265.608 51.5597 265.419 51.5597 265.23 51.465H264.851V51.465ZM357.544 51.6544C357.354 51.6544 357.07 51.7491 356.881 51.8437L346.561 57.8086C346.182 57.998 345.898 58.4714 345.898 58.8501V70.7799C345.898 71.2534 346.182 71.6321 346.561 71.8214L356.786 77.6917C357.165 77.881 357.638 77.881 358.017 77.6917L364.266 74.2831C364.455 74.1885 364.55 73.9991 364.55 73.7151C364.55 73.5257 364.455 73.2417 364.266 73.147L353.851 67.1821C353.662 67.0874 353.567 66.8033 353.567 66.614V62.9214C353.567 62.7321 353.662 62.448 353.851 62.3533L357.07 60.4597C357.26 60.365 357.544 60.365 357.733 60.4597L360.952 62.3533C361.141 62.448 361.236 62.6374 361.236 62.9214V65.8565C361.236 66.0459 361.331 66.3299 361.52 66.4246C361.71 66.5193 361.994 66.5193 362.183 66.4246L368.337 62.8267C368.716 62.6374 369 62.164 369 61.7852V58.9448C369 58.4714 368.811 58.0927 368.337 57.9033L358.112 51.9384C358.017 51.6544 357.828 51.6544 357.544 51.6544ZM326.772 60.4597C326.867 60.4597 326.867 60.4597 326.962 60.4597L330.465 62.5427C330.559 62.6374 330.654 62.7321 330.654 62.8267V66.898C330.654 66.9927 330.559 67.0874 330.465 67.1821L326.962 69.265C326.867 69.3597 326.772 69.3597 326.678 69.265L323.174 67.1821C323.08 67.0874 322.985 66.9927 322.985 66.898V62.8267C322.985 62.7321 323.08 62.6374 323.174 62.5427L326.678 60.4597C326.678 60.5544 326.678 60.4597 326.772 60.4597Z" fill="#363636"/>
<path d="M307.457 71.5373V58.282L296.001 51.6543L284.544 58.282V71.5373L296.001 78.165L307.457 71.5373Z" fill="#5A8541"/>
<path d="M296.001 51.749L307.457 71.5374L296.001 78.165L284.544 58.3767L296.001 51.749Z" fill="#80A462"/>
<path d="M284.544 71.5373L288.521 65.099L284.544 58.282V71.5373Z" fill="#72A14C"/>
<path d="M303.575 64.9096L307.363 58.282L295.906 51.6543L303.575 64.9096Z" fill="#769B5C"/>
<path d="M360.289 66.3301V63.0163L357.354 61.312L354.419 63.0163V66.3301L357.354 68.0344L360.289 66.3301Z" fill="#799E64"/>
<path d="M317.683 87.4438C317.683 87.4438 317.493 85.4555 315.316 85.4555C313.138 85.4555 311.718 85.7395 311.718 86.9704C311.718 88.2012 315.884 88.2012 317.493 88.6746C319.103 89.148 320.523 90.3789 319.766 92.5565C319.008 94.7342 316.925 94.9236 313.611 94.9236C310.297 94.9236 309.54 92.1778 309.54 91.0417H311.434C311.434 91.0417 311.244 92.7459 313.422 93.03C315.6 93.314 317.683 93.5034 317.967 91.7991C318.345 89.5268 310.866 90.6629 310.203 88.4853C309.635 86.5916 310.013 84.2246 313.706 83.8459C317.493 83.4672 319.482 85.1714 319.482 87.6331L317.683 87.4438Z" fill="#799E64"/>
<path d="M299.599 96.1543L303.765 98.5214C305.848 99.7522 308.404 98.2373 308.404 95.7756V83.9405H306.7V95.3969C306.7 96.7224 305.279 97.5746 304.143 96.9118L301.208 95.2075V82.9937L311.812 76.9341L322.417 82.9937V95.2075L311.812 101.267L308.783 99.4682L306.794 100.226L311.812 103.161L324.026 96.0597V82.0469L311.812 74.9458L299.599 82.0469V96.1543Z" fill="#799E64"/>
</g>
<defs>
<linearGradient id="paint0_linear_2798_19726" x1="450.494" y1="258.747" x2="501.475" y2="258.747" gradientUnits="userSpaceOnUse">
<stop offset="0.00380228" stop-color="#E5ECFD"/>
<stop offset="0.2426" stop-color="#F1F5FE"/>
<stop offset="0.5894" stop-color="#FCFDFF"/>
<stop offset="1" stop-color="white"/>
</linearGradient>
<linearGradient id="paint1_linear_2798_19726" x1="397.035" y1="308.303" x2="544.674" y2="308.303" gradientUnits="userSpaceOnUse">
<stop offset="0.00380228" stop-color="#E5ECFD"/>
<stop offset="0.2426" stop-color="#F1F5FE"/>
<stop offset="0.5894" stop-color="#FCFDFF"/>
<stop offset="1" stop-color="white"/>
</linearGradient>
<linearGradient id="paint2_linear_2798_19726" x1="364.45" y1="202.378" x2="586.623" y2="202.378" gradientUnits="userSpaceOnUse">
<stop stop-color="#34449E"/>
<stop offset="1" stop-color="#4258B0"/>
</linearGradient>
<linearGradient id="paint3_linear_2798_19726" x1="400.021" y1="185.128" x2="390.464" y2="185.128" gradientUnits="userSpaceOnUse">
<stop offset="1.09e-06" stop-color="#F1CE30"/>
<stop offset="1" stop-color="#E1721B"/>
</linearGradient>
<linearGradient id="paint4_linear_2798_19726" x1="572.431" y1="162.782" x2="562.874" y2="162.782" gradientUnits="userSpaceOnUse">
<stop offset="1.09e-06" stop-color="#F1CE30"/>
<stop offset="1" stop-color="#E1721B"/>
</linearGradient>
<linearGradient id="paint5_linear_2798_19726" x1="387.39" y1="246.596" x2="377.832" y2="246.596" gradientUnits="userSpaceOnUse">
<stop offset="1.09e-06" stop-color="#F1CE30"/>
<stop offset="1" stop-color="#E1721B"/>
</linearGradient>
<linearGradient id="paint6_linear_2798_19726" x1="546.04" y1="222.804" x2="536.483" y2="222.804" gradientUnits="userSpaceOnUse">
<stop offset="1.09e-06" stop-color="#F1CE30"/>
<stop offset="1" stop-color="#E1721B"/>
</linearGradient>
<linearGradient id="paint7_linear_2798_19726" x1="378.27" y1="319.548" x2="585.924" y2="319.548" gradientUnits="userSpaceOnUse">
<stop stop-color="#E5ECFD"/>
<stop offset="1" stop-color="#B9CCF8"/>
</linearGradient>
<linearGradient id="paint8_linear_2798_19726" x1="514.683" y1="319.548" x2="585.924" y2="319.548" gradientUnits="userSpaceOnUse">
<stop stop-color="#E5ECFD"/>
<stop offset="1" stop-color="#B9CCF8"/>
</linearGradient>
<linearGradient id="paint9_linear_2798_19726" x1="198.966" y1="344.31" x2="288.677" y2="344.31" gradientUnits="userSpaceOnUse">
<stop stop-color="#E5ECFD"/>
<stop offset="1" stop-color="#B9CCF8"/>
</linearGradient>
<linearGradient id="paint10_linear_2798_19726" x1="272.562" y1="344.31" x2="304.792" y2="344.31" gradientUnits="userSpaceOnUse">
<stop stop-color="white"/>
<stop offset="0.00907791" stop-color="#FEFEFF"/>
<stop offset="0.6739" stop-color="#CBD9EE"/>
<stop offset="1" stop-color="#B7CAE7"/>
</linearGradient>
<linearGradient id="paint11_linear_2798_19726" x1="19" y1="297.41" x2="186.763" y2="297.41" gradientUnits="userSpaceOnUse">
<stop stop-color="#C6D5F9"/>
<stop offset="1" stop-color="#384680"/>
</linearGradient>
<linearGradient id="paint12_linear_2798_19726" x1="127.447" y1="352.903" x2="270.486" y2="352.903" gradientUnits="userSpaceOnUse">
<stop stop-color="white"/>
<stop offset="0.00907791" stop-color="#FEFEFF"/>
<stop offset="0.6739" stop-color="#CBD9EE"/>
<stop offset="1" stop-color="#B7CAE7"/>
</linearGradient>
<linearGradient id="paint13_linear_2798_19726" x1="127.447" y1="378.032" x2="270.486" y2="378.032" gradientUnits="userSpaceOnUse">
<stop stop-color="#E5ECFD"/>
<stop offset="1" stop-color="#B9CCF8"/>
</linearGradient>
<linearGradient id="paint14_linear_2798_19726" x1="114.654" y1="344.31" x2="146.885" y2="344.31" gradientUnits="userSpaceOnUse">
<stop stop-color="white"/>
<stop offset="0.00907791" stop-color="#FEFEFF"/>
<stop offset="0.6739" stop-color="#CBD9EE"/>
<stop offset="1" stop-color="#B7CAE7"/>
</linearGradient>
<linearGradient id="paint15_linear_2798_19726" x1="180.493" y1="278.638" x2="271.798" y2="278.638" gradientUnits="userSpaceOnUse">
<stop stop-color="white"/>
<stop offset="1" stop-color="#B1D2EA"/>
</linearGradient>
<linearGradient id="paint16_linear_2798_19726" x1="19.3257" y1="344.31" x2="130.77" y2="344.31" gradientUnits="userSpaceOnUse">
<stop stop-color="#E5ECFD"/>
<stop offset="1" stop-color="#B9CCF8"/>
</linearGradient>
<linearGradient id="paint17_linear_2798_19726" x1="112.841" y1="344.31" x2="145.072" y2="344.31" gradientUnits="userSpaceOnUse">
<stop stop-color="white"/>
<stop offset="0.00907791" stop-color="#FEFEFF"/>
<stop offset="0.6739" stop-color="#CBD9EE"/>
<stop offset="1" stop-color="#B7CAE7"/>
</linearGradient>
<clipPath id="clip0_2798_19726">
<rect width="628.5" height="435.2" fill="white"/>
</clipPath>
</defs>
</svg>
