<?xml version="1.0" encoding="utf-8"?>
<!-- Generator: Adobe Illustrator 16.0.0, SVG Export Plug-In . SVG Version: 6.00 Build 0)  -->
<!DOCTYPE svg PUBLIC "-//W3C//DTD SVG 1.1//EN" "http://www.w3.org/Graphics/SVG/1.1/DTD/svg11.dtd">
<svg version="1.1" id="Layer_1" xmlns="http://www.w3.org/2000/svg" xmlns:xlink="http://www.w3.org/1999/xlink" x="0px" y="0px"
	 width="412px" height="412px" viewBox="0 0 412 412" enable-background="new 0 0 412 412" xml:space="preserve">
<g id="OBJECTS">
	<g>
		<g>
			<path fill="#5BB59B" d="M352.043,292.397c-0.476,4.625,1.828,10.313-1.697,13.347c-2.111,1.816-5.438,1.594-7.56,3.397
				c-3.58,3.043-1.214,8.908,1.767,12.544c2.977,3.635,6.623,8.141,4.776,12.463c-0.937,2.191-3.091,3.596-4.461,5.547
				c-3.042,4.334-1.576,10.531,1.616,14.758c8.226,10.888,25.455,11.541,37.025,4.309c4.197-2.624,8.006-6.322,9.386-11.073
				c1.381-4.754-0.339-10.613-4.771-12.815c-1.79-0.891-4.092-1.336-4.94-3.146c-1.453-3.098,2.632-5.625,5.176-7.914
				c4.808-4.326,4.411-13.083-0.765-16.958c-2.193-1.642-5.163-2.653-6.195-5.191c-0.73-1.8-0.231-3.83-0.199-5.774
				C381.442,281.189,353.607,277.24,352.043,292.397z"/>
			<g>
				<rect x="365.896" y="301.578" fill="#0553DD" width="0.759" height="60.694"/>
			</g>
			<g>
				<polygon fill="#0553DD" points="366.255,325.553 353.399,314.752 353.888,314.172 366.294,324.596 381.72,313.648 
					382.158,314.268 				"/>
			</g>
			<g>
				<polygon fill="#0553DD" points="366.255,351.32 353.399,340.521 353.888,339.941 366.294,350.363 381.72,339.416 
					382.158,340.035 				"/>
			</g>
		</g>
	</g>
	<g>
		<g>
			<path fill="#63A590" d="M48.562,153.811c-0.861,8.355,3.299,18.628-3.067,24.107c-3.813,3.282-9.821,2.88-13.654,6.138
				c-6.467,5.499-2.191,16.09,3.188,22.657s11.965,14.705,8.63,22.511c-1.692,3.96-5.585,6.495-8.059,10.021
				c-5.495,7.828-2.848,19.024,2.918,26.656c14.858,19.665,45.978,20.85,66.877,7.781c7.58-4.738,14.46-11.417,16.954-20.002
				c2.494-8.586-0.61-19.168-8.617-23.146c-3.235-1.607-7.392-2.413-8.926-5.683c-2.624-5.596,4.756-10.162,9.35-14.297
				c8.683-7.813,7.97-23.631-1.381-30.631c-3.961-2.966-9.325-4.792-11.187-9.376c-1.322-3.252-0.42-6.919-0.362-10.43
				C101.664,133.568,51.383,126.435,48.562,153.811z"/>
			<g>
				<rect x="73.582" y="170.396" fill="#0553DD" width="1.369" height="176.596"/>
			</g>
			<g>
				<polygon fill="#0553DD" points="74.231,213.699 51.01,194.192 51.891,193.143 74.302,211.969 102.161,192.196 102.955,193.313 
									"/>
			</g>
			<g>
				<polygon fill="#0553DD" points="74.231,260.244 51.01,240.737 51.891,239.689 74.302,258.514 102.161,238.742 102.955,239.859 
									"/>
			</g>
		</g>
	</g>
	<g>
		<g enable-background="new    ">
			<g enable-background="new    ">
				<g>
					<defs>
						<path id="SVGID_1_" d="M110.767,42.007l-11.211,0.366c-0.386-15.609,10.475-28.504,24.246-28.813l11.21-0.366
							C121.241,13.502,110.381,26.397,110.767,42.007z"/>
					</defs>
					<clipPath id="SVGID_2_">
						<use xlink:href="#SVGID_1_"  overflow="visible"/>
					</clipPath>
					<g clip-path="url(#SVGID_2_)" enable-background="new    ">
						<path fill="#15289E" d="M110.767,42.007l-11.211,0.366c-0.125-5.056,0.93-9.827,2.881-13.978l11.211-0.366
							C111.696,32.18,110.642,36.951,110.767,42.007"/>
						<path fill="#15289E" d="M113.648,28.029l-11.211,0.366c1.574-3.346,3.729-6.289,6.319-8.654l11.211-0.366
							C117.377,21.739,115.222,24.683,113.648,28.029"/>
						<path fill="#15289E" d="M119.967,19.375l-11.211,0.366c4.117-3.758,9.33-6.054,15.045-6.183l11.21-0.366
							C129.298,13.321,124.083,15.617,119.967,19.375"/>
					</g>
				</g>
			</g>
			<g>
				<polygon fill="#15289E" points="118.178,341.943 106.967,342.308 99.556,42.373 110.767,42.007 				"/>
			</g>
			<g enable-background="new    ">
				<g>
					<defs>
						<path id="SVGID_3_" d="M143.82,369.635L132.609,370c-13.771,0.311-25.256-12.094-25.642-27.692l11.21-0.364
							C118.563,357.539,130.049,369.943,143.82,369.635z"/>
					</defs>
					<clipPath id="SVGID_4_">
						<use xlink:href="#SVGID_3_"  overflow="visible"/>
					</clipPath>
					<g clip-path="url(#SVGID_4_)">
						<path fill="#15289E" d="M143.82,369.635L132.609,370c-13.771,0.311-25.256-12.094-25.642-27.692l11.21-0.364
							C118.563,357.539,130.049,369.943,143.82,369.635"/>
					</g>
				</g>
			</g>
			<g>
				<polygon fill="#AFC6F5" points="244.087,69.989 244.326,79.668 196.458,80.744 196.218,71.065 				"/>
			</g>
			<g>
				<path fill="#F6A091" d="M180.328,67.391c4.638-0.104,8.537,4.108,8.668,9.361l0.996,40.339c0.13,5.253-3.558,9.625-8.195,9.729
					l-42.055,0.944c-4.638,0.104-8.538-4.097-8.667-9.35l-0.997-40.339c-0.13-5.253,3.558-9.635,8.196-9.739L180.328,67.391z"/>
			</g>
			<g>
				<path fill="#FFFFFF" d="M254.23,51.909l6.648,269.115l-133.38,2.996L120.85,54.904L254.23,51.909z M252.416,295.277
					l-2.628-106.343l-116.907,2.627l2.628,106.341L252.416,295.277 M130.078,78.075l0.996,40.339
					c0.129,5.253,4.029,9.455,8.667,9.351l42.055-0.944c4.637-0.105,8.326-4.476,8.195-9.729l-0.997-40.339
					c-0.129-5.253-4.029-9.465-8.667-9.362l-42.055,0.945C133.636,68.44,129.948,72.822,130.078,78.075 M251.006,174.451l-0.24-9.68
					l-118.48,2.661l0.239,9.68L251.006,174.451 M250.566,156.725l-0.239-9.679l-118.479,2.662l0.239,9.679L250.566,156.725
					 M196.657,88.789l0.239,9.68l47.868-1.075l-0.239-9.679L196.657,88.789 M196.218,71.065l0.24,9.679l47.868-1.074l-0.239-9.68
					L196.218,71.065"/>
			</g>
			<g>
				<polygon fill="#AFC6F5" points="244.524,87.715 244.764,97.394 196.896,98.469 196.657,88.79 				"/>
			</g>
			<g>
				<path fill="#15289E" d="M193.396,21.727c1.224-0.027,2.249,1.078,2.282,2.475c0.034,1.386-0.934,2.536-2.157,2.563
					c-1.233,0.028-2.256-1.079-2.291-2.464C191.194,22.906,192.163,21.755,193.396,21.727z"/>
			</g>
			<g>
				<path fill="#15289E" d="M205.657,33.641c0.768-0.017,1.411,0.677,1.433,1.548c0.021,0.87-0.586,1.594-1.356,1.61l-23.929,0.538
					c-0.769,0.017-1.411-0.677-1.433-1.548s0.587-1.594,1.355-1.611L205.657,33.641z"/>
			</g>
			<g>
				<path fill="#FFFFFF" d="M195.884,330.556c6.146-0.138,11.293,5.409,11.466,12.382c0.172,6.962-4.696,12.734-10.841,12.873
					c-6.146,0.138-11.294-5.41-11.466-12.372C184.869,336.467,189.737,330.692,195.884,330.556z"/>
			</g>
			<g>
				<path fill="#15289E" d="M169.542,32.979c1.432-0.032,2.631,1.263,2.671,2.886c0.04,1.632-1.094,2.97-2.526,3.001
					c-1.432,0.032-2.631-1.252-2.671-2.885C166.976,34.359,168.109,33.012,169.542,32.979z"/>
			</g>
			<g>
				<polygon points="249.788,188.934 252.416,295.277 135.509,297.901 132.881,191.561 				"/>
			</g>
			<g>
				<path fill="#0D62F9" d="M237.928,10.881c13.771-0.309,25.258,12.084,25.644,27.693l7.41,299.936
					c0.387,15.599-10.474,28.503-24.245,28.814l-102.916,2.311c-13.771,0.309-25.257-12.096-25.642-27.691l-7.411-299.937
					c-0.386-15.609,10.474-28.504,24.245-28.814L237.928,10.881z M261.738,321.938l-6.696-270.984l-135.041,3.034l6.696,270.983
					L261.738,321.938 M196.531,356.745c6.602-0.147,11.829-6.35,11.643-13.826c-0.185-7.487-5.713-13.446-12.313-13.3
					c-6.601,0.15-11.829,6.351-11.644,13.838C184.401,350.934,189.93,356.894,196.531,356.745 M181.728,34.179
					c-0.768,0.017-1.377,0.74-1.355,1.61c0.021,0.871,0.665,1.566,1.432,1.548l23.93-0.537c0.77-0.017,1.377-0.74,1.356-1.611
					c-0.021-0.87-0.666-1.565-1.434-1.547L181.728,34.179 M169.542,32.979c-1.433,0.032-2.567,1.379-2.526,3.002
					c0.04,1.633,1.239,2.917,2.671,2.885c1.432-0.032,2.566-1.369,2.525-3.001C172.172,34.242,170.974,32.947,169.542,32.979
					 M193.396,21.727c-1.233,0.028-2.201,1.178-2.167,2.574c0.034,1.386,1.058,2.491,2.291,2.464
					c1.224-0.028,2.191-1.177,2.157-2.563C195.644,22.805,194.619,21.7,193.396,21.727"/>
			</g>
			<g>
				<polygon fill="#AFC6F5" points="250.327,147.046 250.566,156.725 132.087,159.386 131.848,149.708 				"/>
			</g>
			<g>
				<polygon fill="#AFC6F5" points="250.766,164.771 251.006,174.451 132.525,177.111 132.286,167.433 				"/>
			</g>
		</g>
	</g>
	<ellipse fill="#E0E4ED" cx="313.027" cy="382.529" rx="89.55" ry="13.731"/>
	<g>
		<path fill="#E26356" d="M348.293,217.215l-4.818-35.879c0,0-31.101-5.248-41.17-17.708c-9.398-11.631-14.947-21.695-14.947-21.695
			l-15.522,11.94c0,0,16.716,41.791,48.954,57.313"/>
		<path fill="#1865ED" d="M278.807,106.779h0.002l-8.326-0.827c-0.262-0.026-0.528-0.036-0.798-0.028
			c-0.022,0.001-0.048,0.008-0.071,0.009c-0.354,0.014-0.711,0.052-1.072,0.128l-32.75,6.897c-0.129,0.027-0.256,0.058-0.383,0.091
			c-0.072,0.02-0.141,0.054-0.213,0.076c-0.202,0.063-0.402,0.133-0.602,0.214c-0.121,0.05-0.242,0.099-0.361,0.156
			c-0.204,0.096-0.402,0.204-0.598,0.318c-0.078,0.043-0.158,0.076-0.233,0.123c-0.026,0.017-0.052,0.039-0.077,0.056
			c-0.313,0.2-0.619,0.419-0.912,0.664c-0.043,0.034-0.08,0.075-0.121,0.11c-0.252,0.217-0.496,0.449-0.732,0.697
			c-0.087,0.092-0.171,0.188-0.258,0.285c-0.188,0.211-0.369,0.432-0.546,0.662c-0.081,0.105-0.161,0.209-0.24,0.319
			c-0.198,0.278-0.389,0.568-0.569,0.868c-0.031,0.053-0.068,0.1-0.1,0.153c-0.008,0.011-0.014,0.024-0.02,0.037
			c-0.208,0.358-0.4,0.731-0.582,1.116c-0.049,0.104-0.09,0.212-0.138,0.318c-0.126,0.289-0.249,0.581-0.36,0.882
			c-0.021,0.059-0.051,0.114-0.072,0.175c-0.018,0.055-0.029,0.115-0.049,0.171c-0.196,0.572-0.369,1.16-0.505,1.766
			c-0.005,0.023-0.015,0.043-0.019,0.067c-0.013,0.058-0.017,0.12-0.029,0.179c-0.103,0.496-0.183,1.001-0.242,1.514
			c-0.008,0.07-0.024,0.136-0.031,0.206c-0.005,0.034-0.004,0.068-0.006,0.103c-0.055,0.563-0.079,1.132-0.076,1.708
			c0,0.052-0.008,0.102-0.007,0.155c0.003,0.265,0.013,0.531,0.028,0.798l2.752,45.209c0.027,0.451,0.078,0.889,0.139,1.319
			c0.009,0.05,0.01,0.104,0.018,0.155c0.019,0.118,0.044,0.23,0.064,0.346c0.023,0.138,0.048,0.273,0.075,0.408
			c0.038,0.188,0.083,0.373,0.128,0.557c0.031,0.128,0.06,0.255,0.094,0.38c0.053,0.191,0.111,0.376,0.17,0.561
			c0.035,0.111,0.068,0.224,0.105,0.333c0.076,0.217,0.16,0.427,0.244,0.636c0.028,0.068,0.053,0.141,0.082,0.209
			c0.117,0.273,0.242,0.541,0.375,0.798c0.03,0.06,0.065,0.117,0.097,0.175c0.104,0.194,0.211,0.387,0.324,0.571
			c0.054,0.087,0.112,0.168,0.166,0.254c0.098,0.149,0.194,0.296,0.296,0.437c0.066,0.09,0.135,0.174,0.202,0.26
			c0.099,0.126,0.198,0.253,0.3,0.373c0.074,0.085,0.15,0.167,0.226,0.249c0.103,0.112,0.208,0.222,0.315,0.327
			c0.08,0.078,0.161,0.152,0.244,0.227c0.107,0.097,0.219,0.192,0.329,0.283c0.085,0.068,0.172,0.136,0.258,0.201
			c0.116,0.085,0.232,0.166,0.351,0.244c0.09,0.059,0.178,0.118,0.268,0.172c0.121,0.073,0.246,0.139,0.371,0.204
			c0.091,0.049,0.182,0.097,0.274,0.141c0.132,0.061,0.266,0.114,0.399,0.166c0.09,0.035,0.178,0.073,0.268,0.103
			c0.151,0.052,0.305,0.091,0.459,0.131c0.077,0.02,0.153,0.046,0.231,0.063c0.228,0.05,0.46,0.087,0.694,0.111
			c0.006,0.001,0.01,0.002,0.014,0.002l8.324,0.827c-0.238-0.023-0.475-0.063-0.709-0.113c-0.076-0.018-0.149-0.042-0.225-0.061
			c-0.156-0.042-0.311-0.081-0.465-0.132c-0.088-0.031-0.175-0.068-0.264-0.103c-0.135-0.053-0.271-0.107-0.403-0.168
			c-0.091-0.043-0.183-0.091-0.271-0.138c-0.126-0.066-0.253-0.132-0.373-0.207c-0.092-0.054-0.18-0.111-0.268-0.17
			c-0.119-0.079-0.236-0.158-0.352-0.244c-0.086-0.064-0.173-0.132-0.258-0.201c-0.113-0.09-0.223-0.186-0.331-0.285
			c-0.083-0.073-0.163-0.149-0.243-0.227c-0.107-0.104-0.213-0.214-0.315-0.326c-0.075-0.082-0.151-0.162-0.224-0.249
			c-0.104-0.119-0.202-0.245-0.301-0.371c-0.068-0.086-0.137-0.172-0.203-0.262c-0.101-0.14-0.197-0.287-0.294-0.434
			c-0.056-0.086-0.114-0.168-0.169-0.256c-0.112-0.186-0.219-0.377-0.324-0.573c-0.031-0.058-0.066-0.114-0.096-0.172
			c-0.133-0.258-0.258-0.524-0.375-0.799c-0.028-0.067-0.055-0.14-0.082-0.209c-0.086-0.208-0.168-0.419-0.244-0.636
			c-0.037-0.108-0.07-0.22-0.104-0.331c-0.06-0.185-0.12-0.371-0.171-0.562c-0.034-0.124-0.063-0.252-0.094-0.378
			c-0.045-0.184-0.089-0.369-0.127-0.559c-0.028-0.134-0.053-0.271-0.076-0.407c-0.029-0.166-0.057-0.333-0.081-0.502
			c-0.062-0.43-0.112-0.868-0.14-1.316l-2.752-45.209c-0.019-0.32-0.021-0.637-0.021-0.954c-0.003-0.575,0.021-1.146,0.077-1.708
			c0.01-0.103,0.024-0.206,0.037-0.308c0.058-0.514,0.14-1.019,0.242-1.516c0.017-0.081,0.03-0.163,0.048-0.243
			c0.135-0.606,0.309-1.195,0.505-1.768c0.04-0.115,0.078-0.231,0.12-0.346c0.111-0.301,0.232-0.593,0.361-0.883
			c0.047-0.105,0.088-0.214,0.137-0.318c0.182-0.385,0.375-0.758,0.582-1.117c0.037-0.065,0.081-0.124,0.118-0.187
			c0.183-0.301,0.372-0.591,0.571-0.871c0.079-0.109,0.158-0.212,0.24-0.317c0.177-0.23,0.359-0.452,0.547-0.664
			c0.084-0.095,0.168-0.192,0.257-0.283c0.236-0.248,0.481-0.482,0.733-0.7c0.042-0.035,0.079-0.074,0.12-0.109
			c0.294-0.245,0.601-0.464,0.913-0.664c0.101-0.064,0.205-0.12,0.309-0.179c0.196-0.115,0.395-0.223,0.6-0.319
			c0.119-0.056,0.24-0.104,0.361-0.154c0.199-0.081,0.4-0.153,0.603-0.215c0.196-0.06,0.394-0.125,0.595-0.167l32.75-6.896
			c0.361-0.076,0.718-0.115,1.071-0.129c0.292-0.013,0.585-0.01,0.872,0.018h-0.004V106.779z"/>
		<g>
			<path fill="#3878FF" d="M276.865,106.889c4.83-1.017,9.116,3.608,9.522,10.284l2.751,45.209
				c0.406,6.677-3.216,12.967-8.045,13.984l-32.751,6.897c-4.836,1.017-9.122-3.607-9.528-10.283l-2.752-45.209
				c-0.405-6.677,3.216-12.968,8.053-13.986L276.865,106.889z"/>
		</g>
		<path fill="#F9CCDA" d="M338.703,365.924c-0.158,2.525-0.383,5.235-1.988,7.192c-1.894,2.308-5.127,2.894-8.08,3.327
			c-4.304,0.633-8.605,1.264-12.908,1.896c-0.221,0.636,0.523,1.171,1.161,1.387c3.181,1.077,6.646,0.607,9.987,0.258
			c3.871-0.401,7.762-0.624,11.653-0.664c1.731-0.017,3.788-0.173,4.667-1.665c0.656-1.113,0.355-2.511,0.201-3.793
			c-0.469-3.911,0.631-7.896,0.072-11.793c-0.065-0.45-0.209-0.971-0.635-1.131c-0.217-0.082-0.457-0.047-0.684-0.002
			C338.86,361.602,338.886,362.965,338.703,365.924z"/>
		<path fill="#004FC1" d="M339.878,376.057c-3.207,1.957-6.465,2.488-10.192,2.023c-0.229-0.027-1.479-0.303-1.707-0.327
			c-0.132-0.716-0.06-1.415-0.646-1.393c-2.695,0.104-5.387,0.328-8.063,0.674c-0.85,0.11-4.076,0.186-4.418,0.847
			c-0.303,0.589-0.108,1.342,0.32,1.846c0.43,0.507,1.047,0.809,1.666,1.045c3.057,1.166,6.433,1.028,9.699,0.874
			c4.018-0.188,8.036-0.379,12.052-0.567c1.371-0.064,2.814-0.152,3.966-0.899c1.693-1.098,2.276-3.313,2.317-5.332
			C344.944,371.174,341.036,375.35,339.878,376.057z"/>
		<path fill="#F9CCDA" d="M275.762,372.669c-0.487,2.484-1.065,5.141-2.916,6.87c-2.18,2.037-5.463,2.193-8.446,2.234
			c-4.349,0.062-8.698,0.121-13.046,0.184c-0.301,0.602,0.366,1.229,0.971,1.527c3.012,1.486,6.508,1.475,9.866,1.57
			c3.891,0.109,7.776,0.4,11.639,0.872c1.719,0.211,3.777,0.327,4.845-1.036c0.797-1.018,0.683-2.443,0.699-3.734
			c0.049-3.938,1.664-7.743,1.623-11.682c-0.008-0.453-0.082-0.988-0.482-1.203c-0.202-0.109-0.445-0.107-0.676-0.091
			C276.486,368.406,276.332,369.761,275.762,372.669z"/>
		<path fill="#0553DD" d="M347.406,244.721c0,0-2.914,29.842-4.006,46.229c-1.092,16.386,9.594,51.263,9.228,60.729
			c-0.363,9.468-2.548,14.93-2.548,14.93l-22.923-0.203l-7.79-119.137L347.406,244.721z"/>
		
			<ellipse transform="matrix(0.3673 -0.9301 0.9301 0.3673 68.6056 393.6296)" fill="none" stroke="#0553DD" stroke-miterlimit="10" cx="323.629" cy="146.388" rx="6.481" ry="1.526"/>
		<circle fill="#F9CCDA" cx="336.384" cy="157.093" r="18.201"/>
		<polygon fill="#F9CCDA" points="331.46,165.847 327.515,186.017 338.642,190.189 343.025,165.101 		"/>
		<path fill="#3878FF" d="M348.362,240.439c0,0-33.752,2.246-44.458,6.3c-5.529,16.851-29.414,114.051-31.731,124.145
			c3.622,0.797,19.165,3.085,19.165,3.085s9.949-10.348,19.674-42.72c10.284-34.237,33.34-72.001,35.09-74.778
			C348.78,252.219,348.362,240.439,348.362,240.439z"/>
		<path fill="#F9CCDA" d="M240.251,163.233c-0.192-0.736-0.448-1.515-1.056-1.973c-0.777-0.586-1.887-0.454-2.789-0.087
			c-0.902,0.367-1.725,0.938-2.666,1.187c-1.693,0.446-3.7-0.158-5.101,0.89c-0.815,0.612-1.206,1.74-0.941,2.725
			c0.138,0.509,0.429,0.962,0.642,1.445c0.732,1.645,0.6,3.65,1.664,5.103c0.808,1.103,2.146,1.66,3.416,2.167
			c3.078,1.227,6.158,2.453,9.236,3.68c0.197,0.079,0.426,0.156,0.615,0.063c0.161-0.08,0.244-0.258,0.313-0.425
			c1.288-3.208,0.736-4.757-0.88-7.354C241.303,168.401,240.908,165.759,240.251,163.233z"/>
		<path fill="#004FC1" d="M275.596,382.868c-3.436,1.521-6.735,1.618-10.371,0.667c-0.221-0.057-1.426-0.494-1.648-0.549
			c-0.037-0.727,0.126-1.412-0.459-1.465c-2.686-0.252-5.383-0.383-8.082-0.391c-0.857-0.004-4.066-0.354-4.49,0.258
			c-0.378,0.543-0.285,1.315,0.074,1.873c0.357,0.557,0.932,0.938,1.516,1.253c2.877,1.557,6.241,1.864,9.499,2.141
			c4.009,0.34,8.017,0.681,12.024,1.02c1.367,0.116,2.808,0.221,4.048-0.368c1.823-0.865,2.692-2.985,2.999-4.981
			C281.26,378.695,276.836,382.32,275.596,382.868z"/>
		<path fill="#F9CCDA" d="M238.193,154.964c-0.227-0.575-0.537-1.201-1.125-1.396c-0.701-0.235-1.472,0.306-1.759,0.988
			c-0.288,0.683-0.217,1.455-0.142,2.192c0.207,2.04,0.414,4.081,0.621,6.122c0.118,1.16,0.376,2.525,1.439,3.004
			c0.793,0.356,1.784,0.016,2.333-0.659c1.056-1.298,0.357-2.814,0.144-4.256C239.404,158.9,238.96,156.906,238.193,154.964z"/>
		<path fill="#F6A091" d="M344.266,189.026c-0.622-4.357-4.418-7.551-8.817-7.41c-9.386,0.301-23.591,1.346-25.92,2.584
			c-2.902,1.543-22.612,7.586-28.655,7.586s-31.1-22.693-31.1-22.693l-12.254,13.201c0,0,22.379,28.092,30.745,31.346
			c8.367,3.252,34.636,3.063,34.636,3.063l1.211,30.268c0,0,39.068,7.904,42.787,1.395c3.72-6.506,1.395-31.15,1.395-31.15
			L344.266,189.026z"/>
		
			<linearGradient id="SVGID_5_" gradientUnits="userSpaceOnUse" x1="584.1318" y1="-227.3413" x2="580.6688" y2="-202.7544" gradientTransform="matrix(0.824 0 0 -0.824 -168.7042 47.484)">
			<stop  offset="0" style="stop-color:#D37897;stop-opacity:0"/>
			<stop  offset="0.9368" style="stop-color:#E26356;stop-opacity:0.7"/>
		</linearGradient>
		<polygon fill="url(#SVGID_5_)" points="302.9,216.703 319.367,214.017 303.896,241.583 		"/>
		
			<ellipse transform="matrix(0.3676 -0.93 0.93 0.3676 62.4912 390.9231)" fill="none" stroke="#0553DD" stroke-miterlimit="10" cx="318.678" cy="149.514" rx="6.48" ry="1.526"/>
		<path fill="none" stroke="#0553DD" stroke-width="0.75" stroke-miterlimit="10" d="M317.063,149.208
			c0.725,0.19,19.839,7.306,19.839,7.306"/>
	</g>
	<path fill="#0553DD" d="M334.134,150.83c0.689,2.193-0.726,5.068,0.958,6.635c0.938,0.873,2.376,0.808,3.619,1.115
		c2.254,0.555,4.065,2.597,4.346,4.902c0.281,2.306-0.984,4.722-3.04,5.803c-0.618,0.326-1.311,0.55-1.809,1.038
		c-0.947,0.929-0.874,2.492-0.422,3.739c0.453,1.249,1.212,2.393,1.45,3.698c0.432,2.354-0.883,4.622-1.741,6.858
		c-2.759,7.188-0.839,15.321,2.103,22.437c2.227,5.39,5.113,10.656,9.488,14.512s10.455,6.121,16.138,4.82
		c5.685-1.3,10.478-6.758,9.941-12.565c-0.198-2.157-1.063-4.188-1.85-6.21c-2.243-5.757-3.914-12.309-1.515-18.002
		c1.285-3.048,3.676-5.665,4.226-8.925c0.709-4.213-1.92-8.367-5.284-11.002c-3.362-2.634-7.436-4.169-11.165-6.253
		c-3.729-2.085-7.329-5.006-8.581-9.09c-0.889-2.896-0.499-6.09-1.549-8.933c-1.419-3.843-5.357-6.386-9.416-6.941
		c-3.266-0.447-11.55,0.207-13.129,3.982C325.092,146.777,333.03,147.317,334.134,150.83z"/>
	<path fill="#0553DD" d="M365.575,170.333c1.994-3.132,2.274-7.801-0.589-10.167c-1.197-0.989-2.788-1.456-3.867-2.572
		c-1.702-1.759-1.631-4.501-2.005-6.921c-0.702-4.544-3.431-8.733-7.292-11.23c-3.862-2.498-8.791-3.27-13.237-2.094
		c-1.059,0.28-2.155,0.713-2.783,1.611c-1.001,1.432-0.394,3.481,0.755,4.798c1.146,1.317,2.727,2.169,4.034,3.326
		c3.475,3.071,4.684,7.876,6.378,12.191c2.083,5.303,5.154,10.205,8.98,14.423C361.199,179.482,362.299,175.48,365.575,170.333z"/>
	<path fill="#0553DD" d="M380.475,192.894c1.404,3.058,1.606,6.59,0.899,9.878c-0.644,2.987-2.021,5.813-3.981,8.159
		c-0.879,1.054-1.906,2.033-3.173,2.563c-1.451,0.606-3.082,0.574-4.649,0.445c-5.372-0.44-11.22-2.331-13.798-7.063
		c-2.945-5.409-1.466-20.277,5.67-22.197C367.742,182.986,377.802,187.069,380.475,192.894z"/>
	<path fill="#AFC6F5" d="M411.176,78.212c-2.27-6.325-8.302-10.859-15.41-10.859c-3.236,0-6.248,0.952-8.789,2.574
		c-3.213-8.621-11.519-14.761-21.259-14.761c-8.979,0-16.738,5.218-20.413,12.786c-1.382-0.378-2.83-0.599-4.331-0.599
		c-7.107,0-13.14,4.533-15.41,10.859H411.176z"/>
	<path fill="#AFC6F5" d="M87.602,96.667c-2.27-6.325-8.304-10.858-15.41-10.858c-3.238,0-6.248,0.952-8.79,2.573
		c-3.214-8.621-11.518-14.761-21.258-14.761c-8.979,0-16.739,5.218-20.415,12.786c-1.382-0.378-2.83-0.598-4.331-0.598
		c-7.107,0-13.14,4.533-15.41,10.858H87.602z"/>
	<g>
		<g>
			<path fill="#5BB59B" d="M71.248,280.324c-0.624,6.051,2.389,13.491-2.221,17.459c-2.762,2.377-7.112,2.086-9.888,4.445
				c-4.684,3.98-1.586,11.652,2.309,16.407c3.896,4.755,8.665,10.65,6.25,16.302c-1.225,2.867-4.044,4.703-5.836,7.258
				c-3.979,5.67-2.062,13.777,2.114,19.305c10.76,14.242,33.297,15.097,48.431,5.636c5.49-3.433,10.472-8.269,12.277-14.485
				c1.806-6.219-0.442-13.882-6.239-16.764c-2.344-1.163-5.353-1.746-6.463-4.115c-1.9-4.052,3.444-7.359,6.771-10.354
				c6.288-5.657,5.771-17.112-1-22.182c-2.869-2.147-6.753-3.471-8.103-6.791c-0.957-2.354-0.304-5.01-0.262-7.551
				C109.704,265.664,73.292,260.5,71.248,280.324z"/>
			<g>
				<rect x="89.367" y="292.334" fill="#0553DD" width="0.992" height="79.393"/>
			</g>
			<g>
				<polygon fill="#0553DD" points="89.837,323.695 73.021,309.568 73.659,308.809 89.889,322.441 110.064,308.123 110.639,308.933 
									"/>
			</g>
			<g>
				<polygon fill="#0553DD" points="89.837,357.402 73.021,343.275 73.659,342.516 89.889,356.15 110.064,341.83 110.639,342.64 
									"/>
			</g>
		</g>
	</g>
	<path fill="#61DAFB" d="M151.304,242.57c0.293,9.556,18.768,17.07,41.516,17.07v-3.691c-18.311-0.092-37.518-5.7-37.825-13.377
		h-3.691V242.57z"/>
	<path fill="#61DAFB" d="M213.359,207.409c-8.421-4.523-24.166,7.72-35.541,27.419l3.197,1.846
		c9.234-15.812,23.695-29.642,30.498-26.068L213.359,207.409L213.359,207.409z"/>
	<path fill="#61DAFB" d="M151.304,242.57c0.293-9.556,18.768-17.069,41.516-17.069v3.691c-18.311,0.091-37.518,5.7-37.825,13.378
		H151.304L151.304,242.57z"/>
	<path fill="#61DAFB" d="M172.079,206.588c-8.128,5.03-5.399,24.787,5.975,44.487l3.197-1.846
		c-9.076-15.902-13.822-35.341-7.327-39.446L172.079,206.588z"/>
	<path fill="#61DAFB" d="M172.079,278.755c-8.128-5.03-5.399-24.788,5.975-44.487l3.197,1.845
		c-9.076,15.903-13.822,35.341-7.327,39.446L172.079,278.755L172.079,278.755z"/>
	<path fill="#61DAFB" d="M171.598,206.817c8.422-4.524,24.166,7.718,35.541,27.419l-3.197,1.846
		c-9.234-15.813-23.695-29.641-30.498-26.068L171.598,206.817z"/>
	<path fill="#61DAFB" d="M234.339,242.57c-0.292-9.556-18.769-17.069-41.516-17.069v3.691c18.31,0.091,37.517,5.7,37.825,13.378
		H234.339L234.339,242.57z"/>
	<path fill="#61DAFB" d="M171.709,278.785c0.05,0.029,0.099,0.06,0.148,0.087c8.37,4.833,24.277-7.448,35.742-27.307l-3.18-1.876
		c-9.306,15.953-23.942,29.898-30.678,26.009c-0.068-0.039-0.136-0.081-0.202-0.122L171.709,278.785L171.709,278.785z"/>
	<path fill="#61DAFB" d="M213.596,278.525c-8.422,4.521-24.166-7.722-35.539-27.42l-0.12-0.207l3.153-1.92
		c9.219,15.917,23.797,29.924,30.646,26.357L213.596,278.525L213.596,278.525z"/>
	<path fill="#61DAFB" d="M234.339,242.109c0.003,0.076,0.003,0.153,0.003,0.23c0,9.664-18.588,17.299-41.519,17.299v-3.69
		c18.458-0.091,37.828-5.792,37.828-13.565c0-0.091-0.003-0.183-0.008-0.273H234.339z"/>
	<path fill="#61DAFB" d="M213.12,278.752c8.123-5.034,5.392-24.789-5.979-44.484l-0.203-0.352l-3.24,1.769l0.021,0.038
		c9.205,15.943,14.081,35.621,7.589,39.812L213.12,278.752L213.12,278.752z"/>
	<path fill="#61DAFB" d="M213.338,207.178c8.129,5.031,5.399,24.79-5.975,44.489l-3.197-1.845
		c9.078-15.904,13.821-35.342,7.328-39.447L213.338,207.178L213.338,207.178z"/>
	<circle fill="#61DAFB" cx="192.634" cy="243.014" r="9.872"/>
</g>
<g id="DESIGNED_BY_FREEPIK">
</g>
</svg>
