<?xml version="1.0" encoding="utf-8"?>
<!-- Uploaded to: SVG Repo, www.svgrepo.com, Generator: SVG Repo Mixer Tools -->
<svg width="800px" height="800px" viewBox="0 0 1024 1024" class="icon"  version="1.1" xmlns="http://www.w3.org/2000/svg"><path d="M 866.444 934.484 c -53.335 -13.7221 -189.132 -560.794 -189.132 -560.794 l -2.45963 -0.647269 l 11.7804 -11.3919 c 21.8778 -22.7839 41.0368 -54.8884 41.0368 -91.1355 c 0 -58.2542 -40.9074 -106.929 -95.537 -118.838 v -113.79 c 0 -10.3563 -8.54395 -18.9002 -18.9002 -18.9002 s -18.9002 8.54395 -18.9002 18.9002 V 149.475 c -32.3635 3.10689 -61.1022 18.7709 -81.0381 42.3314 c -20.3243 -23.8195 -49.5808 -39.6129 -82.4622 -42.4608 v -111.46 c 0 -10.3563 -8.54395 -18.9002 -18.9002 -18.9002 s -18.9002 8.54395 -18.9002 18.9002 V 152.064 c -53.9822 12.5571 -94.113 60.8432 -94.113 118.579 c 0 35.3409 16.1817 64.8564 38.9655 89.3232 l 13.7221 13.2043 l -2.45963 0.647269 S 213.35 920.89 160.015 934.614 c -15.1461 2.33017 -26.9264 15.4049 -26.9264 31.1984 c 0 17.3468 14.2399 31.5868 31.5868 31.5868 H 861.525 c 17.3468 0 31.5868 -14.2399 31.5868 -31.5868 c 0.258907 -15.9229 -11.5214 -28.9977 -26.6674 -31.3278 Z" fill="#ff9dc6" /><path d="M 686.633 361.649 c 21.8778 -22.7839 41.0368 -54.8884 41.0368 -91.1355 c 0 -58.2542 -40.9074 -106.929 -95.537 -118.838 v -113.79 c 0 -10.3563 -8.54395 -18.9002 -18.9002 -18.9002 s -18.9002 8.54395 -18.9002 18.9002 V 149.475 c -32.3635 3.10689 -61.1022 18.7709 -81.0381 42.3314 c -20.3243 -23.8195 -49.5808 -39.6129 -82.4622 -42.4608 v -111.46 c 0 -10.3563 -8.54395 -18.9002 -18.9002 -18.9002 s -18.9002 8.54395 -18.9002 18.9002 V 152.064 c -53.9822 12.5571 -94.113 60.8432 -94.113 118.579 c 0 35.3409 16.1817 64.8564 38.9655 89.3232 l 12.8159 12.2981 s 91.7828 8.67341 160.394 8.67341 s 164.665 -8.67341 164.665 -8.67341 l 10.8741 -10.6152 Z" fill="#fc6b8a" /><path d="M 314.843 837.134 c -1.94181 0 -3.75415 -0.776723 -5.04869 -2.45963 c -2.20071 -2.71853 -1.81235 -6.86105 0.906177 -9.06177 c 43.2377 -34.9525 91.7828 -296.966 106.799 -394.834 c 0.517815 -3.49525 3.88362 -5.95488 7.37887 -5.43707 c 3.49525 0.517815 5.95488 3.88362 5.43707 7.37887 c -0.129454 0.906177 -13.8515 89.9703 -34.1758 183.307 c -27.4443 126.477 -53.4644 200.395 -77.2839 219.683 c -1.16509 0.906177 -2.58907 1.42399 -4.01307 1.42399 Z M 708.123 837.134 c -1.42399 0 -2.84798 -0.517815 -4.01307 -1.42399 c -23.8195 -19.2886 -49.8398 -93.2067 -77.2839 -219.683 c -20.3243 -93.3362 -34.0463 -182.401 -34.1758 -183.307 c -0.517815 -3.49525 1.94181 -6.86105 5.43707 -7.37887 c 3.49525 -0.517815 6.86105 1.94181 7.37887 5.43707 c 15.0166 97.9966 63.6913 359.882 106.799 394.834 c 2.71853 2.20071 3.23635 6.34323 0.906177 9.06177 c -1.29454 1.55344 -3.10689 2.45963 -5.04869 2.45963 Z M 512 825.613 c -3.62471 0 -6.47269 -2.84798 -6.47269 -6.47269 l 0.388362 -387.455 c 0 -3.62471 2.84798 -6.47269 6.47269 -6.47269 s 6.47269 2.84798 6.47269 6.47269 l -0.388362 387.455 c 0 3.62471 -2.84798 6.47269 -6.47269 6.47269 Z" fill="#ff6a9b" /><path d="M 316.137 927.235 c 0 -9.06177 -7.37887 -16.4406 -16.4406 -16.4406 c -5.04869 0 -9.45013 2.20071 -12.5571 5.82542 c -2.97744 -3.49525 -7.50832 -5.82542 -12.5571 -5.82542 c -9.06177 0 -16.4406 7.37887 -16.4406 16.4406 c 0 4.78979 2.20071 8.80286 5.30761 12.0391 l 23.69 22.7839 l 23.3017 -22.5249 c 3.10689 -3.10689 5.69597 -7.37887 5.69597 -12.2981 Z M 469.798 940.956 c 0 -9.06177 -7.37887 -16.4406 -16.4406 -16.4406 c -5.04869 0 -9.45013 2.20071 -12.5571 5.82542 c -2.97744 -3.49525 -7.50832 -5.82542 -12.5571 -5.82542 c -9.06177 0 -16.4406 7.37887 -16.4406 16.4406 c 0 4.78979 2.20071 8.80286 5.30761 12.0391 l 23.69 22.7839 l 23.3017 -22.5249 c 3.10689 -3.10689 5.69597 -7.37887 5.69597 -12.2981 Z M 623.33 940.956 c 0 -9.06177 -7.37887 -16.4406 -16.4406 -16.4406 c -5.04869 0 -9.45013 2.20071 -12.5571 5.82542 c -2.97744 -3.49525 -7.50832 -5.82542 -12.5571 -5.82542 c -9.06177 0 -16.4406 7.37887 -16.4406 16.4406 c 0 4.78979 2.20071 8.80286 5.30761 12.0391 l 23.69 22.7839 l 23.3017 -22.5249 c 3.10689 -3.10689 5.69597 -7.37887 5.69597 -12.2981 Z M 779.452 927.235 c 0 -9.06177 -7.37887 -16.4406 -16.4406 -16.4406 c -5.04869 0 -9.45013 2.20071 -12.5571 5.82542 c -2.97744 -3.49525 -7.50832 -5.82542 -12.5571 -5.82542 c -9.06177 0 -16.4406 7.37887 -16.4406 16.4406 c 0 4.78979 2.20071 8.80286 5.30761 12.0391 l 23.69 22.7839 l 23.3017 -22.5249 c 3.10689 -3.10689 5.69597 -7.37887 5.69597 -12.2981 Z" fill="#ff5c7a" /></svg>