<?xml version="1.0" ?>
<!-- Uploaded to: SVG Repo, www.svgrepo.com, Generator: SVG Repo Mixer Tools -->
<svg width="800px" height="800px" viewBox="0 0 64 64" id="svg5" version="1.1" xml:space="preserve" xmlns="http://www.w3.org/2000/svg" xmlns:svg="http://www.w3.org/2000/svg">
<defs id="defs2"/>
<g id="layer1" transform="translate(-288,-480)">
<path d="m 298,489 h 49 v 6 h -49 z" id="path61042" style="fill:#3e4f59;fill-opacity:1;fill-rule:evenodd;stroke-width:2;stroke-linecap:round;stroke-linejoin:round;stroke-miterlimit:4.1"/>
<path d="m 298,495 h 49 v 40 h -49 z" id="path61044" style="fill:#acbec2;fill-opacity:1;fill-rule:evenodd;stroke-width:2.00001;stroke-linecap:round;stroke-linejoin:round;stroke-miterlimit:4.1"/>
<path d="m 298,495 v 40 h 29.76953 a 28.484051,41.392605 35.599482 0 0 18.625,-40 z" id="path61046" style="fill:#e8edee;fill-opacity:1;fill-rule:evenodd;stroke:none;stroke-width:2.00002;stroke-linecap:round;stroke-linejoin:round;stroke-miterlimit:4.1"/>
<path d="m 300,488 c -1.64501,0 -3,1.355 -3,3 v 40 c 0,0.55229 0.44772,1 1,1 0.55229,0 1,-0.44771 1,-1 v -40 c 0,-0.56413 0.43587,-1 1,-1 h 45 c 0.56413,0 1,0.43587 1,1 v 3 h -42 c -0.55228,0 -1,0.44772 -1,1 0,0.55229 0.44772,1 1,1 h 42 v 37 c 0,0.56413 -0.43587,1 -1,1 h -49 c -0.55228,0 -1,0.44772 -1,1 0,0.55229 0.44772,1 1,1 h 49 c 1.64501,0 3,-1.35499 3,-3 0,-14 0,-28 0,-42 0,-1.645 -1.35499,-3 -3,-3 z" id="path61048" style="color:#000000;fill:#000000;fill-rule:evenodd;stroke-linecap:round;stroke-linejoin:round;stroke-miterlimit:4.1"/>
<path d="m 343,491 c -0.55228,0 -1,0.44772 -1,1 0,0.55229 0.44772,1 1,1 0.55229,0 1,-0.44771 1,-1 0,-0.55228 -0.44771,-1 -1,-1 z" id="path61050" style="color:#000000;fill:#ed7161;fill-opacity:1;fill-rule:evenodd;stroke-linecap:round;stroke-linejoin:round;stroke-miterlimit:4.1;-inkscape-stroke:none"/>
<path d="m 339,491 c -0.55228,0 -1,0.44772 -1,1 0,0.55229 0.44772,1 1,1 0.55229,0 1,-0.44771 1,-1 0,-0.55228 -0.44771,-1 -1,-1 z" id="path61052" style="color:#000000;fill:#ecba16;fill-opacity:1;fill-rule:evenodd;stroke-linecap:round;stroke-linejoin:round;stroke-miterlimit:4.1;-inkscape-stroke:none"/>
<path d="m 335,491 c -0.55228,0 -1,0.44772 -1,1 0,0.55229 0.44772,1 1,1 0.55229,0 1,-0.44771 1,-1 0,-0.55228 -0.44771,-1 -1,-1 z" id="path61054" style="color:#000000;fill:#42b05c;fill-opacity:1;fill-rule:evenodd;stroke-linecap:round;stroke-linejoin:round;stroke-miterlimit:4.1;-inkscape-stroke:none"/>
<path d="m 293,534 a 1,1 0 0 0 -1,1 1,1 0 0 0 1,1 1,1 0 0 0 1,-1 1,1 0 0 0 -1,-1 z" id="path61056" style="color:#000000;fill:#000000;fill-rule:evenodd;stroke-linecap:round;stroke-linejoin:round;stroke-miterlimit:4.1;-inkscape-stroke:none"/>
<path d="m 301,494 c -0.55228,0 -1,0.44772 -1,1 0,0.55229 0.44772,1 1,1 0.55229,0 1,-0.44771 1,-1 0,-0.55228 -0.44771,-1 -1,-1 z" id="path61058" style="color:#000000;fill:#000000;fill-rule:evenodd;stroke-linecap:round;stroke-linejoin:round;stroke-miterlimit:4.1;-inkscape-stroke:none"/>
<path d="m 319.37075,505.11566 7.74534,-1.2773 c 0.62712,-0.10342 1.23405,0.27276 1.41988,0.88006 l 2.29525,7.50053 -10.21992,14.58892 -9.54446,-5.91571 a 2.1309095,2.1309095 0 0 1 -0.62267,-3.03384 z" id="path34743" style="fill:#0075d3;fill-opacity:1;fill-rule:evenodd;stroke:none;stroke-width:2;stroke-linecap:round;stroke-linejoin:round;stroke-miterlimit:4.1;stroke-opacity:1"/>
<path d="m 327.34961,503.82227 c -0.077,-0.002 -0.15599,0.003 -0.23438,0.0156 l -7.74414,1.27734 -5.16406,7.3711 a 11.981554,15.525756 0 0 0 -0.0644,1.27734 11.981554,15.525756 0 0 0 3.95898,11.48828 l 2.50977,1.55664 10.2207,-14.58984 -2.29687,-7.5 c -0.1626,-0.53139 -0.64672,-0.88546 -1.18555,-0.89648 z" id="path38013" style="fill:#0588e2;fill-opacity:1;fill-rule:evenodd;stroke:none;stroke-width:2;stroke-linecap:round;stroke-linejoin:round;stroke-miterlimit:4.1"/>
<path d="m 326.95312,502.85156 -7.74414,1.27735 a 1.0001,1.0001 0 0 0 -0.6582,0.41211 l -2.41211,3.44531 a 1,1 0 0 0 0.2461,1.39258 1,1 0 0 0 1.39257,-0.24414 l 2.17188,-3.10157 7.33008,-1.20898 c 0.14079,-0.0232 0.2594,0.0523 0.30078,0.1875 l 2.15234,7.0332 -9.39844,13.41406 -8.74023,-5.41601 c -0.56407,-0.34961 -0.71084,-1.06779 -0.33008,-1.61133 l 4.31055,-6.1543 a 1,1 0 0 0 -0.2461,-1.39257 1,1 0 0 0 -1.39257,0.24609 l -4.31055,6.1543 c -1.02371,1.46134 -0.6025,3.51706 0.91406,4.45703 l 9.54492,5.91601 a 1.0001,1.0001 0 0 0 1.34571,-0.27734 l 10.2207,-14.58789 a 1.0001,1.0001 0 0 0 0.13672,-0.86719 l -2.29492,-7.5 c -0.33028,-1.07937 -1.42562,-1.75784 -2.53907,-1.57422 z" id="path3599" style="color:#000000;fill:#000000;fill-rule:evenodd;stroke-linecap:round;stroke-linejoin:round;stroke-miterlimit:4.1;-inkscape-stroke:none"/>
<path d="m 320,509.11796 6.51693,-5.83531 c 0.53542,-0.47245 1.33487,-0.47245 1.87028,0 L 335,509.11796 V 527 c 0,1.10458 -0.89543,2.00001 -2.00001,2.00001 H 322.00001 C 320.89543,529.00001 320,528.10458 320,527 Z" id="rect34634" style="fill:#ffa221;fill-opacity:1;fill-rule:evenodd;stroke:none;stroke-width:2;stroke-linecap:round;stroke-linejoin:round;stroke-miterlimit:4.1;stroke-opacity:1"/>
<path d="M 322.71289,506.68945 320,509.11719 V 527 c 0,1.10458 0.89542,2 2,2 h 7.49023 a 13.248145,14.244391 0 0 0 2.75782,-8.64062 13.248145,14.244391 0 0 0 -9.53516,-13.66993 z" id="path37991" style="fill:#ffc343;fill-opacity:1;fill-rule:evenodd;stroke:none;stroke-width:2;stroke-linecap:round;stroke-linejoin:round;stroke-miterlimit:4.1"/>
<g id="g34632" style="fill:none;fill-opacity:1;stroke:#474747;stroke-width:1.19207;stroke-opacity:1" transform="matrix(0.82239731,0,0,0.85567634,278.46021,415.59305)">
<path d="m 59.573292,114.72869 a 1.192075,1.192075 0 0 0 -1.192208,1.19377 v 1.09106 c -1.333539,0.47528 -2.315544,1.7226 -2.315544,3.2047 0,1.89806 1.61126,3.41242 3.507752,3.41242 0.662062,0 1.120961,0.47402 1.120961,1.02714 -1e-6,0.55314 -0.458912,1.02715 -1.120961,1.02715 -0.662055,0 -1.12571,-0.47401 -1.125711,-1.02715 a 1.192075,1.192075 0 0 0 -1.192208,-1.19377 1.192075,1.192075 0 0 0 -1.189833,1.19377 c 2e-6,1.48209 0.982014,2.72942 2.315544,3.2047 v 1.09335 a 1.192075,1.192075 0 0 0 1.192208,1.19149 1.192075,1.192075 0 0 0 1.189833,-1.19149 v -1.09335 c 1.334585,-0.47473 2.317915,-1.72184 2.317919,-3.2047 0,-1.89804 -1.611262,-3.41241 -3.507752,-3.41241 -0.662065,0 -1.125711,-0.474 -1.125711,-1.02715 0,-0.55314 0.46364,-1.02715 1.125711,-1.02715 0.662066,0 1.120961,0.47401 1.120961,1.02715 a 1.192075,1.192075 0 0 0 1.194583,1.19378 1.192075,1.192075 0 0 0 1.192208,-1.19378 c 0,-1.48286 -0.983335,-2.72997 -2.317919,-3.2047 v -1.09106 a 1.192075,1.192075 0 0 0 -1.189833,-1.19377 z" id="path34626" style="color:#000000;fill:#000000;fill-rule:evenodd;stroke:none;stroke-linecap:round;stroke-linejoin:round;stroke-miterlimit:4.1"/>
</g>
<path d="m 329.45207,508.99999 c 0,1.10455 -0.89542,1.99997 -1.99999,1.99997 -1.10458,0 -2,-0.89542 -2,-1.99997 0,-1.10454 0.89542,-1.99995 2,-1.99995 1.10457,0 1.99999,0.89541 1.99999,1.99995 z" id="path3567" style="color:#000000;fill:#0075d3;fill-opacity:1;fill-rule:evenodd;stroke-width:2;stroke-linecap:round;stroke-linejoin:round;stroke-miterlimit:4.1;-inkscape-stroke:none"/>
<path d="m 327.45117,500 c -0.55228,0 -1,0.44772 -1,1 v 5.17383 c -1.16038,0.41569 -2,1.53083 -2,2.82617 0,1.64499 1.35499,3 3,3 1.645,0 3,-1.35501 3,-3 0,-1.29534 -0.83961,-2.41048 -2,-2.82617 V 501 c 0,-0.55228 -0.44772,-1 -1,-1 z m 0,8 c 0.56414,0 1,0.43591 1,1 0,0.56411 -0.43586,1 -1,1 -0.56415,0 -1,-0.43589 -1,-1 0,-0.56409 0.43585,-1 1,-1 z" id="path3569" style="color:#000000;fill:#000000;fill-rule:evenodd;stroke-linecap:round;stroke-linejoin:round;stroke-miterlimit:4.1;-inkscape-stroke:none"/>
<path d="m 327.45117,501.93359 c -0.57196,0 -1.14285,0.20002 -1.5957,0.59961 a 1.0001,1.0001 0 0 0 -0.006,0.004 l -6.51758,5.83594 A 1.0001,1.0001 0 0 0 319,509.11719 V 527 c 0,1.64501 1.35499,3 3,3 h 11 c 1.64501,0 3,-1.35499 3,-3 a 1,1 0 0 0 -1,-1 1,1 0 0 0 -1,1 c 0,0.56414 -0.43586,1 -1,1 h -11 c -0.56414,0 -1,-0.43586 -1,-1 v -17.43555 l 6.17773,-5.53125 c 0.16513,-0.1457 0.38177,-0.14569 0.54688,0 L 334,509.56836 V 523 a 1,1 0 0 0 1,1 1,1 0 0 0 1,-1 v -13.88281 a 1.0001,1.0001 0 0 0 -0.33789,-0.75 l -6.61328,-5.83399 c -0.45285,-0.3996 -1.0257,-0.59961 -1.59766,-0.59961 z" id="path3563" style="color:#000000;fill:#000000;fill-rule:evenodd;stroke-linecap:round;stroke-linejoin:round;stroke-miterlimit:4.1;-inkscape-stroke:none"/>
</g>
</svg>