<?xml version="1.0" encoding="iso-8859-1"?>
<!-- Uploaded to: SVG Repo, www.svgrepo.com, Generator: SVG Repo Mixer Tools -->
<svg height="800px" width="800px" version="1.1" id="Layer_1" xmlns="http://www.w3.org/2000/svg" xmlns:xlink="http://www.w3.org/1999/xlink" 
	 viewBox="0 0 460 460" xml:space="preserve">
<g id="XMLID_1689_">
	<g id="T-shirt">
		<path id="XMLID_853_" style="fill:#D2D6D5;" d="M460,37.208v104.771c0,4.687-3.255,8.745-7.831,9.762L370,170v270
			c0,11.046-8.954,20-20,20H110c-11.046,0-20-8.954-20-20V170L7.831,151.74C3.255,150.723,0,146.665,0,141.978V37.208
			c0-4.304,2.754-8.126,6.838-9.487L83.842,2.053C87.921,0.693,92.192,0,96.491,0h267.018c4.299,0,8.57,0.693,12.649,2.053
			l77.004,25.668C457.246,29.082,460,32.903,460,37.208z"/>
		<path id="XMLID_1355_" style="fill:#AAAFAD;" d="M329.504,30c-5.018,50.533-47.65,90-99.504,90l0,0
			c-51.853,0-94.486-39.467-99.504-90h1.506c9.266,45.645,49.619,80,97.998,80l0,0c48.379,0,88.732-34.355,97.998-80H329.504z"/>
		<path id="XMLID_1116_" style="fill:#AAAFAD;" d="M230,80L230,80c-38.66,0-70-31.34-70-70V0h140v10C300,48.66,268.66,80,230,80z"/>
		<path id="XMLID_1117_" style="fill:#D2D6D5;" d="M295,30L295,30H165l0,0c0-16.569,13.431-30,30-30h70C281.569,0,295,13.431,295,30
			z"/>
		<path id="XMLID_1640_" style="fill:#AAAFAD;" d="M60,163.617l17.84-89.2C78.354,71.849,80.609,70,83.228,70
			c3.035,0,5.495,2.46,5.495,5.495V170L60,163.617z"/>
		<path id="XMLID_1641_" style="fill:#AAAFAD;" d="M370,170V75.495c0-3.035,2.46-5.495,5.495-5.495c2.619,0,4.875,1.849,5.388,4.417
			l17.84,89.2L370,170z"/>
	</g>
	<g id="Print_2_">
		<path id="XMLID_1642_" style="fill:#F49638;" d="M240.351,305.713L240.351,305.713c-5.716,5.716-14.985,5.716-20.701,0
			l-28.982-28.982c-5.716-5.716-5.716-14.985,0-20.701l0,0c5.716-5.716,14.985-5.716,20.701,0l28.982,28.982
			C246.067,290.728,246.067,299.996,240.351,305.713z"/>
		<path id="XMLID_1643_" style="fill:#AD1251;" d="M269.332,293.292L269.332,293.292c-5.717,5.716-14.985,5.716-20.701,0
			l-62.104-62.104c-5.716-5.716-5.716-14.985,0-20.701l0,0c5.716-5.716,14.985-5.716,20.701,0l62.104,62.104
			C275.049,278.307,275.049,287.575,269.332,293.292z"/>
		<path id="XMLID_1644_" style="fill:#7FA3BA;" d="M273.473,256.03L273.473,256.03c-5.716,5.716-14.985,5.716-20.701,0
			l-62.104-62.104c-5.716-5.716-5.716-14.985,0-20.701l0,0c5.716-5.716,14.985-5.716,20.701,0l62.104,62.104
			C279.189,241.045,279.189,250.313,273.473,256.03z"/>
		<path id="XMLID_1113_" style="fill:#E25C56;" d="M269.332,210.487L269.332,210.487c-5.717,5.716-14.985,5.716-20.701,0
			l-28.982-28.982c-5.716-5.716-5.716-14.985,0-20.701l0,0c5.716-5.716,14.985-5.716,20.701,0l28.982,28.982
			C275.049,195.502,275.049,204.771,269.332,210.487z"/>
		<path id="XMLID_1137_" style="fill:#F49638;" d="M169.967,235.329L169.967,235.329c-5.716,5.716-14.985,5.716-20.701,0l0,0
			c-5.716-5.716-5.716-14.985,0-20.701l0,0c5.716-5.716,14.985-5.716,20.701,0l0,0C175.683,220.344,175.683,229.612,169.967,235.329
			z"/>
		<path id="XMLID_1112_" style="fill:#E25C56;" d="M310.735,251.889L310.735,251.889c-5.716,5.716-14.985,5.716-20.701,0l0,0
			c-5.716-5.716-5.716-14.985,0-20.701l0,0c5.716-5.716,14.985-5.716,20.701,0l0,0C316.451,236.905,316.451,246.173,310.735,251.889
			z"/>
	</g>
</g>
</svg>