<?xml version="1.0" encoding="utf-8"?>
<!-- Uploaded to: SVG Repo, www.svgrepo.com, Generator: SVG Repo Mixer Tools -->
<svg width="800px" height="800px" viewBox="0 0 1024 1024" class="icon"  version="1.1" xmlns="http://www.w3.org/2000/svg"><path d="M264 378.96V464h-8l-136-56s12.88-57.28 24.8-112A530.72 530.72 0 0 0 264 378.96z" fill="#9368C9" /><path d="M206.32 150.08C255.12 216 263.28 298.16 264 378.96A530.72 530.72 0 0 1 144.8 296c5.92-27.04 11.52-53.52 15.2-72a134.72 134.72 0 0 1 46.32-73.92z" fill="#4AA483" /><path d="M723.68 97.68a162.56 162.56 0 0 0-16 15.44 177.6 177.6 0 0 0-44.64 131.6c2.64 32.64 14.32 64 22.64 95.44a464.88 464.88 0 0 1 13.6 77.6c-6.4-8-13.68-16-20.88-23.28a360.56 360.56 0 0 0-50.56-48c-50.72-36-117.44-40.72-179.84-36.24-12.96 0.96-28.4 3.76-42.32 6.08-24-30.32-48.96-59.92-65.36-94.72a305.68 305.68 0 0 1-29.2-127.6A285.68 285.68 0 0 1 384 80h256a301.28 301.28 0 0 1 83.68 17.68z" fill="#FFD53E" /><path d="M699.2 417.76a475.76 475.76 0 0 1 1.68 56.48c-1.2 39.2-8 80-33.2 110.64-22.4 27.28-56 42-88.72 55.44l-2.96 1.28-123.92 50.64a324.08 324.08 0 0 0 29.68-79.36A334.16 334.16 0 0 0 472 432a324.16 324.16 0 0 0-40-80.64c-8-12-17.2-24-26.24-35.12 13.92-2.32 29.36-5.12 42.32-6.08 62.16-4.48 128.88 0 179.52 36.56a360.56 360.56 0 0 1 50.56 48c7.36 7.28 14.64 14.88 21.04 23.04z" fill="#55C578" /><path d="M588 714.08c15.2 48 51.6 85.92 95.52 111.28a347.28 347.28 0 0 0-92.88 58.4c-13.92 12.72-27.04 27.92-30.64 46.4a50.56 50.56 0 0 0-0.8 13.84H240c3.44-46 6.08-90.56 8-132.96A276.32 276.32 0 0 1 286.64 776c44.8-34 97.52-56 149.68-77.04l16-6.48L576 641.6l3.12-1.28a224.56 224.56 0 0 0 8.88 73.76z" fill="#E455AF" /><path d="M560 930.16c3.6-18.48 16.72-33.68 30.64-46.4a347.28 347.28 0 0 1 92.88-58.4l1.28-0.64c29.76-13.28 60.88-24 89.68-38.8 2.32 49.76 5.36 102.88 9.44 158.08H559.2a50.56 50.56 0 0 1 0.8-13.84z" fill="#9368C9" /><path d="M904 408l-68.4 28.16c-0.8-2-1.52-4.08-2.24-6.16a217.36 217.36 0 0 1 1.44-134.4 320.48 320.48 0 0 1 30.24-66.64C876.72 287.2 904 408 904 408z" fill="#FFD53E" /><path d="M865.04 228.88a320.48 320.48 0 0 0-30.24 67.12 217.36 217.36 0 0 0-1.44 134.4c0.72 2.08 1.44 4.16 2.24 6.16L768 464h-8c0-105.52-8.48-224 57.68-313.92A134.72 134.72 0 0 1 864 224c0 1.6 0.64 3.2 1.04 4.88z" fill="#FC9C5E" /><path d="M472 432a334.16 334.16 0 0 1 9.6 180.8 324.08 324.08 0 0 1-29.68 79.36l-16 6.48C384 720 331.44 741.76 286.64 776a276.32 276.32 0 0 0-38.4 35.28c5.36-108 7.04-202.08 7.52-270.72a392.96 392.96 0 0 0 99.2-14.64 201.28 201.28 0 0 0 68.4-32A188.08 188.08 0 0 0 472 432z" fill="#4AA483" /><path d="M684.88 824.72l-1.28 0.64C640 800 603.2 761.92 588 714.08A224.56 224.56 0 0 1 578.96 640c32.64-13.44 66.32-28.16 88.72-55.44 24.96-30.24 32-71.44 33.2-110.64a475.76 475.76 0 0 0-1.68-56.48 464.88 464.88 0 0 0-13.6-77.6c-8-32-20-62.8-22.64-95.44a177.6 177.6 0 0 1 44.64-131.6 162.56 162.56 0 0 1 16-15.44 288.56 288.56 0 0 1 94 52.4C751.52 240 760 358.48 760 464h8c0 59.52 0 176.8 6.56 321.92-28.8 14.96-59.92 25.52-89.68 38.8zM432 351.44A324.16 324.16 0 0 1 472 432a188.08 188.08 0 0 1-48.8 61.76 201.28 201.28 0 0 1-68.4 32A392.96 392.96 0 0 1 256 540.32V464h8c0-27.68 0.56-56 0-85.04-0.96-80.8-9.12-162.72-57.92-228.88a297.04 297.04 0 0 1 105.04-56 305.68 305.68 0 0 0 29.2 128c16 34.8 41.36 64.4 65.36 94.72C414.96 328 424 339.44 432 351.44z" fill="#3DBADA" /><path d="M640 80c0 88-57.36 160-128 160s-128-71.52-128-160z" fill="#953745" /></svg>